<svg width="135" height="156" viewBox="0 0 135 156" fill="none" xmlns="http://www.w3.org/2000/svg">
<mask id="mask0_161_133" style="mask-type:luminance" maskUnits="userSpaceOnUse" x="0" y="0" width="135" height="125">
<path d="M0.933472 0.0734558H134.405V124.495H0.933472V0.0734558Z" fill="white"/>
</mask>
<g mask="url(#mask0_161_133)">
<path d="M132.785 51.456C132.648 51.4475 132.509 51.4518 132.37 51.4731L131.46 50.3686L122.946 34.9343L126.174 32.07C126.626 32.3722 127.219 32.4871 127.798 32.3381C127.851 32.3232 127.902 32.3062 127.953 32.2892L132.785 51.456ZM132.099 64.4794C131.881 64.207 131.582 64.0027 131.246 63.8857L132.477 54.9098C132.706 54.9311 132.943 54.914 133.179 54.8523C133.2 54.8481 133.221 54.8396 133.242 54.8332L132.099 64.4794ZM130.507 77.9219C130.141 77.79 129.749 77.7176 129.348 77.7176L130.788 67.2266C130.887 67.2181 130.991 67.2011 131.093 67.1734C131.374 67.1011 131.619 66.9734 131.823 66.8074L130.507 77.9219ZM128.491 77.8262C128.032 77.9475 127.624 78.156 127.284 78.4263L117.145 65.5625C117.681 65.254 118.012 64.7156 118.028 64.1368L128.7 65.3242C128.676 65.537 128.693 65.7583 128.762 65.9796C128.957 66.6095 129.506 67.0585 130.157 67.1968L128.704 77.7794C128.635 77.7921 128.563 77.8091 128.491 77.8262ZM120.13 93.8798L119.926 92.205L127.302 82.8036C127.423 82.8972 127.553 82.9823 127.687 83.061L121.356 94.3373C121.011 94.0436 120.575 93.8755 120.13 93.8798ZM108.727 106.963C108.655 106.892 108.581 106.824 108.502 106.761L117.386 95.4396L118.489 95.6056C118.489 95.7843 118.52 95.9695 118.575 96.1525C118.705 96.5674 118.958 96.9122 119.277 97.1569L108.727 106.963ZM94.8132 115.196C94.5815 114.83 94.213 114.56 93.789 114.428L94.1644 113.417L103.575 110.167C103.631 110.274 103.696 110.378 103.765 110.476L94.8132 115.196ZM74.5991 120.744C74.5412 120.571 74.4647 120.405 74.3767 120.25L82.441 117.464L91.3164 116.347C91.328 116.411 91.3419 116.477 91.3604 116.541C91.365 116.547 91.3674 116.554 91.3674 116.558L74.5991 120.744ZM58.9293 120.848C58.9432 120.71 58.9386 120.569 58.9154 120.429L70.2194 119.005C69.1441 119.482 68.4651 120.482 68.4489 121.561L58.9293 120.848ZM43.1158 116.8C43.3684 116.226 43.4263 115.57 43.227 114.928C43.1367 114.636 42.9999 114.368 42.8285 114.128L51.2844 108.895L56.4868 119.05C55.8936 119.22 55.4556 119.637 55.2656 120.143L43.1158 116.8ZM36.3399 101.034L44.2722 99.2125C44.2861 99.2679 44.3 99.3253 44.3162 99.3806C44.6198 100.364 45.6255 100.962 46.5617 100.719C46.7216 100.677 46.8653 100.613 46.9997 100.532L51.0133 108.365L42.4299 113.679C41.7439 113.044 40.7591 112.723 39.7557 112.855L36.3399 101.034ZM24.9224 102.27L23.6085 101.189L29.3254 79.0136L33.9229 94.9246L24.9224 102.27ZM35.6957 101.062L26.1228 103.258L25.0174 102.349L33.96 95.0502L35.6957 101.062ZM39.1439 112.993C38.8681 113.083 38.6132 113.204 38.3838 113.353L26.2363 103.351L35.7281 101.175L39.1439 112.993ZM24.5447 103.62C24.5331 103.566 24.5192 103.511 24.503 103.458C24.4474 103.277 24.3686 103.109 24.2689 102.958L24.5424 102.734L25.3836 103.428L24.5447 103.62ZM23.3489 102.196L23.444 101.83L24.4474 102.658L24.1994 102.86C23.9793 102.56 23.6803 102.33 23.3489 102.196ZM22.2575 102.117C22.086 102.164 21.9284 102.234 21.7871 102.326L19.4489 98.5422L23.3374 101.743L23.2308 102.153C22.9202 102.053 22.5842 102.034 22.2575 102.117ZM18.4756 96.9632L16.5615 93.8649C16.675 93.4074 16.6681 92.9179 16.5198 92.4349C16.3529 91.8943 16.0285 91.4326 15.6044 91.0815L27.0242 77.6879C27.6128 78.0964 28.3498 78.3114 29.1098 78.2688L29.2581 78.7774L23.5019 101.102L18.4756 96.9632ZM16.0215 94.9416C16.244 94.665 16.4108 94.3543 16.5151 94.0245L18.179 96.7206L16.0215 94.9416ZM4.03627 73.5787C4.73611 73.251 5.14396 72.5509 5.04895 71.8273L19.5369 67.765L26.387 73.6745C25.8331 74.3682 25.6199 75.2811 25.8957 76.1727C26.0278 76.6026 26.2595 76.9814 26.5608 77.2942L15.0992 90.7388C14.8999 90.6303 14.6891 90.5409 14.4689 90.475L4.03627 73.5787ZM12.6336 90.4431C12.5409 90.4665 12.4505 90.4941 12.3648 90.5239L3.69099 73.7042C3.76978 73.683 3.84625 73.6574 3.92041 73.6276L14.2951 90.4282C13.7668 90.3005 13.1967 90.2962 12.6336 90.4431ZM3.39437 57.5123C3.89028 57.6123 4.41863 57.606 4.94004 57.4719C5.22043 57.3974 5.47997 57.291 5.71866 57.1591L3.44535 70.3186C3.31558 70.3016 3.18118 70.2973 3.04677 70.3058L3.39437 57.5123ZM8.5319 36.4792C8.74973 36.6133 8.99305 36.7048 9.24333 36.741L7.64437 45.9999L4.39546 51.8136C4.33753 51.8093 4.28191 51.805 4.22398 51.8029L8.5319 36.4792ZM21.5878 19.8936C21.7152 20.0426 21.8566 20.1809 22.0095 20.3022L18.2462 27.0352L10.7357 33.8533C10.5619 33.6277 10.3441 33.4447 10.1007 33.3128L21.5878 19.8936ZM39.1068 7.45335C39.1648 7.60869 39.2459 7.75127 39.3432 7.88108L33.4201 13.2564L26.4426 16.2164C26.3476 16.1164 26.2456 16.0228 26.1367 15.9355L39.1068 7.45335ZM55.1683 3.48251C55.1845 3.57401 55.2077 3.66339 55.2355 3.75489C55.2586 3.82724 55.2865 3.90173 55.3143 3.97195L49.1247 6.59577L42.7682 7.05754C42.7914 6.84687 42.7752 6.62982 42.708 6.41489C42.6709 6.29785 42.6222 6.18506 42.562 6.08079L55.1683 3.48251ZM81.1827 3.97408C81.1595 4.07196 81.1456 4.17198 81.141 4.27412L70.326 5.05723L61.3903 3.30801C61.4042 3.20374 61.4112 3.1016 61.4112 2.9952L81.1827 3.97408ZM101.876 10.6943C101.795 10.8581 101.728 11.0284 101.682 11.2029L85.8869 8.10664L84.2624 5.64243C84.5196 5.43814 84.7097 5.17427 84.8186 4.88273L101.876 10.6943ZM126.158 29.2759C126.069 29.3377 125.988 29.4036 125.914 29.4738L118.35 24.5497C118.48 24.222 118.503 23.8517 118.392 23.4899C118.107 22.5664 117.062 22.0322 116.061 22.2919C116.047 22.2961 116.035 22.3004 116.024 22.3025L107.737 12.7712C107.751 12.7244 107.767 12.6797 107.781 12.6329L126.158 29.2759ZM117.671 25.3711C117.95 25.1881 118.165 24.9412 118.302 24.6582L125.831 29.5611C125.446 29.9867 125.291 30.5719 125.465 31.1422C125.574 31.4912 125.791 31.7827 126.072 31.9998L122.888 34.8279L117.671 25.3711ZM122.067 35.5557C121.34 34.7875 120.195 34.4044 119.057 34.6215L115.261 28.3694L116.149 25.652C116.45 25.7158 116.772 25.7137 117.09 25.6307C117.261 25.586 117.421 25.5179 117.565 25.437L122.793 34.9109L122.067 35.5557ZM122.225 39.1669C122.781 38.4731 122.997 37.5581 122.721 36.6622C122.603 36.2792 122.403 35.9366 122.149 35.645L122.853 35.0194L131.033 49.8494L122.225 39.1669ZM130.845 53.6564C130.873 53.7436 130.908 53.8266 130.947 53.9075L125.154 57.7315L116.302 45.0997L118.339 40.0606C119.004 40.3522 119.785 40.433 120.552 40.233C121.029 40.1096 121.449 39.8883 121.796 39.6031L131.745 51.671C130.996 52.054 130.604 52.869 130.845 53.6564ZM125.497 58.2188L131.302 54.3863C131.464 54.5395 131.654 54.6651 131.865 54.7544L130.628 63.7708C130.442 63.7665 130.25 63.7878 130.062 63.8367C129.886 63.8835 129.722 63.9516 129.573 64.0368L125.497 58.2188ZM117.813 63.292L125.393 58.2869L129.471 64.1027C129.07 64.3687 128.804 64.7667 128.718 65.2093L118.024 64.0197C118.019 63.8878 117.996 63.7559 117.956 63.6239C117.919 63.5069 117.873 63.3962 117.813 63.292ZM113.931 50.9602L116.246 45.2338L125.052 57.7996L117.43 62.8323C117.06 62.5152 116.559 62.3407 116.04 62.3663L113.931 50.9602ZM126.322 81.3969C126.331 81.4225 126.341 81.4501 126.35 81.4757L119.032 84.9337L117.991 76.4728L126.285 79.9499C126.167 80.4117 126.171 80.9075 126.322 81.3969ZM119.046 85.0571L126.392 81.5863C126.503 81.8779 126.665 82.1439 126.862 82.378L119.82 91.3496L119.046 85.0571ZM106.72 106.054L106.449 93.7861L116.691 95.3353L107.99 106.424C107.603 106.222 107.169 106.092 106.72 106.054ZM97.1329 105.433L103.455 107.967C103.258 108.482 103.214 109.055 103.367 109.621L94.4286 112.708L97.1329 105.433ZM92.7601 113.285L91.2167 103.058L97.017 105.386L94.2756 112.761L92.7601 113.285ZM92.92 114.351L92.8481 113.87L94.0114 113.47L93.6685 114.394C93.4298 114.334 93.1772 114.319 92.92 114.351ZM91.423 114.364L91.861 114.826C91.4577 115.185 91.2445 115.702 91.3002 116.232L82.974 117.281L91.423 114.364ZM71.6005 118.713C71.5843 118.713 71.5657 118.713 71.5495 118.713L72.6804 98.4188C73.1415 98.4954 73.6235 98.4805 74.1032 98.3571C74.6663 98.2102 75.1506 97.9293 75.5261 97.5655L90.9827 113.898L80.1584 117.635L71.6005 118.713ZM72.159 118.76L79.6254 117.82L74.0152 119.756C73.5424 119.235 72.882 118.882 72.159 118.76ZM47.7574 98.6997L70.1012 95.7375C70.1151 95.9461 70.1498 96.1546 70.2147 96.3631C70.2263 96.3972 70.2379 96.4312 70.2495 96.4653L51.1199 108.301L47.1016 100.462C47.63 100.081 47.8965 99.4019 47.7574 98.6997ZM34.4861 94.6203L47.1642 84.2761L51.0782 86.0743L46.6243 97.2675C46.2628 97.1037 45.8572 97.0569 45.4633 97.159C44.6151 97.3803 44.1169 98.2145 44.2536 99.0976L36.3075 100.921L34.4861 94.6203ZM31.594 64.3857C31.8281 64.7433 32.1896 65.0071 32.6067 65.1391L29.5154 72.5445C29.0496 72.4636 28.5537 72.4764 28.0647 72.6019C27.5827 72.7296 27.1563 72.9531 26.8087 73.2446L20.2321 67.5714L31.594 64.3857ZM12.8746 61.2257L23.685 48.7961C24.0835 48.9705 24.5516 49.0195 25.0105 48.9003C25.0406 48.8918 25.0707 48.8812 25.1008 48.8727L32.1803 62.0471C31.5083 62.4514 31.1676 63.2239 31.3994 63.9708C31.4202 64.0431 31.4503 64.1134 31.4805 64.1815L20.0653 67.4288L12.8746 61.2257ZM6.51119 56.5292L12.388 61.6002L4.43486 70.7463C4.19154 70.5442 3.8926 70.4037 3.57049 70.3399L5.86002 57.074C6.10565 56.9207 6.32348 56.7356 6.51119 56.5292ZM6.46948 52.8073C6.08712 52.3987 5.58889 52.0966 5.03505 51.9348L7.32921 47.8321L6.46948 52.8073ZM6.87733 53.3606L22.7233 47.8278C22.8832 48.2279 23.189 48.5471 23.5691 48.7429L12.7819 61.1469L6.86342 56.0397C7.22956 55.4056 7.34079 54.6459 7.11138 53.9011C7.05113 53.7117 6.97234 53.5308 6.87733 53.3606ZM12.8862 37.8858L22.9017 46.3042C22.7094 46.5829 22.6051 46.9106 22.6074 47.249L6.58998 52.8435L7.51228 47.5022L12.8862 37.8858ZM9.91535 36.7048C10.2792 36.6111 10.5781 36.4026 10.7913 36.126L12.4065 37.4815L7.82975 45.67L9.36846 36.7559C9.54922 36.7686 9.7346 36.7516 9.91535 36.7048ZM11.1204 34.7343L14.3901 33.932L12.4644 37.3751L10.8631 36.0281C11.1018 35.6663 11.2015 35.2067 11.1204 34.7343ZM14.4666 33.7937L11.0972 34.6193C11.0879 34.5747 11.0763 34.53 11.0624 34.4832C11.0022 34.2916 10.9141 34.1129 10.8075 33.9533L18.0608 27.365L14.4666 33.7937ZM24.5122 21.5088L24.496 31.3358L15.2869 33.5936L19.4975 26.0605L24.5122 21.5088ZM24.5122 20.9789V21.3449L19.6829 25.7307L22.5309 20.6384C23.1172 20.9427 23.8124 21.0704 24.5122 20.9789ZM40.7081 10.8028L41.1275 25.703C41.0673 25.7137 41.0094 25.7264 40.9514 25.7413C40.4856 25.8626 40.1102 26.1372 39.8715 26.4861L26.862 19.451C26.8898 19.402 26.9176 19.3531 26.9408 19.302L32.4398 14.3098L40.7081 10.8028ZM40.6455 8.60672L40.6896 10.1751L33.7561 13.1159L39.4173 7.97471C39.7232 8.3237 40.1635 8.54927 40.6455 8.60672ZM45.3219 8.20879L42.6408 7.53421C42.6917 7.4193 42.7288 7.29801 42.752 7.17458L48.7956 6.73622L45.3219 8.20879ZM56.8646 6.15102L55.2077 10.6964L46.2651 8.44712L50.6078 6.60428L56.8646 6.15102ZM57.0523 5.63391L56.9063 6.03185L50.9368 6.46596L55.59 4.49118C55.9399 5.00828 56.4567 5.40409 57.0523 5.63391ZM60.6997 5.75734L60.2849 5.18278C60.7368 4.83592 61.0705 4.38052 61.2536 3.87193L68.1222 5.21683L60.6997 5.75734ZM77.8503 7.12351L68.2033 12.9436C67.7421 12.6095 67.1211 12.4733 66.5139 12.6329C66.2706 12.6946 66.0528 12.801 65.8651 12.9351L60.7785 5.86799L68.5555 5.30195L77.8503 7.12351ZM81.2128 4.804C81.2383 4.88699 81.2707 4.9636 81.3078 5.0402L78.5919 6.67876L70.757 5.14235L81.1433 4.38904C81.1479 4.52736 81.1688 4.66568 81.2128 4.804ZM94.0833 20.781L91.8192 22.8451C88.473 21.5875 83.8476 19.8447 79.3033 18.1338C75.6188 16.7463 71.9365 15.361 68.9147 14.2246C68.9077 14.0927 68.8869 13.9608 68.8475 13.8288C68.7479 13.5054 68.5532 13.233 68.3029 13.0223L78.0241 7.15756L86.1626 8.75356L94.0833 20.781ZM102.094 13.4756L94.1737 20.698L86.3318 8.78548L101.591 11.7753C101.578 12.0754 101.612 12.3839 101.707 12.6882C101.795 12.9755 101.927 13.2372 102.094 13.4756ZM105.593 14.6822C105.779 14.6332 105.953 14.5715 106.12 14.4949L111.841 23.924L98.6507 24.488C98.2916 23.6836 97.3252 23.2367 96.3913 23.4814C96.2824 23.5091 96.1781 23.5474 96.0808 23.5921L94.5097 21.2066L102.491 13.9267C103.272 14.6545 104.449 14.9801 105.593 14.6822ZM112.613 24.007L114.684 23.9177C114.68 24.0879 114.703 24.2624 114.756 24.4348C114.93 24.9944 115.384 25.4115 115.94 25.5924L115.127 28.146L112.613 24.007ZM116.578 37.0282L112.573 36.6133L115.011 29.1419L118.443 34.7981C117.426 35.2024 116.735 36.0579 116.578 37.0282ZM112.65 39.8883C113.106 39.4584 113.31 38.8221 113.118 38.2029C112.993 37.7964 112.719 37.4645 112.367 37.2432L112.39 37.1772L116.55 37.6071C116.561 37.8156 116.599 38.0284 116.663 38.2412C116.858 38.869 117.264 39.3882 117.79 39.7542L115.875 44.4911L112.65 39.8883ZM111.962 40.299C112.186 40.2224 112.386 40.1074 112.555 39.9691L115.82 44.6273L113.72 49.8196L111.962 40.299ZM110.722 57.2378L103.832 49.1025C104.37 48.6748 104.623 47.9874 104.416 47.3192C104.333 47.0511 104.185 46.817 103.995 46.6255L110.203 40.0862C110.655 40.3798 111.241 40.4947 111.816 40.3437C111.825 40.3415 111.832 40.3394 111.841 40.3351L113.632 50.0367L110.722 57.2378ZM115.241 62.5727L111.176 57.7741L113.846 51.1773L115.913 62.3769C115.818 62.3876 115.72 62.4025 115.623 62.428C115.486 62.4642 115.359 62.5131 115.241 62.5727ZM108.835 71.9295C109.09 71.3549 109.146 70.6995 108.947 70.0547C108.87 69.8058 108.759 69.5738 108.622 69.361L114.777 65.2965C115.222 65.7221 115.889 65.9243 116.552 65.786L117.771 75.7067L108.835 71.9295ZM106.008 73.734C106.263 73.7276 106.523 73.6915 106.778 73.6255C107.505 73.434 108.101 73.0254 108.502 72.4977L117.859 76.4174L118.911 84.9911L106.386 90.9112L106.008 73.734ZM103.503 92.2731C103.186 91.8582 102.72 91.5858 102.224 91.5241L105.181 73.6532C105.246 73.6681 105.311 73.6808 105.378 73.6915L105.763 91.2049L103.503 92.2731ZM103.906 93.2839C103.893 93.1563 103.869 93.0286 103.828 92.9009C103.77 92.7072 103.682 92.5306 103.573 92.3689L105.765 91.3347L105.816 93.5733L103.906 93.2839ZM101.1 94.7565C101.545 95.1119 102.124 95.2672 102.683 95.1225C103.459 94.9204 103.944 94.2011 103.913 93.401L105.818 93.6904L106.089 106.058C105.913 106.075 105.739 106.105 105.563 106.15C104.762 106.358 104.122 106.837 103.723 107.446L97.3368 104.882L101.1 94.7565ZM88.4174 84.4847L90.0604 83.2355L100.574 92.3455C100.345 92.7562 100.28 93.2712 100.437 93.784C100.546 94.1373 100.746 94.4394 101.001 94.6714L97.2209 104.837L91.1148 102.387L88.4174 84.4847ZM76.2537 96.4227C76.4252 95.9077 76.4437 95.3438 76.2722 94.7863C76.1842 94.5011 76.0521 94.2373 75.8852 94.0011L88.3015 84.5719L90.9804 102.332L76.2537 96.4227ZM69.5103 79.8393L86.1974 81.2139C86.1904 81.4204 86.2159 81.6332 86.2808 81.846C86.3411 82.0417 86.4314 82.2226 86.5427 82.3843L75.3453 93.4223C74.6084 92.8179 73.5795 92.5434 72.5576 92.7541L69.5103 79.8393ZM55.7615 79.6265C55.9399 79.3605 56.0396 79.0498 56.0396 78.7284L68.8521 79.7839L71.9574 92.9371C71.7025 93.0413 71.4684 93.1733 71.2598 93.3307L55.7615 79.6265ZM51.4072 85.5785L53.4882 80.3478C53.8543 80.4734 54.2622 80.4989 54.6677 80.3947C55.0987 80.2819 55.451 80.0393 55.692 79.7265L71.1625 93.4052C70.8474 93.6606 70.5948 93.9691 70.4117 94.3118L51.4072 85.5785ZM52.6609 79.7903C52.8509 80.0137 53.0966 80.1882 53.3723 80.3053L51.2937 85.5274L47.6717 83.8633L52.6609 79.7903ZM31.7956 76.5685C32.0783 75.9897 32.1571 75.3236 31.9717 74.664L42.7334 70.3782L52.8672 77.4559C52.3643 77.8836 52.1349 78.5497 52.3342 79.1987C52.3898 79.3796 52.4778 79.5477 52.5868 79.6967L47.5489 83.8058L31.7956 76.5685ZM31.4805 77.0686L47.0437 84.2208L34.4513 94.4948L29.7355 78.1773C29.7517 78.173 29.768 78.1688 29.7842 78.1645C30.4956 77.9794 31.0819 77.5815 31.4805 77.0686ZM30.7412 73.0233C30.5466 72.8977 30.3403 72.7935 30.1202 72.7105L31.9532 68.3225L30.7412 73.0233ZM33.7306 65.1667C34.0689 65.0795 34.3586 64.9092 34.5857 64.6901L42.1055 69.9398L31.7377 74.0894C31.5222 73.6936 31.2163 73.3574 30.8502 73.0978L32.2915 67.5139L33.244 65.2306C33.4039 65.2284 33.5684 65.2093 33.7306 65.1667ZM26.3499 47.5576L40.0245 47.3703L33.9577 61.9045C33.573 61.7534 33.1327 61.7172 32.7017 61.83C32.5534 61.8683 32.4167 61.9215 32.2892 61.9896L25.219 48.8322C25.8169 48.6045 26.2317 48.1172 26.3499 47.5576ZM24.4729 45.4998C24.3106 45.5019 24.1438 45.5211 23.9793 45.5636C23.5598 45.6722 23.2122 45.9062 22.9735 46.2084L12.9464 37.7815L15.2105 33.732L24.496 31.455L24.4729 45.4998ZM33.814 29.1717L36.7825 32.4765L25.7057 45.902C25.3975 45.6636 25.0082 45.5232 24.6003 45.5019L24.6212 31.4252L33.814 29.1717ZM39.5958 27.6331L34.3934 28.9099L26.424 20.0362C26.5677 19.8894 26.6952 19.7255 26.8018 19.5531L39.8067 26.5862C39.6213 26.899 39.5425 27.2629 39.5958 27.6331ZM42.3974 28.9184L46.3485 34.9939L45.2385 38.0369C44.5989 37.7837 43.862 37.7241 43.139 37.9114C42.9629 37.956 42.796 38.0156 42.6384 38.0858L37.2553 32.0934L40.1172 28.6248C40.5853 29.061 41.2944 29.2589 41.9826 29.078C42.1309 29.0397 42.27 28.9844 42.3974 28.9184ZM59.9837 33.5702L48.879 29.8739L51.8429 21.745L65.2186 14.7907C65.3877 15.3184 65.8048 15.7142 66.3216 15.9079L59.9837 33.5702ZM68.5601 17.7273L75.4542 34.2406L66.9913 35.9025L60.1019 33.6107L66.4398 15.9483C66.7179 16.0334 67.0214 16.0568 67.3273 16.0121L68.5601 17.7273ZM82.2602 31.5635C81.4793 30.84 80.3067 30.5187 79.1643 30.8166C79.0461 30.8464 78.9302 30.8847 78.8167 30.9294L67.9414 15.8185C68.5277 15.5227 68.8985 14.9588 68.917 14.3502C71.9319 15.4844 75.5909 16.8612 79.2546 18.2402C83.6136 19.883 87.9748 21.5237 91.2445 22.7536C91.4068 22.8154 91.5667 22.8749 91.7219 22.9324L82.2602 31.5635ZM95.2002 24.239C95.228 24.2496 95.2535 24.2581 95.2813 24.2688C95.0264 24.6625 94.943 25.1476 95.089 25.6222C95.1168 25.7094 95.1516 25.7924 95.1933 25.8733C94.8225 26.1776 94.3637 26.5585 93.7913 27.0352C92.285 28.2907 90.1925 30.0442 87.5785 32.253C86.9505 32.7829 86.3225 33.3149 85.7038 33.8384L83.1709 33.5745C83.1686 33.3213 83.1316 33.0638 83.0528 32.8084C82.9624 32.519 82.828 32.253 82.6588 32.0147L92.3545 23.1707C93.5016 23.6027 94.4703 23.9645 95.2002 24.239ZM95.3485 24.1709C94.6186 23.8964 93.6291 23.524 92.4519 23.0835L94.417 21.2896L95.9673 23.6453C95.717 23.7772 95.5061 23.956 95.3485 24.1709ZM99.3738 35.2492L85.8683 33.8533C89.5622 30.7315 93.2583 27.6204 95.2512 25.9818C95.6313 26.6223 96.4191 26.982 97.2163 26.8607L99.3738 35.2492ZM108.995 36.2451L99.5082 35.2641L97.3391 26.8351C97.3669 26.8288 97.3947 26.8245 97.4202 26.8181C97.7447 26.7351 98.0204 26.5776 98.2429 26.3755L108.995 36.2451ZM109.911 36.9197L110.775 37.0091C110.583 37.0602 110.409 37.1368 110.251 37.2325L109.911 36.9197ZM102.908 69.9994L94.0925 67.8054C95.3068 65.0688 96.5234 62.3301 97.7377 59.5935L103.913 68.6162C103.436 68.978 103.088 69.461 102.908 69.9994ZM103.693 72.8871C104.073 73.234 104.544 73.4893 105.058 73.6234L102.099 91.5113C101.927 91.5028 101.754 91.5177 101.584 91.5624C101.177 91.6688 100.852 91.9156 100.637 92.2412L90.16 83.1611L103.693 72.8871ZM89.4463 82.5439C89.7475 82.1141 89.8495 81.5353 89.6734 80.9628C89.6108 80.7628 89.5181 80.5777 89.4046 80.4138L103.033 71.9955C103.107 72.1529 103.195 72.2998 103.295 72.4402L89.6989 82.761L89.4463 82.5439ZM88.2274 83.2313C88.327 83.2249 88.4267 83.21 88.5263 83.1823C88.8739 83.093 89.1636 82.8993 89.3745 82.6397L89.6015 82.8355L88.3154 83.8122L88.2274 83.2313ZM78.4111 64.5028L93.731 68.314C92.0371 72.1295 90.3431 75.945 88.6491 79.7605C88.2737 79.5754 87.845 79.5158 87.4279 79.6243C87.3352 79.6477 87.2471 79.6818 87.1637 79.7201L78.4111 64.5028ZM69.4778 79.7031L75.8968 80.25L69.4824 79.7201L69.4778 79.7031ZM54.3502 65.7519L61.7634 62.8004C62.4169 63.9133 63.8073 64.5241 65.1884 64.2538L66.3703 69.2631L55.3722 77.4006C55.0848 77.1793 54.7303 77.0388 54.3549 77.0005L54.3502 65.7519ZM54.2251 65.8009L54.2274 76.992C54.0328 76.9856 53.8335 77.0048 53.6365 77.0558C53.3816 77.1218 53.1568 77.2346 52.9622 77.3772L42.8655 70.325L54.2251 65.8009ZM35.0329 63.026C34.9773 62.8472 34.8939 62.6834 34.7873 62.5365L51.9703 48.9322L54.2205 51.3262L54.2251 65.0901L42.2375 69.8887L34.6691 64.6028C35.0515 64.1793 35.2091 63.5941 35.0329 63.026ZM40.7011 47.3618L50.3714 47.2298L51.8869 48.845L34.7132 62.4429C34.6483 62.3642 34.5741 62.2918 34.4976 62.2258L40.7011 47.3618ZM26.2526 46.5957L40.963 41.4587C40.9653 41.4651 40.9676 41.4736 40.97 41.4821C41.1391 42.0333 41.4728 42.5014 41.9085 42.8547L40.0731 47.2554L26.3707 47.4426C26.4009 47.2192 26.3823 46.9873 26.3128 46.7596C26.2943 46.7042 26.2757 46.6489 26.2526 46.5957ZM50.2625 47.1149L40.7498 47.2447L42.4368 43.2037C43.1459 43.574 44.0103 43.6952 44.8561 43.4739C45.3729 43.3399 45.8201 43.0952 46.1816 42.7738L50.2625 47.1149ZM47.1294 40.3969L49.551 39.9202L53.3237 45.7275C52.8718 46.0509 52.5983 46.551 52.5937 47.0851L51.0851 47.1043L46.5941 42.3269C47.0066 41.7737 47.2082 41.0927 47.1294 40.3969ZM46.7749 35.6493L49.2104 39.3967L47.002 39.8308C46.7865 39.1967 46.3531 38.6774 45.7993 38.3221L46.7749 35.6493ZM48.2464 29.7867L46.4018 34.8513L42.5064 28.8589C42.8146 28.6716 43.0532 28.4077 43.1969 28.1055L48.2464 29.7867ZM58.5516 37.5602L49.3402 39.3712L46.8259 35.5046L48.8396 29.9824L59.9443 33.6809L58.5516 37.5602ZM58.6953 37.5326L60.0625 33.7192L66.7573 35.9472L58.6953 37.5326ZM76.7681 39.2797L76.0104 40.6203L56.2342 46.4531C56.123 46.1935 55.9469 45.9722 55.7291 45.7977L58.4658 38.1688L67.8742 36.3196L76.7681 39.2797ZM77.2223 38.4731L76.8261 39.1775L68.1083 36.2749L75.6836 34.7853L77.2223 38.4731ZM76.9002 33.9554L75.5794 34.215L68.8823 18.1721L78.2582 31.2039C77.2919 31.804 76.7496 32.8659 76.9002 33.9554ZM79.8942 38.7604C79.4261 38.3327 78.7286 38.1433 78.0496 38.3199C78.038 38.3242 78.0241 38.3284 78.0126 38.3327L79.1226 36.3664C79.6764 36.5196 80.2835 36.5345 80.8814 36.3792C81.1549 36.3068 81.4098 36.2047 81.6415 36.077L82.1629 36.8346C81.273 37.59 80.4944 38.2497 79.8942 38.7604ZM85.8938 42.2886C84.0075 41.6907 82.1467 41.0821 80.3786 40.4671C80.4736 40.167 80.4828 39.8393 80.3809 39.5159C80.3021 39.2584 80.1607 39.0328 79.98 38.8434C80.6891 38.2433 81.4445 37.6007 82.2301 36.9346L85.8938 42.2886ZM82.6333 36.4367L82.149 35.7302C82.6449 35.3131 82.9832 34.7577 83.113 34.1512L85.0897 34.3555C84.2276 35.0854 83.3957 35.7897 82.6333 36.4367ZM100.887 47.0596C97.6659 45.9445 94.1528 44.855 90.7347 43.7995C89.444 43.3995 88.1393 42.9951 86.8416 42.5887L82.7005 36.5367C83.5324 35.8302 84.3899 35.1045 85.2565 34.3725L99.529 35.8472L102.166 46.1041C102.138 46.1105 102.111 46.1148 102.083 46.1233C101.534 46.2659 101.112 46.6191 100.887 47.0596ZM93.7681 52.7052L101.075 48.8152C101.33 49.1323 101.691 49.36 102.099 49.4621C100.715 52.5796 99.3297 55.6971 97.9486 58.8125L93.7681 52.7052ZM75.4704 62.677C75.9293 63.0111 76.5503 63.1451 77.1551 62.9877C77.227 62.9685 77.2942 62.9451 77.3614 62.9217L77.8434 63.7622L74.9722 63.0472L75.4704 62.677ZM67.6749 61.2299C67.6587 61.0342 67.6239 60.8363 67.5614 60.6383C67.3551 59.9638 66.9033 59.4148 66.3193 59.0466L68.0781 55.9291L75.0626 60.3681C74.7729 60.7745 74.6686 61.2874 74.8239 61.7917C74.9235 62.1152 75.1205 62.3897 75.3731 62.6004L74.8216 63.0089L67.6749 61.2299ZM65.7909 64.0772C66.8129 63.6686 67.5034 62.8025 67.6518 61.8236L74.2144 63.4579L66.9195 68.8567L65.7909 64.0772ZM53.9656 45.4296C53.7686 45.4806 53.5878 45.5594 53.428 45.6594L49.6808 39.8968L58.3245 38.1965L55.6248 45.719C55.1683 45.3998 54.5611 45.2742 53.9656 45.4296ZM77.3011 38.337L75.8088 34.7619L77.0393 34.5193C77.3035 35.2407 77.8527 35.8089 78.5386 36.1451L77.3011 38.337ZM78.4227 41.7183L76.9443 59.6084C76.6801 59.568 76.402 59.5786 76.1262 59.6488C75.7138 59.7574 75.3754 59.9829 75.1344 60.2745L68.1384 55.827L76.7728 40.5288C77.0161 41.2119 77.6789 41.6651 78.4227 41.7183ZM93.1563 52.8967L78.4204 60.7405C78.1979 60.1681 77.6789 59.7595 77.0694 59.6297L78.5479 41.7226C78.724 41.7247 78.9024 41.7034 79.0808 41.6566C79.688 41.4992 80.1399 41.0842 80.3392 40.5777C82.1536 41.2097 84.0654 41.8311 86.0027 42.4461L93.1563 52.8967ZM101.003 48.7194L93.7009 52.6073L86.9505 42.744C88.1996 43.1356 89.4532 43.525 90.6953 43.908C94.1111 44.9657 97.6218 46.0509 100.838 47.166C100.695 47.5044 100.665 47.8874 100.78 48.2641C100.831 48.43 100.908 48.5811 101.003 48.7194ZM56.276 46.5617L75.9293 40.7671L67.6147 55.495L56.0095 48.1151C56.3362 47.7001 56.4637 47.1575 56.2991 46.6234C56.2922 46.6021 56.2829 46.5829 56.276 46.5617ZM54.3479 50.5751L54.3456 48.8258C54.5611 48.8407 54.779 48.8237 54.9968 48.7663C55.3768 48.6662 55.6966 48.4683 55.933 48.2087L67.5567 55.5971L65.7678 58.7678C65.1282 58.5167 64.3959 58.4572 63.6752 58.6465C63.221 58.7636 62.8201 58.9679 62.4841 59.2317L54.3479 50.5751ZM62.0484 59.6531C61.4622 60.3447 61.2281 61.2725 61.4969 62.1811L54.3502 65.0412L54.3479 51.4603L62.0484 59.6531ZM52.9738 48.1385C53.275 48.5066 53.7246 48.7514 54.2205 48.8152V50.441L52.4477 48.5535L52.9738 48.1385ZM52.8996 48.0427L52.3643 48.4662L51.1917 47.2192L52.5983 47.2001C52.6053 47.3235 52.6262 47.4469 52.6655 47.5703C52.7188 47.7427 52.7976 47.9023 52.8996 48.0427ZM78.0102 63.8027L77.4749 62.8727C78.2767 62.511 78.7078 61.6683 78.4598 60.8533L93.2235 52.9946L97.6543 59.4722C96.4261 62.2407 95.1979 65.0071 93.9697 67.7756L78.0102 63.8027ZM102.984 71.8869L89.3351 80.3181C89.1752 80.1138 88.9782 79.9435 88.7604 79.818C90.459 75.994 92.1553 72.17 93.8515 68.3459L102.785 70.5697C102.748 70.9166 102.78 71.2762 102.891 71.6316C102.917 71.7188 102.949 71.8039 102.984 71.8869ZM42.9675 26.3585L51.0226 22.1706L48.2881 29.676L43.2433 27.997C43.373 27.6672 43.3962 27.299 43.285 26.9373C43.2178 26.7202 43.1089 26.5266 42.9675 26.3585ZM42.0939 38.3902C41.2643 38.969 40.7869 39.9032 40.8564 40.8778L25.9189 46.0935C25.8795 46.0531 25.8401 46.0169 25.8007 45.9807L36.8636 32.568L42.0939 38.3902ZM40.0314 28.5354L37.1718 32.0019L34.4814 29.0078L39.6166 27.748C39.6259 27.7927 39.6352 27.8374 39.6491 27.8821C39.7279 28.1311 39.86 28.3503 40.0314 28.5354ZM68.8197 79.6456L68.8243 79.6669L56.035 78.6114C56.035 78.5922 56.0326 78.5752 56.0303 78.5561L68.8197 79.6456ZM56.0141 78.439C56.0025 78.3773 55.9886 78.3135 55.9677 78.2518C55.8751 77.9475 55.6966 77.6857 55.4649 77.4814L66.4004 69.3887L68.7919 79.5264L56.0141 78.439ZM88.0999 83.2355L88.1996 83.8995L75.489 93.5499C75.4728 93.5329 75.4542 93.5159 75.4357 93.501L86.6145 82.4844C86.976 82.9504 87.5299 83.2355 88.0999 83.2355ZM86.2136 81.0118L69.45 79.5839L66.9473 68.9822L74.3651 63.4941L78.2466 64.4602L87.0525 79.7733C86.5936 80.0265 86.2901 80.4862 86.2136 81.0118ZM106.379 67.9842C105.95 67.9246 105.503 67.948 105.06 68.0629C104.84 68.1204 104.632 68.1991 104.437 68.2949L98.0297 58.9338C99.4271 55.7865 100.824 52.6371 102.222 49.4898C102.507 49.543 102.813 49.5387 103.114 49.46C103.346 49.4004 103.552 49.3004 103.733 49.1748L110.671 57.3655L106.379 67.9842ZM111.093 67.0181L108.247 68.8971C108.221 68.8716 108.196 68.846 108.17 68.8226L111.093 67.0181ZM114.423 64.8177L114.367 64.856L108.078 68.7396C107.765 68.4694 107.394 68.2608 106.993 68.1268L111.125 57.9039L115.129 62.6323C114.441 63.0323 114.089 63.8133 114.323 64.5688C114.348 64.656 114.385 64.739 114.423 64.8177ZM110.103 40.0159L103.906 46.5425C103.487 46.1722 102.891 45.9892 102.289 46.0807L99.6611 35.8621L109.709 36.9006L110.147 37.3027C109.556 37.722 109.266 38.4455 109.484 39.1477C109.593 39.501 109.816 39.7989 110.103 40.0159ZM112.253 37.1623L112.247 37.1751C112.237 37.1708 112.228 37.1644 112.219 37.158L112.253 37.1623ZM98.6971 24.6029L111.911 24.0368L114.877 28.9248L112.432 36.5984L109.197 36.2643L98.3263 26.2904C98.7342 25.8626 98.9033 25.2625 98.7249 24.6773C98.7156 24.6518 98.704 24.6284 98.6971 24.6029ZM65.4271 13.3862C65.1745 13.7607 65.0772 14.2182 65.1884 14.6758L51.9031 21.5811L55.7754 10.9582L65.4271 13.3862ZM57.5899 5.9829L57.6548 5.80203C58.1275 5.88715 58.628 5.87651 59.124 5.7467C59.3511 5.68711 59.5643 5.60625 59.7659 5.50623L59.9814 5.80841L57.5899 5.9829ZM60.0625 5.91907L65.3344 13.2436L55.8148 10.8496L57.5459 6.10207L60.0625 5.91907ZM40.8147 10.1219L40.773 8.61736C40.9792 8.63013 41.1947 8.61311 41.4056 8.55565C41.9456 8.4152 42.3627 8.0726 42.5898 7.64061L45.1458 8.2854L40.8147 10.1219ZM46.089 8.5216L55.166 10.8049L51.0828 22.0067L42.8864 26.267C42.4855 25.8477 41.876 25.6222 41.2527 25.6881L40.8309 10.7517L46.089 8.5216ZM24.6397 21.23V20.9597C24.737 20.9448 24.832 20.9236 24.9294 20.898C24.9664 20.8895 25.0035 20.8789 25.0383 20.8682L24.6397 21.23ZM25.3303 20.7661C25.5574 20.6767 25.7682 20.5618 25.9606 20.4299L33.726 29.0738L24.6212 31.3039L24.6397 21.3938L25.3303 20.7661ZM46.7378 97.3229L51.1917 86.1254L70.1939 94.8586C70.1267 95.1055 70.0919 95.3609 70.0965 95.6205L47.7319 98.5869C47.7227 98.5571 47.718 98.5273 47.7088 98.4975C47.5466 97.9719 47.1827 97.5591 46.7378 97.3229ZM92.7253 113.913L92.7948 114.37C92.7531 114.379 92.7091 114.387 92.6627 114.398C92.3939 114.47 92.1553 114.592 91.956 114.747L91.5504 114.319L92.7253 113.913ZM91.1078 113.855L75.6118 97.4782C75.7647 97.3186 75.8968 97.142 76.0081 96.9569L91.0823 103.005L92.6373 113.325L91.1078 113.855ZM115.396 22.6068C114.997 22.9005 114.742 23.3325 114.696 23.8027L112.545 23.8942L106.655 14.1906C106.697 14.1629 106.736 14.131 106.775 14.0991L115.396 22.6068ZM107.688 12.901L115.896 22.3429C115.753 22.394 115.618 22.46 115.498 22.5387L106.87 14.0225C107.236 13.7118 107.515 13.3266 107.688 12.901ZM83.544 5.99993C83.7758 5.93822 83.982 5.84033 84.1628 5.71691L85.7154 8.07472L78.7634 6.71281L81.3634 5.14447C81.7713 5.85097 82.6727 6.22762 83.544 5.99993ZM26.8134 16.6974L32.1038 14.4523L27.0544 19.0382C27.2513 18.504 27.2791 17.9124 27.0984 17.3294C27.0289 17.1038 26.9315 16.8931 26.8134 16.6974ZM4.52755 70.8229L12.4806 61.6789L19.3747 67.6246L5.02809 71.7061C5.01882 71.6571 5.00724 71.6103 4.99333 71.5614C4.90296 71.2741 4.74074 71.023 4.52755 70.8229ZM56.612 119.018L51.391 108.831L70.5067 97.0037C70.8613 97.5761 71.4151 98.0123 72.0616 98.2528L70.9146 118.782C70.8566 118.794 70.7987 118.807 70.7408 118.822L58.8899 120.314C58.883 120.286 58.876 120.258 58.8667 120.231C58.591 119.333 57.5922 118.803 56.612 119.018ZM116.775 95.231L106.446 93.667L106.388 91.0389L118.927 85.1146L119.711 91.49L116.775 95.231ZM119.722 93.9308C118.999 94.1202 118.529 94.7565 118.492 95.4907L117.47 95.3353L119.815 92.3455L120.005 93.8862C119.91 93.8925 119.817 93.9074 119.722 93.9308ZM126.496 79.3924L117.905 75.762L116.675 65.7583C116.802 65.7243 116.923 65.6774 117.036 65.6221L127.191 78.505C126.899 78.7582 126.663 79.0604 126.496 79.3924ZM129.101 30.1952C128.815 29.2738 127.77 28.7376 126.767 28.9993C126.586 29.0483 126.415 29.1185 126.262 29.2078L107.813 12.4988C107.918 12.0541 107.908 11.5795 107.765 11.1114C107.29 9.57496 105.549 8.68333 103.879 9.11957C102.998 9.34727 102.317 9.89842 101.932 10.59L84.8556 4.77208C84.9368 4.48054 84.9414 4.16772 84.8464 3.85704C84.5613 2.93561 83.5185 2.40149 82.5151 2.6611C81.8593 2.83134 81.3843 3.2995 81.2128 3.85916L61.4112 2.88029C61.4042 2.64834 61.3648 2.41213 61.293 2.17805C60.8179 0.641636 59.0776 -0.249995 57.4068 0.184116C55.8727 0.58418 54.9296 1.95886 55.1474 3.3676L42.4948 5.97652C42.0614 5.33387 41.2063 5.00403 40.3744 5.21895C39.3803 5.47857 38.8009 6.42127 39.0674 7.33631L26.0347 15.8611C25.2677 15.2993 24.2272 15.0716 23.2122 15.3376C21.5391 15.7717 20.5681 17.3698 21.0432 18.9062C21.1452 19.2361 21.3051 19.534 21.5113 19.7979L9.98951 33.2574C9.62569 33.0914 9.21552 33.0425 8.81694 33.1468C7.88073 33.3894 7.36629 34.3831 7.66986 35.3663C7.80426 35.8025 8.07771 36.1621 8.42067 36.4069L4.09421 51.7987C3.80686 51.7987 3.51487 51.8327 3.22289 51.9093C1.54977 52.3434 0.578811 53.9415 1.05386 55.478C1.3667 56.4951 2.23571 57.2293 3.27155 57.4825L2.91932 70.3186C2.83358 70.3292 2.74784 70.3441 2.65978 70.3675C1.65637 70.6293 1.07472 71.5869 1.35975 72.5083C1.63088 73.3914 2.60184 73.917 3.56586 73.7298L12.2466 90.5686C10.8145 91.1325 10.0266 92.5987 10.4622 94.0117C10.9373 95.5481 12.6776 96.4397 14.3507 96.0056C14.8304 95.8801 15.2522 95.6588 15.5998 95.3715L19.1546 98.2996L21.6851 102.398C21.1289 102.819 20.8763 103.581 21.1104 104.341C21.414 105.322 22.4197 105.922 23.3559 105.677C24.204 105.458 24.7046 104.622 24.5655 103.735L25.4971 103.522L37.9041 113.736C37.1718 114.451 36.8567 115.492 37.1695 116.505C37.6446 118.041 39.3849 118.933 41.0557 118.496C41.985 118.256 42.6964 117.656 43.0648 116.907L55.2285 120.254C55.1428 120.546 55.1358 120.863 55.2332 121.176C55.5182 122.097 56.561 122.633 57.5667 122.372C58.3013 122.18 58.8088 121.614 58.9154 120.961L68.4489 121.676C68.4559 121.914 68.4929 122.154 68.5648 122.393C69.0398 123.929 70.7802 124.821 72.4533 124.385C74.1125 123.953 75.0788 122.378 74.6339 120.856L91.4091 116.668C91.7474 117.511 92.7392 117.986 93.694 117.737C94.6974 117.475 95.279 116.515 94.9963 115.594C94.9639 115.49 94.9222 115.392 94.8712 115.298L103.835 110.574C104.578 111.563 105.95 112.059 107.28 111.712C108.954 111.276 109.925 109.68 109.45 108.144C109.322 107.725 109.1 107.356 108.81 107.048L119.377 97.2271C119.801 97.508 120.32 97.6208 120.821 97.491C121.757 97.2484 122.271 96.2525 121.968 95.2694C121.866 94.9374 121.68 94.6501 121.449 94.4245L127.794 83.1206C128.503 83.4888 129.365 83.6101 130.208 83.3888C131.881 82.9546 132.852 81.3544 132.38 79.8201C132.113 78.9604 131.453 78.305 130.628 77.9687L131.965 66.6797C132.396 66.2499 132.581 65.6349 132.396 65.0327C132.349 64.888 132.287 64.7539 132.208 64.6305L133.374 54.7906C134.257 54.4629 134.746 53.5713 134.481 52.7116C134.27 52.0263 133.638 51.5582 132.917 51.4667L128.069 32.2424C128.904 31.8913 129.358 31.0294 129.101 30.1952Z" fill="#9BAB51"/>
</g>
<mask id="mask1_161_133" style="mask-type:luminance" maskUnits="userSpaceOnUse" x="4" y="0" width="131" height="122">
<path d="M4.0827 0.0734558H134.447V121.829H4.0827V0.0734558Z" fill="white"/>
</mask>
<g mask="url(#mask1_161_133)">
<path fill-rule="evenodd" clip-rule="evenodd" d="M78.6221 76.6132C77.2618 78.9689 76.7867 81.6268 76.6454 84.2612C76.606 84.9549 76.2862 85.2912 75.9479 85.87C75.8019 86.119 75.6559 86.3786 75.5099 86.6276C75.2851 87.0063 75.0511 87.183 74.9213 87.6426C74.8309 87.9682 74.7382 88.2023 74.6872 88.5385C74.6594 88.7577 74.6084 88.9535 74.5876 89.179C74.5598 89.4748 74.5621 89.7578 74.525 90.0515C74.4995 90.2707 74.4926 90.4686 74.4764 90.6878C74.4578 90.8708 74.4045 91.0815 74.3721 91.2708C74.3165 91.5922 74.2168 91.9369 74.1427 92.2582C74.0963 92.4498 74.0384 92.6179 73.9967 92.8179C73.9364 93.0733 73.8924 93.301 73.8159 93.5563C73.663 94.0734 73.6699 94.8246 73.6537 95.3715C73.6537 95.4332 73.6421 95.4907 73.6699 95.5439C73.7487 95.5375 73.7418 95.4098 73.7464 95.3566C73.8043 94.6714 73.7418 94.1649 73.9619 93.4754C74.0616 93.1584 74.1079 92.8222 74.2122 92.4987C74.2748 92.305 74.3257 92.0859 74.3837 91.8837C74.4764 91.5539 74.5412 91.2198 74.6177 90.8899C74.6641 90.6835 74.671 90.392 74.7011 90.1749C74.7266 89.9834 74.7475 89.8408 74.7637 89.6493C74.7915 89.2897 74.8263 89.0599 74.9143 88.7087C74.963 88.5002 74.9885 88.347 75.0673 88.1363C75.2967 87.5468 75.2851 87.5085 75.7393 87.0297C75.8899 86.8723 76.2723 86.4297 76.4855 86.3977C76.657 86.3722 76.6268 86.6403 76.6315 86.7467C76.6941 88.5555 76.9026 90.3622 77.2039 92.1518C77.8666 94.7969 78.3 95.8396 78.4575 96.5206L79.4633 97.6123C80.6057 98.872 79.7437 99.2785 81.2291 99.8445C81.7319 100.036 82.2418 100.213 82.7469 100.394C83.5093 100.662 83.792 100.657 84.1257 101.132C85.252 101.013 86.8208 100.783 87.8057 100.374C89.4857 99.6764 91.3466 99.3211 93.3742 100.366C95.4042 101.413 95.9001 103.273 97.8745 103.273C98.7922 103.266 99.7886 103.962 100.709 103.771C101.937 103.522 103.17 103.277 104.405 103.211C104.813 103.192 105.227 103.196 105.64 103.228C109.707 104.858 114.04 104.092 118.207 103.632C115.041 104.092 111.208 105.124 108.043 104.667C108.544 105.279 108.875 106.39 109.709 106.846C108.212 106.999 107.878 105.471 107.211 104.705C106.877 104.398 106.544 104.245 106.249 104.239C105.811 104.192 105.327 104.215 104.942 104.186C104.484 104.186 104.029 104.211 103.872 104.311C103.712 104.411 103.909 104.76 104.189 105.143C104.467 105.528 104.822 105.95 104.972 106.203C105.042 106.85 105.468 107.75 105.584 108.416C105.665 109.199 105.438 109.574 105.406 109.359C105.376 109.142 105.251 108.567 105.118 108.012C104.984 107.459 104.838 106.931 104.769 106.812C104.623 106.575 104.421 106.226 104.117 105.986C103.814 105.743 103.105 105.05 102.929 104.92C102.752 104.79 102.291 104.571 102.291 104.571C101.965 104.645 99.492 105.192 99.3506 105.273C99.1676 105.373 99.4132 105.603 99.5013 105.699C99.7052 105.916 99.9717 106.154 100.196 106.36C100.389 106.539 100.597 106.709 100.792 106.892C101.098 107.171 101.411 107.437 101.71 107.725C101.948 107.956 102.229 108.205 102.491 108.416C102.766 108.644 103.054 108.74 103.334 108.931C103.522 109.057 103.496 109.167 103.295 109.067C103.079 108.961 102.815 108.831 102.606 108.712C102.361 108.569 101.99 108.244 101.761 108.052C101.443 107.788 101.151 107.544 100.822 107.29C100.577 107.103 100.375 106.939 100.118 106.763C99.5661 106.386 99.346 106.156 98.6485 105.977C98.3611 105.905 98.1572 105.852 97.8606 105.797C97.7355 105.775 97.6034 105.748 97.4805 105.705C97.3971 105.68 97.3647 105.69 97.3531 105.786C97.3276 105.988 97.4527 106.199 97.6057 106.333C97.9579 106.635 98.47 106.735 98.711 107.152C97.3763 107.305 96.8757 106.082 96.0299 105.488C95.7843 105.269 95.2536 104.799 94.709 104.33C94.1668 103.862 93.606 103.396 93.3024 103.177C92.6929 102.741 91.8517 102.219 90.9827 102.219C90.1114 102.219 88.4592 102.871 88.4592 102.871L87.713 103.12C88.4383 103.292 88.5565 103.537 89.2146 104.192C90.2296 105.203 90.9619 104.33 92.1298 104.652C92.4844 104.76 93.0359 105.26 93.3812 105.418C93.7288 105.575 94.2988 106.36 94.6325 106.567C96.4563 108.348 97.2141 109.608 99.879 109.914C100.38 109.991 100.838 110.153 101.269 110.374C102.558 111.04 103.587 112.246 104.713 113.281C103.837 113.127 103.608 112.834 102.799 112.323C102.396 112.07 101.636 111.125 101.202 110.995C100.567 110.757 100.129 110.761 99.4711 110.825C99.1259 110.861 98.7319 110.691 98.433 110.546C98.1479 110.408 98.0158 110.278 97.7702 110.114C97.6775 110.057 97.4388 109.91 97.36 110.057C97.2766 110.206 97.6451 110.561 97.7494 110.676C97.9185 110.868 98.1665 111.074 98.3565 111.259C98.579 111.474 98.7296 111.614 98.9822 111.802C99.1629 111.934 99.3367 112.106 99.5175 112.251C99.7724 112.457 100.013 112.649 100.25 112.872C100.41 113.017 100.535 113.123 100.685 113.285C101.167 113.798 101.527 114.051 101.782 114.732C101.87 114.966 101.895 115.215 101.978 115.456C102.074 115.743 102.178 116.03 102.34 116.296C102.481 116.526 102.252 115.847 102.382 116.177C102.407 116.245 102.481 116.468 102.345 116.475C102.219 116.483 102.053 116.105 102.006 116.015C101.881 115.76 101.761 115.407 101.689 115.13C101.51 114.44 101.147 114.132 100.602 113.677C100.414 113.519 100.268 113.391 100.062 113.247C99.5801 112.906 99.0702 112.606 98.5859 112.259C96.8433 111.006 95.3625 109.501 93.7033 108.171C93.3904 107.918 93.0683 107.673 92.73 107.448C92.2851 107.146 92.6976 107.252 92.1808 107.046C91.6664 106.639 90.6699 106.371 90.1786 106.356C89.6897 106.341 88.8137 106.199 88.3641 105.928C88.0142 105.714 86.9297 105.184 86.6794 105.058C86.4825 104.958 85.0226 104.675 84.5012 104.435C84.4224 104.641 85.8661 105.318 85.9866 105.437C86.2577 105.701 86.596 105.948 86.888 106.169C87.3329 106.501 87.7802 106.826 88.2344 107.152C88.6237 107.437 89.0061 107.72 89.3907 108.018C89.7152 108.386 90.2157 108.693 90.5494 108.999C91.7706 110.531 92.4728 112.332 93.548 113.906C93.7566 114.194 95.4135 115.128 95.8793 115.402C96.1295 115.549 96.3752 115.647 96.6254 115.813C96.8433 115.953 97.0472 116.066 97.2604 116.215C97.4991 116.383 97.7494 116.507 98.0019 116.643C98.2105 116.758 98.4191 116.924 98.6045 117.069C98.9127 117.303 99.1745 117.532 99.4387 117.809C99.6635 118.041 99.9045 118.264 100.143 118.49C100.222 118.567 100.56 118.937 100.546 119.022C100.535 119.148 100.354 119.007 100.312 118.973C100.187 118.858 100.092 118.731 99.9578 118.616C99.6797 118.371 99.4178 118.13 99.1421 117.877C98.8709 117.624 98.1873 117.13 97.849 116.981C97.5477 116.851 97.2766 116.747 96.9893 116.59C96.8016 116.488 96.5675 116.388 96.3682 116.298C96.1434 116.2 95.7958 116.115 95.5456 116.034C94.5491 115.421 93.2143 115.115 92.3801 114.2C92.1298 113.917 91.9143 113.625 91.7173 113.328C90.7301 111.821 90.2366 110.138 88.6863 108.952C88.3224 108.669 87.9517 108.397 87.5832 108.127C86.8463 107.586 86.0955 107.069 85.3354 106.578C84.9438 106.329 84.5475 106.084 84.1396 105.863C83.901 105.748 83.6507 105.652 83.4213 105.514C82.6287 105.039 82.2835 104.679 81.382 104.415L81.3148 104.396C80.4852 104.139 80.2697 103.407 79.6139 103.02C79.5513 102.981 79.5675 103.037 79.5838 103.081C79.6301 103.22 79.6973 103.33 79.7437 103.483C79.7692 103.569 79.9314 104.066 79.8943 104.115C79.8062 104.101 79.4795 103.652 79.3729 103.549C79.2084 103.392 78.9836 103.247 78.8051 103.094C78.4877 102.826 78.1748 102.496 77.9246 102.17C77.7114 101.892 77.4657 101.524 77.2919 101.221C77.0996 100.896 76.9188 100.347 76.8702 99.9786C76.84 99.7488 76.7914 99.5317 76.7613 99.2976C76.7404 99.1146 76.6662 98.8806 76.6153 98.6997C76.6662 98.9295 76.7311 99.0976 76.752 99.3445C76.7728 99.5573 76.8192 99.7573 76.84 99.968C76.891 100.457 77.0857 101.036 77.3406 101.47C77.5237 101.779 77.6789 102.079 77.8828 102.381C78.1702 102.809 78.446 103.228 78.8747 103.556C79.2176 103.822 79.4262 104.158 79.644 104.513C79.7228 104.637 79.7923 104.76 79.8734 104.882C80.1677 105.345 80.4945 105.762 81.0275 105.924C81.7203 106.156 82.0633 106.505 82.3715 106.892C82.6797 107.275 82.9578 107.688 83.5209 108.056C84.5475 108.846 85.7154 109.612 86.7049 110.45C87.0966 110.819 87.421 111.225 87.706 111.642C87.9424 111.993 88.1463 112.357 88.3387 112.73C88.531 113.102 88.7071 113.476 88.8855 113.851C89.3328 114.698 89.8913 115.694 90.517 116.432C90.6259 116.56 90.8924 116.743 91.0337 116.871C91.2052 117.02 91.3628 117.188 91.5296 117.345C91.7081 117.513 91.8425 117.671 92.0464 117.82C92.3337 118.026 92.6141 118.252 92.9015 118.467C93.0846 118.609 93.2491 118.754 93.4275 118.899C93.6616 119.09 93.8817 119.252 94.0996 119.463C94.1783 119.539 94.2988 119.654 94.3776 119.716C94.3359 119.663 94.1482 119.497 94.0856 119.433C94.0856 119.433 93.7195 119.079 93.8192 119.167C94.0694 119.386 94.2988 119.624 94.5491 119.85C94.6001 119.895 94.9245 120.171 94.7623 120.22C94.6418 120.258 94.2316 119.903 94.132 119.818C93.9443 119.663 93.7867 119.52 93.5828 119.371C93.5156 119.32 92.9988 118.965 93.0011 118.937C93.0058 118.907 92.2132 118.375 92.1298 118.324C91.9838 118.233 91.8054 118.122 91.6664 118.026C91.4833 117.901 91.2701 117.701 91.087 117.552C90.7788 117.298 90.6954 117.196 90.313 117.015C90.0373 116.89 89.9492 116.824 89.7152 116.637C88.7141 115.839 87.896 114.855 87.0873 113.898C86.8532 113.538 86.6285 113.166 86.399 112.806C85.4698 111.361 84.4363 110.072 82.879 110.072C81.4376 109.972 81.6949 111.638 82.1745 113.304C82.295 113.721 82.4295 114.136 82.5615 114.526C82.7006 114.913 82.8628 115.264 83.0088 115.556C82.5824 115.115 82.0448 114.664 81.8756 114.209C81.7366 113.851 81.6253 113.487 81.528 113.127C81.0483 111.312 80.9579 109.463 79.7182 107.922C79.3474 107.418 78.9141 106.95 78.388 106.539C78.205 106.39 78.1493 106.322 78.1215 106.101C78.0914 105.843 77.9246 105.928 77.8713 106.154C77.8504 106.246 77.8365 106.367 77.8365 106.463C77.8365 106.463 77.8041 105.852 77.767 106.069C77.7253 106.294 77.7786 106.705 77.8365 106.931C77.9153 107.227 78.0126 107.533 78.1007 107.827C78.1841 108.122 78.3 108.463 78.4251 108.742C78.5085 108.933 78.5804 109.125 78.6592 109.314C78.7171 109.448 78.7843 109.578 78.8376 109.718C78.9002 109.87 78.9465 109.976 78.9998 110.133C79.0832 110.402 79.1597 110.527 79.2802 110.776C79.2964 110.814 79.4633 111.125 79.3312 111.106C79.264 111.097 79.1041 110.772 79.067 110.708C78.9558 110.504 78.8932 110.359 78.8167 110.138C78.7171 109.846 78.5386 109.527 78.4089 109.24C78.2791 108.952 78.1377 108.701 78.0242 108.41C77.9361 108.184 77.8458 107.976 77.7623 107.744C77.6326 107.38 77.4495 107.046 77.3406 106.667C77.2664 106.418 77.1992 106.16 77.1251 105.909C77.0115 105.533 76.8818 105.441 76.6153 105.165C76.4855 105.03 76.6153 105.111 76.5434 105.009C76.2074 104.541 75.6095 104.052 75.1252 103.703C74.8888 103.53 74.7591 103.415 74.5552 103.22C74.233 102.913 73.9202 102.607 73.6583 102.253C73.4591 101.985 73.3131 101.738 73.1462 101.453C73.0118 101.232 73.3246 101.855 73.3246 101.855C73.5541 102.292 73.7742 102.653 74.0708 103.056C74.2539 103.3 74.4254 103.545 74.6131 103.79C74.7058 103.913 74.8332 104.077 74.8726 104.224C75.1438 105.273 75.5771 106.341 76.0568 107.324C76.2236 107.667 76.3951 107.999 76.5735 108.333C76.949 109.048 77.2201 109.808 77.4379 110.58C77.5491 110.972 77.6465 111.361 77.7415 111.757C78.3741 113.906 77.0417 116.962 81.3751 118.035C81.966 118.179 82.2093 118.379 82.0425 118.648C81.6253 118.686 81.1781 118.692 80.7239 118.662C80.272 118.628 79.8178 118.552 79.3891 118.42C78.9627 118.307 78.5456 118.13 78.191 117.892C77.8365 117.652 77.5422 117.349 77.3777 116.966C77.2618 116.713 77.2409 116.502 76.8864 116.681C76.6153 116.82 75.7486 117.609 75.5632 117.862C75.3176 118.207 75.0673 118.784 74.9978 119.186C74.9514 119.477 74.9421 119.769 74.8935 120.052C74.8842 120.109 74.8471 120.324 74.7475 120.295C74.6757 120.271 74.7174 120.009 74.722 119.946C74.7637 119.377 74.7475 119.052 74.9468 118.496C75.1252 118.007 75.2341 117.743 75.5817 117.33C75.8343 117.026 76.0151 116.809 76.219 116.471C76.4484 116.085 76.6361 115.77 76.5828 115.315C76.4901 114.545 76.3696 113.794 76.1889 113.036C75.7718 111.265 75.3384 109.563 74.1867 108.052C73.9341 107.678 73.6653 107.329 73.3756 107.022C73.3756 107.559 73.3756 108.133 73.2945 108.708C73.2088 109.316 73.2088 109.929 72.7082 110.389C72.699 109.708 72.312 109.148 71.969 108.567C71.8137 108.301 71.6863 108.244 71.589 107.908C71.48 107.533 71.5055 107.265 71.6029 106.892C71.8022 106.146 71.7512 105.594 71.4105 104.89C71.3132 104.69 71.1672 104.484 71.056 104.281C70.9355 104.062 70.8683 103.932 70.7686 103.698C70.5624 103.209 70.4674 102.702 70.2913 102.204C70.2125 101.979 70.1592 101.773 70.0665 101.543C69.9761 101.317 69.8996 101.075 69.8092 100.84C69.6911 100.547 69.6331 100.202 69.5381 99.8956C69.654 100.245 69.7073 100.566 69.851 100.917C69.946 101.16 70.0294 101.404 70.1244 101.645C70.2078 101.855 70.2704 102.085 70.3515 102.3C70.472 102.63 70.5508 102.981 70.6713 103.32C70.7431 103.511 70.8127 103.709 70.91 103.894C70.9679 104.009 70.8335 103.732 70.8335 103.728C70.6551 103.311 70.5508 102.937 70.4257 102.507C70.3631 102.292 70.2797 102.083 70.2078 101.868C70.1429 101.662 70.0503 101.443 69.9761 101.236C69.8834 100.987 69.7907 100.768 69.7212 100.515C69.654 100.274 69.5914 100.049 69.5196 99.8062C69.362 99.2976 69.3504 98.5316 69.3365 97.9911C69.3249 97.5123 69.311 97.0313 69.311 96.5525C69.311 96.1652 69.4037 95.7481 69.4292 95.3566C69.4547 95.0012 69.5196 94.648 69.5289 94.2926C69.5289 94.2415 69.5335 94.2181 69.5196 94.1734C69.457 94.1841 69.4756 94.2075 69.4663 94.2756C69.4338 94.5416 69.4199 94.7927 69.3782 95.0587C69.3458 95.3077 69.3411 95.5481 69.2994 95.8056C69.2485 96.1269 69.2206 96.4142 69.2253 96.7398C69.2253 97.5357 69.2114 98.406 69.2786 99.1934C69.3087 99.5083 69.3527 99.6956 69.4408 99.9978C69.5404 100.336 69.5914 100.634 69.7212 100.972C69.8116 101.213 69.895 101.462 69.983 101.707C70.0549 101.911 70.1082 102.119 70.18 102.328C70.2959 102.66 70.3631 103.028 70.4766 103.373C70.618 103.809 70.7339 104.086 70.9586 104.494C71.1139 104.771 71.2136 104.92 71.3062 105.226C71.4986 105.858 71.443 106.275 71.202 106.882C71.0629 107.214 71.0421 107.42 70.9841 107.765C70.9146 108.214 70.7918 108.237 70.5601 108.608C70.2588 109.086 70.0618 109.582 69.9297 110.119C69.851 110.44 69.7907 110.768 69.7536 111.106C69.7467 111.653 69.7212 111.714 70.0503 112.183C70.3955 112.676 70.9262 113.117 71.3549 113.557C71.5936 113.806 71.8856 114.281 72.0107 114.592C72.0826 114.77 72.1567 114.938 72.2239 115.124C72.356 115.483 72.5368 115.839 72.6827 116.2C72.7453 116.356 72.8612 116.566 72.9492 116.717C73.0419 116.881 73.1207 116.992 73.2041 117.173C73.2366 117.245 73.3779 117.528 73.3664 117.581C73.3409 117.694 73.2296 117.543 73.2041 117.505C73.079 117.298 72.9956 117.096 72.8565 116.886C72.7662 116.751 72.6665 116.571 72.5831 116.43C72.502 116.296 72.4371 116.124 72.3653 115.981C72.21 115.675 72.0733 115.373 71.9366 115.058C71.6469 114.411 71.3433 113.96 70.7014 113.562C70.5717 113.481 69.8417 112.993 69.7745 113.315C69.7536 113.415 69.7675 113.883 69.7629 114.021C69.749 115.134 69.6864 116.268 69.413 117.356C69.311 117.747 69.1743 118.854 69.0376 119.228C68.6158 120.022 68.3702 120.569 67.8696 120.646C68.3702 119.726 68.2033 118.658 68.5023 117.715C68.5695 117.249 68.6066 116.781 68.6205 116.315C68.6622 114.9 68.5 113.606 68.3076 112.212C68.2775 111.998 68.2937 111.857 68.2404 111.629C68.1987 111.451 68.1686 111.323 68.1454 111.14C68.0527 110.536 67.9577 109.929 67.8743 109.325C67.8534 108.893 67.8488 108.459 67.8743 108.022C67.8974 107.59 67.9484 107.156 68.0319 106.724C67.6356 107.031 67.2648 107.352 66.9103 107.688C66.5557 108.027 66.222 108.376 65.8953 108.74C65.5801 109.157 65.2464 109.565 64.9081 109.967C64.6115 110.321 64.5165 110.374 64.528 110.842C64.5373 111.193 64.6532 111.542 64.7459 111.883C64.8988 112.447 65.0819 112.879 65.3947 113.389C65.5407 113.63 65.645 113.902 65.696 114.17C65.7956 114.721 65.7956 115.473 65.8003 116.043C65.8003 116.222 65.7701 116.468 65.7539 116.656C65.7284 116.892 65.6913 117.111 65.6751 117.356C65.6496 117.739 65.645 118.03 65.7423 118.409C65.8165 118.711 65.9926 118.975 66.0297 119.294C66.0413 119.397 65.9764 119.42 65.9347 119.299C65.8675 119.088 65.8304 118.969 65.7377 118.758C65.5755 118.399 65.5175 118.001 65.5199 117.613C65.5291 117.135 65.6033 116.681 65.6241 116.211C65.638 115.951 65.6079 115.564 65.5917 115.296C65.5616 114.841 65.5245 114.223 65.309 113.817C65.2209 113.653 65.1746 113.583 65.061 113.43C64.7459 112.989 64.528 112.587 64.2731 112.121C64.1897 111.972 63.8027 111.331 63.564 111.47C63.4227 111.553 62.7692 112.319 62.6301 112.491C62.359 112.834 62.3544 112.879 62.3521 113.293C62.3474 113.542 62.4471 114.17 62.505 114.419C62.5676 114.683 62.651 114.919 62.702 115.185C62.7391 115.377 62.79 115.568 62.8271 115.762C62.8735 115.973 62.9569 116.143 62.994 116.373C63.0357 116.632 63.0843 116.862 63.1052 117.126C63.1261 117.341 63.1678 117.541 63.1863 117.758C63.228 118.307 63.228 118.922 63.2187 119.473C63.2187 119.516 63.2303 119.726 63.14 119.684C63.0519 119.643 63.0565 119.141 63.0565 119.033C63.0403 118.458 63.0264 117.905 62.9105 117.337C62.8642 117.122 62.848 116.928 62.7924 116.709C62.7275 116.451 62.702 116.288 62.5884 116.043C62.5143 115.875 62.4633 115.702 62.4007 115.53C62.3173 115.302 62.2686 115.143 62.1551 114.919C62.0833 114.779 61.8098 114.151 61.6244 114.155C61.4923 114.157 61.3209 114.587 61.2699 114.698C60.2294 117 60.1413 119.486 60.862 121.88C60.1112 121.803 59.9791 121.09 59.7775 120.616C59.5828 120.141 59.5689 119.339 59.4438 118.858C58.9641 116.958 59.0267 114.994 59.9791 113.236C60.1529 112.768 60.3661 112.312 60.621 111.868C60.8713 111.423 61.1633 110.987 61.4923 110.57C61.7542 110.129 62.0184 109.693 62.2686 109.252C62.5189 108.812 62.7645 108.371 62.9847 107.931C63.1469 107.567 63.2975 107.199 63.4319 106.826C63.6034 106.28 63.7355 105.714 63.9812 105.154C64.2036 104.709 64.345 104.656 64.3566 104.111C64.3658 103.794 64.3288 103.498 64.3542 103.173C64.3913 102.673 64.4168 102.262 64.5744 101.777C64.7157 101.336 64.8084 100.921 64.9869 100.489C65.1653 100.059 65.1282 99.7573 65.2325 99.3317C65.3113 99.021 65.3159 98.8231 65.3414 98.5167C65.3669 98.206 65.5129 97.6399 65.6496 97.3527C65.7956 97.0654 65.8953 96.9313 66.0969 96.6738C66.2962 96.4185 66.4839 96.0269 66.5511 95.7162C66.5812 95.5758 66.609 95.4183 66.6345 95.2757C66.7643 94.6097 66.7226 93.9245 66.748 93.2499C66.7643 92.7413 67.0099 92.171 67.2022 91.6922C67.3552 91.3006 67.339 90.9176 67.4015 90.5154C67.5197 89.7344 67.485 88.8683 67.4989 88.0767C67.4989 87.9427 67.4572 87.9639 67.4479 88.0725C67.4224 88.4598 67.4317 88.8917 67.4224 89.2833C67.4154 89.7429 67.3946 90.1217 67.3227 90.5771C67.2602 91.0091 67.2903 91.3091 67.1026 91.7369C66.9381 92.1135 66.7226 92.6838 66.6762 93.0775C66.6438 93.3542 66.6507 93.7053 66.6438 93.9968C66.6252 94.4905 66.6044 94.9204 66.4978 95.4098C66.4144 95.7864 66.4259 95.8652 66.2336 96.2269C66.1224 96.4376 66.076 96.5164 65.9208 96.7015C65.645 97.0271 65.4411 97.4101 65.3298 97.8123C65.2418 98.1336 65.1908 98.2868 65.163 98.6273C65.1329 98.9444 65.0912 99.1104 65.0124 99.4126C64.9289 99.7275 64.9405 99.9871 64.8084 100.308C64.7505 100.451 64.6833 100.585 64.6254 100.726C64.4817 101.075 64.3705 101.415 64.2291 101.764C64.0692 102.156 64.0113 102.443 63.9163 102.841C63.8746 103.032 63.8143 103.209 63.7726 103.4C63.6892 103.79 63.6475 104.201 63.4018 104.545C63.3114 104.675 63.272 104.747 63.2025 104.886C63.1191 105.043 63.0195 105.184 62.9152 105.326C62.5259 105.858 62.1644 106.333 61.775 106.773C61.4831 107.022 61.1957 107.271 60.9153 107.533C60.6372 107.788 60.3707 108.056 60.1066 108.329C59.708 108.654 59.3697 109.01 59.0614 109.391C58.7509 109.77 58.4775 110.167 58.2087 110.574C57.6757 111.461 57.1751 112.534 56.3455 113.3C56.5124 112.534 56.517 111.81 56.8878 111.193C57.1844 110.627 57.6386 109.201 57.5552 108.516C57.101 108.359 56.7835 109.276 56.3618 109.325C55.7986 109.459 55.2147 110.302 54.7651 110.546C54.3109 110.791 52.5497 111.821 52.179 112.151C49.9057 114.377 50.1814 116.053 47.6787 118.194C48.3461 115.594 49.8477 112.381 52.2462 110.642C52.705 110.344 53.1661 110.053 53.6134 109.77C54.0606 109.486 54.494 109.201 54.8949 108.927C55.2935 108.62 55.6457 108.301 55.9284 107.961C56.2992 107.62 56.6167 107.271 56.8716 106.912C57.1798 106.529 57.5204 106.18 58.2087 105.948C59.1819 105.641 59.4902 104.503 60.1112 103.809C60.2248 103.683 60.3151 103.611 60.4379 103.496C60.7693 103.173 60.7253 102.764 60.9084 102.358C61.0405 102.064 61.4344 101.668 61.6592 101.394C61.9373 101.051 62.0717 100.983 62.2177 100.553C62.2802 100.37 62.3637 100.187 62.4262 100.002C62.5096 99.753 62.3474 99.7381 62.2177 99.9403C62.03 100.228 61.9674 100.589 61.7287 100.838C61.6012 100.972 61.4506 101.106 61.3162 101.243C60.9918 101.577 60.6025 101.834 60.3082 102.185C60.0741 102.462 59.9374 102.711 59.6524 102.962C59.3442 103.234 59.1263 103.469 58.8552 103.766C58.5841 104.062 58.3431 104.288 57.9306 104.415L57.8634 104.435C56.9619 104.698 56.612 105.058 55.8241 105.533C55.5947 105.671 55.3444 105.767 55.0988 105.89C54.6933 106.107 54.297 106.348 53.91 106.597C53.5462 106.844 53.187 107.088 52.8325 107.333C52.3922 107.612 51.9565 107.899 51.5324 108.199C49.5302 109.604 47.6416 111.131 45.7507 112.664C45.4981 112.872 45.2478 113.136 44.9999 113.362C44.7079 113.634 44.4136 113.902 44.117 114.17C43.9571 114.311 43.6419 114.67 43.5284 114.847C43.3916 115.062 43.3198 115.253 43.2155 115.479C43.0371 115.866 42.9119 116.23 42.7868 116.632C42.7683 116.69 42.6408 117.139 42.5064 117C42.4438 116.934 42.5991 116.441 42.6246 116.349C42.7242 115.985 42.8401 115.651 42.9861 115.3C43.1066 115.009 43.1483 114.847 43.3406 114.568C43.4542 114.406 43.621 114.219 43.7485 114.066C43.9084 113.883 44.1448 113.677 44.3255 113.496C44.6499 113.17 44.9141 112.906 45.1876 112.542C46.0936 111.366 47.1944 110.091 48.3461 109.118C48.7586 108.769 49.1873 108.452 49.6461 108.156C50.0308 107.908 50.4271 107.682 50.8442 107.478C51.1779 107.171 51.3447 106.712 51.4907 106.448C51.5533 106.265 51.5626 106.05 51.4328 105.901C51.1663 105.584 50.777 106.054 50.5313 106.199C50.0609 106.486 49.5812 106.616 49.0969 106.769C46.6985 108.152 44.3093 109.784 42.6362 111.915C42.4995 112.089 42.3604 112.332 42.2399 112.519C42.1565 112.644 42.0893 112.772 42.0059 112.902C41.7973 113.217 41.5818 113.511 41.3964 113.836C41.2713 114.047 41.1716 114.219 41.0604 114.44C40.9468 114.668 40.8055 114.9 40.685 115.13C40.5923 115.3 40.5042 115.43 40.4301 115.613C40.2748 115.977 40.101 116.413 40.0292 116.794C39.9991 116.943 39.9712 117.083 39.9411 117.23C39.9203 117.322 39.9828 117.111 39.9828 117.111C40.0199 116.962 40.0454 116.805 40.0871 116.656C40.0547 116.794 39.9782 117.33 39.8461 117.388C39.6793 117.46 39.7696 117.034 39.7789 116.973C39.8206 116.662 39.8507 116.49 39.9504 116.183C40.0755 115.794 40.1705 115.464 40.3582 115.092C40.4509 114.913 40.5297 114.698 40.6224 114.511C40.7429 114.257 40.8263 114.013 40.9561 113.76C41.0465 113.576 41.1091 113.423 41.2226 113.236C41.3941 112.949 41.5354 112.715 41.6675 112.408C41.7718 112.166 41.8599 111.978 41.9479 111.734C42.0893 111.327 42.182 110.959 42.182 110.531C40.8472 110.633 39.2575 110.825 38.027 111.317C37.4523 111.546 36.9564 111.925 36.479 112.3C36.2427 112.489 36.0387 112.661 35.7885 112.84C35.5961 112.974 35.4154 113.102 35.2277 113.242C34.6645 113.677 34.2474 113.985 33.8697 114.583C33.7029 114.847 33.6658 115.192 33.5267 115.392C33.4433 115.511 33.3112 115.521 33.3692 115.326C33.4317 115.13 33.4804 114.913 33.5476 114.726C33.6658 114.383 34.0157 113.917 34.2776 113.649C34.5371 113.385 34.8453 113.102 35.1234 112.855C35.2531 112.74 35.3876 112.638 35.5173 112.523C35.7885 112.281 36.0503 111.998 36.3122 111.742C36.6922 111.38 37.0421 111.063 37.4685 110.748C38.1104 110.274 38.8357 109.793 39.663 109.64C39.7256 109.627 39.7835 109.621 39.8461 109.612C43.0116 109.459 44.6801 107.318 47.1944 106.065C47.5373 105.911 47.8873 105.782 48.2418 105.675C49.4167 105.354 49.9381 105.407 50.9577 104.392C51.6622 103.69 52.559 103.841 53.3214 103.611L51.0643 102.879C51.0643 102.879 49.4144 102.228 48.5407 102.228C47.6694 102.228 46.8329 102.749 46.2234 103.185C45.614 103.617 43.9918 105.058 43.4959 105.49C43.0023 105.926 42.7103 106.275 42.182 106.712C41.6559 107.152 40.6224 107.233 40.8518 107.188C40.9677 107.165 41.4312 106.748 41.7927 106.348C42.1565 105.954 42.4276 105.584 42.1565 105.66C41.6235 105.811 40.9098 105.484 40.4347 105.335C40.196 105.258 39.3919 105.067 38.6527 104.896C37.0305 104.009 35.9877 105.35 34.9658 106.322C34.6228 106.648 34.3934 106.927 34.1153 107.299C33.9693 107.497 33.8349 107.659 33.7029 107.865C33.4734 108.222 33.2093 108.535 32.9219 108.846C32.8014 108.972 32.7226 109.065 32.5836 109.186C32.2707 109.469 31.9927 109.752 31.6636 110.025C31.462 110.191 30.9452 110.653 30.8201 110.853C30.7668 110.934 30.4864 111.512 30.3775 111.393C30.3311 111.342 30.4563 111.168 30.4864 111.112C30.6903 110.733 30.6695 110.723 30.9962 110.397C31.1955 110.193 31.3739 110.021 31.5918 109.833C31.893 109.574 32.1804 109.257 32.4631 108.976C32.718 108.727 33.0563 108.271 33.2301 107.973C33.4526 107.597 33.6403 107.203 33.8488 106.816C34.12 106.309 34.2266 106.039 34.6576 105.618C34.8615 105.418 35.1442 105.207 35.3204 105.011C35.413 104.913 35.4872 104.805 35.3505 104.709C33.3483 103.483 30.8919 104.288 29.8908 106.582C29.8723 106.767 29.5432 107.118 29.4111 107.275C29.2188 107.497 29.0775 107.644 28.8596 107.839C28.6093 108.065 28.4054 108.305 28.1436 108.531C27.8516 108.789 27.5805 109.048 27.2746 109.295C26.8737 109.616 26.6025 109.884 26.3291 110.306C26.299 110.35 25.9537 110.938 25.861 110.776C25.8239 110.708 26.0371 110.408 26.0788 110.336C26.3036 109.963 26.4751 109.718 26.7879 109.401C27.0173 109.167 27.3001 108.95 27.5341 108.708C27.7682 108.463 27.9837 108.252 28.1969 107.988C28.3429 107.803 28.4842 107.624 28.6395 107.439C28.8689 107.165 29.0473 106.85 29.1725 106.524C29.3138 106.135 29.4644 106.001 29.7054 105.662C29.8908 105.407 30.0948 105.105 30.0994 104.79C27.7682 105.403 24.1809 106.092 22.0165 105.326C22.5171 105.326 23.0176 105.633 23.685 105.479C28.6858 104.713 33.5151 102.419 38.5229 103.722C38.9771 103.813 39.4128 103.905 39.8206 103.986C40.634 104.149 41.3269 104.277 41.8182 104.277C43.7902 104.277 44.6592 101.928 46.6892 100.883C48.7215 99.8424 50.5012 99.8296 52.1836 100.528C53.0966 100.902 54.1394 100.802 55.2355 100.93C55.5646 100.485 55.8496 100.481 56.6004 100.221C57.1033 100.045 57.6131 99.8637 58.1183 99.6722C59.6037 99.1061 59.7312 98.9614 60.8782 97.7016C61.2884 95.9588 61.6337 96.7547 61.6847 94.7097L62.0137 92.637C62.4633 89.9515 62.7483 87.2362 62.6811 84.5208C62.6765 84.3102 62.6556 84.008 62.9801 84.2229C63.4783 84.5485 63.7448 84.8634 64.1156 85.2912C64.3195 85.5253 64.4863 85.6593 64.6485 85.9423C64.8293 86.2488 64.9127 86.4552 64.9869 86.7999C65.0448 87.0766 65.1329 87.317 65.1838 87.5979C65.2209 87.8001 65.2835 88.0001 65.3368 88.198C65.3785 88.3448 65.4411 88.4853 65.4874 88.6385C65.5245 88.7619 65.7076 89.3046 65.7794 89.3556C65.8721 89.4174 65.8466 89.2599 65.8327 89.2258C65.7794 89.0109 65.6844 88.7917 65.6241 88.5704C65.5801 88.4044 65.5199 88.264 65.4781 88.0959C65.4341 87.8958 65.3878 87.7575 65.353 87.5468C65.3113 87.2638 65.2256 86.9957 65.1746 86.7042C65.0865 86.1764 64.8362 85.6976 64.4817 85.2763C64.2986 85.0571 64.1318 84.789 63.9487 84.557C63.7401 84.291 63.527 84.0357 63.3555 83.7484C63.0936 83.3036 62.8271 82.9248 62.6394 82.4418C62.5467 82.2077 62.5004 82.0864 62.4633 81.8332C62.2431 80.2287 61.833 78.6114 61.0868 77.1409C60.8782 76.7281 61.5758 76.8856 61.7704 76.9579C62.0462 77.058 62.3335 77.2325 62.5977 77.375C62.9592 77.5665 63.2187 77.7155 63.5524 77.9496C63.6243 77.9985 63.9441 78.2411 64.0159 78.1177C64.0692 78.0262 63.7564 77.8028 63.6822 77.7389C63.2396 77.3835 62.7506 77.1069 62.2964 76.7579C61.979 76.5217 61.5758 76.3132 61.2166 76.1302C60.767 75.8961 60.7253 75.9386 60.3615 75.5364C60.1367 75.2875 59.9444 74.8193 59.7937 74.5065C58.4149 71.6912 56.809 69.5121 53.7015 68.0991C51.2358 66.9798 48.3785 66.6308 45.651 66.6052C43.6164 66.6052 42.0893 66.6052 40.6039 67.0223C33.2093 69.527 29.052 74.1235 19.2427 72.4487C18.7329 72.4487 19.2056 72.0316 19.7131 72.0316C30.0739 74.1192 35.997 66.6052 44.5248 65.3519C41.8691 64.1006 38.268 63.6835 35.6494 62.8472C31.1491 63.6835 27.1216 64.1006 22.3919 62.4301C22.3525 62.013 22.3525 62.013 22.3525 62.013C27.0822 63.6835 31.1121 63.2643 34.5579 62.013C30.9336 59.9787 28.0462 57.042 26.774 53.6181C26.3778 52.5498 26.9409 52.9776 27.3302 53.6521C27.8632 54.5863 28.1806 55.2609 28.8527 56.1759C34.2567 63.5494 44.9512 64.2198 53.9888 64.9199L54.1464 64.9348C52.0376 62.2726 49.8338 59.7382 48.017 56.9378C47.7158 56.4717 47.8942 56.6058 47.2616 56.5058C44.4344 56.0334 43.3082 55.4716 40.8889 54.2118C39.9133 53.7011 38.794 53.4861 37.6887 53.3712C37.1232 53.3117 36.4929 53.3989 35.8719 53.3691C35.2207 53.3372 34.2683 53.2606 33.6472 53.0627C32.5303 52.6562 31.5547 51.8667 30.8919 51.0326C30.5652 50.6155 31.8258 51.7093 31.8328 51.7135C33.2278 52.6903 34.0481 52.7094 35.7421 52.8669C36.4373 52.9329 37.9181 53.001 37.8184 52.1498C37.7605 51.6561 36.8544 51.0964 36.4141 50.6453C35.0539 49.2429 33.8558 47.3745 33.0772 45.7232C33.7515 45.7168 33.5198 45.6232 33.8743 46.2063C35.0168 48.0832 36.384 50.0367 38.1985 51.5561C39.0397 52.2625 39.3664 52.7052 40.4509 53.2882C42.4786 54.3756 44.7704 55.2098 47.148 55.3098C46.7912 54.3714 46.3323 53.4266 45.9592 52.469C45.3104 50.7878 44.8423 49.2387 44.3417 47.5384C44.0498 46.5404 43.4403 46.4318 42.5574 45.77C41.7695 45.1678 41.0928 44.4634 40.3513 43.9038C39.7279 43.4377 39.1486 43.2505 38.4186 42.9441C37.6562 42.6206 39.137 42.9249 39.2691 42.9632C41.2852 43.591 42.9282 45.4168 43.4751 45.5828C44.0613 45.7573 43.6743 44.3677 43.628 44.0847C43.2989 42.1844 42.803 40.3266 42.81 38.4284C42.81 38.105 42.7659 37.8028 43.2201 37.9603C43.4125 38.588 43.6743 39.4307 43.7694 40.1159C43.9872 41.6417 44.3834 43.0419 44.6546 44.5443C44.7843 45.2678 44.935 46.0637 45.5468 46.6574C46.1655 47.2022 46.7147 46.0488 46.907 45.7317C47.4331 43.7974 47.732 45.1912 48.4411 43.3271C48.3577 42.6057 48.8837 41.6247 48.7076 42.9355C48.7053 44.6741 47.8919 43.808 47.5582 46.4893C46.9534 47.7767 45.8271 47.6533 46.5525 49.6004C46.6568 49.8792 47.111 51.4348 47.8201 52.652C48.3924 53.6372 49.2128 54.3182 49.3124 54.5246C50.3738 56.7122 50.478 53.6862 51.2312 52.7137C51.9449 51.8221 52.4362 51.139 53.5137 50.4921C54.1719 50.1197 54.5403 50.4069 54.2483 50.4814C53.9726 50.5538 53.6875 51.0177 53.5137 51.2241C52.6795 52.2072 52.3574 52.7328 51.9704 53.9075C51.4745 55.6503 51.2196 56.8356 52.0909 58.638C52.4084 59.2892 53.3423 60.0702 53.8845 60.7149C54.6562 61.63 55.4696 62.4876 56.2459 63.4154C56.5286 63.7516 57.247 64.7709 57.7892 64.6751C58.0766 64.6241 58.3014 64.3155 58.4427 64.1304C59.131 63.1685 59.0406 61.7832 59.0777 60.649C59.1147 59.5084 59.1402 58.6699 59.3557 57.5357C59.5574 56.493 59.5365 55.4758 59.7451 54.4033C59.8818 53.6904 60.1367 52.5137 59.7451 51.8221C59.4484 51.3773 58.7509 50.8708 58.3129 50.4814C57.1844 49.4281 56.232 48.4194 55.1776 47.3277C53.9309 46.0382 53.0456 45.9573 51.7873 44.9657C50.5615 43.9995 49.9798 42.4908 49.952 41.1778C49.9311 40.1777 50.339 41.1055 50.4062 41.4757C50.6403 42.6908 50.4525 43.2271 51.6066 44.2804C52.7212 45.2912 54.0815 45.5977 55.2981 46.7127C55.8195 47.2022 57.7545 49.3323 59.1773 49.9324C59.4739 50.0601 59.8192 50.5921 60.0579 50.558C60.3615 50.5112 60.5283 49.826 60.6581 49.4004C61.0196 48.2172 61.1586 46.2552 60.9037 45.0188C60.6697 43.874 60.7415 44.2038 60.9825 43.2909C60.9362 43.3186 61.0381 43.0419 60.9964 43.0739C59.3812 40.9671 57.8958 38.7881 56.7673 36.4047C51.8499 35.7855 46.5687 34.6044 44.497 29.9399C44.8261 29.8186 45.0717 30.059 45.563 30.6059C46.9117 33.3064 50.1049 34.4704 53.4048 35.1258C54.4476 35.3322 55.4997 35.4897 56.5077 35.628C54.9574 31.8976 54.9528 30.9315 55.3282 26.8607C55.4116 26.4585 55.6202 26.3138 55.9701 26.3393C55.6411 29.9484 56.0582 31.9444 57.1844 34.7428C58.2087 37.2942 59.6894 39.6031 61.3463 41.8247C61.5248 40.5692 61.7125 38.8562 62.1875 38.2242C62.3057 38.6881 62.0601 42.81 61.9512 43.5144C61.789 44.5911 62.0833 45.1061 62.1018 46.1212C62.1296 48.0491 61.3417 49.9664 61.1494 51.8944C61.0381 53.1159 60.913 54.1799 60.7114 55.395C60.5538 56.3781 61.1633 56.4824 62.0879 56.0334C63.907 55.1502 63.9441 52.703 65.9254 51.5263C66.1177 51.4199 66.5882 51.2156 67.0817 51.039L67.1235 51.4965C66.9589 51.5539 66.8477 51.5922 66.8338 51.5944C65.1375 52.2732 64.8339 53.9266 63.9951 55.229C63.177 56.4717 62.5421 56.7994 61.4367 57.7655C60.1738 58.8721 60.5121 59.8957 60.5654 61.3299C60.6419 63.2622 60.5028 64.4602 60.1946 66.3329C60.0324 67.3096 60.1321 67.5692 60.9084 68.3928C62.4146 69.91 63.812 71.6763 64.9243 73.4531C65.0657 73.6787 65.1421 73.9234 65.2163 74.1767C65.2626 74.3256 65.3623 74.4831 65.4156 74.6448C65.55 75.0427 65.6079 75.7769 65.6241 76.2068C65.6334 76.3642 65.5801 76.6281 65.5662 76.8047C65.55 76.9771 65.5454 77.0729 65.5129 77.2495C65.4619 77.4899 65.4503 77.7155 65.3924 77.9496C65.2325 78.5773 65.258 79.3285 65.2534 79.9754C65.2534 80.052 65.2418 80.3819 65.3043 80.4202C65.4411 80.5032 65.4364 79.8797 65.4364 79.8222C65.4573 79.2008 65.4573 78.5497 65.645 77.9538C65.7122 77.7453 65.7284 77.5346 65.791 77.3133C65.8327 77.1644 65.8675 77.0643 65.893 76.9047C65.9208 76.6962 65.9717 76.543 66.0181 76.3493C66.0552 76.1876 66.0621 75.8535 66.0807 75.6748C66.1085 75.2875 66.1386 74.8895 66.1757 74.5065C66.2127 74.0915 66.4144 73.8277 66.6183 73.468C66.8523 73.0552 67.0678 72.6402 67.2718 72.2168C68.1315 70.4314 69.0955 68.4311 69.6748 65.8732C66.6646 64.7624 65.5291 62.1322 64.5072 59.6084C64.6671 58.6146 64.4817 58.4125 65.2626 59.1509C66.0922 61.2001 67.4803 63.5686 69.9205 64.6177C70.3376 62.0705 70.3585 59.0019 69.5961 55.1311C69.4709 54.5097 69.1952 53.6968 68.8754 52.7562C67.7306 49.411 66.2545 45.3253 68.4281 39.6414C67.9322 37.8539 65.1027 34.3938 64.3403 32.1955C63.2906 29.5802 62.4772 26.5159 62.7808 23.1537C63.1933 22.3876 63.374 23.3601 63.3647 24.073C63.0728 27.2777 64.0692 29.1972 65.0703 31.687C65.1375 31.8551 65.207 32.0211 65.2789 32.1849C69.1581 32.0274 75.1646 30.7017 76.803 26.5542C77.4704 25.9116 77.2363 26.0073 77.2942 26.7394C75.3176 31.1933 70.2217 32.2509 65.499 32.9042C66.3889 34.7172 67.7306 36.609 68.9611 38.2391C69.3342 37.3751 69.2739 37.3815 69.8162 36.4749C70.2426 36.0217 70.859 36.0493 70.4836 36.7431C67.5985 41.6034 67.7862 44.7443 69.749 49.8898C69.9344 50.3729 70.2333 50.5538 70.7756 50.2197C72.2772 49.1791 72.7917 46.7808 72.5947 45.2402C72.4232 43.9017 72.3236 43.1654 72.5368 41.8013C72.5646 41.6247 72.7152 40.4458 73.0744 40.5181C73.2783 40.5607 73.0906 41.4885 73.0744 41.6332C72.9075 42.9355 72.933 43.6144 73.1277 44.8997C73.2737 45.8317 73.2829 46.3637 73.1787 47.2979C73.1694 47.366 73.1624 47.4363 73.1532 47.5086C72.9585 48.7428 72.2448 50.3686 71.6399 51.5114C70.8474 52.9925 71.1857 53.4095 71.7697 54.8502C71.823 54.9928 71.8809 55.1332 71.9389 55.2758C73.992 65.7008 70.2078 68.8375 69.3551 78.788C69.7212 79.6264 69.9622 80.3351 70.18 81.2118C70.2797 81.6097 70.3538 82.0204 70.4511 82.4226C70.4998 82.6376 70.567 82.8163 70.6041 83.0398C70.6759 83.4228 70.7061 83.8888 70.7339 84.2804C70.7594 84.5826 70.7802 84.8847 70.7964 85.189C70.8103 85.3805 70.7895 85.6402 70.7802 85.8359C70.764 86.2445 70.5624 86.7233 70.4048 87.1064C70.3052 87.3447 70.1661 87.5809 70.0665 87.8235C69.9367 88.1299 69.8208 88.3853 69.7119 88.7045C69.6494 88.8832 69.6007 89.0152 69.559 89.2067C69.5034 89.4429 69.457 89.6046 69.4292 89.8536C69.3829 90.2622 69.2878 90.4622 69.3574 90.8942C69.3944 91.1283 69.413 91.3347 69.4663 91.5688C69.4756 91.5986 69.5404 91.9369 69.5404 91.9369C69.5821 92.0093 69.6169 91.8943 69.6169 91.8369C69.6123 91.6645 69.5335 91.4432 69.5173 91.2538C69.4779 90.8644 69.4199 90.6963 69.4871 90.2856C69.5173 90.109 69.5497 89.9366 69.5798 89.7578C69.6633 89.1897 69.9413 88.4938 70.1962 87.9682C70.3585 87.6277 70.5415 87.3106 70.6922 86.9617C70.8752 86.5318 71.0305 86.2254 71.0722 85.7508C71.0931 85.5253 71.1301 85.3295 71.1348 85.0997C71.151 84.4251 71.1973 83.7356 71.1881 83.0632C71.1857 82.6759 71.1185 82.3354 71.1348 81.9396C71.1556 81.5374 71.2182 81.3884 71.3387 81.0054C72.9376 76.1004 74.7011 72.2189 78.5132 68.3779C79.2918 67.5543 79.3891 67.2947 79.2269 66.318C78.9164 64.4453 78.7843 63.2451 78.8538 61.315C78.9094 59.8765 79.2478 58.853 77.9825 57.7506C76.8771 56.7845 76.365 56.3951 75.4265 55.2141C74.6594 54.2522 74.7846 54.1565 76.3951 55.4141C76.6941 55.6482 77.0162 55.861 77.336 56.0185C78.2583 56.4675 78.8723 56.3675 78.7124 55.3801C78.5178 54.165 78.388 53.1031 78.2745 51.8795C78.0868 49.9515 77.2989 48.0342 77.3244 46.1063C77.3406 45.0912 77.6372 44.5741 77.4704 43.4995C77.3614 42.793 77.1158 38.6732 77.2363 38.2093C77.7508 38.8881 77.9292 40.8246 78.1215 42.0886C81.2499 37.9496 83.3749 33.9703 83.8593 29.2738C83.9357 28.546 84.2092 27.8906 84.2022 27.1245C84.3691 26.7841 84.5684 26.5585 84.7236 27.0415C84.5405 33.7511 82.8304 37.6453 78.6754 43.059C78.5966 43.193 78.5178 43.3228 78.4367 43.4569C78.7009 44.5741 78.7634 43.7889 78.5132 45.0082C78.2583 46.2488 78.3996 48.2087 78.7588 49.3898C78.8886 49.8132 79.06 50.4963 79.359 50.5453C79.5977 50.5793 79.9383 50.0473 80.2396 49.9218C81.6624 49.3238 83.5928 47.1937 84.1188 46.7C85.3331 45.5849 86.691 45.2827 87.8103 44.2677C88.969 43.2186 88.7766 42.6781 89.0107 41.4651C89.0825 41.0884 89.4857 40.1628 89.4649 41.165C89.4371 42.4802 88.8554 43.9889 87.6296 44.955C86.3712 45.9467 85.486 46.0254 84.2393 47.3171C83.1849 48.4087 82.2325 49.4153 81.1039 50.4686C80.6683 50.8602 79.9731 51.3688 79.6718 51.8093C79.2802 52.503 79.5351 53.6777 79.6718 54.3905C79.8804 55.4631 79.8595 56.4781 80.0611 57.523C80.2767 58.6529 80.2975 59.4935 80.3392 60.6383C80.3763 61.7704 80.2859 63.1579 80.9742 64.1197C81.1155 64.3027 81.3403 64.6134 81.6277 64.6624C82.1699 64.7581 82.8883 63.741 83.171 63.4026C83.9473 62.4769 84.7607 61.6172 85.5324 60.7022C86.07 60.0595 87.0085 59.2828 87.326 58.6274C88.1973 56.8271 87.9424 55.6397 87.4465 53.8968C87.0595 52.7243 86.7374 52.1966 85.9031 51.2113C85.7293 51.0049 85.4397 50.541 85.1685 50.4686C84.8766 50.3963 85.245 50.109 85.9031 50.4814C86.983 51.1283 87.472 51.805 88.1857 52.703C88.9388 53.6755 89.0431 56.7015 90.1045 54.514C90.2041 54.3076 91.0244 53.6245 91.5968 52.6413C92.3013 51.422 92.7601 49.8686 92.8644 49.5877C93.5897 47.6427 92.4589 47.7661 91.8541 46.4787C91.087 44.8465 90.8924 44.1762 90.9758 43.2718C91.1589 43.3718 91.3628 43.4484 91.576 43.4952C91.6548 44.157 91.9143 44.7741 92.5099 45.719C92.7022 46.0382 93.2514 47.1915 93.8701 46.6468C94.4819 46.0488 94.6279 45.2572 94.7623 44.5337C95.0334 43.0313 95.4343 41.629 95.6475 40.1053C95.7425 39.4201 95.7541 38.4816 95.9465 37.8539C96.4007 37.6964 96.352 38.0028 96.3543 38.3199C96.3636 40.2202 96.118 42.1737 95.7843 44.074C95.7333 44.3613 95.3463 45.7466 95.9372 45.57C96.4841 45.4061 98.1248 43.5782 100.143 42.9504C100.275 42.9121 101.756 42.61 100.994 42.9313C100.264 43.2377 99.6843 43.425 99.0633 43.8931C98.3194 44.4528 97.6404 45.1572 96.8549 45.7573C95.9766 46.4212 95.3671 46.5276 95.0705 47.5278C94.57 49.228 94.0996 50.7708 93.453 52.4562C93.0822 53.4138 92.6188 54.3608 92.2642 55.2992C94.6418 55.1992 96.9313 54.3671 98.9613 53.2755C100.044 52.6945 100.373 52.2498 101.214 51.5454C103.028 50.0239 104.398 48.0725 105.54 46.1956C105.895 45.6126 105.661 45.7041 106.335 45.7126C105.552 47.3639 104.356 49.2323 102.996 50.6346C102.558 51.0815 101.647 51.6454 101.589 52.1391C101.49 52.9903 102.97 52.9201 103.668 52.8563C105.359 52.6988 106.182 52.6796 107.575 51.7029C107.579 51.6986 108.523 51.1198 108.191 51.5369C107.529 52.3775 106.877 52.6605 105.751 53.0499C105.139 53.2648 104.185 53.3265 103.533 53.3563C102.912 53.384 102.282 53.2989 101.714 53.3606C100.609 53.4755 99.492 53.6947 98.5164 54.199C96.0925 55.4567 94.9662 56.0227 92.1437 56.493C91.5088 56.5973 91.6872 56.459 91.3883 56.9271C89.5645 59.7254 87.3631 62.262 85.2566 64.9241L85.4165 64.9092C94.4541 64.207 105.146 63.5367 110.553 56.1653C111.225 55.2481 111.542 54.5757 112.075 53.6394C112.462 52.9627 113.025 52.5371 112.627 53.6053C111.357 57.0293 108.467 59.968 104.847 62.0003C108.293 63.2536 112.321 63.6707 117.05 62.0003C117.05 62.0003 117.05 62.0003 117.013 62.4195C112.284 64.0878 108.254 63.6707 103.754 62.8366C101.135 63.6707 97.5408 64.0878 94.8782 65.3412C103.408 66.5925 109.331 74.1107 119.69 72.021C120.2 72.021 120.67 72.4381 120.163 72.4381C110.349 74.1086 106.194 69.5163 98.7991 67.0117C97.3137 66.5925 95.7889 66.5925 93.752 66.5925C82.2835 66.701 80.5825 72.6104 78.5966 76.6175L78.6221 76.6132ZM121.189 39.003C124.909 37.922 126.563 34.681 124.909 31.7976C121.189 32.519 119.532 36.1174 121.189 39.003ZM57.05 78.3241C54.2599 76.5664 53.8521 73.0041 56.4614 70.8825C58.9016 72.4232 59.314 75.9854 57.05 78.3241ZM81.5419 79.5435C84.5938 77.8772 85.2937 74.1724 82.7168 71.7869C80.0426 73.2467 79.3474 76.9494 81.5419 79.5435ZM22.4244 37.7837C18.9785 36.5941 18.0539 33.5298 20.2391 31.372C23.3258 32.8318 24.6096 35.628 22.4244 37.7837ZM30.5397 56.759C27.9976 55.7354 27.3163 53.1116 28.9268 51.2666C31.2048 52.5137 32.1502 54.9119 30.5397 56.759ZM49.4468 63.7367C46.4575 63.0536 45.1852 60.3 46.5687 58.006C49.3124 58.987 50.8326 61.4427 49.4468 63.7367ZM43.2201 53.6904C40.7429 52.0157 40.7012 49.0216 42.9351 47.3852C45.0671 49.2514 45.4564 52.054 43.2201 53.6904ZM63.8027 69.5121C65.1653 67.2522 63.958 64.756 61.4159 64.1772C60.424 66.4712 61.2676 68.9333 63.8027 69.5121ZM65.842 71.8146C68.5208 70.4186 68.9449 67.4522 66.9381 65.5817C64.5837 67.2032 63.8352 69.9441 65.842 71.8146ZM73.2041 71.5656C75.8807 70.1696 76.3071 67.2032 74.3002 65.3327C71.9435 66.9542 71.1973 69.6951 73.2041 71.5656ZM32.4677 65.3178C34.5603 63.243 37.8022 63.5452 39.3201 65.7689C37.063 67.5054 33.9856 67.5437 32.4677 65.3178ZM42.0314 62.6216C40.8171 60.0212 42.4369 57.4251 45.264 57.0527C46.0728 59.6531 44.8585 62.2492 42.0314 62.6216ZM55.3143 60.4511C54.0467 58.1167 55.3143 55.2034 58.1716 54.6204C59.7566 56.9527 57.8541 59.5765 55.3143 60.4511ZM64.6624 64.7049C65.9208 62.1237 64.345 59.5041 61.5201 59.0934C60.6697 61.6832 61.8376 64.2964 64.6624 64.7049ZM78.5178 66.5542C78.9349 63.7559 76.6199 61.6449 73.7835 61.9811C73.758 64.6858 75.6814 66.8925 78.5178 66.5542ZM90.1879 51.373C90.1879 48.7428 87.6805 46.7702 84.8186 47.4277C84.8186 49.7302 87.326 51.6986 90.1879 51.373ZM106.419 54.8928C109.067 55.6737 111.47 54.116 111.595 51.7476C108.979 51.3007 106.544 52.5264 106.419 54.8928ZM99.8628 65.3795C101.564 67.0223 104.718 66.2648 105.978 64.2495C104.085 62.9898 101.126 63.3643 99.8628 65.3795ZM105.563 19.6914C103.107 21.396 103.112 24.3879 105.369 25.9988C107.475 24.1113 107.82 21.3045 105.563 19.6914ZM84.2092 61.0065C85.5787 58.4933 84.2092 55.3567 81.1364 54.7289C79.4308 57.2399 81.4793 60.0638 84.2092 61.0065ZM91.0082 58.1337C89.8194 60.1212 91.5551 62.6514 94.0324 63.143C94.7669 61.1044 93.4855 58.6274 91.0082 58.1337ZM48.7586 73.634C51.3331 75.4215 50.719 79.2902 48.0495 81.0863C45.994 79.0136 46.089 75.43 48.7586 73.634ZM41.5934 73.568C44.1865 74.7363 44.3742 78.2326 42.365 80.2329C40.1659 78.7348 39.5819 75.5662 41.5934 73.568ZM44.9721 76.1876C42.4183 73.2084 43.3499 68.9226 47.2315 67.3245C49.463 69.9334 48.5384 74.2192 44.9721 76.1876ZM38.94 75.0917C40.5413 77.9155 38.0154 81.4076 34.5232 82.0247C33.5638 79.1434 35.4501 75.7088 38.94 75.0917ZM53.8753 74.4405C50.5313 73.966 48.4782 70.9208 49.8338 67.9714C52.7629 68.3906 54.8138 71.4337 53.8753 74.4405ZM42.4995 67.2607C44.1656 70.0483 41.7301 73.5957 38.2564 74.2873C37.2275 71.4315 39.0235 67.9523 42.4995 67.2607ZM35.5451 70.1356C37.3758 73.2339 35.3737 77.2325 31.7911 77.8198C29.9604 74.7214 31.9625 70.7229 35.5451 70.1356ZM13.8989 74.5256C14.2697 77.8985 11.0764 80.201 7.9897 79.9946C7.50074 76.9452 10.4553 74.2107 13.8989 74.5256ZM29.6475 73.1467C30.0183 76.5217 26.825 78.8221 23.7383 78.6156C23.2494 75.5662 26.204 72.8318 29.6475 73.1467ZM23.013 73.6489C22.1903 77.0452 18.4872 78.937 15.1966 77.424C15.6091 74.4022 19.3122 72.5147 23.013 73.6489ZM18.4617 71.9125C16.8303 74.3107 13.2454 73.9702 11.2896 71.572C13.5698 69.5206 16.8303 69.5206 18.4617 71.9125ZM127.189 65.8243C126.044 68.8035 129.059 71.9167 132.584 72.0784C133.091 69.1205 130.713 65.9839 127.189 65.8243ZM8.3234 62.2492C7.30841 65.2689 10.4577 68.2715 13.9823 68.3013C14.3624 65.3306 11.8481 62.2854 8.3234 62.2492ZM97.506 73.5723C94.9129 74.7406 94.7252 78.2369 96.7344 80.2351C98.9335 78.7391 99.5175 75.5705 97.506 73.5723ZM94.1274 76.1919C96.6811 73.2127 95.7541 68.9269 91.8726 67.3288C89.641 69.9377 90.5656 74.2235 94.1274 76.1919ZM6.4255 45.2572C4.82886 48.0789 7.35012 51.5731 10.8423 52.1881C11.8017 49.3089 9.91541 45.8722 6.4255 45.2572ZM63.7355 17.6464C62.1505 15.0801 63.4018 12.1626 66.1849 11.4178C67.3645 14.0352 66.5186 16.9038 63.7355 17.6464ZM59.6524 10.9901C58.0673 8.4237 59.314 5.50409 62.0972 4.76142C63.2767 7.37886 62.4355 10.2474 59.6524 10.9901ZM53.8961 7.02561C51.4397 5.12105 51.5162 1.98864 53.8428 0.407543C55.9354 2.48659 56.225 5.44664 53.8961 7.02561ZM55.9029 24.9923C54.3179 22.4259 55.5692 19.5084 58.3523 18.7636C59.5319 21.3811 58.686 24.2496 55.9029 24.9923ZM85.2983 75.279C88.7859 74.664 90.8136 71.3954 89.2656 68.3481C86.216 68.8886 84.1883 72.1551 85.2983 75.279ZM56.3733 16.7314C56.7905 13.931 54.4778 11.82 51.6413 12.1583C51.6159 14.8609 53.5392 17.0676 56.3733 16.7314ZM78.205 61.7215C78.6221 58.921 76.3071 56.8122 73.4706 57.1484C73.4451 59.8531 75.3685 62.0577 78.205 61.7215ZM69.749 58.6848C70.1661 55.8844 67.8534 53.7777 65.017 54.1118C64.9915 56.8165 66.9149 59.0211 69.749 58.6848ZM61.5178 52.1774C61.9419 49.6877 64.5072 48.4322 66.8338 49.3812C66.1015 51.6944 63.8444 53.1265 61.5178 52.1774ZM66.8013 48.3811C67.8534 45.7232 66.0807 43.2143 63.2303 42.9887C62.5815 45.6275 63.9533 48.1555 66.8013 48.3811ZM62.6927 42.1737C65.7701 42.212 67.7723 39.8521 67.0678 37.3049C64.1457 37.607 61.9882 39.6265 62.6927 42.1737ZM29.5849 30.7826C26.4403 33.3064 22.0652 32.5296 20.311 29.3802C23.6294 27.3288 27.8307 27.6353 29.5849 30.7826ZM66.2498 36.3664C63.9533 38.2518 60.7577 37.6688 59.4739 35.3216C61.8955 33.7894 64.966 34.0192 66.2498 36.3664ZM62.2223 23.1963C59.1263 21.9003 58.4358 18.8488 60.5445 16.7952C63.2975 18.3423 64.3334 21.1427 62.2223 23.1963ZM48.2256 13.1032C51.4768 12.6371 53.143 9.65369 51.9287 6.91921C48.9046 7.74487 47.0113 10.3687 48.2256 13.1032ZM43.2271 28.4822C46.4783 28.014 48.1445 25.0306 46.9325 22.2961C43.9084 23.1239 42.0151 25.7456 43.2271 28.4822ZM49.4468 32.4722C51.6112 31.0975 54.5426 31.8061 55.4997 34.1384C53.6041 35.3407 50.6727 34.6321 49.4468 32.4722ZM45.7715 43.5378C44.5457 40.9714 46.0682 38.0603 49.1711 37.573C50.244 39.818 48.7215 42.7291 45.7715 43.5378ZM54.735 30.2314C54.6516 27.4054 51.9959 25.669 49.2591 26.4202C49.7087 29.0908 51.9982 30.9826 54.735 30.2314ZM46.907 11.5753C43.2526 11.2348 41.2921 8.58118 42.562 6.07652C45.9731 6.74897 48.1746 9.07061 46.907 11.5753ZM53.9054 25.8073C50.2509 25.4668 48.2905 22.8132 49.5604 20.3086C52.9715 20.9831 55.173 23.3027 53.9054 25.8073ZM54.2136 11.1156C53.1638 8.45775 54.9366 5.94884 57.7846 5.72328C58.4358 8.35774 57.0616 10.8901 54.2136 11.1156ZM56.466 30.3953C55.4163 27.7374 57.1867 25.2285 60.037 25.0029C60.6859 27.6395 59.314 30.1697 56.466 30.3953ZM57.5413 34.8917C56.4915 32.2338 58.2643 29.7249 61.1123 29.5036C61.7635 32.1381 60.3916 34.6704 57.5413 34.8917ZM48.4874 33.1531C46.1771 31.921 46.1887 29.2461 48.3299 27.5352C50.3066 28.9716 50.6263 31.4422 48.4874 33.1531ZM50.7515 41.6566C49.7017 38.9987 51.4745 36.4898 54.3225 36.2643C54.9737 38.903 53.6018 41.431 50.7515 41.6566ZM59.3859 46.7851C60.6117 44.0464 58.3129 40.3245 54.3967 39.9755C53.326 43.2122 55.8195 46.617 59.3859 46.7851ZM40.2748 38.1433C39.2251 35.4854 40.9978 32.9786 43.8458 32.7552C44.497 35.3897 43.1228 37.922 40.2748 38.1433ZM43.774 39.3541C42.7891 37.1644 44.6337 34.1831 47.7691 33.9001C48.6288 36.4941 46.6359 39.2201 43.774 39.3541ZM46.666 19.6574C43.8458 18.2848 43.0185 14.8396 45.0393 12.2796C48.1028 13.9075 48.6844 17.0974 46.666 19.6574ZM37.7651 19.817C33.6727 21.0704 29.578 18.9828 29.1238 15.644C32.7597 13.9735 36.8544 16.4782 37.7651 19.817ZM35.0191 24.854C30.929 26.1074 26.832 24.0198 26.3778 20.6788C30.016 19.0105 34.1107 21.5151 35.0191 24.854ZM43.1483 32.0849C40.1636 33.1148 36.8058 31.3997 36.0596 28.3162C39.4151 27.2863 42.4021 29.0014 43.1483 32.0849ZM39.7673 35.4258C35.6749 36.6771 31.5802 34.5895 31.1237 31.2507C34.7619 29.5802 38.8566 32.0849 39.7673 35.4258ZM32.952 36.9601C29.7263 38.9072 25.8726 37.6581 24.744 34.5449C28.0601 33.0553 31.8212 33.8469 32.952 36.9601ZM30.0785 39.8372C28.5931 42.2269 24.5007 42.5674 22.2691 40.5181C23.7592 37.7879 28.2177 37.4474 30.0785 39.8372ZM54.9366 19.9638C51.6854 21.1959 48.4341 19.1403 48.0703 15.8547C50.96 14.2076 54.2089 16.6782 54.9366 19.9638ZM42.27 26.6968C39.0165 27.9289 35.7676 25.8733 35.4038 22.5876C38.2935 20.9448 41.5424 23.4112 42.27 26.6968ZM42.0198 41.6098C37.9274 42.8632 33.8303 40.7756 33.3761 37.4347C37.0143 35.7663 41.1091 38.271 42.0198 41.6098ZM12.7657 57.2527C8.67332 58.504 4.57859 56.4164 4.12207 53.0776C7.76029 51.4071 11.855 53.9117 12.7657 57.2527ZM38.078 50.8176C36.8637 48.2172 38.4812 45.6211 41.313 45.2487C42.124 47.8491 40.9098 50.4452 38.078 50.8176ZM68.4165 15.6738C68.4165 12.8691 71.0884 10.7666 74.138 11.4689C74.138 13.9224 71.4638 16.0228 68.4165 15.6738ZM47.586 52.0923C47.586 49.2897 50.2602 47.1915 53.3098 47.8874C53.3098 50.3431 50.6356 52.4413 47.586 52.0923ZM42.2608 56.4866C41.89 59.1977 38.5693 61.5725 35.617 60.5532C35.617 57.5038 38.9354 55.4673 42.2608 56.4866ZM33.2857 68.6694C30.1017 69.5036 26.4658 67.416 26.4658 64.4943C29.1933 63.6601 32.8315 65.7477 33.2857 68.6694ZM53.8799 56.0717C52.6077 53.7394 53.8799 50.8262 56.7372 50.2431C58.3269 52.5754 56.4197 55.1992 53.8799 56.0717ZM20.7049 40.25C17.9241 41.2076 14.7957 39.6116 14.1005 36.7388C17.2266 35.7812 20.0097 37.3772 20.7049 40.25ZM20.9552 50.5793C18.1744 51.5369 15.046 49.9409 14.3508 47.0681C17.4769 46.1105 20.26 47.7086 20.9552 50.5793ZM18.9994 52.9478C16.6728 55.4375 12.7982 55.7929 10.4716 53.3031C12.4112 50.8091 16.2858 50.4538 18.9994 52.9478ZM24.6444 48.2215C21.3144 48.9833 17.996 46.3127 17.996 42.8781C21.319 42.1163 24.6444 44.7848 24.6444 48.2215ZM21.9146 61.9811C19.7502 64.3027 16.1421 63.9708 13.9777 61.6491C16.1421 59.6616 20.114 59.6616 21.9146 61.9811ZM21.0062 55.0417C20.6053 57.9805 16.6102 60.1787 13.0114 58.7104C13.8108 55.4099 17.8083 53.5755 21.0062 55.0417ZM26.3453 51.1432C25.3512 53.8862 21.6226 54.6097 19.3307 52.7626C20.4477 50.3112 23.8634 49.7068 26.3453 51.1432ZM43.4148 23.0771C39.3247 21.8237 37.5056 18.0678 39.3247 14.7247C43.4148 15.5589 45.2339 19.734 43.4148 23.0771ZM26.9154 62.4067C22.8253 61.1554 21.0062 57.3974 22.8253 54.0543C26.9154 54.8885 28.7345 59.0636 26.9154 62.4067ZM17.85 41.6141C15.8547 44.0996 11.9593 44.5294 9.62342 42.7589C11.6812 39.9372 15.5767 39.5031 17.85 41.6141ZM39.5958 54.9268C37.6029 57.4123 33.7052 57.8422 31.3716 56.0717C33.4271 53.2499 37.3225 52.818 39.5958 54.9268ZM36.1801 27.482C34.6947 29.8718 30.6023 30.2123 28.373 28.163C29.8607 25.4328 34.3193 25.0923 36.1801 27.482ZM32.5141 49.0599C31.0286 51.4497 26.9362 51.7901 24.7093 49.7409C26.1947 47.0107 30.6579 46.6702 32.5141 49.0599ZM18.3737 35.0534C14.6659 36.1877 10.9582 34.2959 10.5457 31.2699C13.8456 29.7569 17.5487 32.0274 18.3737 35.0534ZM32.3727 46.9915C28.665 48.1257 24.9549 46.2339 24.5424 43.2079C27.8377 41.6949 31.5454 43.9655 32.3727 46.9915ZM26.007 71.5954C21.9146 70.342 20.0978 66.5861 21.9146 63.243C26.007 64.0772 27.3742 68.2523 26.007 71.5954ZM21.0062 71.1783C17.3656 71.5954 13.7274 68.6737 14.1863 64.9156C17.8245 64.0814 21.4604 67.0032 21.0062 71.1783ZM91.6084 20.7874C90.503 17.9061 92.3685 15.1843 95.3625 14.9418C96.0415 17.7997 94.6047 20.5448 91.6084 20.7874ZM74.7799 18.6466C73.6746 15.7653 75.54 13.0415 78.534 12.801C79.213 15.6589 77.7739 18.3997 74.7799 18.6466ZM65.2789 29.2057C64.1735 26.3244 66.0389 23.6027 69.0329 23.3601C69.7119 26.218 68.2729 28.9631 65.2789 29.2057ZM70.6504 30.9294C73.1694 29.2972 73.2737 26.3095 71.0768 24.6326C68.9078 26.4542 68.4582 29.2504 70.6504 30.9294ZM75.8343 12.0009C74.6084 8.81738 76.6778 5.81052 79.9986 5.5424C80.7517 8.70034 79.1551 11.7327 75.8343 12.0009ZM69.5868 22.3302C68.3609 19.1467 70.4303 16.1419 73.7487 15.8738C74.5042 19.0296 72.9075 22.062 69.5868 22.3302ZM64.3774 23.1814C63.3277 20.5235 65.1004 18.0146 67.9484 17.7869C68.5996 20.4235 67.2277 22.9537 64.3774 23.1814ZM73.9619 10.3197C75.014 7.66188 73.2412 5.15297 70.3932 4.92741C69.742 7.56612 71.1139 10.0942 73.9619 10.3197ZM75.9641 27.3054C77.0162 24.6475 75.2434 22.1386 72.3954 21.9131C71.7442 24.5475 73.1161 27.0798 75.9641 27.3054ZM74.8101 7.18734C77.9918 5.74668 78.7009 2.35253 76.5318 0.0713196C73.7047 1.79074 72.641 4.904 74.8101 7.18734ZM77.0579 24.6326C80.2396 23.192 80.9487 19.7978 78.7797 17.5166C75.9525 19.2361 74.8888 22.3493 77.0579 24.6326ZM56.517 13.1159C59.3951 12.1115 62.1551 13.7054 62.4378 16.3164C59.5782 16.9485 56.7997 15.727 56.517 13.1159ZM67.8488 32.8552C70.7269 31.8508 73.4869 33.4447 73.7696 36.0579C70.91 36.6899 68.1361 35.4663 67.8488 32.8552ZM94.6488 13.2755C96.8178 10.5411 95.7796 6.949 92.6883 5.64241C90.9804 8.50031 91.5598 11.9711 94.6488 13.2755ZM101.459 30.5804C104.231 28.3503 104.071 24.6369 101.369 22.7409C99.0169 25.1838 98.7574 28.6844 101.459 30.5804ZM70.5253 46.5978C72.9029 44.8018 72.7731 41.8141 70.4465 40.2862C68.4235 42.2503 68.1987 45.0699 70.5253 46.5978ZM74.1125 47.2979C77.0277 46.3893 78.0543 43.5527 76.4646 41.3693C73.8159 42.5525 72.5228 45.1146 74.1125 47.2979ZM77.1274 54.414C78.1795 51.7561 76.4067 49.2472 73.5587 49.0216C72.9075 51.6603 74.2794 54.1884 77.1274 54.414ZM96.6394 21.1959C97.1862 18.7679 100.685 17.1719 103.587 18.6232C102.678 21.3343 99.2046 22.6217 96.6394 21.1959ZM70.1429 39.4073C70.6875 36.9793 74.1867 35.3875 77.0903 36.8346C76.1819 39.5456 72.7106 40.8331 70.1429 39.4073ZM72.882 31.6635C75.9015 31.1167 78.3324 33.1106 78.1377 35.728C75.2017 35.911 72.6874 34.2789 72.882 31.6635ZM91.1635 26.3372C89.8611 23.6219 92.0557 21.0512 95.5757 20.8257C96.3752 23.5218 94.6835 26.1095 91.1635 26.3372ZM129.237 40.499C127.228 38.3901 123.708 38.4284 121.915 40.799C123.673 42.6398 127.189 42.6057 129.237 40.499ZM112.237 27.8757C110.228 25.769 106.71 25.803 104.917 28.1758C106.678 30.0207 110.193 29.9867 112.237 27.8757ZM107.403 15.1758C105.394 13.0691 101.874 13.1032 100.081 15.4738C101.839 17.3209 105.355 17.2826 107.403 15.1758ZM92.4056 29.8675C90.3965 27.7565 86.8741 27.7949 85.0851 30.1654C86.8463 32.0083 90.3617 31.9742 92.4056 29.8675ZM93.1402 43.5399C94.366 40.9757 92.8436 38.0646 89.7453 37.5772C88.6677 39.8223 90.1948 42.7334 93.1402 43.5399ZM86.0074 26.6308C84.7723 23.8198 86.8509 21.1619 90.1902 20.9236C90.9503 23.7176 89.349 26.3946 86.0074 26.6308ZM84.7398 25.2838C85.8197 22.1727 83.9983 19.2361 81.0692 18.9722C80.4018 22.0578 81.813 25.0178 84.7398 25.2838ZM82.8628 30.2463C83.9149 27.5884 82.1421 25.0795 79.2918 24.854C78.6429 27.4884 80.0148 30.0207 82.8628 30.2463ZM81.3704 34.896C82.4202 32.2381 80.6474 29.7292 77.7994 29.5079C77.1482 32.1423 78.5201 34.6747 81.3704 34.896ZM89.0153 36.9197C90.0651 34.2597 88.2923 31.7529 85.4443 31.5252C84.7931 34.1618 86.1673 36.692 89.0153 36.9197ZM88.1556 41.663C89.2077 39.0051 87.4349 36.4984 84.5846 36.2707C83.9357 38.9094 85.3076 41.4374 88.1556 41.663ZM79.5212 46.7915C78.2953 44.0549 80.5941 40.3309 84.5104 39.9819C85.5857 43.2186 83.0922 46.6234 79.5212 46.7915ZM89.4811 20.1362C90.5332 17.4783 88.7604 14.9694 85.9124 14.7439C85.2612 17.3826 86.6331 19.9106 89.4811 20.1362ZM94.8133 38.0412C95.863 35.3833 94.0903 32.8744 91.2423 32.6488C90.5911 35.2875 91.963 37.8156 94.8133 38.0412ZM97.4782 16.9038C100.222 15.4142 100.875 11.9392 98.7319 9.46855C95.7541 11.2241 95.3347 14.4374 97.4782 16.9038ZM94.2293 32.2849C96.973 30.7953 97.6265 27.3161 95.483 24.8476C92.5052 26.601 92.0835 29.8143 94.2293 32.2849ZM96.5003 36.6133C99.5013 35.6089 100.834 32.3041 99.2209 29.5121C95.9418 30.7379 94.8874 33.8235 96.5003 36.6133ZM99.1421 35.4322C103.232 36.6856 107.329 34.5981 107.783 31.2571C104.148 29.5888 100.05 32.0934 99.1421 35.4322ZM108.071 25.1136C110.991 26.7798 114.478 25.7115 115.5 23.043C112.502 21.7662 109.093 22.4451 108.071 25.1136ZM113.994 41.2225C118.172 41.3566 120.564 38.056 119.27 34.4299C115.345 34.7853 112.701 37.5964 113.994 41.2225ZM110.958 31.7678C113.368 33.4064 117.259 32.2041 118.401 29.5036C115.845 27.5544 111.612 28.895 110.958 31.7678ZM105.96 39.5733C108.372 41.2076 112.263 40.0095 113.405 37.3091C110.845 35.3599 106.615 36.7005 105.96 39.5733ZM80.7772 18.2082C84.9368 17.1549 87.0664 13.3266 85.4165 10.3197C81.3774 10.7943 79.505 14.9737 80.7772 18.2082ZM96.8896 41.6141C100.98 42.8674 105.077 40.7799 105.531 37.4389C101.895 35.7706 97.798 38.2752 96.8896 41.6141ZM108.421 21.928C112.191 21.8365 114.874 18.9935 114.161 16.1249C110.627 15.7504 108.085 18.9339 108.421 21.928ZM101.239 44.9571C104.813 46.0531 108.393 44.2272 108.794 41.3076C105.61 39.8478 102.036 42.0397 101.239 44.9571ZM104.722 46.7042C102.544 44.706 99.3159 45.1231 97.8953 47.4022C100.227 49.0514 103.299 48.9833 104.722 46.7042ZM92.394 49.2323C92.394 47.1979 90.4544 45.6785 88.2436 46.1829C88.2436 47.964 90.1786 49.4855 92.394 49.2323ZM96.6023 67.2628C94.9338 70.0526 97.3693 73.5978 100.843 74.2916C101.874 71.4337 100.071 67.9565 96.6023 67.2628ZM126.797 59.6765C127.224 62.8174 131.068 65.5625 134.488 64.3921V64.1453C134.317 60.749 130.556 58.5274 126.797 59.6765ZM93.8029 57.3825C94.2316 60.5234 98.0831 63.2728 101.501 62.0939C101.501 58.5572 97.652 56.2036 93.8029 57.3825ZM105.626 68.6779C108.81 69.5121 112.446 67.4245 112.446 64.5028C109.718 63.6665 106.082 65.754 105.626 68.6779ZM85.398 56.3483C86.7675 53.8351 85.398 50.7027 82.3252 50.0707C80.6196 52.5839 82.6658 55.4056 85.398 56.3483ZM117.959 50.4814C121.836 51.7986 126.192 49.6004 127.161 45.6551C122.802 44.3379 118.927 46.5319 117.959 50.4814ZM120.357 52.4796C122.881 55.18 127.078 55.5673 129.601 52.8669C127.499 50.1665 123.298 49.7792 120.357 52.4796ZM114.272 48.213C117.91 49.0493 121.546 46.1254 121.546 42.3695C117.91 41.5289 114.272 44.4571 114.272 48.213ZM117.002 61.5768C119.729 64.4985 124.274 64.0814 127.006 61.1597C124.278 58.6529 119.273 58.6529 117.002 61.5768ZM117.91 55.046C118.311 57.9826 122.306 60.1829 125.905 58.7146C125.105 55.4141 121.108 53.5798 117.91 55.046ZM126.823 43.342C127.812 46.0828 131.541 46.8085 133.837 44.9614C132.716 42.5099 129.305 41.9056 126.823 43.342ZM112.576 51.1475C113.563 53.8883 117.294 54.614 119.59 52.7669C118.469 50.3154 115.058 49.7111 112.576 51.1475ZM112.001 62.411C116.091 61.1597 117.91 57.4017 116.091 54.0586C112.001 54.8928 110.182 59.0679 112.001 62.411ZM98.813 54.8928C100.63 58.2316 105.176 59.485 108.363 57.8145C106.544 54.0586 101.999 52.8052 98.813 54.8928ZM126.394 56.2951C127.882 58.6848 131.969 59.0253 134.201 56.9761C132.711 54.2458 128.252 53.9054 126.394 56.2951ZM104.646 49.1791C106.131 51.5688 110.224 51.9093 112.455 49.86C110.965 47.1298 106.507 46.7893 104.646 49.1791ZM106.541 46.9958C110.249 48.13 113.957 46.2361 114.365 43.2122C111.069 41.6992 107.362 43.9697 106.541 46.9958ZM103.55 70.1398C101.719 73.2382 103.721 77.2367 107.304 77.8219C109.134 74.7235 107.132 70.725 103.55 70.1398ZM109.452 73.151C109.081 76.5238 112.274 78.8263 115.361 78.6199C115.85 75.5705 112.898 72.836 109.452 73.151ZM116.086 73.6532C116.909 77.0494 120.612 78.9412 123.903 77.4282C123.495 74.4065 119.792 72.5189 116.086 73.6532ZM112.905 71.5996C116.997 70.3463 118.814 66.5903 116.997 63.2451C112.905 64.0814 111.542 68.2566 112.905 71.5996ZM117.906 71.1826C121.544 71.5996 125.18 68.6779 124.725 64.9199C121.087 64.0857 117.451 67.0074 117.906 71.1826ZM120.633 72.304C122.339 74.8044 126.093 74.449 128.141 71.9486C125.752 69.8036 122.339 69.8036 120.633 72.304Z" fill="#265121"/>
</g>
<path d="M46.2052 133.206V143.766H43.8212V137.55L43.9252 135.782L43.5172 137.806L41.7412 142.918H39.3972L37.6292 137.806L37.2292 135.782L37.3332 137.55V143.766H34.9412V133.206H38.3012L40.4292 140.254L40.5732 141.094L40.7172 140.254L42.8452 133.206H46.2052ZM51.5375 133.206H53.9135L58.0815 143.766H55.5295L54.7615 141.646H50.6975L49.9215 143.766H47.3615L51.5375 133.206ZM51.4975 139.55H53.9695L52.7455 136.086H52.7215L51.4975 139.55ZM64.0492 141.59C64.5399 141.59 64.9852 141.518 65.3852 141.374C65.7905 141.23 66.0919 141.088 66.2892 140.95L67.3132 142.982C67.0625 143.195 66.6332 143.411 66.0252 143.63C65.4225 143.848 64.7052 143.958 63.8732 143.958C63.0945 143.958 62.3639 143.822 61.6812 143.55C60.9985 143.278 60.3959 142.896 59.8732 142.406C59.3559 141.91 58.9479 141.331 58.6492 140.67C58.3559 140.003 58.2092 139.28 58.2092 138.502C58.2092 137.723 58.3559 137 58.6492 136.334C58.9425 135.662 59.3479 135.078 59.8652 134.582C60.3879 134.086 60.9905 133.702 61.6732 133.43C62.3612 133.152 63.0945 133.014 63.8732 133.014C64.7052 133.014 65.4225 133.123 66.0252 133.342C66.6332 133.56 67.0625 133.776 67.3132 133.99L66.2892 136.022C66.0919 135.878 65.7905 135.736 65.3852 135.598C64.9852 135.454 64.5399 135.382 64.0492 135.382C63.5052 135.382 63.0305 135.467 62.6252 135.638C62.2199 135.803 61.8812 136.032 61.6092 136.326C61.3372 136.619 61.1345 136.95 61.0012 137.318C60.8679 137.686 60.8012 138.072 60.8012 138.478C60.8012 138.888 60.8679 139.28 61.0012 139.654C61.1345 140.022 61.3372 140.352 61.6092 140.646C61.8812 140.939 62.2199 141.171 62.6252 141.342C63.0305 141.507 63.5052 141.59 64.0492 141.59ZM72.1937 133.206H74.5697L78.7377 143.766H76.1857L75.4177 141.646H71.3537L70.5777 143.766H68.0177L72.1937 133.206ZM72.1537 139.55H74.6257L73.4017 136.086H73.3777L72.1537 139.55ZM81.7982 135.398L81.9742 135.43V143.766H79.5822V133.206H82.8462L87.1262 141.526L86.9502 141.558V133.206H89.3422V143.766H86.0622L81.7982 135.398ZM94.5687 133.206H96.9447L101.113 143.766H98.5607L97.7927 141.646H93.7287L92.9527 143.766H90.3927L94.5687 133.206ZM94.5287 139.55H97.0007L95.7767 136.086H95.7527L94.5287 139.55Z" fill="#265121"/>
</svg>
