<svg width="200" height="200" viewBox="0 0 200 200" fill="none" xmlns="http://www.w3.org/2000/svg">
<g clip-path="url(#clip0_58_56)">
<path d="M220 -20H-20V220H220V-20Z" fill="#C9D38A"/>
<mask id="mask0_58_56" style="mask-type:luminance" maskUnits="userSpaceOnUse" x="39" y="26" width="121" height="123">
<path d="M39.9354 26.6708H159.929V148.481H39.9354V26.6708Z" fill="white"/>
</mask>
<g mask="url(#mask0_58_56)">
<path d="M158.473 76.9751C158.35 76.9668 158.225 76.971 158.1 76.9897L157.281 75.9085L149.627 60.8001L152.529 57.996C152.935 58.2918 153.469 58.4043 153.989 58.2564C154.037 58.2439 154.083 58.2272 154.129 58.2085L158.473 76.9751ZM157.856 89.7231C157.66 89.4585 157.392 89.2585 157.089 89.1418L158.196 80.3564C158.402 80.3751 158.614 80.3605 158.827 80.3001C158.848 80.296 158.864 80.2876 158.883 80.2814L157.856 89.7231ZM156.425 102.886C156.096 102.756 155.744 102.683 155.383 102.683L156.677 92.4147C156.769 92.4043 156.86 92.3897 156.952 92.3626C157.204 92.2918 157.425 92.1647 157.608 92.0043L156.425 102.886ZM154.612 102.792C154.2 102.908 153.833 103.115 153.529 103.379L144.412 90.7856C144.894 90.4835 145.194 89.9564 145.206 89.3897L154.8 90.5522C154.779 90.7606 154.794 90.9772 154.856 91.1918C155.031 91.8106 155.525 92.2501 156.11 92.3856L154.804 102.746C154.742 102.758 154.677 102.773 154.612 102.792ZM147.096 118.508L146.912 116.869L153.544 107.665C153.652 107.756 153.769 107.84 153.889 107.915L148.198 118.956C147.887 118.669 147.496 118.502 147.096 118.508ZM136.844 131.317C136.779 131.248 136.712 131.181 136.642 131.119L144.629 120.036L145.621 120.198C145.621 120.373 145.648 120.554 145.698 120.733C145.814 121.14 146.042 121.477 146.329 121.717L136.844 131.317ZM124.335 139.377C124.127 139.019 123.796 138.754 123.414 138.623L123.752 137.636L132.212 134.452C132.262 134.558 132.321 134.658 132.383 134.756L124.335 139.377ZM106.162 144.808C106.11 144.64 106.042 144.477 105.962 144.325L113.212 141.598L121.192 140.502C121.202 140.567 121.214 140.629 121.233 140.694C121.235 140.7 121.237 140.704 121.237 140.711L106.162 144.808ZM92.077 144.911C92.0874 144.775 92.0832 144.638 92.0624 144.5L102.225 143.104C101.258 143.573 100.648 144.552 100.633 145.608L92.077 144.911ZM77.8582 140.948C78.0853 140.383 78.1374 139.744 77.9582 139.115C77.877 138.829 77.7541 138.567 77.5999 138.331L85.202 133.208L89.8812 143.15C89.3457 143.317 88.952 143.725 88.7812 144.219L77.8582 140.948ZM71.7666 125.511L78.8999 123.729C78.9103 123.783 78.9228 123.838 78.9374 123.894C79.2103 124.856 80.1145 125.442 80.9562 125.204C81.0999 125.163 81.2312 125.1 81.3499 125.021L84.9582 132.69L77.2416 137.89C76.6249 137.271 75.7395 136.956 74.8374 137.083L71.7666 125.511ZM61.502 126.723L60.3207 125.665L65.4603 103.954L69.5937 119.531L61.502 126.723ZM71.1895 125.54L62.5812 127.69L61.5874 126.798L69.627 119.654L71.1895 125.54ZM74.2874 137.219C74.0395 137.308 73.8103 137.427 73.6041 137.573L62.6832 127.781L71.2187 125.648L74.2874 137.219ZM61.1624 128.044C61.152 127.992 61.1395 127.938 61.1249 127.883C61.0749 127.708 61.0041 127.544 60.9145 127.396L61.1603 127.177L61.9166 127.856L61.1624 128.044ZM60.0874 126.65L60.1728 126.292L61.077 127.1L60.852 127.3C60.6541 127.004 60.3874 126.781 60.0874 126.65ZM59.1062 126.573C58.952 126.619 58.8103 126.688 58.6832 126.775L56.5832 123.073L60.077 126.206L59.9812 126.608C59.702 126.508 59.3999 126.49 59.1062 126.573ZM55.7062 121.527L53.9853 118.492C54.0874 118.046 54.0812 117.567 53.9478 117.094C53.7978 116.565 53.5062 116.113 53.1249 115.769L63.3916 102.656C63.9207 103.056 64.5832 103.267 65.2666 103.225L65.3999 103.723L60.2249 125.577L55.7062 121.527ZM53.4999 119.548C53.6999 119.277 53.8499 118.973 53.9437 118.65L55.4416 121.288L53.4999 119.548ZM42.7249 98.6335C43.3541 98.3126 43.7207 97.6272 43.6353 96.9189L56.6603 92.9418L62.8187 98.7272C62.3207 99.4064 62.1291 100.3 62.377 101.173C62.4957 101.594 62.7041 101.963 62.9749 102.271L52.6707 115.433C52.4916 115.327 52.302 115.24 52.1041 115.175L42.7249 98.6335ZM50.4541 115.144C50.3707 115.167 50.2895 115.194 50.2124 115.223L42.4145 98.7564C42.4853 98.7355 42.5541 98.7105 42.6207 98.6814L51.9478 115.129C51.4728 115.004 50.9603 115 50.4541 115.144ZM42.1499 82.9022C42.5937 83.0022 43.0687 82.996 43.5374 82.8626C43.7895 82.7918 44.0228 82.6876 44.2374 82.5585L42.1937 95.4418C42.077 95.4251 41.9562 95.421 41.8353 95.4293L42.1499 82.9022ZM46.7666 62.3126C46.9624 62.4439 47.1812 62.5335 47.4062 62.5689L45.9687 71.6335L43.0478 77.3251C42.9957 77.3189 42.9457 77.3168 42.8937 77.3147L46.7666 62.3126ZM58.5041 46.0751C58.6187 46.221 58.7457 46.3543 58.8832 46.4751L55.4999 53.0668L48.7478 59.7418C48.5916 59.521 48.3957 59.3418 48.1791 59.2126L58.5041 46.0751ZM74.2541 33.8939C74.3062 34.046 74.3791 34.1876 74.4666 34.3126L69.1416 39.5772L62.8687 42.4751C62.7832 42.3772 62.6916 42.2855 62.5937 42.2001L74.2541 33.8939ZM88.6937 30.0085C88.7082 30.098 88.7291 30.1855 88.7541 30.2751C88.7749 30.346 88.7999 30.4168 88.8249 30.4876L83.2603 33.0564L77.5457 33.5085C77.5666 33.3022 77.552 33.0897 77.4916 32.8793C77.4582 32.7626 77.4145 32.6543 77.3603 32.5522L88.6937 30.0085ZM112.081 30.4897C112.06 30.5835 112.048 30.6835 112.044 30.7814L102.321 31.5501L94.2874 29.8376C94.2999 29.7355 94.3062 29.6335 94.3062 29.5314L112.081 30.4897ZM130.685 37.0689C130.612 37.2293 130.552 37.3939 130.51 37.5647L116.31 34.5355L114.85 32.123C115.081 31.923 115.254 31.6647 115.35 31.3772L130.685 37.0689ZM152.517 55.2605C152.435 55.3189 152.362 55.3856 152.296 55.4543L145.496 50.6335C145.612 50.3106 145.633 49.9501 145.533 49.5939C145.277 48.6918 144.337 48.1689 143.437 48.423C143.425 48.4272 143.414 48.4314 143.404 48.4335L135.954 39.1022C135.967 39.0564 135.981 39.0126 135.994 38.9647L152.517 55.2605ZM144.885 51.4376C145.135 51.2585 145.331 51.0168 145.452 50.7397L152.221 55.5397C151.875 55.9564 151.735 56.5272 151.892 57.0856C151.989 57.4272 152.185 57.7147 152.437 57.9251L149.575 60.696L144.885 51.4376ZM148.837 61.4064C148.183 60.6564 147.156 60.2814 146.131 60.4939L142.721 54.3731L143.517 51.7126C143.787 51.7751 144.077 51.7731 144.362 51.6897C144.517 51.6481 144.66 51.5814 144.789 51.5022L149.489 60.7772L148.837 61.4064ZM148.979 64.9439C149.479 64.2647 149.673 63.3689 149.425 62.4918C149.319 62.1168 149.139 61.7814 148.91 61.4939L149.544 60.8835L156.898 75.4022L148.979 64.9439ZM156.729 79.1293C156.754 79.2147 156.785 79.296 156.821 79.3731L151.614 83.1189L143.654 70.7501L145.485 65.8189C146.083 66.1043 146.785 66.1835 147.475 65.9876C147.904 65.8668 148.281 65.6501 148.594 65.371L157.537 77.1856C156.864 77.5606 156.512 78.3564 156.729 79.1293ZM151.921 83.596L157.139 79.8439C157.285 79.9939 157.456 80.1147 157.646 80.2043L156.533 89.0314C156.367 89.0272 156.194 89.0481 156.025 89.096C155.867 89.1418 155.719 89.2085 155.587 89.2918L151.921 83.596ZM145.012 88.5626L151.829 83.6626L155.494 89.3564C155.133 89.6168 154.894 90.0064 154.817 90.4397L145.202 89.2751C145.198 89.146 145.177 89.0168 145.142 88.8876C145.108 88.7731 145.067 88.6647 145.012 88.5626ZM141.523 76.4897L143.604 70.8835L151.521 83.1856L144.669 88.1126C144.335 87.8022 143.885 87.6293 143.419 87.6564L141.523 76.4897ZM152.662 106.288C152.671 106.313 152.679 106.338 152.687 106.365L146.108 109.75L145.175 101.467L152.629 104.869C152.525 105.323 152.527 105.806 152.662 106.288ZM146.121 109.871L152.725 106.473C152.825 106.758 152.971 107.017 153.148 107.246L146.817 116.031L146.121 109.871ZM135.039 130.427L134.798 118.417L144.004 119.931L136.181 130.79C135.833 130.592 135.446 130.465 135.039 130.427ZM126.421 129.817L132.104 132.3C131.927 132.804 131.887 133.365 132.025 133.919L123.989 136.942L126.421 129.817ZM122.489 137.506L121.102 127.494L126.317 129.773L123.852 136.992L122.489 137.506ZM122.633 138.55L122.569 138.079L123.614 137.686L123.306 138.592C123.092 138.533 122.864 138.517 122.633 138.55ZM121.287 138.561L121.681 139.015C121.319 139.367 121.127 139.871 121.177 140.392L113.692 141.419L121.287 138.561ZM103.467 142.821C103.452 142.821 103.435 142.821 103.421 142.821L104.439 122.952C104.852 123.027 105.285 123.013 105.717 122.89C106.223 122.748 106.658 122.473 106.996 122.117L120.892 138.106L111.16 141.765L103.467 142.821ZM103.969 142.867L110.681 141.946L105.637 143.842C105.212 143.331 104.619 142.986 103.969 142.867ZM82.0332 123.227L102.119 120.327C102.131 120.531 102.164 120.736 102.221 120.94C102.231 120.973 102.242 121.006 102.252 121.038L85.0541 132.627L81.4437 124.952C81.9166 124.579 82.1562 123.915 82.0332 123.227ZM70.0999 119.233L81.4978 109.106L85.0166 110.867L81.0145 121.825C80.6895 121.665 80.3228 121.619 79.9687 121.719C79.2062 121.933 78.7582 122.752 78.8812 123.617L71.7374 125.402L70.0999 119.233ZM67.4999 89.6314C67.7103 89.9835 68.0353 90.2418 68.4103 90.371L65.6332 97.621C65.2124 97.5397 64.7687 97.5543 64.3291 97.6772C63.8937 97.8022 63.5103 98.021 63.1978 98.3043L57.2853 92.7522L67.4999 89.6314ZM50.6707 86.5397L60.3895 74.371C60.7478 74.5418 61.1687 74.5897 61.5812 74.4731C61.6082 74.4647 61.6353 74.4543 61.6624 74.446L68.027 87.3439C67.4228 87.7397 67.1166 88.496 67.3249 89.2272C67.3437 89.2981 67.3707 89.3668 67.3999 89.4335L57.1353 92.6105L50.6707 86.5397ZM44.9499 81.9397L50.2332 86.9043L43.0832 95.8585C42.8645 95.6626 42.5957 95.5251 42.3062 95.4626L44.3645 82.4751C44.5853 82.3251 44.7812 82.1439 44.9499 81.9397ZM44.9124 78.296C44.5687 77.8981 44.1207 77.6022 43.6228 77.4439L45.6853 73.4272L44.9124 78.296ZM45.2791 78.8397L59.5249 73.423C59.6687 73.8147 59.9437 74.1251 60.2853 74.3189L50.5895 86.4606L45.2666 81.4626C45.5957 80.8418 45.6957 80.0981 45.4895 79.3689C45.4353 79.1814 45.3645 79.0064 45.2791 78.8397ZM50.6832 63.6897L59.6853 71.9314C59.5124 72.2043 59.4187 72.5251 59.4228 72.8564L45.0207 78.3314L45.8499 73.1043L50.6832 63.6897ZM48.0103 62.5335C48.3374 62.4418 48.6062 62.2376 48.7978 61.9668L50.2499 63.2939L46.1353 71.3106L47.5187 62.5814C47.6812 62.5939 47.8478 62.5793 48.0103 62.5335ZM49.0937 60.6043L52.0332 59.8189L50.3041 63.1897L48.8624 61.871C49.077 61.5168 49.1666 61.0647 49.0937 60.6043ZM52.1041 59.6835L49.0728 60.4918C49.0645 60.4481 49.0541 60.4043 49.0416 60.3585C48.9874 60.1689 48.9082 59.996 48.8124 59.8376L55.3332 53.3897L52.1041 59.6835ZM61.1332 47.6543L61.1187 57.2751L52.8416 59.4855L56.6249 52.1126L61.1332 47.6543ZM61.1353 47.1376L61.1332 47.496L56.7916 51.7897L59.352 46.8043C59.8791 47.1001 60.5041 47.2272 61.1353 47.1376ZM75.6937 37.1751L76.0707 51.7626C76.0166 51.7731 75.9645 51.7855 75.9124 51.8001C75.4937 51.9189 75.1562 52.1876 74.9416 52.5293L63.2457 45.6418C63.2707 45.5939 63.2957 45.546 63.3166 45.496L68.2603 40.6085L75.6937 37.1751ZM75.6374 35.0251L75.677 36.5585L69.4457 39.4376L74.5332 34.4064C74.8082 34.746 75.2041 34.9689 75.6374 35.0251ZM79.8416 34.6355L77.4312 33.9751C77.477 33.8626 77.5103 33.7439 77.5312 33.623L82.9645 33.1939L79.8416 34.6355ZM90.2187 32.621L88.7291 37.071L80.6895 34.8689L84.5937 33.0647L90.2187 32.621ZM90.3874 32.1126L90.2562 32.5043L84.8895 32.9272L89.0728 30.996C89.3874 31.5022 89.852 31.8897 90.3874 32.1126ZM93.6666 32.2335L93.2937 31.671C93.6999 31.3314 93.9999 30.8855 94.1645 30.3897L100.342 31.7064L93.6666 32.2335ZM109.087 33.573L100.412 39.271C99.9978 38.9439 99.4395 38.8105 98.8937 38.9668C98.6749 39.0272 98.4791 39.1314 98.3124 39.2626L93.7374 32.3418L100.729 31.7897L109.087 33.573ZM112.108 31.3022C112.131 31.3814 112.16 31.4585 112.194 31.5335L109.752 33.1355L102.708 31.6335L112.046 30.896C112.05 31.0314 112.069 31.1668 112.108 31.3022ZM123.679 46.9439L121.644 48.9647C118.635 47.7335 114.477 46.0272 110.392 44.3522C107.079 42.9939 103.771 41.6376 101.052 40.5251C101.046 40.396 101.027 40.2647 100.992 40.1355C100.902 39.821 100.727 39.5522 100.502 39.348L109.242 33.6064L116.56 35.1668L123.679 46.9439ZM130.881 39.7897L123.76 46.8605L116.71 35.2001L130.429 38.1272C130.417 38.421 130.448 38.7231 130.533 39.021C130.612 39.3001 130.731 39.5585 130.881 39.7897ZM134.027 40.971C134.194 40.9251 134.35 40.8626 134.5 40.7897L139.644 50.021L127.785 50.573C127.464 49.7855 126.594 49.3481 125.754 49.5856C125.656 49.6147 125.562 49.6522 125.475 49.6939L124.062 47.3605L131.237 40.2335C131.942 40.946 132.998 41.2626 134.027 40.971ZM140.337 50.1022L142.202 50.0147C142.198 50.1814 142.219 50.3522 142.267 50.521C142.421 51.0689 142.829 51.4772 143.329 51.6543L142.598 54.1543L140.337 50.1022ZM143.902 62.8501L140.302 62.4439L142.494 55.1293L145.579 60.6668C144.664 61.0606 144.046 61.9001 143.902 62.8501ZM140.371 65.6501C140.781 65.2272 140.964 64.6064 140.792 63.9981C140.679 63.6022 140.433 63.2772 140.117 63.0606L140.137 62.996L143.877 63.4168C143.887 63.621 143.921 63.8293 143.979 64.0355C144.154 64.6522 144.519 65.1605 144.992 65.5189L143.271 70.1564L140.371 65.6501ZM139.752 66.0501C139.954 65.9772 140.133 65.8647 140.287 65.7272L143.221 70.2876L141.333 75.3731L139.752 66.0501ZM138.637 82.6356L132.444 74.671C132.927 74.2522 133.154 73.5793 132.969 72.923C132.894 72.6626 132.76 72.4335 132.589 72.246L138.171 65.8418C138.577 66.1314 139.106 66.2418 139.621 66.096C139.629 66.0939 139.635 66.0897 139.644 66.0876L141.254 75.5856L138.637 82.6356ZM142.7 87.8585L139.046 83.1606L141.446 76.7022L143.304 87.6668C143.219 87.6772 143.131 87.6918 143.046 87.7168C142.921 87.7501 142.806 87.8001 142.7 87.8585ZM136.942 97.0189C137.171 96.4543 137.223 95.8147 137.042 95.1835C136.973 94.9397 136.873 94.7126 136.75 94.5043L142.283 90.5251C142.683 90.9418 143.283 91.1397 143.881 91.0043L144.975 100.717L136.942 97.0189ZM134.4 98.7855C134.629 98.7772 134.862 98.7439 135.092 98.6772C135.746 98.4918 136.281 98.0918 136.642 97.5751L145.054 101.413L146 109.806L134.739 115.602L134.4 98.7855ZM132.148 116.936C131.862 116.529 131.444 116.263 130.998 116.2L133.656 98.7064C133.717 98.721 133.773 98.7335 133.833 98.7439L134.179 115.89L132.148 116.936ZM132.51 117.925C132.498 117.8 132.477 117.675 132.439 117.55C132.387 117.361 132.308 117.188 132.21 117.029L134.181 116.017L134.227 118.206L132.51 117.925ZM129.989 119.367C130.387 119.715 130.91 119.867 131.41 119.725C132.108 119.527 132.544 118.823 132.517 118.04L134.229 118.323L134.473 130.429C134.317 130.446 134.158 130.477 134 130.521C133.279 130.725 132.704 131.192 132.346 131.788L126.604 129.279L129.989 119.367ZM118.585 109.311L120.064 108.088L129.514 117.006C129.308 117.408 129.25 117.913 129.392 118.415C129.489 118.758 129.669 119.056 129.898 119.283L126.5 129.236L121.01 126.836L118.585 109.311ZM107.65 120.998C107.804 120.494 107.821 119.942 107.667 119.396C107.587 119.115 107.469 118.858 107.319 118.627L118.481 109.396L120.889 126.783L107.65 120.998ZM101.587 104.761L116.589 106.108C116.583 106.311 116.606 106.519 116.664 106.725C116.719 106.919 116.8 107.094 116.9 107.254L106.833 118.061C106.171 117.469 105.246 117.2 104.327 117.406L101.587 104.761ZM89.227 104.554C89.3874 104.294 89.477 103.99 89.477 103.673L100.998 104.708L103.787 117.586C103.558 117.688 103.348 117.817 103.16 117.971L89.227 104.554ZM85.3124 110.381L87.1832 105.261C87.5124 105.383 87.8791 105.408 88.2437 105.304C88.6312 105.196 88.9478 104.958 89.1645 104.652L103.073 118.044C102.789 118.294 102.562 118.596 102.398 118.931L85.3124 110.381ZM86.4395 104.715C86.6103 104.933 86.8312 105.104 87.0791 105.217L85.2124 110.331L81.9541 108.7L86.4395 104.715ZM67.6812 101.558C67.9353 100.992 68.0062 100.34 67.8395 99.696L77.5145 95.5001L86.6249 102.427C86.1728 102.848 85.9666 103.5 86.1457 104.133C86.1957 104.313 86.2749 104.477 86.3728 104.621L81.8437 108.646L67.6812 101.558ZM67.3978 102.05L81.3895 109.052L70.0687 119.111L65.8291 103.136C65.8437 103.131 65.8582 103.127 65.8728 103.123C66.5124 102.942 67.0395 102.552 67.3978 102.05ZM66.7332 98.0897C66.5603 97.9668 66.3728 97.8647 66.177 97.7835L67.8228 93.4876L66.7332 98.0897ZM69.4207 90.3981C69.727 90.3106 69.9853 90.146 70.1895 89.9314L76.9499 95.071L67.6291 99.1314C67.4353 98.746 67.1603 98.4168 66.8312 98.1626L68.127 92.6939L68.9832 90.4606C69.1291 90.4585 69.2749 90.4397 69.4207 90.3981ZM62.7853 73.1564L75.0791 72.9751L69.6249 87.2022C69.2812 87.0543 68.8853 87.0189 68.4957 87.1293C68.3624 87.1668 68.2395 87.221 68.1249 87.2856L61.7687 74.4064C62.3062 74.1835 62.6791 73.7064 62.7853 73.1564ZM61.0978 71.1439C60.952 71.1439 60.8041 71.1626 60.6562 71.2064C60.277 71.3126 59.9645 71.5418 59.7499 71.8376L50.7353 63.5856L52.7707 59.621L61.1187 57.3939L61.0978 71.1439ZM69.4957 55.1585L72.1645 58.3939L62.2082 71.5376C61.9291 71.3043 61.5791 71.1647 61.2124 71.146L61.2332 57.3626L69.4957 55.1585ZM74.6937 53.6522L70.0166 54.9001L62.852 46.2147C62.9812 46.0689 63.0957 45.9105 63.1916 45.7418L74.8832 52.6272C74.7187 52.9335 74.6457 53.2897 74.6937 53.6522ZM77.2124 54.9085L80.7645 60.8585L79.7687 63.8376C79.1916 63.5897 78.5291 63.5293 77.8791 63.7147C77.7207 63.7585 77.5707 63.8168 77.4291 63.8856L72.5895 58.0189L75.1624 54.621C75.5832 55.0501 76.2207 55.2418 76.8395 55.0668C76.9728 55.0293 77.0978 54.9751 77.2124 54.9085ZM93.0228 59.4647L83.0395 55.8439L85.7041 47.8876L97.7291 41.0793C97.8812 41.596 98.2582 41.9835 98.7207 42.173L93.0228 59.4647ZM100.733 43.9522L106.931 60.1189L99.3228 61.7481L93.1291 59.5022L98.827 42.2126C99.077 42.296 99.3499 42.3189 99.6249 42.2751L100.733 43.9522ZM113.05 57.4981C112.348 56.7918 111.294 56.4772 110.267 56.7689C110.16 56.798 110.056 56.8356 109.954 56.8772L100.177 42.0855C100.704 41.7939 101.037 41.2439 101.054 40.648C103.764 41.7564 107.054 43.1064 110.348 44.4564C114.267 46.0626 118.187 47.671 121.127 48.8751C121.273 48.9356 121.417 48.9918 121.556 49.0501L113.05 57.4981ZM124.683 50.3293C124.708 50.3397 124.731 50.3481 124.756 50.3585C124.527 50.7439 124.452 51.2189 124.583 51.6835C124.608 51.7689 124.639 51.8501 124.677 51.9293C124.344 52.2272 123.931 52.6001 123.417 53.0668C122.062 54.296 120.183 56.0126 117.831 58.1751C117.267 58.6939 116.702 59.2147 116.146 59.7251L113.869 59.4689C113.867 59.221 113.833 58.9689 113.762 58.7189C113.681 58.4356 113.56 58.1751 113.408 57.9397L122.127 49.2835C123.156 49.7043 124.027 50.0605 124.683 50.3293ZM124.817 50.2605C124.16 49.9918 123.271 49.6293 122.214 49.196L123.979 47.4418L125.375 49.7481C125.15 49.8772 124.958 50.0522 124.817 50.2605ZM128.435 61.1085L116.294 59.7418C119.614 56.6856 122.937 53.6397 124.729 52.0335C125.071 52.6606 125.779 53.0147 126.496 52.8939L128.435 61.1085ZM137.085 62.0814L128.556 61.1231L126.606 52.871C126.631 52.8647 126.656 52.8605 126.681 52.8543C126.971 52.771 127.219 52.6189 127.419 52.421L137.085 62.0814ZM137.908 62.7439L138.685 62.8314C138.512 62.8814 138.356 62.9564 138.214 63.0501L137.908 62.7439ZM131.612 95.1293L123.687 92.9814C124.779 90.3022 125.873 87.621 126.964 84.9397L132.517 93.7751C132.087 94.1293 131.775 94.6022 131.612 95.1293ZM132.319 97.9564C132.66 98.296 133.083 98.546 133.546 98.6772L130.885 116.19C130.731 116.179 130.577 116.196 130.423 116.24C130.058 116.342 129.764 116.586 129.571 116.902L120.152 108.015L132.319 97.9564ZM119.51 107.408C119.781 106.988 119.873 106.423 119.714 105.861C119.658 105.665 119.575 105.486 119.473 105.325L131.725 97.0835C131.792 97.2376 131.871 97.3814 131.96 97.5168L119.737 107.623L119.51 107.408ZM118.414 108.083C118.504 108.075 118.594 108.063 118.683 108.036C118.996 107.948 119.256 107.756 119.446 107.504L119.65 107.696L118.494 108.652L118.414 108.083ZM109.589 89.7481L123.362 93.4793C121.839 97.2147 120.317 100.948 118.794 104.683C118.456 104.502 118.071 104.444 117.696 104.552C117.612 104.575 117.533 104.606 117.458 104.644L109.589 89.7481ZM101.558 104.627L107.331 105.163L101.562 104.646L101.558 104.627ZM87.9582 90.971L94.6228 88.0793C95.2103 89.1689 96.4603 89.7689 97.702 89.5043L98.7645 94.4085L88.877 102.375C88.6187 102.158 88.2999 102.021 87.9624 101.983L87.9582 90.971ZM87.8457 91.0189L87.8478 101.975C87.6728 101.969 87.4937 101.988 87.3166 102.038C87.0895 102.102 86.8853 102.211 86.7124 102.352L77.6332 95.4481L87.8457 91.0189ZM70.5916 88.3001C70.5416 88.1251 70.4666 87.9647 70.3707 87.8231L85.8187 74.5043L87.8416 76.8481L87.8457 90.3231L77.0687 95.0189L70.2645 89.846C70.6082 89.4314 70.7499 88.8585 70.5916 88.3001ZM75.6874 72.9668L84.3812 72.8376L85.7457 74.4189L70.3041 87.7293C70.2457 87.6543 70.1812 87.5835 70.1103 87.5189L75.6874 72.9668ZM62.6978 72.2168L75.9228 67.1876C75.9249 67.1939 75.927 67.2022 75.9291 67.2085C76.0812 67.7481 76.3812 68.2064 76.7728 68.5543L75.1228 72.8605L62.8041 73.0439C62.8312 72.8272 62.8166 72.6001 62.752 72.3772C62.7374 72.321 62.7187 72.2689 62.6978 72.2168ZM84.2832 72.7251L75.7312 72.8522L77.2478 68.8939C77.8853 69.2585 78.6624 69.3751 79.4228 69.1606C79.8874 69.0293 80.2916 68.7876 80.6145 68.4751L84.2832 72.7251ZM81.4666 66.1481L83.6437 65.6814L87.0353 71.3668C86.6291 71.6835 86.3832 72.173 86.3791 72.6939L85.0228 72.7147L80.9853 68.0376C81.3562 67.496 81.5374 66.8293 81.4666 66.1481ZM81.1478 61.5001L83.3374 65.1689L81.352 65.5939C81.1582 64.9731 80.7687 64.4647 80.2707 64.1168L81.1478 61.5001ZM82.4707 55.7605L80.8124 60.7168L77.3103 54.8501C77.5874 54.6689 77.802 54.4105 77.9312 54.1147L82.4707 55.7605ZM91.7353 63.371L83.4541 65.1439L81.1937 61.3585L83.0041 55.9522L92.9874 59.571L91.7353 63.371ZM91.8645 63.3439L93.0937 59.6105L99.1145 61.7918L91.8645 63.3439ZM108.112 65.0543L107.431 66.3668L89.652 72.0751C89.552 71.8231 89.3937 71.6064 89.1999 71.4356L91.6582 63.9668L100.117 62.1564L108.112 65.0543ZM108.521 64.2647L108.164 64.9543L100.327 62.1126L107.137 60.6543L108.521 64.2647ZM108.231 59.8418L107.044 60.096L101.023 44.3897L109.454 57.146C108.583 57.7355 108.096 58.7751 108.231 59.8418ZM110.923 64.5439C110.502 64.1272 109.875 63.9418 109.264 64.1147C109.254 64.1189 109.244 64.1231 109.231 64.1272L110.229 62.2022C110.727 62.3501 111.273 62.3668 111.81 62.2126C112.056 62.1439 112.285 62.0439 112.496 61.9168L112.962 62.6605C112.162 63.4001 111.462 64.046 110.923 64.5439ZM116.317 68.0001C114.621 67.4147 112.948 66.8189 111.358 66.2168C111.444 65.923 111.452 65.6022 111.36 65.2855C111.289 65.0335 111.162 64.8106 111 64.6272C111.637 64.0376 112.317 63.4105 113.023 62.7585L116.317 68.0001ZM113.385 62.271L112.95 61.5793C113.396 61.1689 113.7 60.6272 113.817 60.0335L115.594 60.2335C114.819 60.9481 114.071 61.6376 113.385 62.271ZM129.796 72.671C126.9 71.5772 123.742 70.5126 120.669 69.4772C119.508 69.0876 118.337 68.6918 117.171 68.2939L113.446 62.3668C114.194 61.6772 114.964 60.9647 115.744 60.2501L128.575 61.6939L130.946 71.7355C130.921 71.7418 130.896 71.746 130.871 71.7522C130.377 71.8939 129.998 72.2397 129.796 72.671ZM123.396 78.1981L129.964 74.3897C130.194 74.7001 130.519 74.921 130.885 75.0231C129.642 78.0751 128.398 81.1251 127.154 84.1772L123.396 78.1981ZM106.946 87.9606C107.36 88.2856 107.917 88.4189 108.46 88.2626C108.525 88.246 108.585 88.2231 108.646 88.2001L109.081 89.0231L106.498 88.3231L106.946 87.9606ZM99.9374 86.5439C99.9228 86.3522 99.8916 86.1564 99.8353 85.9647C99.6499 85.3043 99.2437 84.7668 98.7187 84.4064L100.3 81.3543L106.579 85.7001C106.319 86.0981 106.225 86.6001 106.364 87.0939C106.454 87.4106 106.631 87.6793 106.858 87.8856L106.362 88.2856L99.9374 86.5439ZM98.2437 89.3314C99.1624 88.9314 99.7832 88.0835 99.9166 87.1251L105.819 88.7231L99.2582 94.0106L98.2437 89.3314ZM87.6145 71.0731C87.4353 71.1231 87.2728 71.2022 87.1291 71.3001L83.7603 65.6564L91.5312 63.9939L89.1041 71.3585C88.6937 71.046 88.1478 70.923 87.6145 71.0731ZM108.592 64.1314L107.25 60.6293L108.356 60.3939C108.594 61.1001 109.087 61.6564 109.704 61.9855L108.592 64.1314ZM109.6 67.4397L108.271 84.9543C108.033 84.9168 107.783 84.9272 107.535 84.996C107.164 85.1022 106.86 85.3231 106.644 85.6085L100.354 81.2522L108.117 66.2772C108.335 66.946 108.931 67.3897 109.6 67.4397ZM122.846 78.3856L109.598 86.0647C109.4 85.5022 108.931 85.1043 108.383 84.9772L109.712 67.446C109.871 67.4481 110.031 67.4272 110.192 67.3814C110.737 67.2272 111.144 66.821 111.323 66.3251C112.954 66.9439 114.673 67.5522 116.414 68.1522L122.846 78.3856ZM129.9 74.296L123.335 78.1022L117.267 68.446C118.389 68.8293 119.517 69.2085 120.633 69.5856C123.704 70.621 126.86 71.6835 129.752 72.7751C129.623 73.1064 129.596 73.4814 129.7 73.8501C129.746 74.0126 129.814 74.1605 129.9 74.296ZM89.6895 72.1835L107.358 66.5106L99.8832 80.9272L89.4499 73.7043C89.7437 73.298 89.8582 72.7668 89.7103 72.2439C89.7041 72.2231 89.6957 72.2043 89.6895 72.1835ZM87.9562 76.1126L87.9541 74.4001C88.1478 74.4126 88.3437 74.396 88.5395 74.3418C88.8812 74.2439 89.1687 74.048 89.3812 73.7939L99.8312 81.0293L98.2228 84.1335C97.6478 83.8876 96.9895 83.8293 96.3416 84.0126C95.9332 84.1293 95.5728 84.3293 95.2707 84.5876L87.9562 76.1126ZM94.8791 85.0001C94.352 85.6772 94.1416 86.5856 94.3832 87.4751L87.9582 90.2751L87.9562 76.9793L94.8791 85.0001ZM86.7207 73.7272C86.9916 74.0876 87.3957 74.3251 87.8416 74.3876V75.9814L86.2478 74.1335L86.7207 73.7272ZM86.6541 73.6335L86.1728 74.048L85.1187 72.8251L86.3832 72.8085C86.3895 72.9272 86.4082 73.0501 86.4437 73.171C86.4916 73.3397 86.5624 73.496 86.6541 73.6335ZM109.229 89.0626L108.748 88.1522C109.469 87.7981 109.856 86.9731 109.633 86.1731L122.906 78.4814L126.889 84.8231C125.785 87.5314 124.681 90.2418 123.577 92.9522L109.229 89.0626ZM131.681 96.9772L119.41 105.231C119.267 105.029 119.089 104.865 118.894 104.742C120.421 100.998 121.946 97.2543 123.471 93.5106L131.502 95.6855C131.471 96.0272 131.498 96.3772 131.598 96.7272C131.621 96.8126 131.65 96.896 131.681 96.9772ZM77.7249 52.4043L84.9666 48.3043L82.5082 55.6522L77.9728 54.0085C78.0895 53.6856 78.1103 53.3251 78.0103 52.971C77.9499 52.7585 77.852 52.5689 77.7249 52.4043ZM76.9416 64.1835C76.1937 64.7501 75.7645 65.6647 75.827 66.6189L62.3978 71.7251C62.3624 71.6856 62.3291 71.6501 62.2916 71.6126L72.2374 58.4835L76.9416 64.1835ZM75.0853 54.5356L72.5145 57.9293L70.0957 54.996L74.7124 53.7647C74.7207 53.8085 74.7312 53.8522 74.7437 53.896C74.8124 54.1397 74.9312 54.3543 75.0853 54.5356ZM100.967 104.573L100.971 104.592L89.4728 103.561C89.4728 103.542 89.4707 103.523 89.4687 103.506L100.967 104.573ZM89.4541 103.392C89.4437 103.331 89.4312 103.269 89.4145 103.208C89.3291 102.911 89.1687 102.654 88.9603 102.452L98.7916 94.5314L100.942 104.456L89.4541 103.392ZM118.3 108.088L118.389 108.738L106.964 118.186C106.948 118.169 106.931 118.152 106.914 118.138L116.964 107.35C117.289 107.808 117.787 108.088 118.3 108.088ZM116.604 105.911L101.533 104.513L99.2853 94.1335L105.952 88.7606L109.442 89.7064L117.358 104.698C116.946 104.946 116.673 105.394 116.604 105.911ZM134.733 93.1564C134.348 93.0981 133.946 93.121 133.548 93.2335C133.35 93.2876 133.162 93.3647 132.987 93.4585L127.227 84.296C128.483 81.2126 129.739 78.1314 130.996 75.0501C131.254 75.1022 131.527 75.0981 131.798 75.021C132.006 74.9606 132.192 74.8647 132.356 74.7418L138.592 82.7606L134.733 93.1564ZM138.971 92.2085L136.412 94.0501C136.389 94.0251 136.367 94.0001 136.344 93.9772L138.971 92.2085ZM141.964 90.0564L141.914 90.0918L136.26 93.896C135.979 93.6314 135.646 93.4272 135.285 93.296L139 83.2856L142.6 87.9147C141.981 88.3064 141.664 89.071 141.875 89.8126C141.898 89.8981 141.931 89.9772 141.964 90.0564ZM138.081 65.7731L132.51 72.1647C132.133 71.8022 131.598 71.6231 131.058 71.7126L128.694 61.7085L137.727 62.723L138.121 63.1189C137.589 63.5293 137.329 64.2376 137.525 64.9251C137.623 65.271 137.823 65.5606 138.081 65.7731ZM140.014 62.9814L140.01 62.9939C140.002 62.9876 139.992 62.9835 139.983 62.9772L140.014 62.9814ZM127.827 50.6856L139.706 50.1314L142.373 54.9168L140.175 62.4293L137.267 62.1022L127.496 52.3376C127.86 51.9189 128.014 51.3314 127.852 50.7564C127.844 50.7335 127.833 50.7085 127.827 50.6856ZM97.9166 39.7043C97.6895 40.071 97.602 40.5189 97.702 40.9668L85.7582 47.7251L89.2395 37.3272L97.9166 39.7043ZM90.8707 32.4564L90.9291 32.2793C91.3541 32.3626 91.8041 32.3501 92.2499 32.2251C92.4541 32.1668 92.6457 32.0876 92.827 31.9897L93.0207 32.2855L90.8707 32.4564ZM93.0937 32.3939L97.8332 39.5647L89.2749 37.2189L90.8312 32.573L93.0937 32.3939ZM75.7895 36.5085L75.752 35.0355C75.9395 35.048 76.1312 35.0293 76.3207 34.9751C76.8062 34.8376 77.1812 34.5022 77.3853 34.0793L79.6832 34.7085L75.7895 36.5085ZM80.5312 34.9418L88.6916 37.1772L85.0207 48.1439L77.652 52.3147C77.2916 51.9043 76.7437 51.6835 76.1832 51.7481L75.8062 37.123L80.5312 34.9418ZM61.2478 47.3835V47.1189C61.3353 47.1022 61.4228 47.0835 61.5082 47.0585C61.5416 47.048 61.5749 47.0397 61.6082 47.0272L61.2478 47.3835ZM61.8687 46.9293C62.0728 46.8397 62.2624 46.7293 62.4353 46.6001L69.4166 55.0626L61.2332 57.246L61.2478 47.5439L61.8687 46.9293ZM81.1145 121.879L85.1187 110.917L102.202 119.467C102.142 119.708 102.11 119.958 102.114 120.213L82.0082 123.117C82.002 123.088 81.9957 123.058 81.9874 123.029C81.8416 122.515 81.5145 122.108 81.1145 121.879ZM122.46 138.121L122.521 138.569C122.483 138.577 122.444 138.586 122.402 138.596C122.16 138.665 121.946 138.786 121.767 138.938L121.402 138.519L122.46 138.121ZM121.004 138.063L107.073 122.031C107.21 121.873 107.331 121.702 107.429 121.521L120.981 127.44L122.381 137.546L121.004 138.063ZM142.839 48.7314C142.481 49.0189 142.252 49.4418 142.21 49.9001L140.277 49.9918L134.981 40.4918C135.019 40.4647 135.054 40.4335 135.089 40.4022L142.839 48.7314ZM135.91 39.2293L143.289 48.473C143.16 48.5231 143.039 48.5876 142.931 48.6626L135.175 40.3272C135.504 40.0231 135.754 39.646 135.91 39.2293ZM114.204 32.473C114.412 32.4126 114.598 32.3168 114.76 32.1939L116.158 34.5022L109.906 33.171L112.244 31.6355C112.61 32.3272 113.421 32.6939 114.204 32.473ZM63.202 42.9439L67.9582 40.748L63.4187 45.2355C63.5957 44.7147 63.6207 44.1355 63.4603 43.5647C63.3978 43.3439 63.3082 43.1376 63.202 42.9439ZM43.1666 95.9355L50.3166 86.9835L56.5145 92.8043L43.6166 96.798C43.6082 96.7522 43.5978 96.7064 43.5853 96.6585C43.5062 96.3772 43.3582 96.1314 43.1666 95.9355ZM89.9916 143.119L85.2978 133.144L102.483 121.565C102.802 122.127 103.3 122.554 103.881 122.79L102.85 142.888C102.798 142.898 102.746 142.913 102.694 142.927L92.0395 144.388C92.0332 144.361 92.027 144.333 92.0207 144.304C91.7707 143.425 90.8728 142.908 89.9916 143.119ZM144.079 119.829L134.794 118.3L134.742 115.727L146.014 109.927L146.719 116.169L144.079 119.829ZM146.729 118.558C146.079 118.744 145.656 119.367 145.625 120.083L144.704 119.933L146.812 117.004L146.983 118.515C146.898 118.521 146.814 118.536 146.729 118.558ZM152.819 104.325L145.096 100.771L143.989 90.9772C144.104 90.9439 144.212 90.8981 144.314 90.8439L153.444 103.456C153.181 103.704 152.969 104 152.819 104.325ZM155.16 56.1606C154.904 55.2585 153.964 54.7335 153.062 54.9897C152.9 55.0356 152.746 55.1064 152.608 55.1939L136.023 38.8355C136.117 38.4001 136.108 37.9355 135.979 37.4772C135.552 35.9731 133.987 35.1001 132.485 35.5272C131.694 35.7501 131.081 36.2876 130.735 36.9668L115.383 31.2689C115.456 30.9855 115.46 30.6793 115.375 30.3751C115.119 29.473 114.181 28.9501 113.279 29.2043C112.689 29.371 112.262 29.8293 112.108 30.3772L94.3062 29.4189C94.2999 29.1897 94.2645 28.9605 94.1999 28.7293C93.7728 27.2272 92.2082 26.3522 90.7062 26.7793C89.327 27.171 88.4791 28.5168 88.6749 29.896L77.2999 32.448C76.9124 31.821 76.1416 31.496 75.3937 31.7085C74.4999 31.9626 73.9791 32.8855 74.2187 33.7814L62.502 42.1251C61.8124 41.5751 60.877 41.3543 59.9645 41.6126C58.4603 42.0397 57.5874 43.6043 58.0145 45.1085C58.1062 45.4314 58.2499 45.723 58.4353 45.9814L48.077 59.1585C47.7499 58.996 47.3812 58.9481 47.0228 59.048C46.1812 59.2876 45.7187 60.2606 45.9916 61.223C46.1124 61.6501 46.3582 62.0022 46.6666 62.2418L42.777 77.3106C42.5187 77.3106 42.2562 77.3439 41.9937 77.4189C40.4895 77.8439 39.6166 79.4085 40.0437 80.9126C40.3249 81.9085 41.1062 82.6272 42.0374 82.8751L41.7207 95.4418C41.6437 95.4522 41.5666 95.4668 41.4895 95.4876C40.5853 95.7439 40.0624 96.6835 40.3187 97.5855C40.5624 98.4501 41.4353 98.9647 42.302 98.7814L50.1062 115.267C48.8187 115.819 48.1103 117.254 48.502 118.638C48.9291 120.142 50.4937 121.015 51.9978 120.588C52.4291 120.467 52.8082 120.25 53.1207 119.969L56.3187 122.836L58.5916 126.846C58.0916 127.261 57.8666 128.006 58.0749 128.748C58.3478 129.711 59.252 130.298 60.0937 130.058C60.8562 129.842 61.3062 129.023 61.1812 128.156L62.0187 127.948L73.1728 137.948C72.5166 138.648 72.2312 139.667 72.5124 140.658C72.9395 142.163 74.5041 143.036 76.0082 142.608C76.8416 142.373 77.4812 141.786 77.8124 141.052L88.7478 144.327C88.6707 144.615 88.6645 144.925 88.752 145.231C89.0082 146.133 89.9478 146.658 90.8499 146.402C91.5103 146.215 91.9666 145.658 92.0624 145.021L100.633 145.721C100.639 145.954 100.673 146.188 100.739 146.423C101.164 147.925 102.729 148.8 104.233 148.373C105.725 147.95 106.594 146.408 106.194 144.917L121.275 140.819C121.579 141.644 122.471 142.106 123.329 141.865C124.231 141.608 124.756 140.669 124.5 139.767C124.471 139.665 124.433 139.569 124.387 139.477L132.446 134.852C133.114 135.821 134.348 136.306 135.546 135.967C137.048 135.54 137.921 133.975 137.494 132.471C137.379 132.063 137.179 131.702 136.919 131.4L146.421 121.786C146.8 122.061 147.267 122.171 147.717 122.044C148.558 121.804 149.021 120.831 148.748 119.869C148.656 119.544 148.492 119.263 148.281 119.042L153.985 107.973C154.623 108.336 155.398 108.452 156.158 108.238C157.66 107.811 158.535 106.246 158.108 104.742C157.869 103.902 157.275 103.261 156.533 102.929L157.735 91.8793C158.123 91.4585 158.289 90.8564 158.123 90.2668C158.083 90.1251 158.025 89.9939 157.954 89.8731L159.002 80.2397C159.796 79.9189 160.235 79.046 159.998 78.2043C159.808 77.5335 159.242 77.0731 158.592 76.9855L154.233 58.1647C154.983 57.821 155.392 56.9772 155.16 56.1606Z" fill="#9BAB51"/>
</g>
<mask id="mask1_58_56" style="mask-type:luminance" maskUnits="userSpaceOnUse" x="44" y="30" width="112" height="115">
<path d="M44.2666 30.9229H155.733V144.123H44.2666V30.9229Z" fill="white"/>
</mask>
<g mask="url(#mask1_58_56)">
<path fill-rule="evenodd" clip-rule="evenodd" d="M107.944 102.131C106.781 104.323 106.375 106.796 106.254 109.246C106.223 109.892 105.948 110.204 105.66 110.744C105.535 110.975 105.41 111.217 105.285 111.448C105.094 111.802 104.894 111.965 104.783 112.394C104.704 112.696 104.627 112.913 104.583 113.227C104.558 113.429 104.517 113.613 104.498 113.821C104.473 114.096 104.477 114.361 104.444 114.633C104.423 114.838 104.417 115.023 104.402 115.225C104.387 115.396 104.342 115.594 104.312 115.767C104.267 116.067 104.181 116.388 104.117 116.688C104.077 116.865 104.027 117.021 103.992 117.206C103.942 117.446 103.902 117.656 103.84 117.894C103.706 118.375 103.715 119.075 103.7 119.583C103.7 119.642 103.69 119.694 103.715 119.744C103.781 119.738 103.775 119.619 103.779 119.569C103.829 118.931 103.775 118.461 103.965 117.821C104.05 117.525 104.087 117.211 104.177 116.911C104.231 116.729 104.273 116.527 104.323 116.338C104.402 116.031 104.458 115.721 104.523 115.415C104.562 115.223 104.569 114.952 104.594 114.748C104.617 114.571 104.633 114.438 104.648 114.261C104.673 113.925 104.702 113.711 104.777 113.383C104.819 113.192 104.84 113.048 104.908 112.852C105.104 112.304 105.094 112.269 105.481 111.823C105.61 111.677 105.937 111.263 106.119 111.236C106.265 111.211 106.24 111.461 106.244 111.558C106.298 113.242 106.475 114.923 106.731 116.588C107.298 119.05 107.669 120.019 107.804 120.652L108.665 121.669C109.64 122.84 108.902 123.219 110.171 123.746C110.602 123.923 111.037 124.088 111.469 124.254C112.121 124.504 112.362 124.502 112.648 124.944C113.61 124.833 114.95 124.619 115.79 124.238C117.227 123.59 118.815 123.258 120.548 124.231C122.283 125.202 122.706 126.936 124.392 126.936C125.175 126.927 126.027 127.577 126.815 127.398C127.862 127.167 128.917 126.938 129.973 126.877C130.321 126.861 130.675 126.863 131.027 126.892C134.5 128.411 138.204 127.698 141.762 127.269C139.058 127.698 135.783 128.656 133.079 128.231C133.506 128.802 133.792 129.836 134.504 130.258C133.225 130.402 132.94 128.979 132.371 128.267C132.085 127.983 131.8 127.84 131.548 127.833C131.173 127.79 130.76 127.811 130.431 127.783C130.04 127.783 129.652 127.808 129.517 127.9C129.381 127.994 129.548 128.317 129.787 128.673C130.025 129.033 130.329 129.425 130.456 129.661C130.517 130.263 130.881 131.1 130.981 131.721C131.048 132.448 130.856 132.796 130.827 132.596C130.802 132.394 130.696 131.858 130.581 131.342C130.467 130.829 130.342 130.338 130.281 130.227C130.158 130.006 129.985 129.681 129.727 129.458C129.467 129.233 128.86 128.588 128.71 128.467C128.56 128.346 128.165 128.144 128.165 128.144C127.887 128.211 125.775 128.721 125.654 128.794C125.496 128.888 125.706 129.102 125.781 129.19C125.956 129.394 126.183 129.615 126.377 129.806C126.54 129.975 126.719 130.131 126.885 130.302C127.146 130.563 127.415 130.808 127.671 131.075C127.873 131.292 128.112 131.525 128.337 131.721C128.571 131.931 128.817 132.019 129.056 132.198C129.217 132.315 129.196 132.419 129.025 132.325C128.84 132.227 128.615 132.104 128.435 131.994C128.225 131.863 127.908 131.561 127.712 131.381C127.442 131.136 127.192 130.908 126.91 130.673C126.7 130.498 126.529 130.346 126.308 130.181C125.84 129.831 125.65 129.619 125.054 129.45C124.808 129.383 124.633 129.333 124.381 129.283C124.275 129.263 124.16 129.238 124.056 129.198C123.985 129.173 123.956 129.183 123.946 129.273C123.925 129.461 124.031 129.656 124.165 129.781C124.462 130.063 124.902 130.156 125.108 130.544C123.969 130.688 123.54 129.546 122.817 128.994C122.606 128.792 122.154 128.352 121.687 127.919C121.225 127.483 120.746 127.048 120.487 126.846C119.967 126.44 119.246 125.954 118.506 125.954C117.76 125.954 116.35 126.561 116.35 126.561L115.712 126.792C116.331 126.952 116.431 127.181 116.994 127.79C117.86 128.731 118.487 127.919 119.485 128.217C119.787 128.317 120.258 128.783 120.554 128.929C120.85 129.077 121.337 129.806 121.623 130C123.181 131.656 123.829 132.829 126.106 133.113C126.533 133.186 126.925 133.336 127.292 133.542C128.394 134.161 129.273 135.283 130.235 136.246C129.487 136.102 129.292 135.829 128.6 135.354C128.254 135.119 127.606 134.24 127.235 134.119C126.694 133.898 126.319 133.9 125.756 133.963C125.46 133.994 125.125 133.838 124.869 133.702C124.627 133.573 124.512 133.452 124.302 133.298C124.225 133.246 124.021 133.111 123.954 133.246C123.883 133.383 124.196 133.717 124.285 133.823C124.431 134 124.642 134.194 124.806 134.365C124.994 134.565 125.123 134.696 125.34 134.871C125.494 134.992 125.642 135.152 125.796 135.288C126.012 135.479 126.221 135.658 126.423 135.865C126.558 136 126.665 136.1 126.794 136.25C127.206 136.727 127.512 136.963 127.731 137.596C127.806 137.813 127.827 138.046 127.898 138.269C127.979 138.538 128.069 138.804 128.208 139.05C128.329 139.265 128.133 138.633 128.244 138.94C128.265 139.004 128.329 139.211 128.212 139.217C128.104 139.225 127.962 138.871 127.923 138.79C127.817 138.552 127.712 138.223 127.652 137.967C127.5 137.325 127.19 137.038 126.723 136.613C126.562 136.467 126.437 136.35 126.262 136.215C125.85 135.896 125.415 135.619 125.002 135.294C123.512 134.129 122.246 132.729 120.829 131.492C120.56 131.256 120.287 131.029 119.998 130.819C119.617 130.538 119.971 130.638 119.527 130.444C119.09 130.067 118.237 129.817 117.817 129.804C117.4 129.79 116.652 129.656 116.267 129.404C115.969 129.204 115.042 128.713 114.827 128.596C114.66 128.502 113.412 128.24 112.969 128.015C112.9 128.206 114.133 128.838 114.237 128.948C114.469 129.194 114.756 129.423 115.006 129.629C115.387 129.94 115.769 130.242 116.156 130.544C116.49 130.808 116.817 131.071 117.144 131.35C117.423 131.692 117.85 131.977 118.135 132.263C119.179 133.688 119.777 135.363 120.696 136.827C120.875 137.094 122.29 137.963 122.69 138.219C122.902 138.354 123.112 138.448 123.327 138.6C123.512 138.733 123.685 138.836 123.869 138.975C124.071 139.131 124.285 139.246 124.502 139.375C124.681 139.481 124.858 139.633 125.015 139.769C125.279 139.988 125.504 140.2 125.729 140.458C125.921 140.675 126.127 140.881 126.331 141.092C126.398 141.163 126.687 141.508 126.675 141.588C126.665 141.704 126.512 141.573 126.477 141.542C126.369 141.433 126.287 141.317 126.173 141.208C125.935 140.981 125.71 140.756 125.475 140.521C125.244 140.286 124.658 139.827 124.371 139.688C124.115 139.567 123.883 139.471 123.637 139.325C123.477 139.227 123.277 139.136 123.106 139.054C122.912 138.961 122.617 138.883 122.404 138.808C121.552 138.238 120.412 137.952 119.7 137.1C119.485 136.838 119.3 136.567 119.133 136.288C118.287 134.888 117.867 133.321 116.542 132.219C116.231 131.956 115.915 131.702 115.602 131.45C114.971 130.948 114.329 130.467 113.681 130.011C113.346 129.779 113.006 129.55 112.658 129.344C112.454 129.238 112.242 129.148 112.046 129.019C111.369 128.577 111.073 128.242 110.302 127.996L110.246 127.979C109.537 127.74 109.352 127.061 108.792 126.7C108.737 126.665 108.752 126.715 108.767 126.756C108.806 126.886 108.862 126.988 108.902 127.131C108.923 127.208 109.062 127.673 109.031 127.719C108.956 127.704 108.677 127.288 108.585 127.192C108.446 127.046 108.254 126.911 108.1 126.767C107.829 126.519 107.562 126.211 107.348 125.908C107.167 125.648 106.956 125.306 106.806 125.025C106.644 124.723 106.49 124.213 106.448 123.871C106.423 123.656 106.379 123.454 106.354 123.236C106.337 123.065 106.273 122.848 106.229 122.679C106.273 122.894 106.329 123.05 106.348 123.279C106.365 123.479 106.404 123.665 106.423 123.861C106.465 124.317 106.633 124.854 106.85 125.256C107.006 125.546 107.137 125.823 107.312 126.104C107.558 126.504 107.794 126.892 108.16 127.198C108.454 127.444 108.631 127.758 108.817 128.09C108.885 128.204 108.946 128.317 109.012 128.431C109.267 128.863 109.544 129.25 110 129.4C110.592 129.619 110.883 129.942 111.148 130.302C111.41 130.658 111.65 131.044 112.131 131.386C113.006 132.119 114.004 132.831 114.85 133.613C115.185 133.954 115.462 134.331 115.704 134.721C115.908 135.048 116.083 135.388 116.246 135.733C116.41 136.079 116.56 136.427 116.712 136.777C117.094 137.565 117.571 138.49 118.106 139.179C118.198 139.296 118.427 139.467 118.548 139.586C118.694 139.723 118.829 139.879 118.973 140.027C119.125 140.183 119.24 140.329 119.415 140.469C119.66 140.661 119.898 140.871 120.144 141.071C120.302 141.202 120.44 141.338 120.594 141.473C120.794 141.652 120.981 141.8 121.167 141.996C121.235 142.069 121.337 142.175 121.406 142.231C121.371 142.181 121.21 142.029 121.156 141.969C121.156 141.969 120.844 141.64 120.929 141.723C121.142 141.925 121.337 142.146 121.552 142.356C121.594 142.4 121.873 142.656 121.733 142.702C121.631 142.738 121.281 142.406 121.196 142.329C121.035 142.181 120.9 142.05 120.725 141.911C120.669 141.865 120.227 141.533 120.229 141.508C120.233 141.479 119.556 140.986 119.485 140.938C119.36 140.852 119.208 140.75 119.09 140.661C118.933 140.544 118.752 140.358 118.594 140.219C118.331 139.983 118.26 139.888 117.931 139.721C117.696 139.602 117.621 139.542 117.423 139.367C116.567 138.625 115.869 137.711 115.177 136.819C114.977 136.486 114.785 136.14 114.59 135.804C113.794 134.461 112.91 133.261 111.581 133.261C110.35 133.167 110.571 134.717 110.979 136.267C111.083 136.656 111.198 137.04 111.31 137.404C111.429 137.765 111.567 138.092 111.692 138.363C111.329 137.952 110.869 137.531 110.723 137.108C110.606 136.777 110.51 136.438 110.427 136.102C110.017 134.415 109.94 132.694 108.881 131.261C108.565 130.79 108.194 130.356 107.744 129.975C107.587 129.836 107.542 129.771 107.517 129.565C107.492 129.325 107.348 129.404 107.302 129.615C107.285 129.7 107.273 129.815 107.273 129.902C107.273 129.902 107.246 129.333 107.212 129.536C107.177 129.746 107.225 130.127 107.273 130.338C107.342 130.613 107.423 130.898 107.498 131.171C107.569 131.446 107.669 131.763 107.777 132.023C107.848 132.202 107.908 132.379 107.975 132.554C108.025 132.679 108.083 132.8 108.129 132.931C108.183 133.071 108.221 133.171 108.269 133.317C108.34 133.567 108.404 133.683 108.506 133.915C108.521 133.95 108.665 134.24 108.55 134.221C108.492 134.215 108.356 133.913 108.325 133.852C108.229 133.663 108.175 133.527 108.11 133.321C108.025 133.05 107.873 132.754 107.762 132.486C107.652 132.219 107.531 131.983 107.433 131.713C107.36 131.502 107.281 131.311 107.21 131.094C107.1 130.754 106.942 130.444 106.85 130.092C106.785 129.861 106.729 129.621 106.665 129.386C106.569 129.038 106.458 128.952 106.229 128.696C106.119 128.571 106.229 128.646 106.169 128.548C105.881 128.115 105.371 127.658 104.958 127.333C104.754 127.173 104.644 127.067 104.469 126.886C104.196 126.6 103.927 126.315 103.704 125.988C103.533 125.738 103.408 125.506 103.265 125.242C103.152 125.036 103.419 125.617 103.419 125.617C103.615 126.023 103.804 126.358 104.056 126.731C104.212 126.961 104.358 127.188 104.519 127.417C104.598 127.529 104.708 127.683 104.74 127.819C104.973 128.796 105.342 129.79 105.752 130.704C105.896 131.021 106.042 131.331 106.194 131.642C106.515 132.308 106.746 133.015 106.931 133.733C107.027 134.098 107.11 134.461 107.192 134.827C107.733 136.827 106.594 139.671 110.296 140.667C110.802 140.802 111.008 140.988 110.867 141.238C110.51 141.273 110.127 141.281 109.74 141.252C109.354 141.221 108.967 141.148 108.6 141.027C108.235 140.921 107.879 140.756 107.577 140.536C107.273 140.311 107.021 140.029 106.881 139.673C106.781 139.438 106.765 139.242 106.462 139.411C106.229 139.538 105.49 140.273 105.331 140.508C105.121 140.827 104.908 141.367 104.848 141.74C104.808 142.011 104.8 142.281 104.758 142.546C104.752 142.6 104.719 142.798 104.633 142.771C104.573 142.748 104.608 142.506 104.612 142.446C104.648 141.919 104.633 141.615 104.804 141.098C104.958 140.644 105.05 140.396 105.346 140.013C105.562 139.731 105.717 139.527 105.892 139.215C106.087 138.854 106.248 138.563 106.202 138.138C106.123 137.421 106.019 136.723 105.867 136.017C105.51 134.371 105.14 132.786 104.156 131.381C103.94 131.033 103.71 130.708 103.46 130.423C103.46 130.923 103.46 131.456 103.394 131.992C103.319 132.558 103.319 133.127 102.892 133.556C102.883 132.921 102.552 132.4 102.26 131.858C102.129 131.613 102.019 131.561 101.935 131.246C101.844 130.898 101.865 130.648 101.946 130.302C102.119 129.606 102.075 129.094 101.783 128.438C101.7 128.254 101.577 128.061 101.479 127.873C101.377 127.669 101.319 127.548 101.233 127.331C101.06 126.875 100.977 126.404 100.827 125.94C100.76 125.731 100.715 125.538 100.635 125.325C100.556 125.115 100.494 124.89 100.415 124.673C100.315 124.398 100.265 124.077 100.183 123.792C100.283 124.117 100.329 124.415 100.45 124.744C100.531 124.969 100.604 125.196 100.685 125.421C100.756 125.617 100.81 125.829 100.877 126.029C100.981 126.336 101.048 126.665 101.152 126.977C101.212 127.156 101.273 127.342 101.356 127.513C101.404 127.619 101.292 127.363 101.292 127.358C101.137 126.971 101.048 126.621 100.942 126.223C100.887 126.023 100.817 125.827 100.756 125.627C100.7 125.436 100.621 125.231 100.556 125.04C100.479 124.808 100.4 124.604 100.34 124.369C100.283 124.144 100.229 123.936 100.169 123.711C100.033 123.236 100.023 122.523 100.012 122.021C100.002 121.575 99.9895 121.127 99.9895 120.681C99.9895 120.321 100.069 119.933 100.09 119.569C100.112 119.238 100.169 118.911 100.175 118.579C100.175 118.533 100.179 118.511 100.169 118.469C100.115 118.479 100.129 118.5 100.123 118.565C100.094 118.811 100.083 119.046 100.048 119.292C100.019 119.523 100.015 119.748 99.9791 119.986C99.9374 120.286 99.9124 120.552 99.9166 120.856C99.9166 121.598 99.9041 122.406 99.9624 123.14C99.9874 123.431 100.027 123.606 100.1 123.888C100.187 124.202 100.229 124.479 100.34 124.794C100.419 125.019 100.49 125.25 100.565 125.477C100.625 125.667 100.671 125.863 100.731 126.054C100.831 126.365 100.887 126.706 100.985 127.027C101.106 127.433 101.206 127.69 101.398 128.071C101.529 128.327 101.615 128.467 101.694 128.752C101.858 129.34 101.81 129.729 101.604 130.292C101.487 130.602 101.469 130.794 101.419 131.115C101.358 131.531 101.256 131.552 101.056 131.898C100.8 132.344 100.631 132.804 100.519 133.302C100.45 133.602 100.4 133.908 100.369 134.221C100.36 134.731 100.34 134.788 100.621 135.223C100.917 135.683 101.369 136.092 101.737 136.502C101.94 136.733 102.19 137.175 102.296 137.465C102.356 137.631 102.421 137.79 102.477 137.961C102.592 138.294 102.746 138.625 102.869 138.961C102.923 139.106 103.023 139.302 103.098 139.442C103.177 139.596 103.244 139.698 103.315 139.867C103.344 139.933 103.465 140.198 103.454 140.248C103.433 140.35 103.337 140.213 103.315 140.175C103.208 139.983 103.137 139.794 103.019 139.598C102.942 139.475 102.856 139.306 102.783 139.175C102.717 139.05 102.66 138.89 102.598 138.758C102.467 138.473 102.35 138.192 102.231 137.9C101.985 137.296 101.725 136.877 101.177 136.506C101.067 136.431 100.444 135.979 100.385 136.277C100.369 136.371 100.379 136.804 100.375 136.933C100.365 137.971 100.31 139.025 100.077 140.038C99.9895 140.4 99.8729 141.431 99.7562 141.779C99.3958 142.517 99.1854 143.027 98.7583 143.098C99.1854 142.242 99.0437 141.248 99.2999 140.373C99.3562 139.938 99.3874 139.502 99.3999 139.069C99.4354 137.752 99.2958 136.548 99.1312 135.252C99.1062 135.052 99.1208 134.921 99.0749 134.711C99.0395 134.542 99.0145 134.425 98.9937 134.254C98.9145 133.692 98.8333 133.127 98.7604 132.565C98.7437 132.163 98.7395 131.761 98.7604 131.354C98.7833 130.95 98.8249 130.548 98.8958 130.146C98.5583 130.431 98.2416 130.729 97.9374 131.044C97.6354 131.356 97.3499 131.681 97.0729 132.019C96.802 132.408 96.5166 132.79 96.227 133.163C95.9749 133.492 95.8937 133.542 95.9041 133.975C95.9104 134.304 96.0104 134.627 96.0895 134.946C96.2208 135.469 96.377 135.871 96.6437 136.346C96.7687 136.571 96.8583 136.823 96.902 137.073C96.9874 137.586 96.9874 138.283 96.9895 138.815C96.9895 138.981 96.9645 139.211 96.952 139.386C96.9291 139.606 96.8979 139.808 96.8833 140.038C96.8624 140.394 96.8583 140.665 96.9395 141.017C97.0041 141.298 97.1541 141.544 97.1854 141.84C97.1979 141.936 97.1395 141.958 97.1041 141.844C97.0479 141.648 97.0145 141.538 96.9374 141.342C96.7979 141.006 96.7479 140.636 96.752 140.275C96.7583 139.831 96.8229 139.411 96.8416 138.971C96.852 138.729 96.827 138.369 96.8124 138.121C96.7874 137.696 96.7541 137.123 96.5708 136.744C96.4958 136.592 96.4562 136.527 96.3604 136.386C96.0895 135.975 95.9041 135.6 95.6854 135.167C95.6145 135.027 95.2833 134.431 95.0812 134.561C94.9583 134.64 94.3999 135.352 94.2812 135.513C94.0499 135.829 94.0479 135.871 94.0437 136.256C94.0395 136.488 94.1249 137.073 94.1749 137.304C94.2291 137.55 94.2999 137.771 94.3437 138.017C94.3749 138.194 94.4166 138.373 94.4499 138.554C94.4895 138.75 94.5604 138.908 94.5916 139.121C94.627 139.363 94.6708 139.577 94.6874 139.823C94.7062 140.023 94.7416 140.208 94.7562 140.411C94.7916 140.921 94.7916 141.494 94.7854 142.008C94.7854 142.046 94.7958 142.242 94.7166 142.204C94.6416 142.165 94.6458 141.698 94.6458 141.598C94.6312 141.063 94.6208 140.546 94.5208 140.019C94.4812 139.819 94.4666 139.638 94.4208 139.436C94.3645 139.196 94.3437 139.044 94.2458 138.815C94.1833 138.658 94.1395 138.498 94.0854 138.338C94.0145 138.127 93.9729 137.977 93.8749 137.771C93.8145 137.64 93.5812 137.054 93.4229 137.058C93.3104 137.063 93.1624 137.461 93.1208 137.565C92.2291 139.706 92.1541 142.019 92.7708 144.246C92.1291 144.173 92.0166 143.511 91.8458 143.069C91.677 142.627 91.6666 141.883 91.5604 141.433C91.1499 139.667 91.2041 137.838 92.0166 136.202C92.1645 135.769 92.3479 135.344 92.5645 134.931C92.7791 134.517 93.027 134.111 93.3104 133.723C93.5333 133.313 93.7583 132.906 93.9729 132.498C94.1854 132.088 94.3958 131.677 94.5854 131.269C94.7249 130.929 94.852 130.588 94.9666 130.242C95.1124 129.731 95.227 129.204 95.4374 128.683C95.6249 128.271 95.7458 128.221 95.7583 127.715C95.7645 127.419 95.7333 127.146 95.7541 126.842C95.7854 126.375 95.8062 125.994 95.9416 125.542C96.0645 125.131 96.1416 124.748 96.2958 124.344C96.4479 123.946 96.4166 123.665 96.5062 123.269C96.5729 122.979 96.577 122.794 96.5979 122.508C96.6187 122.221 96.7437 121.694 96.8624 121.425C96.9874 121.158 97.0729 121.033 97.2437 120.796C97.4145 120.556 97.5749 120.194 97.6312 119.904C97.6562 119.773 97.6812 119.627 97.702 119.494C97.8124 118.875 97.777 118.238 97.7999 117.611C97.8124 117.136 98.0229 116.604 98.1874 116.161C98.3187 115.796 98.3041 115.44 98.3583 115.065C98.4583 114.34 98.4291 113.533 98.4395 112.796C98.4395 112.671 98.4041 112.692 98.3979 112.792C98.377 113.152 98.3833 113.554 98.377 113.919C98.3687 114.346 98.352 114.698 98.2916 115.123C98.2374 115.525 98.2624 115.802 98.102 116.202C97.9624 116.552 97.777 117.083 97.7395 117.45C97.7104 117.706 97.7166 118.033 97.7104 118.304C97.6958 118.765 97.677 119.163 97.5854 119.619C97.5145 119.969 97.5249 120.044 97.3604 120.379C97.2645 120.575 97.2249 120.65 97.0937 120.821C96.8583 121.123 96.6833 121.479 96.5874 121.854C96.5124 122.152 96.4708 122.296 96.4458 122.613C96.4208 122.908 96.3854 123.063 96.3166 123.344C96.2458 123.636 96.2562 123.877 96.1416 124.177C96.0916 124.308 96.0354 124.433 95.9854 124.565C95.8645 124.89 95.7687 125.206 95.6479 125.531C95.5124 125.894 95.4624 126.163 95.3791 126.531C95.3437 126.711 95.2937 126.875 95.2583 127.052C95.1874 127.417 95.152 127.798 94.9416 128.119C94.8624 128.24 94.8312 128.306 94.7708 128.436C94.6999 128.581 94.6145 128.713 94.5249 128.844C94.1937 129.34 93.8833 129.781 93.552 130.192C93.302 130.423 93.0562 130.654 92.8166 130.898C92.5791 131.136 92.3499 131.386 92.127 131.638C91.7833 131.942 91.4958 132.273 91.2312 132.625C90.9687 132.977 90.7333 133.348 90.5041 133.727C90.0499 134.552 89.6208 135.55 88.9124 136.263C89.0541 135.55 89.0583 134.877 89.3749 134.304C89.6291 133.777 90.0166 132.45 89.9458 131.813C89.5562 131.667 89.2874 132.519 88.927 132.565C88.4458 132.69 87.9458 133.473 87.5624 133.702C87.1729 133.929 85.6687 134.888 85.352 135.194C83.4104 137.265 83.6458 138.825 81.5083 140.817C82.077 138.398 83.3604 135.408 85.4104 133.79C85.802 133.513 86.1979 133.242 86.5791 132.977C86.9604 132.715 87.3312 132.45 87.6729 132.194C88.0145 131.908 88.3145 131.613 88.5562 131.296C88.8729 130.979 89.1437 130.654 89.3604 130.321C89.6249 129.965 89.9166 129.64 90.5041 129.423C91.3354 129.138 91.5999 128.079 92.1291 127.433C92.227 127.317 92.3041 127.248 92.4083 127.142C92.6937 126.842 92.6541 126.461 92.8104 126.083C92.9249 125.808 93.2604 125.442 93.452 125.186C93.6916 124.869 93.8041 124.804 93.9291 124.404C93.9833 124.233 94.0541 124.063 94.1083 123.892C94.1791 123.661 94.0395 123.646 93.9291 123.836C93.7687 124.102 93.7166 124.438 93.5124 124.669C93.402 124.794 93.2729 124.919 93.1604 125.046C92.8812 125.356 92.5499 125.596 92.2979 125.923C92.0979 126.179 91.9812 126.411 91.7374 126.646C91.4749 126.9 91.2895 127.117 91.0583 127.394C90.8249 127.669 90.6187 127.879 90.2666 127.996L90.2083 128.015C89.4395 128.261 89.1395 128.596 88.4666 129.038C88.2708 129.165 88.0562 129.254 87.8479 129.369C87.502 129.571 87.1624 129.796 86.8312 130.027C86.5208 130.256 86.2145 130.483 85.9124 130.713C85.5333 130.973 85.1645 131.24 84.7999 131.517C83.0895 132.825 81.4749 134.246 79.8624 135.673C79.6437 135.865 79.4312 136.111 79.2208 136.321C78.9708 136.573 78.7187 136.823 78.4645 137.073C78.3291 137.204 78.0583 137.54 77.9624 137.702C77.8437 137.902 77.7833 138.081 77.6958 138.292C77.5416 138.65 77.4354 138.99 77.327 139.363C77.3145 139.417 77.2041 139.833 77.0895 139.706C77.0354 139.646 77.1687 139.186 77.1895 139.1C77.2749 138.761 77.3749 138.452 77.4999 138.123C77.602 137.852 77.6374 137.702 77.802 137.444C77.8979 137.294 78.0416 137.119 78.152 136.977C78.2874 136.804 78.4895 136.613 78.6437 136.446C78.9208 136.142 79.1458 135.896 79.3812 135.558C80.1541 134.465 81.0937 133.277 82.077 132.373C82.4312 132.048 82.7979 131.752 83.1895 131.477C83.5166 131.246 83.8562 131.036 84.2124 130.848C84.4979 130.563 84.6395 130.136 84.7645 129.89C84.8187 129.717 84.8249 129.519 84.7145 129.379C84.4874 129.083 84.1562 129.521 83.9458 129.656C83.5416 129.925 83.1333 130.046 82.7187 130.188C80.6708 131.475 78.6291 132.992 77.1999 134.973C77.0812 135.138 76.9645 135.363 76.8604 135.538C76.7895 135.654 76.7333 135.771 76.6624 135.894C76.4833 136.186 76.2979 136.461 76.1416 136.763C76.0354 136.958 75.9499 137.119 75.852 137.325C75.7562 137.536 75.6354 137.752 75.5312 137.967C75.4541 138.123 75.3791 138.244 75.3145 138.417C75.1833 138.754 75.0333 139.161 74.9729 139.513C74.9479 139.652 74.9229 139.783 74.8979 139.919C74.8791 140.004 74.9333 139.808 74.9333 139.808C74.9645 139.671 74.9874 139.523 75.0229 139.386C74.9937 139.513 74.9291 140.013 74.8166 140.065C74.6729 140.133 74.752 139.738 74.7583 139.681C74.7937 139.392 74.8187 139.231 74.9041 138.946C75.0124 138.583 75.0937 138.277 75.2541 137.931C75.3333 137.765 75.3999 137.565 75.4791 137.39C75.5812 137.154 75.6541 136.927 75.7645 136.692C75.8416 136.521 75.8958 136.377 75.9916 136.202C76.1374 135.936 76.2583 135.719 76.3729 135.433C76.4624 135.208 76.5374 135.033 76.6124 134.806C76.7333 134.429 76.8104 134.086 76.8104 133.688C75.6708 133.783 74.3124 133.963 73.2624 134.417C72.7708 134.631 72.3458 134.983 71.9395 135.333C71.7374 135.508 71.5624 135.669 71.3479 135.836C71.1854 135.961 71.0312 136.079 70.8708 136.211C70.3895 136.613 70.0333 136.902 69.7104 137.456C69.5666 137.702 69.5354 138.023 69.4166 138.208C69.3458 138.319 69.2333 138.329 69.2812 138.148C69.3354 137.967 69.3791 137.765 69.4354 137.59C69.5354 137.271 69.8354 136.838 70.0583 136.588C70.2791 136.342 70.5437 136.079 70.7833 135.85C70.8937 135.744 71.0062 135.648 71.1166 135.54C71.3479 135.315 71.5729 135.052 71.7979 134.813C72.1229 134.479 72.4208 134.183 72.7854 133.89C73.3333 133.448 73.9541 133 74.6583 132.856C74.7124 132.846 74.7624 132.84 74.8166 132.831C77.5208 132.69 78.9458 130.698 81.0937 129.533C81.3874 129.39 81.6854 129.269 81.9895 129.169C82.9937 128.869 83.4395 128.919 84.3083 127.975C84.9104 127.323 85.677 127.463 86.3291 127.248L84.402 126.569C84.402 126.569 82.9895 125.963 82.2458 125.963C81.4999 125.963 80.7854 126.446 80.2645 126.852C79.7437 127.256 78.3583 128.596 77.9333 128.998C77.5124 129.404 77.2645 129.729 76.8104 130.136C76.3624 130.544 75.4791 130.619 75.6749 130.577C75.7749 130.554 76.1708 130.167 76.4791 129.796C76.7895 129.429 77.0208 129.083 76.7895 129.154C76.3333 129.298 75.7249 128.992 75.3187 128.852C75.1145 128.781 74.427 128.602 73.7958 128.446C72.4104 127.619 71.5208 128.867 70.6479 129.771C70.3541 130.075 70.1583 130.333 69.9208 130.679C69.7958 130.865 69.6812 131.015 69.5666 131.206C69.3708 131.538 69.1458 131.831 68.8999 132.119C68.7979 132.238 68.7291 132.323 68.6124 132.436C68.3458 132.7 68.1062 132.965 67.8249 133.217C67.6541 133.371 67.2124 133.802 67.1041 133.988C67.0583 134.061 66.8208 134.6 66.727 134.49C66.6874 134.442 66.7958 134.279 66.8208 134.229C66.9937 133.875 66.977 133.865 67.2541 133.563C67.4249 133.373 67.5791 133.213 67.7645 133.04C68.0208 132.796 68.2666 132.5 68.5083 132.24C68.727 132.008 69.0145 131.586 69.1645 131.306C69.3541 130.958 69.5145 130.592 69.6916 130.231C69.9229 129.761 70.0166 129.508 70.3833 129.115C70.5583 128.929 70.7999 128.733 70.9499 128.552C71.0291 128.461 71.0916 128.361 70.9749 128.271C69.2645 127.131 67.1645 127.879 66.3104 130.013C66.2958 130.186 66.0145 130.513 65.8999 130.658C65.7374 130.865 65.6145 131 65.4312 131.181C65.2166 131.392 65.0416 131.617 64.8166 131.827C64.5687 132.067 64.3354 132.308 64.077 132.536C63.7333 132.836 63.502 133.086 63.2666 133.477C63.2416 133.519 62.9458 134.065 62.8687 133.915C62.8354 133.852 63.0187 133.573 63.0541 133.506C63.2458 133.161 63.3916 132.931 63.6583 132.636C63.8562 132.419 64.0979 132.215 64.2979 131.992C64.4958 131.763 64.6812 131.567 64.8645 131.321C64.9874 131.15 65.1104 130.983 65.2416 130.813C65.4374 130.554 65.5895 130.263 65.6979 129.961C65.8187 129.596 65.9479 129.471 66.1541 129.158C66.3104 128.919 66.4854 128.638 66.4895 128.346C64.4958 128.917 61.4312 129.558 59.5833 128.844C60.0104 128.844 60.4374 129.129 61.0083 128.988C65.2812 128.275 69.4062 126.14 73.6854 127.352C74.0749 127.438 74.4458 127.523 74.7937 127.598C75.4895 127.75 76.0812 127.869 76.502 127.869C78.1874 127.869 78.927 125.683 80.6624 124.711C82.3979 123.742 83.9208 123.731 85.3562 124.379C86.1374 124.729 87.027 124.636 87.9645 124.754C88.2458 124.342 88.4874 124.338 89.1291 124.096C89.5604 123.931 89.9958 123.763 90.427 123.586C91.6958 123.058 91.8062 122.923 92.7854 121.75C93.1354 120.129 93.4312 120.871 93.4729 118.967L93.7541 117.04C94.1395 114.542 94.3812 112.015 94.3249 109.49C94.3208 109.294 94.3041 109.011 94.5812 109.211C95.0062 109.515 95.2333 109.806 95.5499 110.204C95.7249 110.423 95.8687 110.548 96.0062 110.811C96.1604 111.096 96.2312 111.288 96.2958 111.608C96.3458 111.865 96.4208 112.09 96.4624 112.35C96.4958 112.54 96.5479 112.725 96.5937 112.911C96.6312 113.046 96.6833 113.177 96.7229 113.319C96.7541 113.433 96.9124 113.94 96.9729 113.986C97.0499 114.044 97.0291 113.896 97.0187 113.865C96.9729 113.665 96.8895 113.463 96.8416 113.256C96.802 113.102 96.752 112.971 96.7166 112.813C96.677 112.629 96.6374 112.5 96.6083 112.304C96.5729 112.04 96.4979 111.792 96.4562 111.521C96.3812 111.029 96.1666 110.583 95.8645 110.192C95.7083 109.988 95.5645 109.738 95.4083 109.521C95.2291 109.275 95.0479 109.036 94.902 108.769C94.677 108.356 94.4499 108.002 94.2895 107.554C94.2104 107.338 94.1708 107.223 94.1395 106.988C93.9499 105.494 93.602 103.992 92.9645 102.623C92.7854 102.238 93.3812 102.383 93.5479 102.452C93.7833 102.544 94.0291 102.708 94.2541 102.84C94.5645 103.019 94.7854 103.156 95.0687 103.375C95.1312 103.421 95.4041 103.646 95.4645 103.531C95.5124 103.446 95.2437 103.24 95.1791 103.179C94.802 102.848 94.3854 102.59 93.9979 102.267C93.727 102.046 93.3812 101.852 93.0749 101.681C92.6895 101.465 92.6541 101.504 92.3437 101.129C92.152 100.898 91.9874 100.463 91.8583 100.171C90.6791 97.5522 89.3083 95.5251 86.6541 94.2106C84.5479 93.1689 82.1062 92.8439 79.777 92.821C78.0374 92.821 76.7333 92.821 75.4645 93.2085C69.1458 95.5397 65.5937 99.8147 57.2124 98.2585C56.7791 98.2585 57.1812 97.8689 57.6166 97.8689C66.4666 99.8106 71.527 92.821 78.8145 91.6543C76.5437 90.4897 73.4687 90.1022 71.2312 89.3251C67.3874 90.1022 63.9437 90.4897 59.9041 88.9356C59.8708 88.5481 59.8708 88.5481 59.8708 88.5481C63.9124 90.1022 67.3541 89.7126 70.2979 88.5481C67.202 86.6564 64.7354 83.9231 63.6479 80.7376C63.3104 79.7418 63.7916 80.1418 64.1229 80.7689C64.5791 81.6376 64.8499 82.2647 65.4229 83.1168C70.0416 89.9772 79.177 90.6001 86.8999 91.2522L87.0354 91.2668C85.2312 88.7897 83.3499 86.4314 81.7958 83.8272C81.5395 83.3918 81.6937 83.5168 81.152 83.4231C78.7354 82.9856 77.7729 82.4606 75.7062 81.2897C74.8729 80.8147 73.9187 80.6147 72.9729 80.5085C72.4895 80.4522 71.952 80.5335 71.4208 80.5043C70.8645 80.4772 70.052 80.4064 69.5208 80.221C68.5666 79.8418 67.7312 79.1085 67.1645 78.3314C66.8874 77.9439 67.9645 78.9626 67.9708 78.9668C69.1604 79.8751 69.8624 79.8918 71.3104 80.0376C71.9041 80.0981 73.1687 80.1626 73.0833 79.3731C73.0333 78.9126 72.2604 78.3918 71.8833 77.971C70.7208 76.6668 69.6999 74.9293 69.0333 73.3939C69.6104 73.3856 69.4104 73.3001 69.7124 73.8418C70.6895 75.5876 71.8583 77.4043 73.4083 78.8189C74.1291 79.4751 74.4062 79.8897 75.3333 80.4314C77.0645 81.4418 79.0249 82.2189 81.0562 82.3126C80.7479 81.4397 80.3562 80.5585 80.0395 79.6689C79.4833 78.1043 79.0854 76.6647 78.6562 75.0814C78.4083 74.1522 77.8874 74.0522 77.1312 73.4356C76.4583 72.8772 75.8812 72.221 75.2479 71.7001C74.7166 71.2647 74.2208 71.0918 73.5979 70.8064C72.9458 70.5064 74.2104 70.7876 74.3249 70.8231C76.0458 71.4085 77.4499 73.1085 77.9166 73.2606C78.4187 73.4251 78.0874 72.1314 78.0479 71.8689C77.7666 70.1001 77.3416 68.3731 77.3499 66.6043C77.3499 66.3064 77.3104 66.0231 77.6979 66.171C77.8624 66.7543 78.0874 67.5376 78.1687 68.1772C78.3541 69.5939 78.6937 70.8981 78.9249 72.296C79.0354 72.9689 79.1624 73.7106 79.6874 74.2626C80.2145 74.7689 80.6854 73.696 80.8479 73.4001C81.2979 71.6001 81.5541 72.8981 82.1604 71.1626C82.0895 70.4918 82.5374 69.5793 82.3874 70.7981C82.3854 72.4168 81.6895 71.6106 81.4041 74.1064C80.8874 75.3022 79.9249 75.1897 80.5458 76.9981C80.6354 77.2585 81.0229 78.7064 81.6291 79.8397C82.1166 80.7543 82.8187 81.3897 82.9041 81.5814C83.8104 83.6168 83.8979 80.8001 84.5437 79.896C85.152 79.0647 85.5729 78.4314 86.4937 77.8293C87.0562 77.4835 87.3687 77.7501 87.1208 77.8189C86.8854 77.8856 86.6416 78.3168 86.4937 78.5106C85.7791 79.4251 85.5062 79.9147 85.1749 81.0085C84.7499 82.6293 84.5333 83.7293 85.277 85.4085C85.5479 86.0147 86.3458 86.7418 86.8104 87.3397C87.4687 88.1918 88.1645 88.9897 88.827 89.8522C89.0687 90.1647 89.6812 91.1126 90.1458 91.0231C90.3916 90.9772 90.5833 90.6897 90.7041 90.5189C91.2916 89.6231 91.2145 88.3335 91.2458 87.2793C91.2791 86.2168 91.2999 85.4376 91.4854 84.3814C91.6562 83.4126 91.6374 82.4647 91.8166 81.4668C91.9333 80.8043 92.152 79.7106 91.8166 79.0647C91.5624 78.6522 90.9687 78.1814 90.5937 77.8189C89.6291 76.8376 88.8166 75.9022 87.9145 74.8856C86.8499 73.6856 86.0937 73.6106 85.0166 72.6876C83.9708 71.7897 83.4749 70.3856 83.4499 69.1626C83.4312 68.2335 83.7812 69.096 83.8374 69.4418C84.0374 70.571 83.877 71.0689 84.8645 72.0501C85.8166 72.9897 86.977 73.2751 88.0187 74.3126C88.4624 74.7689 90.1166 76.7501 91.3312 77.3085C91.5854 77.4272 91.8812 77.921 92.0833 77.8897C92.3437 77.8481 92.4854 77.2085 92.5958 76.8147C92.9062 75.7126 93.0249 73.8876 92.8062 72.7376C92.6083 71.671 92.6687 71.9793 92.8749 71.1293C92.8354 71.1543 92.9208 70.8981 92.8854 70.9272C91.5062 68.9668 90.2374 66.9397 89.2729 64.7231C85.0708 64.146 80.5604 63.0481 78.7895 58.7085C79.0708 58.5939 79.2812 58.8189 79.702 59.3293C80.852 61.8418 83.5812 62.9231 86.3999 63.5335C87.2916 63.7251 88.1895 63.871 89.052 64.0001C87.7249 60.5293 87.7229 59.6314 88.0437 55.8439C88.1145 55.4689 88.2916 55.3335 88.5916 55.3585C88.3104 58.7168 88.6666 60.5731 89.6291 63.1772C90.5041 65.5501 91.7708 67.6981 93.1854 69.7647C93.3374 68.596 93.4979 67.0043 93.9041 66.4168C94.0041 66.8481 93.7937 70.6814 93.702 71.3376C93.5624 72.3376 93.8145 72.8189 93.8291 73.7626C93.8541 75.5564 93.1812 77.3418 93.0166 79.1335C92.9208 80.271 92.8145 81.2606 92.6437 82.3897C92.5083 83.3064 93.027 83.4022 93.8187 82.9856C95.3729 82.1626 95.4041 79.8856 97.0979 78.7918C97.2604 78.6918 97.6645 78.5022 98.0833 78.3397L98.1208 78.7626C97.9812 78.8168 97.8854 78.8522 97.8749 78.8564C96.4229 79.4856 96.1645 81.0251 95.4479 82.2376C94.7499 83.3918 94.2083 83.6981 93.2624 84.596C92.1833 85.6251 92.4729 86.5772 92.5187 87.9126C92.5833 89.7085 92.4645 90.8251 92.202 92.5668C92.0624 93.4751 92.1479 93.7189 92.8104 94.4835C94.0979 95.896 95.2895 97.5376 96.2416 99.1918C96.3624 99.4022 96.427 99.6293 96.4916 99.8647C96.5312 100.004 96.6166 100.15 96.6624 100.3C96.777 100.669 96.827 101.354 96.8416 101.752C96.8479 101.9 96.802 102.146 96.7916 102.308C96.777 102.469 96.7729 102.558 96.7437 102.723C96.702 102.946 96.6916 103.156 96.6416 103.375C96.5062 103.958 96.527 104.656 96.5229 105.258C96.5229 105.331 96.5124 105.638 96.5666 105.673C96.6833 105.75 96.6812 105.171 96.6812 105.117C96.6979 104.54 96.6979 103.933 96.8583 103.377C96.9145 103.186 96.9291 102.99 96.9833 102.783C97.0187 102.644 97.0479 102.552 97.0687 102.402C97.0937 102.208 97.1354 102.067 97.1749 101.886C97.2083 101.736 97.2145 101.425 97.2291 101.258C97.2541 100.898 97.2791 100.527 97.3104 100.171C97.3437 99.7856 97.5145 99.5397 97.6895 99.2064C97.8874 98.821 98.0729 98.4356 98.2479 98.0397C98.9812 96.3793 99.8062 94.5189 100.3 92.1397C97.727 91.1064 96.7583 88.6585 95.8854 86.3106C96.0208 85.3876 95.8645 85.1981 96.5312 85.8856C97.2395 87.7918 98.427 89.9939 100.51 90.971C100.867 88.6001 100.885 85.746 100.233 82.1439C100.125 81.5668 99.8916 80.8126 99.6166 79.9356C98.6395 76.8251 97.3791 73.0231 99.2354 67.7335C98.8104 66.071 96.3958 62.8522 95.7437 60.8064C94.8458 58.3731 94.1499 55.5231 94.4104 52.3939C94.7624 51.6814 94.9166 52.5876 94.9083 53.2501C94.6604 56.2314 95.5124 58.0168 96.3666 60.3335C96.4229 60.4897 96.4833 60.6439 96.5458 60.796C99.8583 60.6501 104.99 59.4168 106.39 55.5585C106.96 54.9606 106.76 55.0501 106.81 55.7293C105.121 59.8731 100.767 60.8564 96.7333 61.4668C97.4937 63.1522 98.6395 64.9126 99.6916 66.4293C100.008 65.6251 99.9583 65.6314 100.421 64.7876C100.785 64.3668 101.312 64.3918 100.992 65.0376C98.527 69.5585 98.6854 72.4814 100.365 77.2689C100.521 77.7189 100.777 77.8856 101.242 77.5772C102.525 76.6064 102.962 74.3772 102.796 72.9439C102.648 71.696 102.562 71.0126 102.746 69.7439C102.771 69.5793 102.898 68.4835 103.204 68.5501C103.379 68.5897 103.219 69.4522 103.204 69.5876C103.062 70.7981 103.083 71.4293 103.25 72.6272C103.375 73.4918 103.383 73.9876 103.294 74.8585C103.287 74.921 103.279 74.9856 103.273 75.0543C103.104 76.2001 102.496 77.7147 101.979 78.7772C101.302 80.1564 101.59 80.5439 102.09 81.8835C102.135 82.0168 102.185 82.1481 102.235 82.2793C103.99 91.9793 100.756 94.8981 100.027 104.154C100.34 104.936 100.546 105.594 100.731 106.411C100.817 106.781 100.881 107.163 100.962 107.536C101.006 107.736 101.062 107.904 101.096 108.111C101.156 108.467 101.181 108.9 101.206 109.265C101.227 109.546 101.246 109.827 101.258 110.108C101.271 110.288 101.252 110.529 101.246 110.711C101.231 111.092 101.06 111.538 100.925 111.894C100.84 112.115 100.721 112.336 100.635 112.561C100.525 112.846 100.425 113.083 100.333 113.379C100.279 113.548 100.235 113.669 100.2 113.846C100.154 114.069 100.115 114.217 100.09 114.45C100.052 114.831 99.9687 115.015 100.029 115.419C100.062 115.636 100.077 115.827 100.123 116.046C100.129 116.073 100.187 116.388 100.187 116.388C100.223 116.454 100.25 116.348 100.25 116.294C100.248 116.136 100.179 115.927 100.165 115.754C100.133 115.39 100.083 115.233 100.14 114.852C100.165 114.688 100.194 114.527 100.219 114.361C100.29 113.833 100.529 113.183 100.746 112.696C100.885 112.379 101.042 112.083 101.171 111.758C101.327 111.361 101.458 111.075 101.494 110.633C101.512 110.423 101.544 110.242 101.548 110.027C101.562 109.4 101.602 108.758 101.594 108.131C101.59 107.771 101.533 107.454 101.548 107.088C101.565 106.713 101.619 106.575 101.723 106.219C103.087 101.654 104.594 98.0439 107.852 94.4689C108.517 93.7043 108.6 93.4606 108.46 92.5522C108.196 90.8106 108.083 89.696 108.144 87.8981C108.19 86.5585 108.479 85.6085 107.398 84.5814C106.454 83.6835 106.017 83.321 105.215 82.2231C104.558 81.3293 104.665 81.2397 106.042 82.4085C106.298 82.6251 106.573 82.8251 106.846 82.971C107.633 83.3876 108.158 83.296 108.023 82.3751C107.854 81.246 107.744 80.2585 107.648 79.1189C107.487 77.3272 106.815 75.5418 106.835 73.7501C106.85 72.8043 107.102 72.3231 106.96 71.3231C106.869 70.6668 106.658 66.8335 106.76 66.4022C107.2 67.0335 107.352 68.8356 107.517 70.0106C110.19 66.1585 112.006 62.4564 112.419 58.0876C112.483 57.4126 112.719 56.8022 112.712 56.0897C112.854 55.7731 113.025 55.5626 113.156 56.0106C113 62.2543 111.54 65.8772 107.99 70.9126C107.923 71.0376 107.854 71.1585 107.787 71.2835C108.012 72.3231 108.065 71.5939 107.852 72.7272C107.633 73.8814 107.754 75.7064 108.06 76.8022C108.173 77.1981 108.319 77.8335 108.575 77.8793C108.777 77.9106 109.071 77.4168 109.327 77.2981C110.542 76.7418 112.192 74.7606 112.64 74.3022C113.677 73.2647 114.84 72.9835 115.794 72.0397C116.783 71.0626 116.621 70.5606 116.821 69.4314C116.881 69.0814 117.227 68.2189 117.208 69.1522C117.183 70.3751 116.687 71.7793 115.64 72.6772C114.565 73.6001 113.808 73.6751 112.744 74.8751C111.842 75.8918 111.029 76.8272 110.065 77.8085C109.694 78.171 109.098 78.646 108.842 79.0543C108.506 79.7001 108.725 80.7939 108.842 81.4564C109.021 82.4543 109.002 83.3981 109.173 84.371C109.358 85.4231 109.377 86.2022 109.412 87.2689C109.444 88.3231 109.365 89.6126 109.954 90.5064C110.075 90.6793 110.267 90.9668 110.512 91.0126C110.977 91.1022 111.59 90.1543 111.831 89.8418C112.494 88.9793 113.19 88.1814 113.848 87.3293C114.308 86.7293 115.11 86.0064 115.381 85.3981C116.125 83.7231 115.908 82.6189 115.483 80.996C115.152 79.9064 114.877 79.4147 114.165 78.5001C114.017 78.3064 113.771 77.8751 113.537 77.8085C113.29 77.7397 113.602 77.4731 114.165 77.8189C115.087 78.421 115.504 79.0522 116.115 79.8856C116.76 80.7897 116.848 83.6043 117.754 81.571C117.84 81.3793 118.542 80.7439 119.029 79.8272C119.631 78.696 120.023 77.2481 120.112 76.9876C120.733 75.1772 119.767 75.2918 119.25 74.0939C118.594 72.5772 118.427 71.9543 118.498 71.1126C118.654 71.2043 118.829 71.2772 119.01 71.3189C119.079 71.9356 119.3 72.5085 119.81 73.3897C119.973 73.6856 120.444 74.7585 120.971 74.2522C121.496 73.696 121.619 72.9585 121.733 72.2856C121.965 70.8876 122.308 69.5835 122.49 68.1647C122.571 67.5272 122.581 66.6543 122.746 66.071C123.133 65.9251 123.092 66.2085 123.096 66.5043C123.102 68.2731 122.892 70.0897 122.606 71.8564C122.565 72.1251 122.233 73.4147 122.74 73.2501C123.206 73.0981 124.606 71.3981 126.331 70.8126C126.444 70.7772 127.71 70.496 127.058 70.796C126.433 71.0814 125.937 71.2543 125.408 71.6897C124.773 72.2106 124.192 72.8647 123.523 73.4251C122.771 74.0418 122.25 74.1418 121.998 75.071C121.571 76.6543 121.167 78.0897 120.615 79.6564C120.298 80.5481 119.902 81.4272 119.6 82.3001C121.631 82.2085 123.587 81.4356 125.323 80.4189C126.246 79.8772 126.527 79.4647 127.246 78.8085C128.796 77.3939 129.965 75.5772 130.942 73.8314C131.244 73.2897 131.044 73.3751 131.621 73.3814C130.952 74.9189 129.929 76.6564 128.767 77.9606C128.394 78.3772 127.617 78.9022 127.567 79.3606C127.481 80.1522 128.746 80.0876 129.342 80.0272C130.787 79.8814 131.49 79.8647 132.679 78.9543C132.683 78.9522 133.49 78.4126 133.208 78.8022C132.642 79.5814 132.085 79.846 131.123 80.2085C130.6 80.4085 129.783 80.4668 129.227 80.4939C128.696 80.5189 128.158 80.4418 127.673 80.4981C126.729 80.6043 125.775 80.8085 124.942 81.2793C122.871 82.4481 121.908 82.9751 119.496 83.4126C118.954 83.5085 119.108 83.3814 118.852 83.8147C117.294 86.421 115.412 88.7793 113.612 91.2564L113.748 91.2418C121.471 90.5897 130.606 89.9668 135.225 83.1064C135.798 82.2543 136.069 81.6272 136.525 80.7585C136.856 80.1272 137.337 79.7314 136.996 80.7272C135.912 83.9126 133.442 86.6439 130.35 88.5376C133.294 89.7022 136.735 90.0897 140.775 88.5376C140.775 88.5376 140.775 88.5376 140.744 88.9251C136.702 90.4793 133.26 90.0897 129.417 89.3147C127.179 90.0897 124.106 90.4793 121.833 91.6439C129.121 92.8085 134.181 99.8043 143.031 97.8585C143.467 97.8585 143.869 98.246 143.433 98.246C135.05 99.8001 131.5 95.5272 125.183 93.1981C123.915 92.8085 122.61 92.8085 120.871 92.8085C111.073 92.9085 109.619 98.4064 107.923 102.133L107.944 102.131ZM144.31 67.1397C147.49 66.1356 148.904 63.121 147.49 60.4376C144.31 61.1064 142.896 64.4564 144.31 67.1397ZM89.5145 103.723C87.1312 102.088 86.7812 98.7751 89.0124 96.8001C91.0958 98.2335 91.4499 101.546 89.5145 103.723ZM110.437 104.856C113.046 103.306 113.646 99.8606 111.444 97.6418C109.158 98.9981 108.565 102.444 110.437 104.856ZM59.9312 66.0064C56.9895 64.8981 56.1979 62.0481 58.0645 60.0418C60.702 61.3981 61.7999 64.0001 59.9312 66.0064ZM66.8666 83.6585C64.6916 82.7064 64.1124 80.2668 65.4874 78.5481C67.4333 79.7106 68.2416 81.9418 66.8666 83.6585ZM83.0187 90.1501C80.4645 89.5168 79.377 86.9543 80.5604 84.821C82.9041 85.7335 84.202 88.0168 83.0187 90.1501ZM77.6979 80.8043C75.5812 79.2481 75.5458 76.4606 77.4562 74.9397C79.277 76.6751 79.6083 79.2835 77.6979 80.8043ZM95.2833 95.5251C96.4479 93.4231 95.4145 91.0981 93.2458 90.5606C92.3979 92.696 93.1166 94.9856 95.2833 95.5251ZM97.0249 97.6668C99.3124 96.3689 99.677 93.6085 97.9624 91.8689C95.9499 93.3751 95.3124 95.9272 97.0249 97.6668ZM103.315 97.4335C105.602 96.1376 105.967 93.3751 104.252 91.6376C102.24 93.1439 101.602 95.696 103.315 97.4335ZM68.5124 91.6231C70.302 89.6918 73.0708 89.9731 74.3666 92.0439C72.4395 93.6564 69.8104 93.6939 68.5124 91.6231ZM76.6833 89.1147C75.6458 86.6939 77.0291 84.2793 79.4437 83.9335C80.1354 86.3522 79.0999 88.7689 76.6833 89.1147ZM88.0312 87.0939C86.9479 84.9231 88.0312 82.2126 90.4729 81.671C91.827 83.8397 90.202 86.2814 88.0312 87.0939ZM96.0166 91.0522C97.0937 88.6501 95.7458 86.2147 93.3333 85.8314C92.6083 88.2418 93.6041 90.671 96.0166 91.0522ZM107.854 92.7731C108.21 90.1689 106.233 88.2064 103.81 88.5189C103.79 91.0356 105.431 93.0876 107.854 92.7731ZM117.825 78.6481C117.825 76.2001 115.683 74.3647 113.24 74.9793C113.24 77.121 115.381 78.9522 117.825 78.6481ZM131.694 81.9231C133.956 82.6501 136.008 81.2001 136.115 78.9981C133.881 78.5814 131.8 79.721 131.694 81.9231ZM126.092 91.6793C127.546 93.2085 130.24 92.5022 131.315 90.6293C129.698 89.4564 127.171 89.8064 126.092 91.6793ZM130.962 49.1731C128.865 50.7585 128.867 53.5418 130.796 55.0418C132.594 53.2856 132.89 50.6731 130.962 49.1731ZM112.719 87.6106C113.887 85.2731 112.719 82.3543 110.092 81.771C108.635 84.1085 110.385 86.7335 112.719 87.6106ZM118.527 84.9376C117.51 86.7876 118.994 89.1418 121.11 89.5981C121.737 87.7022 120.644 85.3981 118.527 84.9376ZM82.4312 99.3585C84.6291 101.023 84.1062 104.621 81.8249 106.292C80.0687 104.365 80.1499 101.029 82.4312 99.3585ZM76.3083 99.2981C78.5249 100.386 78.6854 103.638 76.9687 105.498C75.0895 104.104 74.5916 101.158 76.3083 99.2981ZM79.1958 101.736C77.0145 98.9626 77.8083 94.9751 81.127 93.4897C83.0333 95.9168 82.2416 99.9043 79.1958 101.736ZM74.0416 100.717C75.4104 103.342 73.252 106.592 70.2687 107.167C69.4499 104.486 71.0604 101.29 74.0416 100.717ZM86.802 100.111C83.9458 99.6689 82.1916 96.8356 83.3499 94.0918C85.852 94.4814 87.6041 97.3126 86.802 100.111ZM77.0812 93.4293C78.5083 96.0231 76.427 99.3231 73.4583 99.9689C72.5791 97.3106 74.1145 94.0751 77.0812 93.4293ZM71.1416 96.1064C72.7062 98.9876 70.9958 102.708 67.9354 103.254C66.3708 100.371 68.0812 96.6501 71.1416 96.1064ZM52.6479 100.19C52.9666 103.327 50.2354 105.469 47.5999 105.277C47.1833 102.442 49.7062 99.896 52.6479 100.19ZM66.1041 98.9064C66.4208 102.046 63.6916 104.188 61.0541 103.994C60.6374 101.158 63.1604 98.6147 66.1041 98.9064ZM60.4354 99.3731C59.7333 102.533 56.5687 104.294 53.7562 102.886C54.1104 100.075 57.2729 98.3189 60.4354 99.3731ZM56.5479 97.7585C55.1541 99.9897 52.0895 99.6731 50.4187 97.4418C52.3666 95.5314 55.1541 95.5314 56.5479 97.7585ZM149.437 92.0939C148.458 94.8647 151.035 97.7626 154.046 97.9126C154.481 95.1606 152.45 92.2418 149.437 92.0939ZM47.8854 88.7689C47.0187 91.5772 49.7083 94.371 52.7208 94.3981C53.0437 91.6335 50.8958 88.8001 47.8854 88.7689ZM124.079 99.3022C121.862 100.388 121.702 103.642 123.419 105.502C125.298 104.108 125.796 101.163 124.079 99.3022ZM121.192 101.74C123.373 98.9668 122.581 94.9793 119.265 93.4939C117.358 95.921 118.15 99.9064 121.192 101.74ZM46.2624 72.9585C44.8979 75.5835 47.0541 78.8335 50.0374 79.4085C50.8562 76.7272 49.2458 73.5314 46.2624 72.9585ZM95.227 47.271C93.8729 44.8835 94.9416 42.1689 97.3187 41.4772C98.327 43.9106 97.6041 46.5793 95.227 47.271ZM91.7374 41.0772C90.3833 38.6897 91.4499 35.9751 93.827 35.2835C94.8354 37.7168 94.1145 40.3856 91.7374 41.0772ZM86.8208 37.3897C84.7229 35.6189 84.7854 32.7043 86.7749 31.2314C88.5624 33.1668 88.8083 35.921 86.8208 37.3897ZM88.5354 54.1043C87.1812 51.7168 88.2499 49.0022 90.627 48.3106C91.6354 50.7439 90.9104 53.4126 88.5354 54.1043ZM113.648 100.892C116.627 100.317 118.358 97.2772 117.037 94.4418C114.433 94.9439 112.7 97.9835 113.648 100.892ZM88.9374 46.4189C89.2937 43.8147 87.3166 41.8501 84.8937 42.1647C84.8708 44.6793 86.5145 46.7335 88.9374 46.4189ZM107.587 88.2772C107.944 85.6731 105.967 83.7085 103.544 84.0231C103.521 86.5376 105.165 88.5897 107.587 88.2772ZM100.365 85.4501C100.721 82.846 98.7437 80.8856 96.3208 81.196C96.2999 83.7126 97.9416 85.7647 100.365 85.4501ZM93.3312 79.3981C93.6937 77.0814 95.8854 75.9126 97.8749 76.796C97.2458 78.9481 95.3187 80.2814 93.3312 79.3981ZM97.8458 75.8668C98.7437 73.3939 97.2291 71.0585 94.7958 70.8481C94.2395 73.3043 95.4124 75.6564 97.8458 75.8668ZM94.3354 70.0897C96.9645 70.1251 98.6749 67.9314 98.0729 65.5606C95.5749 65.8418 93.7333 67.721 94.3354 70.0897ZM66.0499 59.4918C63.3624 61.8418 59.6249 61.1168 58.1249 58.1876C60.9624 56.2793 64.5499 56.5626 66.0499 59.4918ZM97.3749 64.6876C95.4124 66.4418 92.6812 65.9001 91.5854 63.7147C93.6541 62.2897 96.277 62.5043 97.3749 64.6876ZM93.9333 52.4335C91.2895 51.2293 90.6979 48.3897 92.4999 46.4793C94.852 47.9189 95.7354 50.5231 93.9333 52.4335ZM81.9749 43.0439C84.7541 42.6106 86.1749 39.8335 85.1395 37.2897C82.5562 38.0585 80.9374 40.5001 81.9749 43.0439ZM77.7062 57.3501C80.4812 56.9168 81.9062 54.1397 80.8708 51.596C78.2874 52.3668 76.6687 54.8064 77.7062 57.3501ZM83.0187 61.0647C84.8687 59.7856 87.3729 60.4439 88.1895 62.6147C86.5708 63.7335 84.0666 63.0731 83.0187 61.0647ZM79.8791 71.3585C78.8312 68.971 80.1333 66.2626 82.7833 65.8106C83.6999 67.8981 82.3979 70.6064 79.8791 71.3585ZM87.5374 58.9793C87.4645 56.3501 85.1958 54.7356 82.8583 55.4335C83.2437 57.9168 85.1999 59.6772 87.5374 58.9793ZM80.8479 41.6231C77.727 41.3064 76.052 38.8356 77.1354 36.5064C80.0499 37.1335 81.9312 39.2918 80.8479 41.6231ZM86.827 54.8647C83.7062 54.546 82.0312 52.0772 83.1145 49.7481C86.0291 50.3751 87.9104 52.5335 86.827 54.8647ZM87.0916 41.196C86.1937 38.7231 87.7083 36.3876 90.1416 36.1772C90.6979 38.6293 89.5249 40.9856 87.0916 41.196ZM89.0166 59.1335C88.1166 56.6606 89.6312 54.3251 92.0666 54.1147C92.6208 56.5668 91.4499 58.9231 89.0166 59.1335ZM89.9354 63.3168C89.0374 60.8439 90.552 58.5085 92.9854 58.3022C93.5416 60.7543 92.3687 63.1085 89.9354 63.3168ZM82.1999 61.6981C80.2249 60.5501 80.2354 58.0647 82.0645 56.471C83.752 57.8064 84.027 60.1064 82.1999 61.6981ZM84.1333 69.6085C83.2354 67.1356 84.7499 64.8022 87.1833 64.5918C87.7395 67.046 86.5666 69.3981 84.1333 69.6085ZM91.5104 74.3793C92.5583 71.8314 90.5937 68.3689 87.2479 68.0439C86.3333 71.0564 88.4624 74.2231 91.5104 74.3793ZM75.1833 66.3418C74.2854 63.8689 75.7999 61.5335 78.2333 61.3272C78.7895 63.7793 77.6166 66.1356 75.1833 66.3418ZM78.1729 67.4668C77.3312 65.4293 78.9062 62.6564 81.5854 62.3939C82.3208 64.8064 80.6166 67.3418 78.1729 67.4668ZM80.6416 49.1418C78.2333 47.8647 77.527 44.6585 79.252 42.2793C81.8708 43.7918 82.3666 46.7606 80.6416 49.1418ZM73.0374 49.2918C69.5416 50.4564 66.0437 48.5147 65.6541 45.4064C68.7624 43.8543 72.2604 46.1835 73.0374 49.2918ZM70.6937 53.9772C67.1979 55.1418 63.6979 53.2001 63.3104 50.0918C66.4166 48.5397 69.9166 50.8689 70.6937 53.9772ZM77.6374 60.7043C75.0874 61.6626 72.2187 60.0668 71.5812 57.1981C74.4479 56.2397 76.9999 57.8356 77.6374 60.7043ZM74.7479 63.8106C71.252 64.9772 67.7541 63.0335 67.3645 59.9272C70.4729 58.3731 73.9708 60.7043 74.7479 63.8106ZM68.9249 65.2397C66.1708 67.0501 62.8791 65.8897 61.9124 62.9918C64.7458 61.6064 67.9604 62.3439 68.9249 65.2397ZM66.4708 67.9168C65.202 70.1397 61.7062 70.4564 59.7999 68.5501C61.0729 66.0106 64.8812 65.6918 66.4708 67.9168ZM87.7083 49.4272C84.9312 50.5731 82.152 48.6606 81.8437 45.6022C84.3124 44.071 87.0874 46.3689 87.7083 49.4272ZM76.8854 55.6897C74.1062 56.8376 71.3312 54.9251 71.0208 51.8668C73.4895 50.3376 76.2666 52.6335 76.8854 55.6897ZM76.6729 69.5668C73.177 70.7314 69.677 68.7897 69.2895 65.6814C72.3958 64.1293 75.8958 66.4585 76.6729 69.5668ZM51.6791 84.1189C48.1833 85.2835 44.6854 83.3418 44.2958 80.2335C47.4041 78.6814 50.902 81.0106 51.6791 84.1189ZM73.3041 78.1314C72.2687 75.7126 73.6499 73.296 76.0708 72.9501C76.7624 75.371 75.7249 77.7856 73.3041 78.1314ZM99.2249 45.4356C99.2249 42.8272 101.508 40.871 104.112 41.5231C104.112 43.8064 101.829 45.7606 99.2249 45.4356ZM81.4291 79.3189C81.4291 76.7106 83.7124 74.7585 86.3187 75.4064C86.3187 77.6897 84.0333 79.6439 81.4291 79.3189ZM76.8791 83.4064C76.5624 85.9293 73.7249 88.1376 71.202 87.1897C71.202 84.3543 74.0395 82.4585 76.8791 83.4064ZM69.2104 94.7397C66.4916 95.5168 63.3854 93.5751 63.3854 90.8564C65.7145 90.0793 68.8229 92.021 69.2104 94.7397ZM86.8062 83.021C85.7187 80.8501 86.8062 78.1397 89.2479 77.5981C90.6041 79.7668 88.977 82.2085 86.8062 83.021ZM58.4645 68.3001C56.0874 69.1918 53.4145 67.7064 52.8187 65.0335C55.4916 64.1418 57.8687 65.6293 58.4645 68.3001ZM58.677 77.9106C56.302 78.8022 53.6291 77.3168 53.0333 74.6439C55.7062 73.7522 58.0833 75.2397 58.677 77.9106ZM57.0062 80.1126C55.0187 82.4293 51.7083 82.7606 49.7187 80.4439C51.377 78.1251 54.6874 77.7939 57.0062 80.1126ZM61.827 75.7168C58.9833 76.4251 56.1479 73.9418 56.1479 70.746C58.9874 70.0356 61.827 72.521 61.827 75.7168ZM59.4979 88.5189C57.6479 90.6793 54.5666 90.3689 52.7166 88.2085C54.5666 86.3606 57.9583 86.3606 59.4979 88.5189ZM58.7208 82.0626C58.3791 84.796 54.9645 86.8418 51.8895 85.4751C52.5729 82.4043 55.9874 80.6981 58.7208 82.0626ZM63.2812 78.4356C62.4333 80.9856 59.2479 81.6606 57.2874 79.9418C58.2437 77.6626 61.1604 77.0981 63.2812 78.4356ZM77.8666 52.3231C74.3708 51.1585 72.8166 47.6626 74.3708 44.5522C77.8666 45.3293 79.4187 49.2126 77.8666 52.3231ZM63.7687 88.9147C60.2749 87.7501 58.7208 84.2543 60.2749 81.1439C63.7687 81.9189 65.3229 85.8043 63.7687 88.9147ZM56.0229 69.5689C54.3208 71.8814 50.9916 72.2814 48.9958 70.6356C50.752 68.0085 54.0812 67.6064 56.0229 69.5689ZM74.602 81.9564C72.8979 84.2689 69.5708 84.6668 67.5749 83.021C69.3312 80.3939 72.6604 79.9918 74.602 81.9564ZM71.6833 56.421C70.4145 58.6439 66.9187 58.9626 65.0124 57.0543C66.2854 54.5147 70.0937 54.1981 71.6833 56.421ZM68.552 76.496C67.2833 78.721 63.7874 79.0376 61.8854 77.1314C63.1541 74.5897 66.9666 74.2731 68.552 76.496ZM56.4729 63.4647C53.3041 64.521 50.1374 62.7606 49.7833 59.946C52.602 58.5376 55.7666 60.6501 56.4729 63.4647ZM68.4312 74.5731C65.2624 75.6272 62.0958 73.8668 61.7416 71.0522C64.5562 69.6439 67.7249 71.7585 68.4312 74.5731ZM62.9937 97.4626C59.4979 96.2981 57.9437 92.8022 59.4979 89.6918C62.9937 90.4689 64.1624 94.3522 62.9937 97.4626ZM58.7208 97.0751C55.6104 97.4626 52.502 94.7439 52.8937 91.2481C56.002 90.471 59.1083 93.1897 58.7208 97.0751ZM119.04 50.1918C118.096 47.5126 119.687 44.9793 122.246 44.7543C122.827 47.4126 121.598 49.9689 119.04 50.1918ZM104.662 48.2001C103.719 45.521 105.31 42.9876 107.869 42.7626C108.45 45.421 107.221 47.9731 104.662 48.2001ZM96.5458 58.0251C95.5999 55.346 97.1937 52.8106 99.752 52.5876C100.333 55.246 99.1041 57.8001 96.5458 58.0251ZM101.133 59.6272C103.287 58.1106 103.375 55.3314 101.498 53.771C99.6458 55.4668 99.2604 58.0668 101.133 59.6272ZM105.562 42.0189C104.517 39.0564 106.283 36.2606 109.119 36.0106C109.765 38.946 108.4 41.7689 105.562 42.0189ZM100.225 51.6293C99.177 48.6668 100.946 45.871 103.781 45.621C104.427 48.5564 103.062 51.3793 100.225 51.6293ZM95.7749 52.4189C94.877 49.946 96.3916 47.6126 98.8249 47.4022C99.3812 49.8543 98.2083 52.2085 95.7749 52.4189ZM103.965 40.4543C104.862 37.9814 103.348 35.6481 100.912 35.4376C100.358 37.8918 101.529 40.2439 103.965 40.4543ZM105.675 56.2564C106.573 53.7835 105.058 51.4501 102.623 51.2397C102.069 53.6918 103.24 56.046 105.675 56.2564ZM104.687 37.5397C107.406 36.2001 108.012 33.0418 106.158 30.9189C103.742 32.5189 102.833 35.4147 104.687 37.5397ZM106.608 53.771C109.327 52.4293 109.931 49.2731 108.079 47.1501C105.662 48.7501 104.754 51.646 106.608 53.771ZM89.0583 43.0543C91.5166 42.121 93.8749 43.6043 94.1187 46.0335C91.6729 46.621 89.2999 45.4856 89.0583 43.0543ZM98.7395 61.421C101.198 60.4876 103.558 61.9689 103.8 64.4001C101.356 64.9876 98.9854 63.8501 98.7395 61.421ZM121.637 43.2043C123.49 40.6606 122.604 37.3189 119.962 36.1022C118.502 38.7606 118.998 41.9897 121.637 43.2043ZM127.456 59.3043C129.823 57.2293 129.687 53.7731 127.377 52.0106C125.369 54.2835 125.148 57.5397 127.456 59.3043ZM101.027 74.2064C103.058 72.5335 102.948 69.7543 100.96 68.3335C99.2312 70.1606 99.0395 72.7835 101.027 74.2064ZM104.092 74.8585C106.583 74.0126 107.458 71.3731 106.102 69.3418C103.84 70.4418 102.733 72.8272 104.092 74.8585ZM106.669 81.4772C107.567 79.0043 106.052 76.671 103.619 76.4606C103.062 78.9168 104.235 81.2668 106.669 81.4772ZM123.337 50.5731C123.804 48.3147 126.794 46.8293 129.273 48.1793C128.496 50.7022 125.529 51.9001 123.337 50.5731ZM100.7 67.5168C101.167 65.2585 104.156 63.7751 106.635 65.1231C105.858 67.646 102.894 68.8418 100.7 67.5168ZM103.042 60.3126C105.621 59.8022 107.698 61.6585 107.531 64.0918C105.023 64.2647 102.873 62.746 103.042 60.3126ZM118.658 55.3564C117.546 52.8293 119.421 50.4376 122.429 50.2272C123.112 52.7376 121.667 55.146 118.658 55.3564ZM151.187 68.5335C149.471 66.5689 146.462 66.6043 144.931 68.8106C146.435 70.5251 149.437 70.4918 151.187 68.5335ZM136.665 56.7876C134.946 54.8272 131.942 54.8606 130.41 57.0668C131.915 58.7835 134.919 58.7522 136.665 56.7876ZM132.533 44.9731C130.817 43.0126 127.808 43.0439 126.277 45.2501C127.781 46.9668 130.785 46.9314 132.533 44.9731ZM119.721 58.6418C118.002 56.6772 114.996 56.7126 113.467 58.9189C114.971 60.6335 117.975 60.6001 119.721 58.6418ZM120.348 71.3626C121.396 68.9751 120.094 66.2668 117.448 65.8147C116.527 67.9022 117.831 70.6106 120.348 71.3626ZM114.254 55.6293C113.2 53.0147 114.975 50.5418 117.829 50.321C118.477 52.9189 117.108 55.4085 114.254 55.6293ZM113.171 54.3751C114.094 51.4814 112.537 48.7501 110.035 48.5043C109.465 51.3751 110.669 54.1293 113.171 54.3751ZM111.567 58.9939C112.465 56.521 110.952 54.1876 108.517 53.9772C107.962 56.4272 109.133 58.7835 111.567 58.9939ZM110.292 63.3189C111.19 60.846 109.675 58.5126 107.242 58.3064C106.685 60.7585 107.858 63.1126 110.292 63.3189ZM116.823 65.2001C117.721 62.7272 116.206 60.3939 113.773 60.1835C113.217 62.6356 114.39 64.9897 116.823 65.2001ZM116.09 69.6168C116.987 67.1439 115.473 64.8085 113.04 64.5981C112.483 67.0543 113.656 69.4064 116.09 69.6168ZM108.712 74.3876C107.667 71.8397 109.629 68.3751 112.975 68.0522C113.894 71.0626 111.765 74.2293 108.712 74.3876ZM117.223 49.5876C118.121 47.1147 116.606 44.7793 114.173 44.5689C113.617 47.0251 114.79 49.3772 117.223 49.5876ZM121.777 66.246C122.675 63.7731 121.16 61.4376 118.727 61.2272C118.171 63.6835 119.344 66.0356 121.777 66.246ZM124.054 46.5793C126.398 45.1939 126.958 41.9606 125.125 39.6626C122.581 41.2939 122.223 44.2835 124.054 46.5793ZM121.277 60.8897C123.623 59.5043 124.181 56.2668 122.35 53.9689C119.806 55.6022 119.446 58.5918 121.277 60.8897ZM123.219 64.9168C125.781 63.9814 126.921 60.9064 125.544 58.3106C122.742 59.4501 121.842 62.321 123.219 64.9168ZM125.475 63.8189C128.971 64.9835 132.471 63.0418 132.858 59.9335C129.752 58.3814 126.252 60.7106 125.475 63.8189ZM133.104 54.2189C135.598 55.7689 138.577 54.7751 139.45 52.2918C136.887 51.1043 133.977 51.7356 133.104 54.2189ZM138.165 69.2064C141.735 69.3314 143.777 66.2585 142.671 62.8856C139.319 63.2168 137.06 65.8314 138.165 69.2064ZM135.571 60.4085C137.629 61.9335 140.954 60.8147 141.931 58.3022C139.746 56.4897 136.129 57.7356 135.571 60.4085ZM131.302 67.671C133.36 69.1918 136.685 68.0772 137.662 65.5647C135.473 63.7501 131.86 64.9981 131.302 67.671ZM109.785 47.7939C113.34 46.8147 115.16 43.2501 113.748 40.4543C110.3 40.896 108.7 44.7835 109.785 47.7939ZM123.55 69.5689C127.046 70.7356 130.546 68.7918 130.933 65.6856C127.827 64.1314 124.327 66.4626 123.55 69.5689ZM133.404 51.2543C136.625 51.1689 138.917 48.5251 138.306 45.8564C135.287 45.5064 133.115 48.4668 133.404 51.2543ZM127.267 72.6793C130.321 73.7001 133.379 72.0001 133.721 69.2835C131.002 67.9272 127.948 69.9647 127.267 72.6793ZM130.244 74.3043C128.383 72.446 125.625 72.8335 124.41 74.9543C126.402 76.4897 129.027 76.4251 130.244 74.3043ZM119.71 76.6564C119.71 74.7647 118.052 73.3501 116.165 73.821C116.165 75.4772 117.817 76.8918 119.71 76.6564ZM123.304 93.4335C121.879 96.0272 123.96 99.3272 126.929 99.971C127.808 97.3126 126.269 94.0772 123.304 93.4335ZM149.104 86.3731C149.467 89.296 152.752 91.8501 155.675 90.7606V90.5314C155.527 87.371 152.315 85.3043 149.104 86.3731ZM120.915 84.2397C121.281 87.1606 124.571 89.721 127.492 88.6231C127.492 85.3335 124.202 83.1418 120.915 84.2397ZM131.017 94.7481C133.735 95.5251 136.842 93.5835 136.842 90.8647C134.512 90.0876 131.404 92.0293 131.017 94.7481ZM113.733 83.2772C114.902 80.9397 113.733 78.0251 111.108 77.4376C109.65 79.7751 111.4 82.4001 113.733 83.2772ZM141.552 77.8189C144.862 79.0439 148.587 76.9981 149.412 73.3293C145.69 72.1022 142.379 74.1439 141.552 77.8189ZM143.602 79.6793C145.758 82.1897 149.342 82.5501 151.498 80.0376C149.702 77.5272 146.115 77.1668 143.602 79.6793ZM138.402 75.7085C141.51 76.4856 144.617 73.7668 144.617 70.271C141.51 69.4918 138.402 72.2126 138.402 75.7085ZM140.733 88.1418C143.065 90.8606 146.948 90.471 149.281 87.7522C146.952 85.4231 142.675 85.4231 140.733 88.1418ZM141.51 82.0668C141.852 84.7981 145.267 86.8439 148.342 85.4793C147.656 82.4085 144.244 80.7022 141.51 82.0668ZM149.125 71.1772C149.969 73.7272 153.154 74.4022 155.119 72.6835C154.16 70.4043 151.246 69.8397 149.125 71.1772ZM136.952 78.4376C137.798 80.9897 140.983 81.6626 142.946 79.946C141.987 77.6647 139.073 77.1022 136.952 78.4376ZM136.46 88.9189C139.956 87.7522 141.51 84.2564 139.956 81.146C136.46 81.9231 134.906 85.8085 136.46 88.9189ZM125.194 81.9231C126.748 85.0314 130.631 86.196 133.354 84.6418C131.8 81.146 127.917 79.9814 125.194 81.9231ZM148.758 83.2272C150.029 85.4501 153.521 85.7689 155.429 83.8626C154.156 81.321 150.348 81.0043 148.758 83.2272ZM130.179 76.6064C131.448 78.8314 134.944 79.1481 136.85 77.2418C135.577 74.7001 131.769 74.3835 130.179 76.6064ZM131.796 74.5751C134.965 75.6314 138.131 73.871 138.481 71.0564C135.667 69.6481 132.498 71.7606 131.796 74.5751ZM129.242 96.1085C127.677 98.9918 129.387 102.713 132.448 103.256C134.012 100.375 132.302 96.6543 129.242 96.1085ZM134.283 98.9106C133.967 102.048 136.696 104.19 139.333 103.998C139.75 101.163 137.227 98.6168 134.283 98.9106ZM139.952 99.3772C140.654 102.538 143.819 104.298 146.631 102.89C146.281 100.079 143.117 98.321 139.952 99.3772ZM137.233 97.4668C140.729 96.3022 142.283 92.8064 140.729 89.696C137.233 90.471 136.069 94.3564 137.233 97.4668ZM141.506 97.0772C144.615 97.4668 147.721 94.7481 147.333 91.2522C144.225 90.4751 141.119 93.1939 141.506 97.0772ZM143.837 98.1231C145.294 100.448 148.502 100.117 150.25 97.7918C148.208 95.796 145.294 95.796 143.837 98.1231Z" fill="#265121"/>
</g>
<path d="M77.037 156.44V167H74.653V160.784L74.757 159.016L74.349 161.04L72.573 166.152H70.229L68.461 161.04L68.061 159.016L68.165 160.784V167H65.773V156.44H69.133L71.261 163.488L71.405 164.328L71.549 163.488L73.677 156.44H77.037ZM82.3693 156.44H84.7453L88.9133 167H86.3612L85.5933 164.88H81.5293L80.7533 167H78.1932L82.3693 156.44ZM82.3293 162.784H84.8013L83.5773 159.32H83.5533L82.3293 162.784ZM94.881 164.824C95.3717 164.824 95.817 164.752 96.217 164.608C96.6223 164.464 96.9237 164.323 97.121 164.184L98.145 166.216C97.8943 166.429 97.465 166.645 96.857 166.864C96.2543 167.083 95.537 167.192 94.705 167.192C93.9263 167.192 93.1957 167.056 92.513 166.784C91.8303 166.512 91.2277 166.131 90.705 165.64C90.1877 165.144 89.7797 164.565 89.481 163.904C89.1877 163.237 89.041 162.515 89.041 161.736C89.041 160.957 89.1877 160.235 89.481 159.568C89.7743 158.896 90.1797 158.312 90.697 157.816C91.2197 157.32 91.8223 156.936 92.505 156.664C93.193 156.387 93.9263 156.248 94.705 156.248C95.537 156.248 96.2543 156.357 96.857 156.576C97.465 156.795 97.8943 157.011 98.145 157.224L97.121 159.256C96.9237 159.112 96.6223 158.971 96.217 158.832C95.817 158.688 95.3717 158.616 94.881 158.616C94.337 158.616 93.8623 158.701 93.457 158.872C93.0517 159.037 92.713 159.267 92.441 159.56C92.169 159.853 91.9663 160.184 91.833 160.552C91.6997 160.92 91.633 161.307 91.633 161.712C91.633 162.123 91.6997 162.515 91.833 162.888C91.9663 163.256 92.169 163.587 92.441 163.88C92.713 164.173 93.0517 164.405 93.457 164.576C93.8623 164.741 94.337 164.824 94.881 164.824ZM103.026 156.44H105.402L109.57 167H107.017L106.25 164.88H102.186L101.41 167H98.8495L103.026 156.44ZM102.986 162.784H105.458L104.234 159.32H104.21L102.986 162.784ZM112.63 158.632L112.806 158.664V167H110.414V156.44H113.678L117.958 164.76L117.782 164.792V156.44H120.174V167H116.894L112.63 158.632ZM125.401 156.44H127.777L131.945 167H129.392L128.625 164.88H124.561L123.785 167H121.224L125.401 156.44ZM125.361 162.784H127.833L126.609 159.32H126.585L125.361 162.784Z" fill="#265121"/>
<mask id="mask2_58_56" style="mask-type:luminance" maskUnits="userSpaceOnUse" x="2" y="91" width="107" height="107">
<path d="M2.95422 91.4271H108.554V197.027H2.95422V91.4271Z" fill="white"/>
</mask>
<g mask="url(#mask2_58_56)">
<path d="M106.186 188.421V187.737H61.4794L52.871 196.346H26.6856V197.029H24.3148V194.567H26.6856V195.252H52.4148L61.0231 186.644H106.181V185.96H108.552V188.421H106.186ZM42.4502 188.421V187.737H14.0106V188.377H13.9668V188.421H11.596V188.377H11.5523V186.006H11.596V185.962H12.2335V157.525H11.5502V155.154H14.0106V157.525H13.3273V185.962H13.9668V186.006H14.0106V186.644H42.4502V185.96H44.8189V188.421H42.4502ZM4.4356 137.273H5.11893V114.773H4.4356V112.402H6.8981V114.773H6.21268V137.273H6.8981V139.644H4.4356V137.273ZM62.6981 193.071V193.756H85.1981V193.071H87.5689V195.533H85.1981V194.85H62.6981V195.533H60.3273V193.071H62.6981ZM14.0106 93.7875H13.3273V138.946L13.1689 139.106L4.72101 147.554V173.283H5.40435V175.654H2.94185V173.283H3.62727V147.1L3.7856 146.94L12.2335 138.494V93.7875H11.5502V91.4166H14.0106V93.7875Z" fill="#265121"/>
</g>
<mask id="mask3_58_56" style="mask-type:luminance" maskUnits="userSpaceOnUse" x="91" y="91" width="107" height="107">
<path d="M91.4271 91.4458H197.027V197.046H91.4271V91.4458Z" fill="white"/>
</mask>
<g mask="url(#mask3_58_56)">
<path d="M188.421 93.8145H187.738V138.521L196.346 147.129V173.315H197.029V175.685H194.567V173.315H195.252V147.585L186.644 138.977V93.8187H185.96V91.4478H188.421V93.8145ZM188.421 157.55H187.738V185.987H188.377V186.033H188.421V188.404H188.377V188.448H186.006V188.404H185.963V187.767H157.525V188.45H155.154V185.987H157.525V186.673H185.963V186.033H186.006V185.987H186.644V157.55H185.96V155.181H188.421V157.55ZM137.273 195.565V194.881H114.773V195.565H112.402V193.102H114.773V193.787H137.273V193.102H139.644V195.565H137.273ZM193.071 137.302H193.756V114.802H193.071V112.431H195.533V114.802H194.85V137.302H195.533V139.673H193.071V137.302ZM93.7876 185.987V186.673H138.946L139.106 186.831L147.554 195.279H173.283V194.596H175.654V197.058H173.283V196.373H147.1L146.94 196.215L138.494 187.767H93.7876V188.45H91.4167V185.987H93.7876Z" fill="#265121"/>
</g>
<mask id="mask4_58_56" style="mask-type:luminance" maskUnits="userSpaceOnUse" x="2" y="2" width="107" height="107">
<path d="M2.9729 2.95416H108.573V108.554H2.9729V2.95416Z" fill="white"/>
</mask>
<g mask="url(#mask4_58_56)">
<path d="M11.5791 106.186H12.2624V61.4793L3.65411 52.871V26.6856H2.97078V24.3147H5.43328V26.6856H4.74786V52.4147L13.3562 61.0231V106.181H14.0395V108.552H11.5791V106.186ZM11.5791 42.4501H12.2624V14.0106H11.6229V13.9668H11.5791V11.596H11.6229V11.5522H13.9937V11.596H14.0374V12.2335H42.4749V11.5501H44.8458V14.0106H42.4749V13.3272H14.0374V13.9668H13.9937V14.0106H13.3562V42.4501H14.0395V44.8189H11.5791V42.4501ZM62.727 4.43555V5.11889H85.227V4.43555H87.5979V6.89805H85.227V6.21264H62.727V6.89805H60.3562V4.43555H62.727ZM6.92911 62.6981H6.2437V85.1981H6.92911V87.5689H4.46661V85.1981H5.14995V62.6981H4.46661V60.3272H6.92911V62.6981ZM106.212 14.0106V13.3272H61.0541L60.8937 13.1689L52.4458 4.72097H26.7166V5.4043H24.3458V2.9418H26.7166V3.62722H52.8999L61.5062 12.2335H106.212V11.5501H108.583V14.0106H106.212Z" fill="#265121"/>
</g>
<mask id="mask5_58_56" style="mask-type:luminance" maskUnits="userSpaceOnUse" x="91" y="2" width="107" height="107">
<path d="M91.4458 2.9729H197.046V108.573H91.4458V2.9729Z" fill="white"/>
</mask>
<g mask="url(#mask5_58_56)">
<path d="M93.8146 11.5792V12.2626H138.521L147.129 3.65422H173.315V2.97089H175.685V5.43339H173.315V4.74797H147.585L138.977 13.3563H93.8187V14.0396H91.4479V11.5792H93.8146ZM157.55 11.5792V12.2626H185.987V11.623H186.033V11.5792H188.404V11.623H188.448V13.9938H188.404V14.0376H187.767V42.4751H188.45V44.8459H185.987V42.4751H186.673V14.0376H186.033V13.9938H185.987V13.3563H157.55V14.0396H155.181V11.5792H157.55ZM195.565 62.7271H194.881V85.2271H195.565V87.598H193.102V85.2271H193.787V62.7271H193.102V60.3563H195.565V62.7271ZM137.302 6.92922V6.2438H114.802V6.92922H112.431V4.46672H114.802V5.15005H137.302V4.46672H139.673V6.92922H137.302ZM185.987 106.213H186.673V61.0542L186.831 60.8938L195.279 52.4459V26.7167H194.596V24.3459H197.058V26.7167H196.373V52.9001L187.767 61.5063V106.213H188.45V108.583H185.987V106.213Z" fill="#265121"/>
</g>
</g>
<defs>
<clipPath id="clip0_58_56">
<rect width="200" height="200" fill="white"/>
</clipPath>
</defs>
</svg>
