<svg width="183" height="163" viewBox="0 0 183 163" fill="none" xmlns="http://www.w3.org/2000/svg">
<path d="M182.805 0H0V162.8H182.805V0Z" fill="#C9D38A"/>
<mask id="mask0_140_2" style="mask-type:luminance" maskUnits="userSpaceOnUse" x="23" y="7" width="135" height="125">
<path d="M23.9334 7.07346H157.405V131.495H23.9334V7.07346Z" fill="white"/>
</mask>
<g mask="url(#mask0_140_2)">
<path d="M155.785 58.456C155.648 58.4475 155.509 58.4518 155.37 58.4731L154.46 57.3686L145.946 41.9343L149.174 39.07C149.626 39.3722 150.219 39.4871 150.798 39.3381C150.851 39.3232 150.902 39.3062 150.953 39.2892L155.785 58.456ZM155.099 71.4794C154.881 71.207 154.582 71.0027 154.246 70.8857L155.477 61.9098C155.706 61.9311 155.943 61.914 156.179 61.8523C156.2 61.8481 156.221 61.8396 156.242 61.8332L155.099 71.4794ZM153.507 84.9219C153.141 84.79 152.749 84.7176 152.348 84.7176L153.787 74.2266C153.887 74.2181 153.991 74.2011 154.093 74.1734C154.374 74.1011 154.619 73.9734 154.823 73.8074L153.507 84.9219ZM151.491 84.8262C151.032 84.9475 150.624 85.156 150.284 85.4263L140.145 72.5625C140.681 72.254 141.012 71.7156 141.028 71.1368L151.7 72.3242C151.676 72.537 151.693 72.7583 151.762 72.9796C151.957 73.6095 152.506 74.0585 153.157 74.1968L151.704 84.7794C151.635 84.7921 151.563 84.8091 151.491 84.8262ZM143.13 100.88L142.926 99.205L150.302 89.8036C150.423 89.8972 150.552 89.9823 150.687 90.061L144.356 101.337C144.011 101.044 143.575 100.876 143.13 100.88ZM131.726 113.963C131.655 113.892 131.58 113.824 131.502 113.761L140.386 102.44L141.489 102.606C141.489 102.784 141.52 102.969 141.575 103.152C141.705 103.567 141.957 103.912 142.277 104.157L131.726 113.963ZM117.813 122.196C117.581 121.83 117.213 121.56 116.789 121.428L117.164 120.417L126.575 117.167C126.631 117.274 126.696 117.378 126.765 117.476L117.813 122.196ZM97.5991 127.744C97.5411 127.571 97.4647 127.405 97.3766 127.25L105.441 124.464L114.316 123.347C114.328 123.411 114.342 123.477 114.36 123.541C114.365 123.547 114.367 123.554 114.367 123.558L97.5991 127.744ZM81.9292 127.848C81.9431 127.71 81.9385 127.569 81.9153 127.429L93.2193 126.005C92.1441 126.482 91.4651 127.482 91.4489 128.561L81.9292 127.848ZM66.1157 123.8C66.3683 123.226 66.4263 122.57 66.227 121.928C66.1366 121.636 65.9999 121.368 65.8284 121.128L74.2844 115.895L79.4868 126.05C78.8935 126.22 78.4556 126.637 78.2655 127.143L66.1157 123.8ZM59.3399 108.034L67.2721 106.213C67.286 106.268 67.2999 106.325 67.3161 106.381C67.6197 107.364 68.6254 107.962 69.5616 107.719C69.7215 107.677 69.8652 107.613 69.9996 107.532L74.0132 115.365L65.4298 120.679C64.7439 120.045 63.759 119.723 62.7556 119.855L59.3399 108.034ZM47.9224 109.27L46.6084 108.189L52.3253 86.0136L56.9229 101.925L47.9224 109.27ZM58.6956 108.062L49.1227 110.258L48.0174 109.349L56.96 102.05L58.6956 108.062ZM62.1438 119.993C61.8681 120.083 61.6132 120.204 61.3838 120.353L49.2363 110.351L58.7281 108.175L62.1438 119.993ZM47.5446 110.62C47.533 110.566 47.5191 110.511 47.5029 110.458C47.4473 110.277 47.3685 110.109 47.2689 109.958L47.5423 109.734L48.3835 110.428L47.5446 110.62ZM46.3489 109.196L46.4439 108.83L47.4473 109.658L47.1993 109.86C46.9792 109.56 46.6803 109.33 46.3489 109.196ZM45.2574 109.117C45.0859 109.164 44.9284 109.234 44.787 109.326L42.4488 105.542L46.3373 108.743L46.2307 109.153C45.9202 109.053 45.5842 109.034 45.2574 109.117ZM41.4755 103.963L39.5614 100.865C39.675 100.407 39.668 99.9179 39.5197 99.4349C39.3528 98.8943 39.0284 98.4326 38.6044 98.0815L50.0242 84.6879C50.6128 85.0964 51.3497 85.3114 52.1098 85.2688L52.2581 85.7774L46.5018 108.102L41.4755 103.963ZM39.0215 101.942C39.2439 101.665 39.4108 101.354 39.5151 101.024L41.1789 103.721L39.0215 101.942ZM27.0362 80.5787C27.736 80.251 28.1439 79.5509 28.0489 78.8273L42.5369 74.765L49.3869 80.6745C48.8331 81.3682 48.6199 82.2811 48.8956 83.1727C49.0277 83.6026 49.2595 83.9814 49.5607 84.2942L38.0992 97.7388C37.8999 97.6303 37.689 97.5409 37.4689 97.475L27.0362 80.5787ZM35.6335 97.4431C35.5408 97.4665 35.4505 97.4941 35.3647 97.5239L26.6909 80.7042C26.7697 80.683 26.8462 80.6574 26.9203 80.6276L37.2951 97.4282C36.7667 97.3005 36.1966 97.2962 35.6335 97.4431ZM26.3943 64.5123C26.8902 64.6123 27.4186 64.606 27.94 64.4719C28.2204 64.3974 28.4799 64.291 28.7186 64.1591L26.4453 77.3186C26.3155 77.3016 26.1811 77.2973 26.0467 77.3058L26.3943 64.5123ZM31.5318 43.4792C31.7497 43.6133 31.993 43.7048 32.2433 43.741L30.6443 52.9999L27.3954 58.8135C27.3375 58.8093 27.2819 58.805 27.2239 58.8029L31.5318 43.4792ZM44.5877 26.8936C44.7152 27.0426 44.8565 27.1809 45.0095 27.3022L41.2461 34.0352L33.7356 40.8533C33.5618 40.6277 33.344 40.4447 33.1007 40.3128L44.5877 26.8936ZM62.1068 14.4534C62.1647 14.6087 62.2458 14.7513 62.3431 14.8811L56.42 20.2564L49.4425 23.2164C49.3475 23.1164 49.2456 23.0228 49.1366 22.9355L62.1068 14.4534ZM78.1682 10.4825C78.1844 10.574 78.2076 10.6634 78.2354 10.7549C78.2586 10.8272 78.2864 10.9017 78.3142 10.9719L72.1246 13.5958L65.7682 14.0575C65.7913 13.8469 65.7751 13.6298 65.7079 13.4149C65.6708 13.2978 65.6222 13.1851 65.5619 13.0808L78.1682 10.4825ZM104.183 10.9741C104.159 11.072 104.146 11.172 104.141 11.2741L93.3259 12.0572L84.3903 10.308C84.4042 10.2037 84.4111 10.1016 84.4111 9.9952L104.183 10.9741ZM124.876 17.6943C124.795 17.8581 124.728 18.0284 124.682 18.2029L108.887 15.1066L107.262 12.6424C107.52 12.4381 107.71 12.1743 107.819 11.8827L124.876 17.6943ZM149.157 36.2759C149.069 36.3377 148.988 36.4036 148.914 36.4738L141.35 31.5497C141.48 31.222 141.503 30.8517 141.392 30.4899C141.107 29.5664 140.062 29.0322 139.061 29.2919C139.047 29.2961 139.035 29.3004 139.024 29.3025L130.737 19.7712C130.751 19.7244 130.767 19.6797 130.781 19.6329L149.157 36.2759ZM140.671 32.3711C140.949 32.1881 141.165 31.9412 141.302 31.6582L148.831 36.5611C148.446 36.9867 148.291 37.5719 148.465 38.1422C148.573 38.4912 148.791 38.7827 149.072 38.9998L145.888 41.8279L140.671 32.3711ZM145.067 42.5557C144.34 41.7875 143.195 41.4044 142.057 41.6215L138.261 35.3694L139.149 32.652C139.45 32.7158 139.772 32.7137 140.09 32.6307C140.261 32.586 140.421 32.5179 140.565 32.437L145.793 41.9109L145.067 42.5557ZM145.225 46.1669C145.781 45.4731 145.997 44.5581 145.721 43.6622C145.603 43.2792 145.403 42.9366 145.148 42.645L145.853 42.0194L154.033 56.8494L145.225 46.1669ZM153.845 60.6564C153.873 60.7436 153.908 60.8266 153.947 60.9075L148.154 64.7315L139.302 52.0997L141.339 47.0606C142.004 47.3522 142.785 47.433 143.552 47.233C144.029 47.1096 144.449 46.8883 144.796 46.6031L154.745 58.671C153.996 59.054 153.604 59.869 153.845 60.6564ZM148.497 65.2188L154.302 61.3863C154.464 61.5395 154.654 61.6651 154.865 61.7544L153.628 70.7708C153.442 70.7665 153.25 70.7878 153.062 70.8367C152.886 70.8835 152.722 70.9516 152.573 71.0368L148.497 65.2188ZM140.813 70.292L148.393 65.2869L152.471 71.1027C152.07 71.3687 151.804 71.7667 151.718 72.2093L141.024 71.0197C141.019 70.8878 140.996 70.7559 140.956 70.6239C140.919 70.5069 140.873 70.3962 140.813 70.292ZM136.931 57.9602L139.246 52.2338L148.052 64.7996L140.43 69.8323C140.06 69.5152 139.559 69.3407 139.04 69.3663L136.931 57.9602ZM149.322 88.3969C149.331 88.4225 149.341 88.4501 149.35 88.4757L142.032 91.9337L140.991 83.4728L149.285 86.9499C149.167 87.4117 149.171 87.9075 149.322 88.3969ZM142.046 92.0571L149.392 88.5863C149.503 88.8779 149.665 89.1439 149.862 89.378L142.82 98.3496L142.046 92.0571ZM129.72 113.054L129.449 100.786L139.691 102.335L130.99 113.424C130.603 113.222 130.169 113.092 129.72 113.054ZM120.133 112.433L126.455 114.967C126.258 115.482 126.214 116.055 126.366 116.621L117.428 119.708L120.133 112.433ZM115.76 120.285L114.217 110.058L120.017 112.386L117.276 119.761L115.76 120.285ZM115.92 121.351L115.848 120.87L117.011 120.47L116.668 121.394C116.43 121.334 116.177 121.319 115.92 121.351ZM114.423 121.364L114.861 121.826C114.458 122.185 114.244 122.702 114.3 123.232L105.974 124.281L114.423 121.364ZM94.6004 125.713C94.5842 125.713 94.5657 125.713 94.5494 125.713L95.6803 105.419C96.1415 105.495 96.6235 105.48 97.1031 105.357C97.6663 105.21 98.1506 104.929 98.526 104.565L113.983 120.898L103.158 124.635L94.6004 125.713ZM95.1589 125.76L102.625 124.82L97.0151 126.756C96.5424 126.235 95.8819 125.882 95.1589 125.76ZM70.7574 105.7L93.1011 102.738C93.115 102.946 93.1498 103.155 93.2147 103.363C93.2262 103.397 93.2378 103.431 93.2494 103.465L74.1198 115.301L70.1016 107.462C70.6299 107.081 70.8964 106.402 70.7574 105.7ZM57.486 101.62L70.1641 91.2761L74.0781 93.0743L69.6242 104.268C69.2627 104.104 68.8572 104.057 68.4632 104.159C67.6151 104.38 67.1168 105.215 67.2536 106.098L59.3074 107.921L57.486 101.62ZM54.594 71.3857C54.828 71.7433 55.1895 72.0071 55.6066 72.1391L52.5153 79.5445C52.0495 79.4636 51.5536 79.4764 51.0647 79.6019C50.5827 79.7296 50.1563 79.9531 49.8087 80.2446L43.2321 74.5714L54.594 71.3857ZM35.8745 68.2257L46.6849 55.7961C47.0835 55.9705 47.5516 56.0195 48.0104 55.9003C48.0405 55.8918 48.0707 55.8812 48.1008 55.8727L55.1802 69.0471C54.5082 69.4514 54.1676 70.2239 54.3993 70.9708C54.4202 71.0431 54.4503 71.1134 54.4804 71.1815L43.0652 74.4288L35.8745 68.2257ZM29.5111 63.5292L35.3879 68.6002L27.4348 77.7463C27.1915 77.5442 26.8925 77.4037 26.5704 77.3399L28.86 64.074C29.1056 63.9207 29.3234 63.7356 29.5111 63.5292ZM29.4694 59.8073C29.0871 59.3988 28.5888 59.0966 28.035 58.9348L30.3291 54.8321L29.4694 59.8073ZM29.8773 60.3606L45.7232 54.8278C45.8831 55.2279 46.189 55.5471 46.569 55.7429L35.7818 68.1469L29.8634 63.0397C30.2295 62.4056 30.3407 61.6459 30.1113 60.9011C30.0511 60.7117 29.9723 60.5308 29.8773 60.3606ZM35.8861 44.8858L45.9016 53.3042C45.7093 53.5829 45.605 53.9106 45.6073 54.249L29.5899 59.8435L30.5122 54.5022L35.8861 44.8858ZM32.9153 43.7048C33.2791 43.6111 33.578 43.4026 33.7912 43.126L35.4064 44.4815L30.8297 52.67L32.3684 43.7559C32.5492 43.7686 32.7345 43.7516 32.9153 43.7048ZM34.1203 41.7343L37.3901 40.932L35.4644 44.3751L33.8631 43.0281C34.1018 42.6663 34.2014 42.2067 34.1203 41.7343ZM37.4665 40.7937L34.0971 41.6193C34.0879 41.5747 34.0763 41.53 34.0624 41.4832C34.0021 41.2916 33.9141 41.1129 33.8075 40.9533L41.0607 34.365L37.4665 40.7937ZM47.5122 28.5088L47.496 38.3358L38.2869 40.5936L42.4975 33.0605L47.5122 28.5088ZM47.5122 27.9789V28.3449L42.6829 32.7307L45.5309 27.6384C46.1171 27.9427 46.8124 28.0704 47.5122 27.9789ZM63.708 17.8028L64.1275 32.703C64.0672 32.7137 64.0093 32.7264 63.9514 32.7413C63.4856 32.8626 63.1102 33.1372 62.8715 33.4861L49.862 26.451C49.8898 26.402 49.9176 26.3531 49.9408 26.302L55.4398 21.3098L63.708 17.8028ZM63.6455 15.6067L63.6895 17.1751L56.756 20.1159L62.4173 14.9747C62.7232 15.3237 63.1635 15.5493 63.6455 15.6067ZM68.3218 15.2088L65.6407 14.5342C65.6917 14.4193 65.7288 14.298 65.7519 14.1746L71.7955 13.7362L68.3218 15.2088ZM79.8645 13.151L78.2076 17.6964L69.265 15.4471L73.6077 13.6043L79.8645 13.151ZM80.0522 12.6339L79.9062 13.0318L73.9368 13.466L78.59 11.4912C78.9399 12.0083 79.4566 12.4041 80.0522 12.6339ZM83.6997 12.7573L83.2849 12.1828C83.7368 11.8359 84.0705 11.3805 84.2535 10.8719L91.1221 12.2168L83.6997 12.7573ZM100.85 14.1235L91.2032 19.9436C90.7421 19.6095 90.121 19.4733 89.5139 19.6329C89.2706 19.6946 89.0527 19.801 88.865 19.9351L83.7785 12.868L91.5555 12.3019L100.85 14.1235ZM104.213 11.804C104.238 11.887 104.271 11.9636 104.308 12.0402L101.592 13.6788L93.7569 12.1423L104.143 11.389C104.148 11.5274 104.169 11.6657 104.213 11.804ZM117.083 27.781L114.819 29.8451C111.473 28.5875 106.848 26.8447 102.303 25.1338C98.6187 23.7463 94.9364 22.361 91.9146 21.2246C91.9077 21.0927 91.8868 20.9608 91.8474 20.8288C91.7478 20.5054 91.5531 20.233 91.3029 20.0223L101.024 14.1576L109.163 15.7536L117.083 27.781ZM125.094 20.4756L117.174 27.698L109.332 15.7855L124.591 18.7753C124.577 19.0754 124.612 19.3839 124.707 19.6882C124.795 19.9755 124.927 20.2372 125.094 20.4756ZM128.593 21.6822C128.779 21.6332 128.953 21.5715 129.119 21.4949L134.841 30.924L121.651 31.488C121.291 30.6836 120.325 30.2367 119.391 30.4814C119.282 30.5091 119.178 30.5474 119.081 30.5921L117.51 28.2066L125.491 20.9267C126.271 21.6545 127.449 21.9801 128.593 21.6822ZM135.613 31.007L137.684 30.9177C137.68 31.0879 137.703 31.2624 137.756 31.4348C137.93 31.9944 138.384 32.4115 138.94 32.5924L138.127 35.146L135.613 31.007ZM139.578 44.0282L135.573 43.6133L138.011 36.1419L141.443 41.7981C140.426 42.2024 139.735 43.0579 139.578 44.0282ZM135.65 46.8883C136.106 46.4584 136.31 45.8221 136.118 45.2029C135.993 44.7964 135.719 44.4645 135.367 44.2432L135.39 44.1772L139.55 44.6071C139.561 44.8156 139.598 45.0284 139.663 45.2412C139.858 45.869 140.264 46.3882 140.79 46.7542L138.875 51.4911L135.65 46.8883ZM134.961 47.299C135.186 47.2224 135.386 47.1074 135.555 46.9691L138.82 51.6273L136.72 56.8196L134.961 47.299ZM133.722 64.2378L126.832 56.1025C127.37 55.6748 127.622 54.9874 127.416 54.3192C127.333 54.0511 127.184 53.817 126.994 53.6255L133.203 47.0862C133.654 47.3798 134.241 47.4947 134.815 47.3437C134.825 47.3415 134.832 47.3394 134.841 47.3351L136.632 57.0367L133.722 64.2378ZM138.24 69.5727L134.176 64.7741L136.845 58.1773L138.913 69.3769C138.817 69.3876 138.72 69.4025 138.623 69.428C138.486 69.4642 138.359 69.5131 138.24 69.5727ZM131.835 78.9295C132.09 78.3549 132.146 77.6995 131.947 77.0547C131.87 76.8058 131.759 76.5738 131.622 76.361L137.777 72.2965C138.222 72.7221 138.889 72.9243 139.552 72.786L140.771 82.7067L131.835 78.9295ZM129.008 80.734C129.263 80.7277 129.523 80.6915 129.778 80.6255C130.505 80.434 131.101 80.0254 131.502 79.4977L140.859 83.4174L141.911 91.9911L129.386 97.9112L129.008 80.734ZM126.503 99.2731C126.186 98.8582 125.72 98.5858 125.224 98.5241L128.181 80.6532C128.246 80.6681 128.311 80.6808 128.378 80.6915L128.763 98.2049L126.503 99.2731ZM126.906 100.284C126.892 100.156 126.869 100.029 126.828 99.9009C126.77 99.7072 126.682 99.5306 126.573 99.3689L128.765 98.3347L128.816 100.573L126.906 100.284ZM124.1 101.757C124.545 102.112 125.124 102.267 125.683 102.123C126.459 101.92 126.943 101.201 126.913 100.401L128.818 100.69L129.089 113.058C128.913 113.075 128.739 113.105 128.563 113.15C127.761 113.358 127.122 113.837 126.723 114.446L120.337 111.882L124.1 101.757ZM111.417 91.4847L113.06 90.2355L123.574 99.3455C123.345 99.7562 123.28 100.271 123.437 100.784C123.546 101.137 123.746 101.439 124 101.671L120.221 111.837L114.115 109.387L111.417 91.4847ZM99.2536 103.423C99.4251 102.908 99.4437 102.344 99.2722 101.786C99.1841 101.501 99.052 101.237 98.8852 101.001L111.301 91.5719L113.98 109.332L99.2536 103.423ZM92.5102 86.8393L109.197 88.2139C109.19 88.4204 109.216 88.6332 109.281 88.846C109.341 89.0417 109.431 89.2226 109.543 89.3843L98.3452 100.422C97.6083 99.8179 96.5794 99.5434 95.5575 99.7541L92.5102 86.8393ZM78.7614 86.6265C78.9399 86.3605 79.0395 86.0498 79.0395 85.7284L91.8521 86.7839L94.9573 99.9371C94.7024 100.041 94.4683 100.173 94.2598 100.331L78.7614 86.6265ZM74.4072 92.5785L76.4881 87.3478C76.8543 87.4734 77.2621 87.4989 77.6677 87.3947C78.0987 87.2819 78.4509 87.0393 78.6919 86.7265L94.1625 100.405C93.8473 100.661 93.5947 100.969 93.4116 101.312L74.4072 92.5785ZM75.6609 86.7903C75.8509 87.0137 76.0965 87.1882 76.3723 87.3053L74.2936 92.5274L70.6716 90.8633L75.6609 86.7903ZM54.7956 83.5685C55.0783 82.9897 55.1571 82.3236 54.9717 81.664L65.7334 77.3782L75.8671 84.4559C75.3642 84.8836 75.1348 85.5497 75.3341 86.1987C75.3897 86.3796 75.4778 86.5477 75.5867 86.6967L70.5488 90.8058L54.7956 83.5685ZM54.4804 84.0686L70.0436 91.2208L57.4512 101.495L52.7355 85.1773C52.7517 85.173 52.7679 85.1688 52.7841 85.1645C53.4955 84.9794 54.0818 84.5815 54.4804 84.0686ZM53.7412 80.0233C53.5465 79.8977 53.3403 79.7935 53.1201 79.7105L54.9531 75.3225L53.7412 80.0233ZM56.7305 72.1667C57.0689 72.0795 57.3585 71.9092 57.5856 71.6901L65.1054 76.9398L54.7376 81.0894C54.5221 80.6936 54.2162 80.3574 53.8501 80.0978L55.2915 74.5139L56.2439 72.2306C56.4038 72.2284 56.5683 72.2093 56.7305 72.1667ZM49.3498 54.5576L63.0244 54.3703L56.9576 68.9045C56.573 68.7534 56.1327 68.7172 55.7016 68.83C55.5533 68.8683 55.4166 68.9215 55.2892 68.9896L48.219 55.8322C48.8168 55.6045 49.2316 55.1172 49.3498 54.5576ZM47.4728 52.4998C47.3106 52.5019 47.1437 52.5211 46.9792 52.5636C46.5598 52.6722 46.2122 52.9062 45.9735 53.2084L35.9464 44.7815L38.2104 40.732L47.496 38.455L47.4728 52.4998ZM56.814 36.1717L59.7825 39.4765L48.7056 52.902C48.3974 52.6636 48.0081 52.5232 47.6002 52.5019L47.6211 38.4252L56.814 36.1717ZM62.5957 34.6331L57.3933 35.9099L49.424 27.0362C49.5677 26.8894 49.6951 26.7255 49.8017 26.5531L62.8066 33.5862C62.6212 33.899 62.5424 34.2629 62.5957 34.6331ZM65.3974 35.9184L69.3484 41.9939L68.2384 45.0369C67.5988 44.7837 66.8619 44.7241 66.1389 44.9114C65.9628 44.956 65.796 45.0156 65.6384 45.0858L60.2552 39.0934L63.1171 35.6248C63.5852 36.061 64.2943 36.2589 64.9826 36.078C65.1309 36.0397 65.2699 35.9844 65.3974 35.9184ZM82.9836 40.5702L71.879 36.8739L74.8428 28.745L88.2185 21.7907C88.3877 22.3184 88.8048 22.7142 89.3215 22.9079L82.9836 40.5702ZM91.5601 24.7273L98.4542 41.2406L89.9912 42.9025L83.1018 40.6107L89.4397 22.9483C89.7178 23.0334 90.0214 23.0568 90.3273 23.0121L91.5601 24.7273ZM105.26 38.5635C104.479 37.84 103.307 37.5187 102.164 37.8166C102.046 37.8464 101.93 37.8847 101.817 37.9294L90.9414 22.8185C91.5276 22.5227 91.8984 21.9588 91.917 21.3502C94.9318 22.4844 98.5909 23.8612 102.255 25.2402C106.613 26.883 110.975 28.5237 114.244 29.7536C114.407 29.8153 114.567 29.8749 114.722 29.9324L105.26 38.5635ZM118.2 31.239C118.228 31.2496 118.253 31.2581 118.281 31.2688C118.026 31.6625 117.943 32.1476 118.089 32.6222C118.117 32.7094 118.152 32.7924 118.193 32.8733C117.822 33.1776 117.364 33.5585 116.791 34.0352C115.285 35.2907 113.192 37.0442 110.578 39.253C109.95 39.7829 109.322 40.3149 108.704 40.8384L106.171 40.5745C106.169 40.3213 106.131 40.0638 106.053 39.8084C105.962 39.519 105.828 39.253 105.659 39.0147L115.354 30.1707C116.502 30.6027 117.47 30.9645 118.2 31.239ZM118.348 31.1709C117.619 30.8964 116.629 30.524 115.452 30.0835L117.417 28.2896L118.967 30.6453C118.717 30.7772 118.506 30.956 118.348 31.1709ZM122.374 42.2492L108.868 40.8533C112.562 37.7315 116.258 34.6204 118.251 32.9818C118.631 33.6223 119.419 33.982 120.216 33.8607L122.374 42.2492ZM131.995 43.2451L122.508 42.2641L120.339 33.8351C120.367 33.8288 120.395 33.8245 120.42 33.8181C120.745 33.7351 121.02 33.5776 121.243 33.3755L131.995 43.2451ZM132.911 43.9197L133.775 44.0091C133.583 44.0602 133.409 44.1368 133.251 44.2325L132.911 43.9197ZM125.908 76.9994L117.092 74.8054C118.307 72.0688 119.523 69.3301 120.738 66.5935L126.913 75.6162C126.436 75.978 126.088 76.461 125.908 76.9994ZM126.693 79.8871C127.073 80.234 127.544 80.4893 128.058 80.6234L125.099 98.5113C124.927 98.5028 124.754 98.5177 124.584 98.5624C124.177 98.6688 123.852 98.9156 123.637 99.2412L113.16 90.1611L126.693 79.8871ZM112.446 89.5439C112.747 89.1141 112.849 88.5353 112.673 87.9628C112.611 87.7628 112.518 87.5777 112.405 87.4138L126.033 78.9955C126.107 79.1529 126.195 79.2998 126.295 79.4402L112.699 89.761L112.446 89.5439ZM111.227 90.2313C111.327 90.2249 111.427 90.21 111.526 90.1823C111.874 90.093 112.164 89.8993 112.374 89.6397L112.601 89.8355L111.315 90.8122L111.227 90.2313ZM101.411 71.5028L116.731 75.314C115.037 79.1295 113.343 82.945 111.649 86.7605C111.274 86.5754 110.845 86.5158 110.428 86.6243C110.335 86.6477 110.247 86.6818 110.164 86.7201L101.411 71.5028ZM92.4778 86.7031L98.8968 87.25L92.4824 86.7201L92.4778 86.7031ZM77.3502 72.7519L84.7633 69.8004C85.4168 70.9133 86.8072 71.5241 88.1884 71.2538L89.3702 76.2631L78.3721 84.4006C78.0848 84.1793 77.7302 84.0388 77.3548 84.0005L77.3502 72.7519ZM77.2251 72.8009L77.2274 83.992C77.0327 83.9856 76.8334 84.0048 76.6364 84.0558C76.3815 84.1218 76.1568 84.2346 75.9621 84.3772L65.8655 77.325L77.2251 72.8009ZM58.0329 70.026C57.9773 69.8472 57.8938 69.6834 57.7873 69.5365L74.9703 55.9322L77.2204 58.3262L77.2251 72.0901L65.2375 76.8887L57.6691 71.6028C58.0514 71.1793 58.209 70.5941 58.0329 70.026ZM63.7011 54.3618L73.3713 54.2298L74.8869 55.845L57.7131 69.4429C57.6482 69.3642 57.5741 69.2918 57.4976 69.2258L63.7011 54.3618ZM49.2525 53.5957L63.9629 48.4587C63.9653 48.4651 63.9676 48.4736 63.9699 48.4821C64.1391 49.0333 64.4728 49.5014 64.9084 49.8547L63.0731 54.2554L49.3707 54.4426C49.4008 54.2192 49.3823 53.9873 49.3128 53.7596C49.2942 53.7042 49.2757 53.6489 49.2525 53.5957ZM73.2624 54.1149L63.7497 54.2447L65.4368 50.2037C66.1459 50.574 67.0102 50.6952 67.8561 50.4739C68.3728 50.3399 68.8201 50.0951 69.1816 49.7738L73.2624 54.1149ZM70.1294 47.3969L72.551 46.9202L76.3236 52.7275C75.8717 53.0509 75.5983 53.551 75.5936 54.0851L74.0851 54.1043L69.5941 49.3269C70.0066 48.7737 70.2082 48.0927 70.1294 47.3969ZM69.7748 42.6493L72.2103 46.3967L70.0019 46.8308C69.7864 46.1967 69.3531 45.6774 68.7992 45.3221L69.7748 42.6493ZM71.2463 36.7867L69.4017 41.8513L65.5063 35.8589C65.8145 35.6716 66.0532 35.4077 66.1969 35.1055L71.2463 36.7867ZM81.5515 44.5602L72.3401 46.3712L69.8258 42.5046L71.8396 36.9824L82.9442 40.6809L81.5515 44.5602ZM81.6952 44.5326L83.0624 40.7192L89.7572 42.9472L81.6952 44.5326ZM99.7681 46.2797L99.0103 47.6203L79.2342 53.4531C79.123 53.1935 78.9468 52.9722 78.729 52.7977L81.4658 45.1688L90.8742 43.3196L99.7681 46.2797ZM100.222 45.4731L99.826 46.1775L91.1082 43.2749L98.6836 41.7853L100.222 45.4731ZM99.9002 40.9554L98.5793 41.215L91.8822 25.1721L101.258 38.2039C100.292 38.804 99.7495 39.8659 99.9002 40.9554ZM102.894 45.7604C102.426 45.3327 101.729 45.1433 101.05 45.3199C101.038 45.3242 101.024 45.3284 101.012 45.3327L102.122 43.3664C102.676 43.5196 103.283 43.5345 103.881 43.3792C104.155 43.3068 104.41 43.2047 104.641 43.077L105.163 43.8346C104.273 44.59 103.494 45.2497 102.894 45.7604ZM108.894 49.2886C107.007 48.6907 105.147 48.0821 103.378 47.4671C103.474 47.167 103.483 46.8393 103.381 46.5159C103.302 46.2584 103.161 46.0328 102.98 45.8434C103.689 45.2433 104.444 44.6007 105.23 43.9346L108.894 49.2886ZM105.633 43.4367L105.149 42.7302C105.645 42.3131 105.983 41.7577 106.113 41.1512L108.09 41.3555C107.228 42.0854 106.396 42.7897 105.633 43.4367ZM123.887 54.0596C120.666 52.9445 117.153 51.855 113.735 50.7995C112.444 50.3995 111.139 49.9951 109.842 49.5887L105.7 43.5367C106.532 42.8302 107.39 42.1045 108.256 41.3725L122.529 42.8472L125.166 53.1041C125.138 53.1105 125.11 53.1148 125.083 53.1233C124.533 53.2659 124.112 53.6191 123.887 54.0596ZM116.768 59.7052L124.075 55.8152C124.33 56.1323 124.691 56.36 125.099 56.4621C123.715 59.5796 122.33 62.6971 120.949 65.8125L116.768 59.7052ZM98.4704 69.677C98.9292 70.0111 99.5503 70.1451 100.155 69.9877C100.227 69.9685 100.294 69.9451 100.361 69.9217L100.843 70.7622L97.9722 70.0472L98.4704 69.677ZM90.6749 68.2299C90.6586 68.0342 90.6239 67.8363 90.5613 67.6383C90.3551 66.9638 89.9032 66.4147 89.3192 66.0466L91.0781 62.9291L98.0625 67.3681C97.7729 67.7745 97.6686 68.2874 97.8238 68.7917C97.9235 69.1152 98.1205 69.3897 98.3731 69.6004L97.8215 70.0089L90.6749 68.2299ZM88.7909 71.0772C89.8128 70.6686 90.5034 69.8025 90.6517 68.8236L97.2144 70.4579L89.9194 75.8567L88.7909 71.0772ZM76.9655 52.4296C76.7685 52.4806 76.5878 52.5594 76.4279 52.6594L72.6808 46.8968L81.3244 45.1965L78.6247 52.719C78.1682 52.3998 77.5611 52.2742 76.9655 52.4296ZM100.301 45.337L98.8087 41.7619L100.039 41.5193C100.303 42.2407 100.853 42.8089 101.539 43.1451L100.301 45.337ZM101.423 48.7183L99.9442 66.6084C99.68 66.568 99.4019 66.5786 99.1262 66.6488C98.7137 66.7574 98.3754 66.9829 98.1344 67.2745L91.1383 62.827L99.7727 47.5288C100.016 48.2119 100.679 48.6651 101.423 48.7183ZM116.156 59.8967L101.42 67.7405C101.198 67.1681 100.679 66.7595 100.069 66.6297L101.548 48.7226C101.724 48.7247 101.902 48.7034 102.081 48.6566C102.688 48.4992 103.14 48.0842 103.339 47.5777C105.154 48.2097 107.065 48.8311 109.003 49.4461L116.156 59.8967ZM124.003 55.7194L116.701 59.6073L109.95 49.744C111.2 50.1356 112.453 50.525 113.695 50.908C117.111 51.9657 120.622 53.0509 123.838 54.166C123.695 54.5044 123.664 54.8874 123.78 55.2641C123.831 55.43 123.908 55.5811 124.003 55.7194ZM79.2759 53.5617L98.9292 47.7671L90.6146 62.495L79.0094 55.1151C79.3361 54.7001 79.4636 54.1575 79.2991 53.6234C79.2921 53.6021 79.2828 53.5829 79.2759 53.5617ZM77.3479 57.5751L77.3456 55.8258C77.5611 55.8407 77.7789 55.8237 77.9967 55.7663C78.3768 55.6662 78.6966 55.4683 78.9329 55.2087L90.5567 62.5971L88.7677 65.7678C88.1281 65.5167 87.3958 65.4572 86.6751 65.6465C86.2209 65.7636 85.82 65.9679 85.484 66.2317L77.3479 57.5751ZM85.0484 66.6531C84.4621 67.3447 84.228 68.2725 84.4968 69.1811L77.3502 72.0412L77.3479 58.4603L85.0484 66.6531ZM75.9737 55.1385C76.2749 55.5066 76.7245 55.7514 77.2204 55.8152V57.441L75.4477 55.5535L75.9737 55.1385ZM75.8995 55.0427L75.3642 55.4662L74.1917 54.2192L75.5983 54.2001C75.6052 54.3235 75.6261 54.4469 75.6655 54.5703C75.7188 54.7427 75.7976 54.9023 75.8995 55.0427ZM101.01 70.8027L100.475 69.8727C101.277 69.511 101.708 68.6683 101.46 67.8533L116.223 59.9946L120.654 66.4722C119.426 69.2407 118.198 72.0071 116.97 74.7756L101.01 70.8027ZM125.984 78.8869L112.335 87.3181C112.175 87.1138 111.978 86.9435 111.76 86.818C113.459 82.994 115.155 79.17 116.851 75.3459L125.785 77.5697C125.748 77.9166 125.78 78.2762 125.891 78.6316C125.917 78.7188 125.949 78.8039 125.984 78.8869ZM65.9674 33.3585L74.0225 29.1706L71.288 36.676L66.2432 34.997C66.373 34.6672 66.3961 34.299 66.2849 33.9373C66.2177 33.7202 66.1088 33.5266 65.9674 33.3585ZM65.0938 45.3902C64.2642 45.969 63.7868 46.9032 63.8563 47.8778L48.9188 53.0935C48.8794 53.0531 48.84 53.0169 48.8006 52.9807L59.8636 39.568L65.0938 45.3902ZM63.0314 35.5354L60.1718 39.0019L57.4814 36.0078L62.6166 34.748C62.6258 34.7927 62.6351 34.8374 62.649 34.8821C62.7278 35.1311 62.8599 35.3503 63.0314 35.5354ZM91.8196 86.6456L91.8243 86.6669L79.0349 85.6114C79.0349 85.5922 79.0326 85.5752 79.0303 85.5561L91.8196 86.6456ZM79.014 85.439C79.0024 85.3773 78.9885 85.3135 78.9677 85.2518C78.875 84.9475 78.6966 84.6857 78.4648 84.4814L89.4003 76.3887L91.7918 86.5264L79.014 85.439ZM111.1 90.2355L111.2 90.8995L98.4889 100.55C98.4727 100.533 98.4542 100.516 98.4356 100.501L109.614 89.4844C109.976 89.9504 110.53 90.2355 111.1 90.2355ZM109.214 88.0118L92.4499 86.5839L89.9472 75.9822L97.365 70.4941L101.247 71.4602L110.052 86.7733C109.594 87.0265 109.29 87.4862 109.214 88.0118ZM129.379 74.9842C128.95 74.9246 128.503 74.948 128.06 75.0629C127.84 75.1204 127.632 75.1991 127.437 75.2949L121.03 65.9338C122.427 62.7865 123.824 59.6371 125.222 56.4898C125.507 56.543 125.813 56.5387 126.114 56.46C126.346 56.4004 126.552 56.3004 126.733 56.1748L133.671 64.3655L129.379 74.9842ZM134.092 74.0181L131.247 75.8971C131.221 75.8716 131.196 75.846 131.17 75.8226L134.092 74.0181ZM137.422 71.8177L137.367 71.856L131.078 75.7396C130.765 75.4694 130.394 75.2608 129.993 75.1268L134.125 64.9039L138.129 69.6323C137.441 70.0323 137.089 70.8133 137.323 71.5688C137.348 71.656 137.385 71.739 137.422 71.8177ZM133.103 47.0159L126.906 53.5425C126.487 53.1722 125.891 52.9892 125.289 53.0807L122.661 42.8621L132.709 43.9006L133.147 44.3027C132.556 44.722 132.266 45.4455 132.484 46.1477C132.593 46.501 132.816 46.7989 133.103 47.0159ZM135.253 44.1623L135.246 44.1751C135.237 44.1708 135.228 44.1644 135.219 44.158L135.253 44.1623ZM121.697 31.6029L134.91 31.0368L137.877 35.9248L135.432 43.5984L132.197 43.2643L121.326 33.2904C121.734 32.8626 121.903 32.2625 121.725 31.6773C121.716 31.6518 121.704 31.6284 121.697 31.6029ZM88.427 20.3862C88.1745 20.7607 88.0771 21.2182 88.1884 21.6758L74.9031 28.5811L78.7753 17.9582L88.427 20.3862ZM80.5898 12.9829L80.6547 12.802C81.1274 12.8871 81.628 12.8765 82.1239 12.7467C82.351 12.6871 82.5642 12.6062 82.7658 12.5062L82.9813 12.8084L80.5898 12.9829ZM83.0624 12.9191L88.3344 20.2436L78.8147 17.8496L80.5458 13.1021L83.0624 12.9191ZM63.8146 17.1219L63.7729 15.6174C63.9792 15.6301 64.1947 15.6131 64.4056 15.5557C64.9455 15.4152 65.3626 15.0726 65.5897 14.6406L68.1457 15.2854L63.8146 17.1219ZM69.0889 15.5216L78.1659 17.8049L74.0827 29.0067L65.8863 33.267C65.4854 32.8477 64.876 32.6222 64.2526 32.6881L63.8309 17.7517L69.0889 15.5216ZM47.6396 28.23V27.9597C47.737 27.9448 47.832 27.9236 47.9293 27.898C47.9664 27.8895 48.0035 27.8789 48.0382 27.8682L47.6396 28.23ZM48.3302 27.7661C48.5573 27.6767 48.7682 27.5618 48.9605 27.4299L56.7259 36.0738L47.6211 38.3039L47.6396 28.3939L48.3302 27.7661ZM69.7377 104.323L74.1917 93.1254L93.1938 101.859C93.1266 102.105 93.0918 102.361 93.0965 102.62L70.7319 105.587C70.7226 105.557 70.718 105.527 70.7087 105.498C70.5465 104.972 70.1827 104.559 69.7377 104.323ZM115.725 120.913L115.795 121.37C115.753 121.379 115.709 121.387 115.663 121.398C115.394 121.47 115.155 121.592 114.956 121.747L114.55 121.319L115.725 120.913ZM114.108 120.855L98.6117 104.478C98.7647 104.319 98.8968 104.142 99.008 103.957L114.082 110.005L115.637 120.325L114.108 120.855ZM138.396 29.6068C137.997 29.9005 137.742 30.3325 137.696 30.8027L135.545 30.8942L129.655 21.1906C129.696 21.1629 129.736 21.131 129.775 21.0991L138.396 29.6068ZM130.688 19.901L138.896 29.3429C138.753 29.394 138.618 29.46 138.498 29.5387L129.87 21.0225C130.236 20.7118 130.514 20.3266 130.688 19.901ZM106.544 12.9999C106.776 12.9382 106.982 12.8403 107.163 12.7169L108.715 15.0747L101.763 13.7128L104.363 12.1445C104.771 12.851 105.673 13.2276 106.544 12.9999ZM49.8133 23.6974L55.1038 21.4523L50.0543 26.0382C50.2513 25.504 50.2791 24.9124 50.0983 24.3294C50.0288 24.1038 49.9315 23.8931 49.8133 23.6974ZM27.5275 77.8229L35.4806 68.6789L42.3747 74.6246L28.028 78.7061C28.0188 78.6571 28.0072 78.6103 27.9933 78.5613C27.9029 78.2741 27.7407 78.023 27.5275 77.8229ZM79.6119 126.018L74.391 115.831L93.5066 104.004C93.8612 104.576 94.415 105.012 95.0616 105.253L93.9145 125.782C93.8566 125.794 93.7986 125.807 93.7407 125.822L81.8898 127.314C81.8829 127.286 81.8759 127.258 81.8667 127.231C81.5909 126.333 80.5921 125.803 79.6119 126.018ZM139.775 102.231L129.446 100.667L129.388 98.0389L141.927 92.1146L142.711 98.49L139.775 102.231ZM142.722 100.931C141.999 101.12 141.529 101.757 141.492 102.491L140.47 102.335L142.815 99.3455L143.005 100.886C142.91 100.893 142.817 100.907 142.722 100.931ZM149.496 86.3924L140.905 82.762L139.675 72.7583C139.802 72.7243 139.923 72.6774 140.036 72.6221L150.191 85.505C149.899 85.7582 149.663 86.0604 149.496 86.3924ZM152.1 37.1952C151.815 36.2738 150.77 35.7376 149.767 35.9993C149.586 36.0483 149.415 36.1185 149.262 36.2078L130.813 19.4988C130.918 19.0541 130.908 18.5795 130.765 18.1114C130.29 16.575 128.549 15.6833 126.879 16.1196C125.998 16.3473 125.317 16.8984 124.932 17.59L107.856 11.7721C107.937 11.4805 107.941 11.1677 107.846 10.857C107.561 9.93561 106.518 9.40149 105.515 9.6611C104.859 9.83134 104.384 10.2995 104.213 10.8592L84.4111 9.88029C84.4042 9.64834 84.3648 9.41213 84.2929 9.17805C83.8179 7.64164 82.0776 6.75001 80.4068 7.18412C78.8727 7.58418 77.9295 8.95886 78.1474 10.3676L65.4947 12.9765C65.0614 12.3339 64.2063 12.004 63.3743 12.219C62.3802 12.4786 61.8009 13.4213 62.0674 14.3363L49.0347 22.8611C48.2676 22.2993 47.2272 22.0716 46.2122 22.3376C44.539 22.7717 43.5681 24.3698 44.0431 25.9062C44.1451 26.2361 44.305 26.534 44.5112 26.7979L32.9894 40.2574C32.6256 40.0914 32.2155 40.0425 31.8169 40.1468C30.8807 40.3894 30.3662 41.3831 30.6698 42.3663C30.8042 42.8025 31.0776 43.1621 31.4206 43.4069L27.0941 58.7987C26.8068 58.7987 26.5148 58.8327 26.2228 58.9093C24.5497 59.3434 23.5787 60.9415 24.0538 62.478C24.3666 63.4951 25.2356 64.2293 26.2715 64.4825L25.9193 77.3186C25.8335 77.3292 25.7478 77.3441 25.6597 77.3675C24.6563 77.6293 24.0747 78.5869 24.3597 79.5083C24.6308 80.3914 25.6018 80.917 26.5658 80.7298L35.2465 97.5686C33.8144 98.1325 33.0265 99.5987 33.4622 101.012C33.9372 102.548 35.6776 103.44 37.3507 103.006C37.8304 102.88 38.2521 102.659 38.5997 102.371L42.1545 105.3L44.685 109.398C44.1289 109.819 43.8763 110.581 44.1103 111.341C44.4139 112.322 45.4196 112.922 46.3558 112.677C47.204 112.458 47.7045 111.622 47.5655 110.735L48.4971 110.522L60.9041 120.736C60.1718 121.451 59.8566 122.492 60.1695 123.505C60.6445 125.041 62.3848 125.933 64.0556 125.496C64.9849 125.256 65.6963 124.656 66.0648 123.907L78.2285 127.254C78.1427 127.546 78.1358 127.863 78.2331 128.176C78.5181 129.097 79.5609 129.633 80.5667 129.372C81.3012 129.18 81.8087 128.614 81.9153 127.961L91.4489 128.676C91.4558 128.914 91.4929 129.154 91.5647 129.393C92.0398 130.929 93.7801 131.821 95.4532 131.385C97.1124 130.953 98.0788 129.378 97.6338 127.856L114.409 123.668C114.747 124.511 115.739 124.986 116.694 124.737C117.697 124.475 118.279 123.515 117.996 122.594C117.964 122.49 117.922 122.392 117.871 122.298L126.835 117.574C127.578 118.563 128.95 119.059 130.28 118.712C131.954 118.276 132.925 116.68 132.449 115.144C132.322 114.725 132.1 114.356 131.81 114.048L142.377 104.227C142.801 104.508 143.32 104.621 143.821 104.491C144.757 104.248 145.271 103.252 144.968 102.269C144.866 101.937 144.68 101.65 144.449 101.425L150.793 90.1206C151.503 90.4888 152.365 90.6101 153.208 90.3887C154.881 89.9546 155.852 88.3544 155.379 86.8201C155.113 85.9604 154.453 85.305 153.628 84.9687L154.965 73.6797C155.396 73.2499 155.581 72.6349 155.396 72.0327C155.349 71.888 155.287 71.7539 155.208 71.6305L156.374 61.7906C157.257 61.4629 157.745 60.5713 157.481 59.7116C157.27 59.0263 156.638 58.5582 155.917 58.4667L151.069 39.2424C151.903 38.8913 152.358 38.0294 152.1 37.1952Z" fill="#9BAB51"/>
</g>
<mask id="mask1_140_2" style="mask-type:luminance" maskUnits="userSpaceOnUse" x="27" y="7" width="131" height="122">
<path d="M27.0826 7.07346H157.447V128.829H27.0826V7.07346Z" fill="white"/>
</mask>
<g mask="url(#mask1_140_2)">
<path fill-rule="evenodd" clip-rule="evenodd" d="M101.622 83.6132C100.262 85.9689 99.7867 88.6268 99.6453 91.2612C99.6059 91.9549 99.2861 92.2912 98.9478 92.87C98.8018 93.119 98.6558 93.3786 98.5098 93.6276C98.285 94.0063 98.051 94.183 97.9212 94.6426C97.8308 94.9682 97.7382 95.2023 97.6872 95.5385C97.6594 95.7577 97.6084 95.9535 97.5875 96.179C97.5597 96.4748 97.562 96.7578 97.525 97.0515C97.4995 97.2707 97.4925 97.4686 97.4763 97.6878C97.4578 97.8708 97.4045 98.0815 97.372 98.2708C97.3164 98.5922 97.2168 98.9369 97.1426 99.2582C97.0963 99.4498 97.0383 99.6179 96.9966 99.8179C96.9364 100.073 96.8923 100.301 96.8159 100.556C96.6629 101.073 96.6699 101.825 96.6536 102.371C96.6536 102.433 96.6421 102.491 96.6699 102.544C96.7487 102.537 96.7417 102.41 96.7463 102.357C96.8043 101.671 96.7417 101.165 96.9619 100.475C97.0615 100.158 97.1078 99.8222 97.2121 99.4987C97.2747 99.305 97.3257 99.0859 97.3836 98.8837C97.4763 98.5539 97.5412 98.2198 97.6177 97.8899C97.664 97.6835 97.671 97.392 97.7011 97.1749C97.7266 96.9834 97.7474 96.8408 97.7636 96.6493C97.7915 96.2897 97.8262 96.0599 97.9143 95.7087C97.9629 95.5002 97.9884 95.347 98.0672 95.1363C98.2966 94.5469 98.285 94.5085 98.7393 94.0297C98.8899 93.8723 99.2722 93.4296 99.4854 93.3977C99.6569 93.3722 99.6268 93.6403 99.6314 93.7467C99.694 95.5555 99.9025 97.3622 100.204 99.1518C100.867 101.797 101.3 102.84 101.457 103.521L102.463 104.612C103.606 105.872 102.744 106.278 104.229 106.845C104.732 107.036 105.242 107.213 105.747 107.394C106.509 107.662 106.792 107.657 107.126 108.132C108.252 108.013 109.821 107.783 110.806 107.374C112.486 106.676 114.346 106.321 116.374 107.366C118.404 108.413 118.9 110.273 120.874 110.273C121.792 110.266 122.789 110.962 123.709 110.771C124.937 110.522 126.17 110.277 127.405 110.211C127.813 110.192 128.227 110.196 128.64 110.228C132.707 111.858 137.04 111.092 141.207 110.632C138.041 111.092 134.208 112.124 131.043 111.667C131.543 112.279 131.875 113.39 132.709 113.846C131.212 113.999 130.878 112.471 130.211 111.705C129.877 111.398 129.544 111.245 129.249 111.239C128.811 111.192 128.327 111.215 127.942 111.186C127.483 111.186 127.029 111.211 126.872 111.311C126.712 111.411 126.909 111.76 127.189 112.143C127.467 112.528 127.822 112.95 127.972 113.203C128.042 113.85 128.468 114.75 128.584 115.416C128.665 116.199 128.438 116.574 128.406 116.359C128.376 116.142 128.251 115.567 128.118 115.012C127.984 114.459 127.838 113.931 127.769 113.812C127.623 113.575 127.421 113.226 127.117 112.986C126.814 112.743 126.105 112.05 125.929 111.92C125.752 111.79 125.291 111.571 125.291 111.571C124.965 111.645 122.492 112.192 122.351 112.273C122.168 112.373 122.413 112.603 122.501 112.699C122.705 112.916 122.972 113.154 123.196 113.36C123.389 113.539 123.597 113.709 123.792 113.892C124.098 114.171 124.411 114.437 124.71 114.725C124.948 114.956 125.229 115.205 125.491 115.416C125.766 115.644 126.054 115.74 126.334 115.931C126.522 116.057 126.496 116.167 126.295 116.067C126.079 115.961 125.815 115.831 125.606 115.712C125.361 115.569 124.99 115.244 124.761 115.052C124.443 114.788 124.151 114.544 123.822 114.29C123.576 114.103 123.375 113.939 123.118 113.763C122.566 113.386 122.346 113.156 121.648 112.977C121.361 112.905 121.157 112.852 120.861 112.797C120.735 112.775 120.603 112.748 120.48 112.705C120.397 112.68 120.365 112.69 120.353 112.786C120.328 112.988 120.453 113.199 120.606 113.333C120.958 113.635 121.47 113.735 121.711 114.152C120.376 114.305 119.876 113.082 119.03 112.488C118.784 112.269 118.254 111.799 117.709 111.33C117.167 110.862 116.606 110.396 116.302 110.177C115.693 109.741 114.852 109.219 113.983 109.219C113.111 109.219 111.459 109.871 111.459 109.871L110.713 110.12C111.438 110.292 111.556 110.537 112.215 111.192C113.23 112.203 113.962 111.33 115.13 111.652C115.484 111.76 116.036 112.26 116.381 112.418C116.729 112.575 117.299 113.36 117.632 113.567C119.456 115.348 120.214 116.608 122.879 116.914C123.379 116.991 123.838 117.153 124.269 117.374C125.558 118.04 126.587 119.246 127.713 120.281C126.837 120.127 126.608 119.834 125.799 119.323C125.396 119.07 124.635 118.125 124.202 117.995C123.567 117.757 123.129 117.761 122.471 117.825C122.126 117.861 121.732 117.691 121.433 117.546C121.148 117.408 121.016 117.278 120.77 117.114C120.677 117.057 120.439 116.91 120.36 117.057C120.277 117.206 120.645 117.561 120.749 117.676C120.918 117.868 121.166 118.074 121.356 118.259C121.579 118.474 121.73 118.614 121.982 118.802C122.163 118.934 122.337 119.106 122.517 119.251C122.772 119.457 123.013 119.649 123.25 119.872C123.41 120.017 123.535 120.123 123.685 120.285C124.167 120.798 124.527 121.051 124.781 121.732C124.87 121.966 124.895 122.215 124.978 122.456C125.073 122.743 125.178 123.03 125.34 123.296C125.481 123.526 125.252 122.847 125.382 123.177C125.407 123.245 125.481 123.468 125.345 123.475C125.219 123.483 125.053 123.105 125.006 123.015C124.881 122.76 124.761 122.407 124.689 122.13C124.51 121.44 124.147 121.132 123.602 120.677C123.414 120.519 123.268 120.391 123.062 120.247C122.58 119.906 122.07 119.606 121.586 119.259C119.843 118.006 118.362 116.501 116.703 115.171C116.39 114.918 116.068 114.673 115.73 114.448C115.285 114.146 115.698 114.252 115.181 114.046C114.666 113.639 113.67 113.371 113.179 113.356C112.69 113.341 111.814 113.199 111.364 112.928C111.014 112.714 109.93 112.184 109.679 112.058C109.482 111.958 108.022 111.675 107.501 111.435C107.422 111.641 108.866 112.318 108.987 112.437C109.258 112.701 109.596 112.948 109.888 113.169C110.333 113.501 110.78 113.826 111.234 114.152C111.624 114.437 112.006 114.72 112.391 115.018C112.715 115.386 113.216 115.693 113.549 115.999C114.771 117.531 115.473 119.332 116.548 120.906C116.757 121.194 118.413 122.128 118.879 122.402C119.129 122.549 119.375 122.647 119.625 122.813C119.843 122.953 120.047 123.066 120.26 123.215C120.499 123.383 120.749 123.507 121.002 123.643C121.21 123.758 121.419 123.924 121.604 124.069C121.913 124.303 122.174 124.532 122.439 124.809C122.663 125.041 122.904 125.264 123.143 125.49C123.222 125.567 123.56 125.937 123.546 126.022C123.535 126.148 123.354 126.007 123.312 125.973C123.187 125.858 123.092 125.73 122.958 125.616C122.68 125.371 122.418 125.13 122.142 124.877C121.871 124.624 121.187 124.13 120.849 123.981C120.548 123.851 120.277 123.747 119.989 123.59C119.802 123.488 119.567 123.388 119.368 123.298C119.143 123.2 118.796 123.115 118.546 123.034C117.549 122.421 116.214 122.115 115.38 121.2C115.13 120.917 114.914 120.625 114.717 120.328C113.73 118.821 113.236 117.138 111.686 115.952C111.322 115.669 110.952 115.397 110.583 115.127C109.846 114.586 109.095 114.069 108.335 113.578C107.944 113.329 107.547 113.084 107.14 112.863C106.901 112.748 106.651 112.652 106.421 112.514C105.629 112.039 105.283 111.679 104.382 111.415L104.315 111.396C103.485 111.139 103.27 110.407 102.614 110.02C102.551 109.981 102.567 110.037 102.584 110.081C102.63 110.22 102.697 110.33 102.744 110.483C102.769 110.569 102.931 111.066 102.894 111.115C102.806 111.101 102.479 110.652 102.373 110.549C102.208 110.392 101.984 110.247 101.805 110.094C101.488 109.826 101.175 109.496 100.924 109.17C100.711 108.892 100.466 108.524 100.292 108.221C100.1 107.896 99.9188 107.347 99.8701 106.979C99.84 106.749 99.7913 106.532 99.7612 106.298C99.7403 106.115 99.6662 105.881 99.6152 105.7C99.6662 105.929 99.7311 106.098 99.7519 106.344C99.7728 106.557 99.8191 106.757 99.84 106.968C99.891 107.457 100.086 108.036 100.341 108.47C100.524 108.779 100.679 109.079 100.883 109.381C101.17 109.809 101.446 110.228 101.875 110.556C102.218 110.822 102.426 111.158 102.644 111.513C102.723 111.637 102.792 111.76 102.873 111.882C103.168 112.345 103.494 112.762 104.027 112.924C104.72 113.156 105.063 113.505 105.371 113.892C105.68 114.275 105.958 114.688 106.521 115.056C107.547 115.846 108.715 116.612 109.705 117.45C110.097 117.819 110.421 118.225 110.706 118.642C110.942 118.993 111.146 119.357 111.339 119.73C111.531 120.102 111.707 120.476 111.885 120.851C112.333 121.698 112.891 122.694 113.517 123.432C113.626 123.56 113.892 123.743 114.034 123.871C114.205 124.02 114.363 124.188 114.53 124.345C114.708 124.513 114.842 124.671 115.046 124.82C115.334 125.026 115.614 125.252 115.901 125.467C116.085 125.609 116.249 125.754 116.427 125.899C116.662 126.09 116.882 126.252 117.099 126.463C117.178 126.539 117.299 126.654 117.378 126.716C117.336 126.663 117.148 126.497 117.086 126.433C117.086 126.433 116.719 126.079 116.819 126.167C117.069 126.386 117.299 126.624 117.549 126.85C117.6 126.895 117.924 127.171 117.762 127.22C117.642 127.258 117.232 126.903 117.132 126.818C116.944 126.663 116.787 126.52 116.583 126.371C116.516 126.32 115.999 125.965 116.001 125.937C116.006 125.907 115.213 125.375 115.13 125.324C114.984 125.233 114.805 125.122 114.666 125.026C114.483 124.901 114.27 124.701 114.087 124.552C113.779 124.298 113.695 124.196 113.313 124.015C113.037 123.89 112.949 123.824 112.715 123.637C111.714 122.839 110.896 121.855 110.087 120.898C109.853 120.538 109.628 120.166 109.399 119.806C108.47 118.361 107.436 117.072 105.879 117.072C104.438 116.972 104.695 118.638 105.174 120.304C105.295 120.721 105.429 121.136 105.561 121.526C105.701 121.913 105.863 122.264 106.009 122.556C105.582 122.115 105.045 121.664 104.876 121.209C104.737 120.851 104.625 120.487 104.528 120.127C104.048 118.312 103.958 116.463 102.718 114.922C102.347 114.418 101.914 113.95 101.388 113.539C101.205 113.39 101.149 113.322 101.121 113.101C101.091 112.843 100.924 112.928 100.871 113.154C100.85 113.246 100.836 113.367 100.836 113.463C100.836 113.463 100.804 112.852 100.767 113.069C100.725 113.294 100.779 113.705 100.836 113.931C100.915 114.227 101.013 114.533 101.101 114.827C101.184 115.122 101.3 115.463 101.425 115.742C101.508 115.933 101.58 116.125 101.659 116.314C101.717 116.448 101.784 116.578 101.838 116.718C101.9 116.87 101.946 116.976 102 117.133C102.083 117.402 102.16 117.527 102.28 117.776C102.296 117.814 102.463 118.125 102.331 118.106C102.264 118.097 102.104 117.772 102.067 117.708C101.956 117.504 101.893 117.359 101.817 117.138C101.717 116.846 101.539 116.527 101.409 116.24C101.279 115.952 101.138 115.701 101.024 115.41C100.936 115.184 100.846 114.976 100.762 114.744C100.633 114.38 100.449 114.046 100.341 113.667C100.266 113.418 100.199 113.16 100.125 112.909C100.011 112.533 99.8817 112.441 99.6152 112.165C99.4854 112.03 99.6152 112.111 99.5434 112.009C99.2074 111.541 98.6095 111.052 98.1252 110.703C97.8888 110.53 97.759 110.415 97.5551 110.22C97.233 109.913 96.9201 109.607 96.6583 109.253C96.459 108.985 96.313 108.738 96.1461 108.453C96.0117 108.232 96.3246 108.855 96.3246 108.855C96.554 109.292 96.7741 109.653 97.0708 110.056C97.2538 110.3 97.4253 110.545 97.613 110.79C97.7057 110.913 97.8332 111.077 97.8726 111.224C98.1437 112.273 98.577 113.341 99.0567 114.324C99.2236 114.667 99.3951 114.999 99.5735 115.333C99.9489 116.048 100.22 116.808 100.438 117.58C100.549 117.972 100.646 118.361 100.741 118.757C101.374 120.906 100.042 123.962 104.375 125.035C104.966 125.179 105.209 125.379 105.042 125.648C104.625 125.686 104.178 125.692 103.724 125.662C103.272 125.628 102.818 125.552 102.389 125.42C101.963 125.307 101.546 125.13 101.191 124.892C100.836 124.652 100.542 124.349 100.378 123.966C100.262 123.713 100.241 123.502 99.8863 123.681C99.6152 123.82 98.7485 124.609 98.5631 124.862C98.3175 125.207 98.0672 125.784 97.9977 126.186C97.9514 126.477 97.9421 126.769 97.8934 127.052C97.8841 127.109 97.8471 127.324 97.7474 127.295C97.6756 127.271 97.7173 127.009 97.7219 126.946C97.7636 126.377 97.7474 126.052 97.9467 125.496C98.1252 125.007 98.2341 124.743 98.5817 124.33C98.8343 124.026 99.015 123.809 99.2189 123.471C99.4483 123.085 99.6361 122.77 99.5828 122.315C99.4901 121.545 99.3696 120.794 99.1888 120.036C98.7717 118.265 98.3383 116.563 97.1866 115.052C96.934 114.678 96.6652 114.329 96.3756 114.022C96.3756 114.559 96.3756 115.133 96.2945 115.708C96.2087 116.316 96.2087 116.929 95.7082 117.389C95.6989 116.708 95.3119 116.148 94.9689 115.567C94.8137 115.301 94.6862 115.244 94.5889 114.908C94.48 114.533 94.5055 114.265 94.6028 113.892C94.8021 113.146 94.7511 112.594 94.4105 111.89C94.3131 111.69 94.1671 111.484 94.0559 111.281C93.9354 111.062 93.8682 110.932 93.7686 110.698C93.5623 110.209 93.4673 109.702 93.2912 109.204C93.2124 108.979 93.1591 108.772 93.0664 108.543C92.976 108.317 92.8996 108.075 92.8092 107.84C92.691 107.547 92.6331 107.202 92.5381 106.896C92.6539 107.245 92.7072 107.566 92.8509 107.917C92.9459 108.16 93.0293 108.404 93.1243 108.645C93.2078 108.855 93.2703 109.085 93.3514 109.3C93.4719 109.63 93.5507 109.981 93.6712 110.32C93.7431 110.511 93.8126 110.709 93.9099 110.894C93.9679 111.009 93.8335 110.732 93.8335 110.728C93.655 110.311 93.5507 109.937 93.4256 109.507C93.363 109.292 93.2796 109.083 93.2078 108.868C93.1429 108.662 93.0502 108.443 92.976 108.236C92.8833 107.987 92.7906 107.768 92.7211 107.515C92.6539 107.274 92.5914 107.049 92.5195 106.806C92.3619 106.298 92.3504 105.532 92.3364 104.991C92.3249 104.512 92.311 104.031 92.311 103.553C92.311 103.165 92.4037 102.748 92.4291 102.357C92.4546 102.001 92.5195 101.648 92.5288 101.293C92.5288 101.242 92.5334 101.218 92.5195 101.173C92.457 101.184 92.4755 101.207 92.4662 101.276C92.4338 101.542 92.4199 101.793 92.3782 102.059C92.3457 102.308 92.3411 102.548 92.2994 102.806C92.2484 103.127 92.2206 103.414 92.2252 103.74C92.2252 104.536 92.2113 105.406 92.2785 106.193C92.3086 106.508 92.3527 106.696 92.4407 106.998C92.5404 107.336 92.5914 107.634 92.7211 107.972C92.8115 108.213 92.8949 108.462 92.983 108.707C93.0548 108.911 93.1081 109.119 93.18 109.328C93.2958 109.66 93.363 110.028 93.4766 110.373C93.6179 110.809 93.7338 111.086 93.9586 111.494C94.1138 111.771 94.2135 111.92 94.3062 112.226C94.4985 112.858 94.4429 113.275 94.2019 113.882C94.0629 114.214 94.042 114.42 93.9841 114.765C93.9146 115.214 93.7917 115.237 93.56 115.608C93.2588 116.086 93.0618 116.582 92.9297 117.118C92.8509 117.44 92.7906 117.768 92.7536 118.106C92.7466 118.653 92.7211 118.715 93.0502 119.183C93.3955 119.676 93.9261 120.117 94.3549 120.557C94.5935 120.806 94.8855 121.281 95.0107 121.592C95.0825 121.77 95.1566 121.938 95.2238 122.124C95.3559 122.483 95.5367 122.839 95.6827 123.2C95.7452 123.356 95.8611 123.566 95.9492 123.717C96.0419 123.881 96.1207 123.992 96.2041 124.173C96.2365 124.245 96.3779 124.528 96.3663 124.581C96.3408 124.694 96.2296 124.543 96.2041 124.505C96.0789 124.298 95.9955 124.096 95.8565 123.886C95.7661 123.751 95.6665 123.571 95.583 123.43C95.5019 123.296 95.437 123.124 95.3652 122.981C95.2099 122.675 95.0732 122.373 94.9365 122.058C94.6468 121.411 94.3433 120.96 93.7014 120.562C93.5716 120.481 92.8416 119.993 92.7744 120.315C92.7536 120.415 92.7675 120.883 92.7628 121.021C92.7489 122.134 92.6864 123.268 92.4129 124.356C92.311 124.747 92.1742 125.854 92.0375 126.228C91.6158 127.022 91.3701 127.569 90.8696 127.646C91.3701 126.726 91.2033 125.658 91.5022 124.715C91.5694 124.249 91.6065 123.781 91.6204 123.315C91.6621 121.9 91.4999 120.606 91.3076 119.212C91.2774 118.998 91.2936 118.857 91.2403 118.629C91.1986 118.451 91.1685 118.323 91.1453 118.14C91.0526 117.536 90.9576 116.929 90.8742 116.325C90.8534 115.893 90.8487 115.459 90.8742 115.022C90.8974 114.59 90.9484 114.156 91.0318 113.724C90.6355 114.031 90.2648 114.352 89.9102 114.688C89.5556 115.027 89.222 115.376 88.8952 115.74C88.5801 116.157 88.2464 116.565 87.908 116.967C87.6114 117.321 87.5164 117.374 87.528 117.842C87.5373 118.193 87.6531 118.542 87.7458 118.883C87.8988 119.447 88.0818 119.879 88.3947 120.389C88.5407 120.63 88.6449 120.902 88.6959 121.17C88.7956 121.721 88.7956 122.473 88.8002 123.043C88.8002 123.222 88.7701 123.468 88.7538 123.656C88.7284 123.892 88.6913 124.111 88.6751 124.356C88.6496 124.739 88.6449 125.03 88.7423 125.409C88.8164 125.711 88.9925 125.975 89.0296 126.294C89.0412 126.397 88.9763 126.42 88.9346 126.299C88.8674 126.088 88.8303 125.969 88.7376 125.758C88.5754 125.399 88.5175 125.001 88.5198 124.613C88.5291 124.135 88.6032 123.681 88.6241 123.211C88.638 122.951 88.6079 122.564 88.5916 122.296C88.5615 121.841 88.5244 121.223 88.3089 120.817C88.2209 120.653 88.1745 120.583 88.061 120.43C87.7458 119.989 87.528 119.587 87.2731 119.121C87.1896 118.972 86.8027 118.331 86.564 118.47C86.4226 118.553 85.7691 119.319 85.6301 119.491C85.359 119.834 85.3543 119.879 85.352 120.293C85.3474 120.542 85.447 121.17 85.5049 121.419C85.5675 121.683 85.6509 121.919 85.7019 122.185C85.739 122.377 85.79 122.568 85.8271 122.762C85.8734 122.973 85.9568 123.143 85.9939 123.373C86.0356 123.632 86.0843 123.862 86.1051 124.126C86.126 124.341 86.1677 124.541 86.1862 124.758C86.228 125.307 86.228 125.922 86.2187 126.473C86.2187 126.516 86.2303 126.726 86.1399 126.684C86.0518 126.643 86.0565 126.141 86.0565 126.033C86.0403 125.458 86.0263 124.905 85.9105 124.337C85.8641 124.122 85.8479 123.928 85.7923 123.709C85.7274 123.451 85.7019 123.288 85.5884 123.043C85.5142 122.875 85.4632 122.702 85.4007 122.53C85.3172 122.302 85.2686 122.143 85.155 121.919C85.0832 121.779 84.8097 121.151 84.6244 121.155C84.4923 121.157 84.3208 121.587 84.2698 121.698C83.2293 124 83.1413 126.486 83.862 128.88C83.1111 128.803 82.9791 128.09 82.7774 127.616C82.5828 127.141 82.5689 126.339 82.4437 125.858C81.9641 123.958 82.0266 121.994 82.9791 120.236C83.1529 119.768 83.366 119.312 83.621 118.868C83.8712 118.423 84.1632 117.987 84.4923 117.57C84.7541 117.129 85.0183 116.693 85.2686 116.252C85.5189 115.812 85.7645 115.371 85.9846 114.931C86.1469 114.567 86.2975 114.199 86.4319 113.826C86.6034 113.28 86.7355 112.714 86.9811 112.154C87.2036 111.709 87.3449 111.656 87.3565 111.111C87.3658 110.794 87.3287 110.498 87.3542 110.173C87.3913 109.673 87.4167 109.262 87.5743 108.777C87.7157 108.336 87.8084 107.921 87.9868 107.489C88.1652 107.059 88.1282 106.757 88.2324 106.332C88.3112 106.021 88.3159 105.823 88.3414 105.517C88.3669 105.206 88.5128 104.64 88.6496 104.353C88.7956 104.065 88.8952 103.931 89.0968 103.674C89.2961 103.418 89.4838 103.027 89.551 102.716C89.5811 102.576 89.6089 102.418 89.6344 102.276C89.7642 101.61 89.7225 100.924 89.748 100.25C89.7642 99.7413 90.0098 99.171 90.2022 98.6922C90.3551 98.3006 90.3389 97.9176 90.4015 97.5154C90.5197 96.7344 90.4849 95.8683 90.4988 95.0767C90.4988 94.9427 90.4571 94.9639 90.4478 95.0725C90.4223 95.4598 90.4316 95.8917 90.4223 96.2833C90.4154 96.7429 90.3945 97.1217 90.3227 97.5771C90.2601 98.0091 90.2902 98.3091 90.1025 98.7369C89.938 99.1135 89.7225 99.6838 89.6762 100.078C89.6437 100.354 89.6507 100.705 89.6437 100.997C89.6252 101.491 89.6043 101.92 89.4977 102.41C89.4143 102.786 89.4259 102.865 89.2335 103.227C89.1223 103.438 89.076 103.516 88.9207 103.701C88.6449 104.027 88.441 104.41 88.3298 104.812C88.2417 105.134 88.1907 105.287 88.1629 105.627C88.1328 105.944 88.0911 106.11 88.0123 106.413C87.9289 106.728 87.9405 106.987 87.8084 107.308C87.7504 107.451 87.6832 107.585 87.6253 107.726C87.4816 108.075 87.3704 108.415 87.229 108.764C87.0691 109.156 87.0112 109.443 86.9162 109.841C86.8745 110.032 86.8142 110.209 86.7725 110.4C86.6891 110.79 86.6474 111.201 86.4018 111.545C86.3114 111.675 86.272 111.747 86.2025 111.886C86.119 112.043 86.0194 112.184 85.9151 112.326C85.5258 112.858 85.1643 113.333 84.775 113.773C84.483 114.022 84.1957 114.271 83.9153 114.533C83.6372 114.788 83.3707 115.056 83.1065 115.329C82.7079 115.654 82.3696 116.01 82.0614 116.391C81.7509 116.77 81.4774 117.167 81.2086 117.574C80.6756 118.461 80.1751 119.534 79.3455 120.3C79.5123 119.534 79.517 118.81 79.8877 118.193C80.1843 117.627 80.6385 116.201 80.5551 115.516C80.1009 115.359 79.7834 116.276 79.3617 116.325C78.7986 116.459 78.2146 117.302 77.765 117.546C77.3108 117.791 75.5497 118.821 75.1789 119.151C72.9056 121.377 73.1814 123.053 70.6786 125.194C71.346 122.594 72.8477 119.381 75.2461 117.642C75.7049 117.344 76.1661 117.053 76.6133 116.77C77.0606 116.486 77.4939 116.201 77.8948 115.927C78.2934 115.62 78.6456 115.301 78.9283 114.961C79.2991 114.62 79.6166 114.271 79.8715 113.912C80.1797 113.529 80.5204 113.18 81.2086 112.948C82.1819 112.641 82.4901 111.503 83.1111 110.809C83.2247 110.683 83.3151 110.611 83.4379 110.496C83.7693 110.173 83.7252 109.764 83.9083 109.358C84.0404 109.064 84.4343 108.668 84.6591 108.394C84.9372 108.051 85.0716 107.983 85.2176 107.553C85.2802 107.37 85.3636 107.187 85.4262 107.002C85.5096 106.753 85.3474 106.738 85.2176 106.94C85.0299 107.228 84.9673 107.589 84.7286 107.838C84.6012 107.972 84.4506 108.106 84.3162 108.243C83.9917 108.577 83.6024 108.834 83.3081 109.185C83.0741 109.462 82.9373 109.711 82.6523 109.962C82.3441 110.234 82.1263 110.469 81.8551 110.766C81.584 111.062 81.343 111.288 80.9305 111.415L80.8633 111.435C79.9619 111.698 79.612 112.058 78.8241 112.533C78.5947 112.671 78.3444 112.767 78.0987 112.89C77.6932 113.107 77.2969 113.348 76.91 113.597C76.5461 113.844 76.1869 114.088 75.8324 114.333C75.3921 114.612 74.9564 114.899 74.5324 115.199C72.5302 116.604 70.6416 118.131 68.7506 119.664C68.498 119.872 68.2478 120.136 67.9998 120.362C67.7078 120.634 67.4135 120.902 67.1169 121.17C66.957 121.311 66.6418 121.67 66.5283 121.847C66.3916 122.062 66.3197 122.253 66.2155 122.479C66.037 122.866 65.9119 123.23 65.7867 123.632C65.7682 123.69 65.6408 124.139 65.5063 124C65.4438 123.934 65.599 123.441 65.6245 123.349C65.7242 122.985 65.84 122.651 65.986 122.3C66.1065 122.009 66.1482 121.847 66.3406 121.568C66.4541 121.406 66.621 121.219 66.7484 121.066C66.9083 120.883 67.1447 120.677 67.3255 120.496C67.6499 120.17 67.9141 119.906 68.1875 119.542C69.0936 118.366 70.1943 117.091 71.346 116.118C71.7585 115.769 72.1872 115.452 72.6461 115.156C73.0307 114.908 73.427 114.682 73.8441 114.478C74.1778 114.171 74.3447 113.712 74.4907 113.448C74.5532 113.265 74.5625 113.05 74.4327 112.901C74.1662 112.584 73.7769 113.054 73.5313 113.199C73.0609 113.486 72.5812 113.616 72.0968 113.769C69.6984 115.152 67.3092 116.784 65.6361 118.915C65.4994 119.089 65.3604 119.332 65.2399 119.519C65.1564 119.644 65.0892 119.772 65.0058 119.902C64.7972 120.217 64.5817 120.511 64.3963 120.836C64.2712 121.047 64.1716 121.219 64.0603 121.44C63.9468 121.668 63.8054 121.9 63.6849 122.13C63.5922 122.3 63.5042 122.43 63.43 122.613C63.2748 122.977 63.101 123.413 63.0291 123.794C62.999 123.943 62.9712 124.083 62.9411 124.23C62.9202 124.322 62.9828 124.111 62.9828 124.111C63.0198 123.962 63.0453 123.805 63.087 123.656C63.0546 123.794 62.9781 124.33 62.846 124.388C62.6792 124.46 62.7696 124.034 62.7788 123.973C62.8206 123.662 62.8507 123.49 62.9503 123.183C63.0755 122.794 63.1705 122.464 63.3582 122.092C63.4509 121.913 63.5297 121.698 63.6224 121.511C63.7429 121.257 63.8263 121.013 63.956 120.76C64.0464 120.576 64.109 120.423 64.2225 120.236C64.394 119.949 64.5354 119.715 64.6675 119.408C64.7718 119.166 64.8598 118.978 64.9479 118.734C65.0892 118.327 65.1819 117.959 65.1819 117.531C63.8471 117.633 62.2574 117.825 61.0269 118.317C60.4522 118.546 59.9563 118.925 59.479 119.3C59.2426 119.489 59.0387 119.661 58.7884 119.84C58.5961 119.974 58.4153 120.102 58.2276 120.242C57.6645 120.677 57.2474 120.985 56.8696 121.583C56.7028 121.847 56.6657 122.192 56.5267 122.392C56.4432 122.511 56.3112 122.521 56.3691 122.326C56.4317 122.13 56.4803 121.913 56.5475 121.726C56.6657 121.383 57.0156 120.917 57.2775 120.649C57.537 120.385 57.8452 120.102 58.1233 119.855C58.2531 119.74 58.3875 119.638 58.5173 119.523C58.7884 119.281 59.0503 118.998 59.3121 118.742C59.6922 118.38 60.0421 118.063 60.4685 117.748C61.1104 117.274 61.8357 116.793 62.663 116.64C62.7255 116.627 62.7835 116.621 62.846 116.612C66.0115 116.459 67.68 114.318 70.1943 113.065C70.5373 112.911 70.8872 112.782 71.2417 112.675C72.4166 112.354 72.938 112.407 73.9577 111.392C74.6621 110.69 75.5589 110.841 76.3214 110.611L74.0643 109.879C74.0643 109.879 72.4143 109.228 71.5407 109.228C70.6694 109.228 69.8328 109.749 69.2234 110.185C68.6139 110.617 66.9918 112.058 66.4958 112.49C66.0023 112.926 65.7103 113.275 65.1819 113.712C64.6559 114.152 63.6224 114.233 63.8518 114.188C63.9676 114.165 64.4311 113.748 64.7926 113.348C65.1564 112.954 65.4276 112.584 65.1564 112.66C64.6234 112.811 63.9097 112.484 63.4347 112.335C63.196 112.258 62.3918 112.067 61.6526 111.896C60.0305 111.009 58.9877 112.35 57.9657 113.322C57.6228 113.648 57.3934 113.927 57.1153 114.299C56.9693 114.497 56.8349 114.659 56.7028 114.865C56.4734 115.222 56.2092 115.535 55.9218 115.846C55.8013 115.972 55.7226 116.065 55.5835 116.186C55.2707 116.469 54.9926 116.752 54.6635 117.025C54.4619 117.191 53.9452 117.653 53.82 117.853C53.7667 117.934 53.4863 118.512 53.3774 118.393C53.3311 118.342 53.4562 118.168 53.4863 118.112C53.6903 117.733 53.6694 117.723 53.9961 117.397C54.1954 117.193 54.3739 117.021 54.5917 116.833C54.893 116.574 55.1803 116.257 55.463 115.976C55.7179 115.727 56.0563 115.271 56.2301 114.973C56.4525 114.597 56.6402 114.203 56.8488 113.816C57.1199 113.309 57.2265 113.039 57.6575 112.618C57.8615 112.418 58.1442 112.207 58.3203 112.011C58.413 111.913 58.4871 111.805 58.3504 111.709C56.3482 110.483 53.8919 111.288 52.8908 113.582C52.8722 113.767 52.5432 114.118 52.4111 114.275C52.2187 114.497 52.0774 114.644 51.8596 114.839C51.6093 115.065 51.4054 115.305 51.1435 115.531C50.8515 115.789 50.5804 116.048 50.2745 116.295C49.8736 116.616 49.6025 116.884 49.329 117.306C49.2989 117.35 48.9536 117.938 48.8609 117.776C48.8239 117.708 49.037 117.408 49.0788 117.336C49.3035 116.963 49.475 116.718 49.7879 116.401C50.0173 116.167 50.3 115.95 50.534 115.708C50.7681 115.463 50.9836 115.252 51.1968 114.988C51.3428 114.803 51.4842 114.624 51.6394 114.439C51.8688 114.165 52.0473 113.85 52.1724 113.524C52.3138 113.135 52.4644 113.001 52.7054 112.662C52.8908 112.407 53.0947 112.105 53.0993 111.79C50.7681 112.403 47.1809 113.092 45.0165 112.326C45.517 112.326 46.0176 112.633 46.685 112.479C51.6858 111.713 56.5151 109.419 61.5228 110.722C61.977 110.813 62.4127 110.905 62.8206 110.986C63.6339 111.149 64.3268 111.277 64.8181 111.277C66.7901 111.277 67.6591 108.928 69.6891 107.883C71.7214 106.842 73.5012 106.83 75.1835 107.528C76.0966 107.902 77.1394 107.802 78.2355 107.93C78.5645 107.485 78.8496 107.481 79.6004 107.221C80.1032 107.045 80.6131 106.864 81.1182 106.672C82.6036 106.106 82.7311 105.961 83.8782 104.702C84.2883 102.959 84.6336 103.755 84.6846 101.71L85.0137 99.637C85.4632 96.9515 85.7483 94.2362 85.6811 91.5208C85.6764 91.3102 85.6556 91.008 85.98 91.2229C86.4782 91.5485 86.7447 91.8634 87.1155 92.2912C87.3194 92.5253 87.4863 92.6593 87.6485 92.9423C87.8292 93.2488 87.9127 93.4552 87.9868 93.7999C88.0447 94.0766 88.1328 94.317 88.1838 94.5979C88.2209 94.8001 88.2834 95.0001 88.3367 95.198C88.3784 95.3448 88.441 95.4853 88.4874 95.6385C88.5244 95.7619 88.7075 96.3046 88.7793 96.3556C88.872 96.4174 88.8465 96.2599 88.8326 96.2258C88.7793 96.0109 88.6843 95.7917 88.6241 95.5704C88.5801 95.4044 88.5198 95.264 88.4781 95.0959C88.4341 94.8958 88.3877 94.7575 88.353 94.5469C88.3112 94.2638 88.2255 93.9957 88.1745 93.7042C88.0865 93.1764 87.8362 92.6976 87.4816 92.2763C87.2986 92.0571 87.1317 91.789 86.9486 91.557C86.7401 91.291 86.5269 91.0357 86.3554 90.7484C86.0936 90.3036 85.8271 89.9248 85.6394 89.4418C85.5467 89.2077 85.5003 89.0864 85.4632 88.8332C85.2431 87.2287 84.8329 85.6114 84.0867 84.1409C83.8782 83.7281 84.5757 83.8856 84.7704 83.9579C85.0461 84.058 85.3335 84.2325 85.5976 84.375C85.9591 84.5666 86.2187 84.7155 86.5524 84.9496C86.6242 84.9985 86.944 85.2411 87.0159 85.1177C87.0691 85.0262 86.7563 84.8028 86.6822 84.7389C86.2395 84.3835 85.7506 84.1069 85.2964 83.7579C84.9789 83.5217 84.5757 83.3132 84.2165 83.1301C83.7669 82.8961 83.7252 82.9386 83.3614 82.5364C83.1366 82.2875 82.9443 81.8193 82.7937 81.5065C81.4149 78.6912 79.8089 76.5121 76.7014 75.0991C74.2357 73.9798 71.3785 73.6308 68.651 73.6052C66.6163 73.6052 65.0892 73.6052 63.6038 74.0223C56.2092 76.527 52.0519 81.1235 42.2426 79.4487C41.7328 79.4487 42.2055 79.0316 42.713 79.0316C53.0738 81.1192 58.997 73.6052 67.5247 72.3519C64.8691 71.1006 61.2679 70.6835 58.6494 69.8472C54.1491 70.6835 50.1216 71.1006 45.3919 69.4301C45.3525 69.013 45.3525 69.013 45.3525 69.013C50.0822 70.6835 54.112 70.2643 57.5579 69.013C53.9336 66.9787 51.0462 64.042 49.774 60.6181C49.3777 59.5498 49.9408 59.9776 50.3301 60.6521C50.8631 61.5863 51.1806 62.2609 51.8526 63.1759C57.2566 70.5494 67.9511 71.2198 76.9887 71.9199L77.1463 71.9348C75.0375 69.2726 72.8338 66.7382 71.017 63.9378C70.7157 63.4717 70.8941 63.6058 70.2615 63.5058C67.4344 63.0334 66.3081 62.4716 63.8888 61.2118C62.9132 60.7011 61.794 60.4861 60.6886 60.3712C60.1232 60.3116 59.4929 60.3989 58.8718 60.3691C58.2206 60.3372 57.2682 60.2606 56.6472 60.0627C55.5302 59.6562 54.5546 58.8667 53.8919 58.0326C53.5651 57.6155 54.8257 58.7093 54.8327 58.7135C56.2277 59.6903 57.0481 59.7094 58.742 59.8669C59.4372 59.9329 60.918 60.001 60.8184 59.1498C60.7604 58.6561 59.8544 58.0964 59.4141 57.6453C58.0538 56.2429 56.8557 54.3745 56.0771 52.7232C56.7515 52.7168 56.5197 52.6232 56.8743 53.2063C58.0167 55.0832 59.3839 57.0367 61.1984 58.5561C62.0396 59.2625 62.3664 59.7052 63.4509 60.2882C65.4785 61.3756 67.7704 62.2098 70.148 62.3098C69.7911 61.3714 69.3323 60.4266 68.9592 59.469C68.3103 57.7878 67.8422 56.2387 67.3417 54.5384C67.0497 53.5404 66.4402 53.4318 65.5573 52.77C64.7694 52.1678 64.0928 51.4634 63.3512 50.9038C62.7279 50.4377 62.1485 50.2505 61.4186 49.9441C60.6562 49.6206 62.1369 49.9249 62.269 49.9632C64.2851 50.591 65.9281 52.4168 66.475 52.5828C67.0613 52.7573 66.6743 51.3677 66.6279 51.0847C66.2989 49.1844 65.803 47.3266 65.8099 45.4284C65.8099 45.105 65.7659 44.8028 66.2201 44.9603C66.4124 45.588 66.6743 46.4307 66.7693 47.1159C66.9871 48.6417 67.3834 50.0419 67.6545 51.5443C67.7843 52.2678 67.9349 53.0637 68.5467 53.6574C69.1654 54.2022 69.7146 53.0488 69.907 52.7317C70.433 50.7974 70.7319 52.1912 71.441 50.3271C71.3576 49.6057 71.8837 48.6247 71.7075 49.9355C71.7052 51.6741 70.8918 50.808 70.5581 53.4893C69.9533 54.7767 68.8271 54.6533 69.5524 56.6004C69.6567 56.8792 70.1109 58.4348 70.82 59.652C71.3924 60.6372 72.2127 61.3182 72.3124 61.5246C73.3737 63.7122 73.478 60.6862 74.2311 59.7137C74.9449 58.8221 75.4361 58.139 76.5137 57.4921C77.1718 57.1197 77.5403 57.4069 77.2483 57.4814C76.9725 57.5538 76.6875 58.0177 76.5137 58.2241C75.6794 59.2072 75.3573 59.7328 74.9703 60.9075C74.4744 62.6503 74.2195 63.8356 75.0908 65.638C75.4083 66.2892 76.3422 67.0702 76.8845 67.7149C77.6561 68.63 78.4695 69.4876 79.2458 70.4154C79.5285 70.7516 80.2469 71.7709 80.7892 71.6751C81.0765 71.6241 81.3013 71.3155 81.4427 71.1304C82.1309 70.1685 82.0405 68.7832 82.0776 67.649C82.1147 66.5084 82.1402 65.6699 82.3557 64.5357C82.5573 63.493 82.5364 62.4758 82.745 61.4033C82.8817 60.6904 83.1366 59.5137 82.745 58.8221C82.4484 58.3773 81.7509 57.8708 81.3129 57.4814C80.1843 56.4281 79.2319 55.4194 78.1775 54.3277C76.9308 53.0382 76.0456 52.9573 74.7873 51.9656C73.5614 50.9995 72.9798 49.4908 72.9519 48.1778C72.9311 47.1777 73.3389 48.1055 73.4061 48.4757C73.6402 49.6908 73.4525 50.2271 74.6065 51.2804C75.7212 52.2912 77.0814 52.5977 78.298 53.7127C78.8194 54.2022 80.7544 56.3323 82.1773 56.9324C82.4739 57.0601 82.8192 57.5921 83.0578 57.558C83.3614 57.5112 83.5283 56.826 83.658 56.4004C84.0195 55.2172 84.1586 53.2552 83.9037 52.0188C83.6696 50.874 83.7415 51.2038 83.9825 50.2909C83.9361 50.3186 84.0381 50.0419 83.9964 50.0739C82.3812 47.9671 80.8958 45.7881 79.7672 43.4047C74.8498 42.7855 69.5686 41.6044 67.4969 36.9399C67.826 36.8186 68.0716 37.059 68.5629 37.6059C69.9116 40.3064 73.1049 41.4704 76.4048 42.1258C77.4476 42.3322 78.4996 42.4897 79.5077 42.628C77.9574 38.8976 77.9528 37.9315 78.3282 33.8607C78.4116 33.4585 78.6201 33.3138 78.9701 33.3393C78.641 36.9484 79.0581 38.9444 80.1843 41.7428C81.2086 44.2942 82.6894 46.6031 84.3463 48.8247C84.5247 47.5692 84.7124 45.8562 85.1875 45.2242C85.3057 45.6881 85.06 49.81 84.9511 50.5144C84.7889 51.5911 85.0832 52.1061 85.1017 53.1212C85.1295 55.0491 84.3416 56.9664 84.1493 58.8944C84.0381 60.1159 83.9129 61.1799 83.7113 62.395C83.5537 63.3781 84.1632 63.4824 85.0878 63.0334C86.9069 62.1502 86.944 59.703 88.9253 58.5263C89.1177 58.4199 89.5881 58.2156 90.0817 58.039L90.1234 58.4965C89.9589 58.5539 89.8476 58.5922 89.8337 58.5944C88.1374 59.2732 87.8339 60.9266 86.995 62.229C86.177 63.4717 85.542 63.7994 84.4367 64.7655C83.1737 65.8721 83.512 66.8957 83.5653 68.3299C83.6418 70.2622 83.5028 71.4602 83.1946 73.3329C83.0324 74.3096 83.132 74.5692 83.9083 75.3928C85.4146 76.91 86.8119 78.6763 87.9242 80.4531C88.0656 80.6787 88.1421 80.9234 88.2162 81.1767C88.2626 81.3256 88.3622 81.4831 88.4155 81.6448C88.5499 82.0427 88.6079 82.7769 88.6241 83.2068C88.6334 83.3642 88.5801 83.6281 88.5661 83.8047C88.5499 83.9771 88.5453 84.0729 88.5128 84.2495C88.4619 84.4899 88.4503 84.7155 88.3923 84.9496C88.2324 85.5773 88.2579 86.3285 88.2533 86.9754C88.2533 87.052 88.2417 87.3819 88.3043 87.4202C88.441 87.5032 88.4364 86.8797 88.4364 86.8222C88.4572 86.2009 88.4572 85.5497 88.6449 84.9538C88.7121 84.7453 88.7284 84.5346 88.7909 84.3133C88.8326 84.1644 88.8674 84.0643 88.8929 83.9047C88.9207 83.6962 88.9717 83.543 89.018 83.3493C89.0551 83.1876 89.0621 82.8535 89.0806 82.6748C89.1084 82.2875 89.1385 81.8895 89.1756 81.5065C89.2127 81.0915 89.4143 80.8277 89.6182 80.468C89.8523 80.0552 90.0678 79.6402 90.2717 79.2168C91.1314 77.4314 92.0955 75.4311 92.6748 72.8732C89.6646 71.7624 88.5291 69.1322 87.5071 66.6084C87.667 65.6146 87.4816 65.4125 88.2626 66.1509C89.0922 68.2001 90.4803 70.5686 92.9204 71.6177C93.3375 69.0705 93.3584 66.0019 92.596 62.1311C92.4709 61.5097 92.1951 60.6968 91.8753 59.7562C90.7305 56.411 89.2544 52.3253 91.4281 46.6414C90.9321 44.8539 88.1027 41.3938 87.3403 39.1955C86.2905 36.5802 85.4771 33.5159 85.7807 30.1537C86.1932 29.3876 86.3739 30.3601 86.3647 31.073C86.0727 34.2777 87.0691 36.1972 88.0702 38.687C88.1374 38.8551 88.207 39.021 88.2788 39.1849C92.158 39.0274 98.1646 37.7017 99.8029 33.5542C100.47 32.9116 100.236 33.0073 100.294 33.7394C98.3175 38.1933 93.2217 39.2509 88.4989 39.9042C89.3888 41.7172 90.7305 43.609 91.961 45.2391C92.3341 44.3751 92.2739 44.3815 92.8161 43.4749C93.2425 43.0217 93.8589 43.0493 93.4835 43.7431C90.5984 48.6034 90.7862 51.7443 92.7489 56.8898C92.9343 57.3729 93.2333 57.5538 93.7755 57.2197C95.2771 56.1791 95.7916 53.7808 95.5946 52.2402C95.4231 50.9017 95.3235 50.1654 95.5367 48.8013C95.5645 48.6247 95.7151 47.4458 96.0743 47.5181C96.2782 47.5607 96.0905 48.4885 96.0743 48.6332C95.9075 49.9355 95.933 50.6144 96.1276 51.8997C96.2736 52.8317 96.2829 53.3637 96.1786 54.2979C96.1693 54.366 96.1624 54.4363 96.1531 54.5086C95.9584 55.7428 95.2447 57.3686 94.6399 58.5114C93.8474 59.9925 94.1857 60.4095 94.7697 61.8502C94.823 61.9928 94.8809 62.1332 94.9388 62.2758C96.992 72.7008 93.2078 75.8375 92.355 85.788C92.7211 86.6264 92.9621 87.3351 93.18 88.2118C93.2796 88.6097 93.3538 89.0204 93.4511 89.4226C93.4998 89.6376 93.567 89.8163 93.604 90.0398C93.6759 90.4228 93.706 90.8888 93.7338 91.2804C93.7593 91.5826 93.7802 91.8847 93.7964 92.189C93.8103 92.3805 93.7894 92.6402 93.7802 92.8359C93.7639 93.2445 93.5623 93.7233 93.4047 94.1064C93.3051 94.3447 93.1661 94.5809 93.0664 94.8235C92.9366 95.1299 92.8208 95.3853 92.7119 95.7045C92.6493 95.8832 92.6006 96.0152 92.5589 96.2067C92.5033 96.4429 92.457 96.6046 92.4291 96.8536C92.3828 97.2622 92.2878 97.4622 92.3573 97.8942C92.3944 98.1283 92.4129 98.3347 92.4662 98.5688C92.4755 98.5986 92.5404 98.9369 92.5404 98.9369C92.5821 99.0093 92.6169 98.8943 92.6169 98.8369C92.6122 98.6645 92.5334 98.4432 92.5172 98.2538C92.4778 97.8644 92.4199 97.6963 92.4871 97.2856C92.5172 97.109 92.5496 96.9366 92.5798 96.7578C92.6632 96.1897 92.9413 95.4938 93.1962 94.9682C93.3584 94.6277 93.5415 94.3106 93.6921 93.9616C93.8752 93.5318 94.0304 93.2254 94.0721 92.7508C94.093 92.5253 94.1301 92.3295 94.1347 92.0997C94.1509 91.4251 94.1973 90.7356 94.188 90.0632C94.1857 89.6759 94.1185 89.3354 94.1347 88.9396C94.1556 88.5374 94.2181 88.3884 94.3386 88.0054C95.9376 83.1004 97.7011 79.2189 101.513 75.3779C102.292 74.5543 102.389 74.2947 102.227 73.318C101.916 71.4453 101.784 70.2451 101.854 68.315C101.909 66.8765 102.248 65.853 100.982 64.7506C99.8771 63.7845 99.3649 63.3951 98.4264 62.2141C97.6594 61.2522 97.7845 61.1565 99.3951 62.4141C99.694 62.6482 100.016 62.861 100.336 63.0185C101.258 63.4675 101.872 63.3675 101.712 62.3801C101.518 61.165 101.388 60.1031 101.274 58.8795C101.087 56.9515 100.299 55.0342 100.324 53.1063C100.341 52.0912 100.637 51.5741 100.47 50.4995C100.361 49.793 100.116 45.6732 100.236 45.2093C100.751 45.8881 100.929 47.8246 101.121 49.0886C104.25 44.9496 106.375 40.9703 106.859 36.2738C106.936 35.546 107.209 34.8906 107.202 34.1245C107.369 33.7841 107.568 33.5585 107.724 34.0415C107.54 40.7511 105.83 44.6453 101.675 50.059C101.597 50.193 101.518 50.3228 101.437 50.4569C101.701 51.5741 101.763 50.7889 101.513 52.0082C101.258 53.2488 101.4 55.2087 101.759 56.3898C101.889 56.8132 102.06 57.4963 102.359 57.5453C102.598 57.5793 102.938 57.0473 103.24 56.9218C104.662 56.3238 106.593 54.1937 107.119 53.7C108.333 52.5849 109.691 52.2827 110.81 51.2677C111.969 50.2186 111.777 49.6781 112.011 48.4651C112.082 48.0884 112.486 47.1628 112.465 48.1651C112.437 49.4802 111.855 50.9889 110.629 51.955C109.371 52.9467 108.486 53.0254 107.239 54.3171C106.185 55.4087 105.232 56.4153 104.104 57.4686C103.668 57.8602 102.973 58.3688 102.672 58.8093C102.28 59.503 102.535 60.6777 102.672 61.3905C102.88 62.4631 102.859 63.4781 103.061 64.523C103.277 65.6529 103.297 66.4935 103.339 67.6383C103.376 68.7704 103.286 70.1579 103.974 71.1197C104.115 71.3027 104.34 71.6134 104.628 71.6624C105.17 71.7581 105.888 70.741 106.171 70.4026C106.947 69.4769 107.761 68.6172 108.532 67.7022C109.07 67.0595 110.008 66.2828 110.326 65.6274C111.197 63.8271 110.942 62.6397 110.446 60.8969C110.059 59.7243 109.737 59.1966 108.903 58.2113C108.729 58.0049 108.44 57.541 108.168 57.4686C107.876 57.3963 108.245 57.109 108.903 57.4814C109.983 58.1283 110.472 58.805 111.186 59.703C111.939 60.6755 112.043 63.7015 113.104 61.514C113.204 61.3076 114.024 60.6245 114.597 59.6413C115.301 58.422 115.76 56.8686 115.864 56.5877C116.59 54.6427 115.459 54.7661 114.854 53.4787C114.087 51.8465 113.892 51.1762 113.976 50.2718C114.159 50.3718 114.363 50.4484 114.576 50.4952C114.655 51.157 114.914 51.7741 115.51 52.719C115.702 53.0382 116.251 54.1915 116.87 53.6468C117.482 53.0488 117.628 52.2572 117.762 51.5337C118.033 50.0313 118.434 48.629 118.647 47.1053C118.742 46.4201 118.754 45.4816 118.946 44.8539C119.401 44.6964 119.352 45.0028 119.354 45.3199C119.364 47.2202 119.118 49.1737 118.784 51.074C118.733 51.3613 118.346 52.7466 118.937 52.57C119.484 52.4061 121.125 50.5782 123.143 49.9504C123.275 49.9121 124.756 49.61 123.994 49.9313C123.264 50.2377 122.684 50.425 122.063 50.8931C121.319 51.4528 120.64 52.1572 119.855 52.7573C118.977 53.4212 118.367 53.5276 118.07 54.5278C117.57 56.228 117.099 57.7708 116.453 59.4562C116.082 60.4138 115.619 61.3608 115.264 62.2992C117.642 62.1992 119.931 61.3671 121.961 60.2755C123.043 59.6945 123.373 59.2498 124.214 58.5454C126.028 57.0239 127.398 55.0725 128.54 53.1956C128.895 52.6126 128.661 52.7041 129.335 52.7126C128.552 54.3639 127.356 56.2323 125.996 57.6346C125.558 58.0815 124.647 58.6454 124.589 59.1391C124.489 59.9903 125.97 59.9201 126.668 59.8563C128.359 59.6988 129.182 59.6796 130.575 58.7029C130.579 58.6986 131.523 58.1198 131.191 58.5369C130.528 59.3775 129.877 59.6605 128.751 60.0499C128.139 60.2648 127.185 60.3265 126.533 60.3563C125.912 60.384 125.282 60.2989 124.714 60.3606C123.609 60.4755 122.492 60.6947 121.516 61.199C119.092 62.4567 117.966 63.0227 115.144 63.493C114.509 63.5973 114.687 63.459 114.388 63.9271C112.564 66.7254 110.363 69.262 108.257 71.9241L108.416 71.9092C117.454 71.207 128.146 70.5367 133.553 63.1653C134.225 62.2481 134.542 61.5757 135.075 60.6394C135.462 59.9627 136.025 59.5371 135.627 60.6053C134.357 64.0293 131.467 66.968 127.847 69.0003C131.293 70.2536 135.321 70.6707 140.05 69.0003C140.05 69.0003 140.05 69.0003 140.013 69.4195C135.284 71.0878 131.254 70.6707 126.754 69.8366C124.135 70.6707 120.541 71.0878 117.878 72.3412C126.408 73.5925 132.331 81.1107 142.69 79.021C143.2 79.021 143.67 79.4381 143.163 79.4381C133.349 81.1086 129.194 76.5163 121.799 74.0117C120.314 73.5925 118.789 73.5925 116.752 73.5925C105.283 73.701 103.582 79.6104 101.597 83.6175L101.622 83.6132ZM144.189 46.003C147.908 44.922 149.563 41.681 147.908 38.7976C144.189 39.519 142.532 43.1174 144.189 46.003ZM80.0499 85.3241C77.2599 83.5664 76.852 80.0041 79.4613 77.8825C81.9015 79.4232 82.314 82.9854 80.0499 85.3241ZM104.542 86.5435C107.594 84.8772 108.294 81.1724 105.717 78.7869C103.043 80.2467 102.347 83.9494 104.542 86.5435ZM45.4243 44.7837C41.9784 43.5941 41.0538 40.5298 43.2391 38.372C46.3258 39.8318 47.6096 42.628 45.4243 44.7837ZM53.5396 63.759C50.9975 62.7354 50.3162 60.1116 51.9268 58.2666C54.2047 59.5137 55.1502 61.9119 53.5396 63.759ZM72.4468 70.7367C69.4574 70.0536 68.1852 67.3 69.5686 65.006C72.3124 65.987 73.8325 68.4427 72.4468 70.7367ZM66.2201 60.6904C63.7429 59.0157 63.7011 56.0216 65.9351 54.3852C68.067 56.2514 68.4563 59.054 66.2201 60.6904ZM86.8027 76.5121C88.1652 74.2522 86.9579 71.756 84.4158 71.1772C83.424 73.4712 84.2675 75.9333 86.8027 76.5121ZM88.8419 78.8146C91.5208 77.4186 91.9448 74.4522 89.938 72.5817C87.5836 74.2032 86.8351 76.9441 88.8419 78.8146ZM96.2041 78.5656C98.8806 77.1696 99.307 74.2032 97.3002 72.3327C94.9435 73.9542 94.1973 76.6951 96.2041 78.5656ZM55.4677 72.3178C57.5602 70.243 60.8022 70.5452 62.32 72.7689C60.0629 74.5054 56.9855 74.5437 55.4677 72.3178ZM65.0313 69.6216C63.817 67.0212 65.4368 64.4251 68.264 64.0527C69.0727 66.6531 67.8584 69.2492 65.0313 69.6216ZM78.3143 67.4511C77.0467 65.1167 78.3143 62.2034 81.1715 61.6204C82.7566 63.9527 80.8541 66.5765 78.3143 67.4511ZM87.6624 71.7049C88.9207 69.1237 87.3449 66.5041 84.5201 66.0934C83.6696 68.6832 84.8376 71.2964 87.6624 71.7049ZM101.518 73.5542C101.935 70.7559 99.6198 68.6449 96.7834 68.9811C96.7579 71.6858 98.6813 73.8925 101.518 73.5542ZM113.188 58.373C113.188 55.7428 110.68 53.7702 107.819 54.4277C107.819 56.7302 110.326 58.6986 113.188 58.373ZM129.418 61.8927C132.067 62.6737 134.47 61.116 134.595 58.7476C131.979 58.3007 129.544 59.5264 129.418 61.8927ZM122.863 72.3795C124.564 74.0223 127.718 73.2648 128.978 71.2495C127.085 69.9898 124.126 70.3643 122.863 72.3795ZM128.563 26.6914C126.107 28.396 126.112 31.3879 128.369 32.9988C130.475 31.1113 130.82 28.3045 128.563 26.6914ZM107.209 68.0065C108.579 65.4933 107.209 62.3567 104.136 61.7289C102.431 64.2399 104.479 67.0638 107.209 68.0065ZM114.008 65.1337C112.819 67.1212 114.555 69.6514 117.032 70.143C117.767 68.1044 116.485 65.6274 114.008 65.1337ZM71.7585 80.634C74.3331 82.4215 73.719 86.2902 71.0494 88.0863C68.9939 86.0136 69.0889 82.43 71.7585 80.634ZM64.5933 80.568C67.1864 81.7363 67.3741 85.2326 65.365 87.2329C63.1658 85.7348 62.5819 82.5662 64.5933 80.568ZM67.972 83.1876C65.4183 80.2084 66.3499 75.9226 70.2314 74.3245C72.463 76.9334 71.5384 81.2192 67.972 83.1876ZM61.94 82.0917C63.5412 84.9155 61.0154 88.4076 57.5231 89.0247C56.5637 86.1434 58.4501 82.7088 61.94 82.0917ZM76.8752 81.4405C73.5313 80.966 71.4781 77.9208 72.8338 74.9714C75.7629 75.3906 77.8137 78.4337 76.8752 81.4405ZM65.4994 74.2607C67.1656 77.0483 64.73 80.5957 61.2564 81.2873C60.2275 78.4315 62.0234 74.9523 65.4994 74.2607ZM58.5451 77.1356C60.3758 80.2339 58.3736 84.2325 54.791 84.8198C52.9603 81.7214 54.9625 77.7229 58.5451 77.1356ZM36.8988 81.5256C37.2696 84.8985 34.0763 87.201 30.9896 86.9946C30.5007 83.9452 33.4553 81.2107 36.8988 81.5256ZM52.6475 80.1467C53.0182 83.5217 49.8249 85.8221 46.7383 85.6156C46.2493 82.5662 49.2039 79.8318 52.6475 80.1467ZM46.0129 80.6489C45.1903 84.0452 41.4872 85.937 38.1966 84.424C38.609 81.4022 42.3121 79.5147 46.0129 80.6489ZM41.4617 78.9125C39.8303 81.3107 36.2454 80.9702 34.2895 78.572C36.5698 76.5206 39.8303 76.5206 41.4617 78.9125ZM150.189 72.8243C149.044 75.8035 152.059 78.9167 155.583 79.0784C156.091 76.1205 153.713 72.9839 150.189 72.8243ZM31.3233 69.2492C30.3083 72.2689 33.4576 75.2715 36.9823 75.3013C37.3623 72.3306 34.848 69.2854 31.3233 69.2492ZM120.506 80.5723C117.913 81.7406 117.725 85.2369 119.734 87.2351C121.933 85.7391 122.517 82.5705 120.506 80.5723ZM117.127 83.1919C119.681 80.2127 118.754 75.9269 114.873 74.3288C112.641 76.9377 113.566 81.2235 117.127 83.1919ZM29.4254 52.2572C27.8288 55.0789 30.3501 58.5731 33.8423 59.1881C34.8017 56.3089 32.9153 52.8722 29.4254 52.2572ZM86.7355 24.6464C85.1504 22.0801 86.4018 19.1626 89.1849 18.4178C90.3644 21.0352 89.5186 23.9038 86.7355 24.6464ZM82.6523 17.9901C81.0672 15.4237 82.314 12.5041 85.0971 11.7614C86.2766 14.3789 85.4354 17.2474 82.6523 17.9901ZM76.896 14.0256C74.4397 12.1211 74.5161 8.98864 76.8428 7.40754C78.9353 9.48659 79.225 12.4466 76.896 14.0256ZM78.9029 31.9923C77.3178 29.4259 78.5692 26.5084 81.3523 25.7636C82.5318 28.3811 81.686 31.2496 78.9029 31.9923ZM108.298 82.279C111.786 81.664 113.814 78.3954 112.266 75.3481C109.216 75.8886 107.188 79.1551 108.298 82.279ZM79.3733 23.7314C79.7904 20.931 77.4777 18.82 74.6413 19.1583C74.6158 21.8609 76.5392 24.0676 79.3733 23.7314ZM101.205 68.7215C101.622 65.921 99.307 63.8122 96.4706 64.1484C96.4451 66.8531 98.3685 69.0577 101.205 68.7215ZM92.7489 65.6848C93.1661 62.8844 90.8534 60.7777 88.0169 61.1118C87.9914 63.8165 89.9148 66.0211 92.7489 65.6848ZM84.5178 59.1774C84.9418 56.6877 87.5071 55.4322 89.8337 56.3812C89.1015 58.6944 86.8444 60.1265 84.5178 59.1774ZM89.8013 55.3811C90.8534 52.7232 89.0806 50.2143 86.2303 49.9887C85.5814 52.6275 86.9533 55.1555 89.8013 55.3811ZM85.6926 49.1737C88.7701 49.212 90.7723 46.8521 90.0678 44.3049C87.1456 44.607 84.9882 46.6265 85.6926 49.1737ZM52.5849 37.7826C49.4403 40.3064 45.0651 39.5296 43.3109 36.3802C46.6293 34.3288 50.8307 34.6353 52.5849 37.7826ZM89.2498 43.3664C86.9533 45.2518 83.7577 44.6688 82.4739 42.3216C84.8955 40.7894 87.966 41.0192 89.2498 43.3664ZM85.2222 30.1963C82.1263 28.9003 81.4357 25.8488 83.5445 23.7952C86.2975 25.3423 87.3333 28.1427 85.2222 30.1963ZM71.2255 20.1032C74.4767 19.6371 76.1429 16.6537 74.9286 13.9192C71.9045 14.7449 70.0112 17.3687 71.2255 20.1032ZM66.227 35.4822C69.4783 35.014 71.1444 32.0306 69.9325 29.2961C66.9083 30.1239 65.0151 32.7456 66.227 35.4822ZM72.4468 39.4722C74.6112 38.0975 77.5426 38.8061 78.4996 41.1384C76.6041 42.3407 73.6726 41.6321 72.4468 39.4722ZM68.7715 50.5378C67.5456 47.9714 69.0681 45.0603 72.171 44.573C73.2439 46.818 71.7214 49.7291 68.7715 50.5378ZM77.7349 37.2314C77.6515 34.4054 74.9958 32.669 72.2591 33.4202C72.7086 36.0908 74.9981 37.9826 77.7349 37.2314ZM69.907 18.5753C66.2525 18.2348 64.2921 15.5812 65.562 13.0765C68.9731 13.749 71.1745 16.0706 69.907 18.5753ZM76.9053 32.8073C73.2509 32.4668 71.2904 29.8132 72.5603 27.3086C75.9714 27.9831 78.1729 30.3027 76.9053 32.8073ZM77.2135 18.1156C76.1638 15.4578 77.9365 12.9488 80.7845 12.7233C81.4357 15.3577 80.0615 17.8901 77.2135 18.1156ZM79.466 37.3953C78.4162 34.7374 80.1867 32.2285 83.037 32.0029C83.6858 34.6395 82.314 37.1697 79.466 37.3953ZM80.5412 41.8917C79.4915 39.2338 81.2642 36.7249 84.1122 36.5036C84.7634 39.1381 83.3915 41.6704 80.5412 41.8917ZM71.4874 40.1531C69.177 38.921 69.1886 36.2461 71.3298 34.5352C73.3065 35.9716 73.6263 38.4422 71.4874 40.1531ZM73.7514 48.6566C72.7017 45.9987 74.4744 43.4898 77.3224 43.2643C77.9736 45.903 76.6017 48.431 73.7514 48.6566ZM82.3858 53.7851C83.6117 51.0464 81.3129 47.3245 77.3966 46.9755C76.326 50.2122 78.8194 53.617 82.3858 53.7851ZM63.2748 45.1433C62.225 42.4854 63.9978 39.9786 66.8458 39.7552C67.4969 42.3897 66.1228 44.922 63.2748 45.1433ZM66.7739 46.3541C65.7891 44.1644 67.6337 41.1831 70.769 40.9001C71.6287 43.4941 69.6358 46.2201 66.7739 46.3541ZM69.666 26.6574C66.8458 25.2848 66.0185 21.8396 68.0392 19.2796C71.1027 20.9075 71.6844 24.0974 69.666 26.6574ZM60.7651 26.817C56.6727 28.0704 52.5779 25.9828 52.1237 22.644C55.7596 20.9735 59.8544 23.4782 60.7651 26.817ZM58.019 31.854C53.9289 33.1074 49.8319 31.0198 49.3777 27.6788C53.0159 26.0105 57.1106 28.5151 58.019 31.854ZM66.1482 39.0849C63.1635 40.1148 59.8057 38.3997 59.0595 35.3162C62.415 34.2863 65.4021 36.0014 66.1482 39.0849ZM62.7673 42.4258C58.6748 43.6771 54.5801 41.5895 54.1236 38.2507C57.7618 36.5802 61.8565 39.0849 62.7673 42.4258ZM55.952 43.9601C52.7262 45.9072 48.8725 44.6581 47.744 41.5449C51.0601 40.0553 54.8211 40.8469 55.952 43.9601ZM53.0785 46.8372C51.5931 49.2269 47.5007 49.5674 45.2691 47.5181C46.7591 44.7879 51.2177 44.4474 53.0785 46.8372ZM77.9365 26.9638C74.6853 28.1959 71.4341 26.1403 71.0703 22.8547C73.96 21.2076 77.2089 23.6782 77.9365 26.9638ZM65.27 33.6968C62.0164 34.9289 58.7675 32.8733 58.4037 29.5876C61.2934 27.9448 64.5423 30.4112 65.27 33.6968ZM65.0197 48.6098C60.9273 49.8632 56.8302 47.7756 56.376 44.4347C60.0143 42.7663 64.109 45.271 65.0197 48.6098ZM35.7657 64.2527C31.6733 65.504 27.5785 63.4164 27.122 60.0776C30.7602 58.4071 34.855 60.9117 35.7657 64.2527ZM61.0779 57.8176C59.8636 55.2172 61.4811 52.6211 64.3129 52.2487C65.124 54.8491 63.9097 57.4452 61.0779 57.8176ZM91.4165 22.6738C91.4165 19.8691 94.0884 17.7666 97.138 18.4689C97.138 20.9224 94.4638 23.0228 91.4165 22.6738ZM70.5859 59.0923C70.5859 56.2897 73.2602 54.1915 76.3098 54.8874C76.3098 57.3431 73.6356 59.4413 70.5859 59.0923ZM65.2607 63.4866C64.8899 66.1977 61.5692 68.5725 58.6169 67.5532C58.6169 64.5038 61.9353 62.4673 65.2607 63.4866ZM56.2857 75.6694C53.1017 76.5036 49.4658 74.416 49.4658 71.4943C52.1933 70.6601 55.8315 72.7477 56.2857 75.6694ZM76.8798 63.0717C75.6076 60.7394 76.8798 57.8262 79.7371 57.2431C81.3268 59.5754 79.4196 62.1992 76.8798 63.0717ZM43.7049 47.25C40.9241 48.2076 37.7957 46.6116 37.1005 43.7388C40.2265 42.7812 43.0097 44.3772 43.7049 47.25ZM43.9551 57.5793C41.1743 58.5369 38.0459 56.9409 37.3507 54.0681C40.4768 53.1105 43.2599 54.7086 43.9551 57.5793ZM41.9993 59.9478C39.6727 62.4375 35.7981 62.7929 33.4715 60.3031C35.4111 57.8091 39.2857 57.4538 41.9993 59.9478ZM47.6443 55.2215C44.3143 55.9833 40.9959 53.3127 40.9959 49.8781C44.319 49.1163 47.6443 51.7848 47.6443 55.2215ZM44.9145 68.9811C42.7501 71.3027 39.142 70.9708 36.9776 68.6491C39.142 66.6616 43.1139 66.6616 44.9145 68.9811ZM44.0061 62.0417C43.6052 64.9805 39.6101 67.1787 36.0113 65.7104C36.8108 62.4099 40.8082 60.5755 44.0061 62.0417ZM49.3453 58.1432C48.3511 60.8862 44.6225 61.6097 42.3307 59.7626C43.4476 57.3112 46.8634 56.7068 49.3453 58.1432ZM66.4147 30.0771C62.3246 28.8237 60.5055 25.0678 62.3246 21.7247C66.4147 22.5589 68.2338 26.734 66.4147 30.0771ZM49.9153 69.4067C45.8252 68.1554 44.0061 64.3974 45.8252 61.0543C49.9153 61.8885 51.7344 66.0636 49.9153 69.4067ZM40.8499 48.6141C38.8547 51.0996 34.9592 51.5294 32.6234 49.7589C34.6812 46.9372 38.5766 46.5031 40.8499 48.6141ZM62.5958 61.9268C60.6029 64.4123 56.7051 64.8422 54.3716 63.0717C56.427 60.2499 60.3225 59.818 62.5958 61.9268ZM59.18 34.482C57.6946 36.8718 53.6022 37.2123 51.3729 35.163C52.8606 32.4328 57.3192 32.0923 59.18 34.482ZM55.514 56.0599C54.0286 58.4497 49.9362 58.7901 47.7092 56.7409C49.1946 54.0107 53.6578 53.6702 55.514 56.0599ZM41.3736 42.0534C37.6659 43.1877 33.9581 41.2959 33.5457 38.2699C36.8455 36.7569 40.5486 39.0274 41.3736 42.0534ZM55.3726 53.9915C51.6649 55.1257 47.9549 53.2339 47.5424 50.2079C50.8376 48.6949 54.5454 50.9655 55.3726 53.9915ZM49.0069 78.5954C44.9145 77.342 43.0977 73.5861 44.9145 70.243C49.0069 71.0772 50.3741 75.2523 49.0069 78.5954ZM44.0061 78.1783C40.3656 78.5954 36.7274 75.6737 37.1862 71.9156C40.8244 71.0814 44.4603 74.0032 44.0061 78.1783ZM114.608 27.7874C113.503 24.9061 115.368 22.1843 118.362 21.9418C119.041 24.7997 117.605 27.5448 114.608 27.7874ZM97.7799 25.6466C96.6745 22.7653 98.54 20.0415 101.534 19.801C102.213 22.6589 100.774 25.3997 97.7799 25.6466ZM88.2788 36.2057C87.1734 33.3244 89.0389 30.6027 92.0329 30.3601C92.7119 33.218 91.2728 35.9631 88.2788 36.2057ZM93.6504 37.9294C96.1693 36.2972 96.2736 33.3095 94.0768 31.6326C91.9077 33.4542 91.4582 36.2504 93.6504 37.9294ZM98.8343 19.0009C97.6084 15.8174 99.6778 12.8105 102.999 12.5424C103.752 15.7003 102.155 18.7327 98.8343 19.0009ZM92.5867 29.3302C91.3609 26.1467 93.4302 23.1419 96.7487 22.8738C97.5041 26.0296 95.9075 29.062 92.5867 29.3302ZM87.3774 30.1814C86.3276 27.5235 88.1004 25.0146 90.9484 24.7869C91.5995 27.4235 90.2277 29.9537 87.3774 30.1814ZM96.9619 17.3197C98.0139 14.6619 96.2412 12.153 93.3932 11.9274C92.742 14.5661 94.1138 17.0942 96.9619 17.3197ZM98.964 34.3054C100.016 31.6475 98.2433 29.1386 95.3953 28.9131C94.7442 31.5475 96.116 34.0798 98.964 34.3054ZM97.81 14.1873C100.992 12.7467 101.701 9.35253 99.5318 7.07132C96.7046 8.79074 95.641 11.904 97.81 14.1873ZM100.058 31.6326C103.24 30.192 103.949 26.7978 101.78 24.5166C98.9524 26.2361 97.8888 29.3493 100.058 31.6326ZM79.517 20.1159C82.3951 19.1115 85.155 20.7054 85.4377 23.3164C82.5782 23.9485 79.7997 22.727 79.517 20.1159ZM90.8487 39.8552C93.7269 38.8508 96.4868 40.4447 96.7695 43.0579C93.9099 43.6899 91.1361 42.4663 90.8487 39.8552ZM117.649 20.2755C119.818 17.5411 118.78 13.949 115.688 12.6424C113.98 15.5003 114.56 18.9711 117.649 20.2755ZM124.459 37.5804C127.231 35.3503 127.071 31.6369 124.369 29.7409C122.017 32.1838 121.757 35.6844 124.459 37.5804ZM93.5252 53.5978C95.9028 51.8018 95.7731 48.8141 93.4465 47.2862C91.4234 49.2503 91.1986 52.0699 93.5252 53.5978ZM97.1125 54.2979C100.028 53.3893 101.054 50.5527 99.4646 48.3693C96.8159 49.5525 95.5228 52.1146 97.1125 54.2979ZM100.127 61.414C101.179 58.7561 99.4066 56.2472 96.5586 56.0216C95.9075 58.6603 97.2793 61.1884 100.127 61.414ZM119.639 28.1959C120.186 25.7679 123.685 24.1719 126.587 25.6232C125.678 28.3343 122.205 29.6217 119.639 28.1959ZM93.1429 46.4073C93.6875 43.9793 97.1866 42.3875 100.09 43.8346C99.1819 46.5456 95.7105 47.8331 93.1429 46.4073ZM95.882 38.6635C98.9015 38.1167 101.332 40.1106 101.138 42.728C98.2016 42.911 95.6873 41.2789 95.882 38.6635ZM114.163 33.3372C112.861 30.6219 115.056 28.0512 118.576 27.8257C119.375 30.5218 117.683 33.1095 114.163 33.3372ZM152.237 47.499C150.228 45.3901 146.708 45.4284 144.914 47.799C146.673 49.6398 150.189 49.6057 152.237 47.499ZM135.237 34.8757C133.228 32.769 129.71 32.803 127.917 35.1758C129.678 37.0207 133.193 36.9867 135.237 34.8757ZM130.403 22.1758C128.394 20.0691 124.874 20.1032 123.081 22.4738C124.839 24.3209 128.355 24.2826 130.403 22.1758ZM115.406 36.8675C113.396 34.7565 109.874 34.7949 108.085 37.1654C109.846 39.0083 113.362 38.9742 115.406 36.8675ZM116.14 50.5399C117.366 47.9757 115.843 45.0646 112.745 44.5772C111.668 46.8223 113.195 49.7334 116.14 50.5399ZM109.007 33.6308C107.772 30.8198 109.851 28.1619 113.19 27.9236C113.95 30.7176 112.349 33.3946 109.007 33.6308ZM107.74 32.2838C108.82 29.1727 106.998 26.2361 104.069 25.9722C103.402 29.0578 104.813 32.0178 107.74 32.2838ZM105.863 37.2463C106.915 34.5884 105.142 32.0795 102.292 31.854C101.643 34.4884 103.015 37.0207 105.863 37.2463ZM104.37 41.896C105.42 39.2381 103.647 36.7292 100.799 36.5079C100.148 39.1423 101.52 41.6747 104.37 41.896ZM112.015 43.9197C113.065 41.2597 111.292 38.7529 108.444 38.5252C107.793 41.1618 109.167 43.692 112.015 43.9197ZM111.156 48.663C112.208 46.0051 110.435 43.4984 107.585 43.2707C106.936 45.9094 108.308 48.4374 111.156 48.663ZM102.521 53.7915C101.295 51.0549 103.594 47.3309 107.51 46.9819C108.586 50.2186 106.092 53.6234 102.521 53.7915ZM112.481 27.1362C113.533 24.4783 111.76 21.9694 108.912 21.7439C108.261 24.3826 109.633 26.9106 112.481 27.1362ZM117.813 45.0412C118.863 42.3833 117.09 39.8744 114.242 39.6488C113.591 42.2875 114.963 44.8156 117.813 45.0412ZM120.478 23.9038C123.222 22.4142 123.875 18.9392 121.732 16.4685C118.754 18.2241 118.335 21.4374 120.478 23.9038ZM117.229 39.2849C119.973 37.7953 120.626 34.3161 118.483 31.8476C115.505 33.601 115.083 36.8143 117.229 39.2849ZM119.5 43.6133C122.501 42.6089 123.834 39.3041 122.221 36.5121C118.942 37.7379 117.887 40.8235 119.5 43.6133ZM122.142 42.4322C126.232 43.6856 130.329 41.5981 130.783 38.2571C127.147 36.5888 123.05 39.0934 122.142 42.4322ZM131.071 32.1136C133.991 33.7798 137.478 32.7115 138.5 30.043C135.501 28.7662 132.093 29.4451 131.071 32.1136ZM136.994 48.2225C141.172 48.3566 143.563 45.056 142.27 41.4299C138.345 41.7853 135.701 44.5964 136.994 48.2225ZM133.958 38.7678C136.368 40.4064 140.259 39.2041 141.401 36.5036C138.845 34.5544 134.612 35.895 133.958 38.7678ZM128.96 46.5733C131.372 48.2076 135.263 47.0095 136.405 44.3091C133.845 42.3599 129.615 43.7005 128.96 46.5733ZM103.777 25.2082C107.937 24.1549 110.066 20.3266 108.416 17.3197C104.377 17.7943 102.505 21.9737 103.777 25.2082ZM119.89 48.6141C123.98 49.8674 128.077 47.7799 128.531 44.4389C124.895 42.7706 120.798 45.2752 119.89 48.6141ZM131.421 28.928C135.191 28.8365 137.874 25.9935 137.161 23.1249C133.627 22.7504 131.085 25.9339 131.421 28.928ZM124.239 51.9571C127.813 53.0531 131.393 51.2272 131.794 48.3076C128.61 46.8478 125.036 49.0397 124.239 51.9571ZM127.722 53.7042C125.544 51.706 122.316 52.1231 120.895 54.4022C123.227 56.0514 126.299 55.9833 127.722 53.7042ZM115.394 56.2323C115.394 54.1979 113.454 52.6785 111.244 53.1829C111.244 54.964 113.179 56.4855 115.394 56.2323ZM119.602 74.2628C117.934 77.0526 120.369 80.5978 123.843 81.2916C124.874 78.4337 123.071 74.9565 119.602 74.2628ZM149.797 66.6765C150.223 69.8174 154.068 72.5625 157.488 71.3921V71.1453C157.317 67.749 153.556 65.5274 149.797 66.6765ZM116.803 64.3825C117.232 67.5234 121.083 70.2728 124.501 69.0939C124.501 65.5572 120.652 63.2036 116.803 64.3825ZM128.626 75.6779C131.81 76.5121 135.446 74.4245 135.446 71.5028C132.718 70.6665 129.082 72.754 128.626 75.6779ZM108.398 63.3483C109.767 60.8351 108.398 57.7027 105.325 57.0707C103.62 59.5839 105.666 62.4056 108.398 63.3483ZM140.959 57.4814C144.836 58.7986 149.192 56.6004 150.161 52.6551C145.802 51.3379 141.927 53.5319 140.959 57.4814ZM143.357 59.4796C145.881 62.18 150.077 62.5673 152.601 59.8669C150.499 57.1665 146.298 56.7792 143.357 59.4796ZM137.272 55.213C140.91 56.0493 144.546 53.1254 144.546 49.3695C140.91 48.5289 137.272 51.4571 137.272 55.213ZM140.002 68.5768C142.729 71.4985 147.274 71.0814 150.006 68.1597C147.278 65.6529 142.273 65.6529 140.002 68.5768ZM140.91 62.046C141.311 64.9826 145.306 67.1829 148.905 65.7146C148.105 62.4141 144.108 60.5798 140.91 62.046ZM149.823 50.342C150.812 53.0828 154.541 53.8085 156.837 51.9614C155.716 49.5099 152.304 48.9056 149.823 50.342ZM135.576 58.1475C136.563 60.8883 140.294 61.614 142.59 59.7669C141.469 57.3154 138.057 56.7111 135.576 58.1475ZM135.001 69.411C139.091 68.1597 140.91 64.4017 139.091 61.0586C135.001 61.8927 133.182 66.0679 135.001 69.411ZM121.813 61.8927C123.63 65.2316 128.176 66.485 131.363 64.8145C129.544 61.0586 124.999 59.8052 121.813 61.8927ZM149.394 63.2951C150.882 65.6848 154.969 66.0253 157.201 63.9761C155.711 61.2458 151.252 60.9054 149.394 63.2951ZM127.646 56.1791C129.131 58.5688 133.224 58.9093 135.455 56.86C133.965 54.1298 129.507 53.7893 127.646 56.1791ZM129.541 53.9958C133.249 55.13 136.957 53.2361 137.365 50.2122C134.069 48.6992 130.362 50.9697 129.541 53.9958ZM126.55 77.1398C124.719 80.2382 126.721 84.2367 130.304 84.8219C132.134 81.7235 130.132 77.725 126.55 77.1398ZM132.452 80.151C132.081 83.5238 135.274 85.8263 138.361 85.6199C138.85 82.5705 135.898 79.836 132.452 80.151ZM139.086 80.6532C139.909 84.0494 143.612 85.9412 146.903 84.4282C146.495 81.4065 142.792 79.5189 139.086 80.6532ZM135.905 78.5996C139.997 77.3463 141.814 73.5903 139.997 70.2451C135.905 71.0814 134.542 75.2566 135.905 78.5996ZM140.905 78.1826C144.544 78.5996 148.18 75.6779 147.725 71.9199C144.087 71.0857 140.451 74.0074 140.905 78.1826ZM143.633 79.304C145.339 81.8044 149.093 81.449 151.141 78.9486C148.752 76.8036 145.339 76.8036 143.633 79.304Z" fill="#265121"/>
</g>
<path d="M69.2052 140.206V150.766H66.8212V144.55L66.9252 142.782L66.5172 144.806L64.7412 149.918H62.3972L60.6292 144.806L60.2292 142.782L60.3332 144.55V150.766H57.9412V140.206H61.3012L63.4292 147.254L63.5732 148.094L63.7172 147.254L65.8452 140.206H69.2052ZM74.5374 140.206H76.9134L81.0814 150.766H78.5294L77.7614 148.646H73.6974L72.9214 150.766H70.3614L74.5374 140.206ZM74.4974 146.55H76.9694L75.7454 143.086H75.7214L74.4974 146.55ZM87.0492 148.59C87.5398 148.59 87.9852 148.518 88.3852 148.374C88.7905 148.23 89.0918 148.088 89.2892 147.95L90.3132 149.982C90.0625 150.195 89.6332 150.411 89.0252 150.63C88.4225 150.848 87.7052 150.958 86.8732 150.958C86.0945 150.958 85.3638 150.822 84.6812 150.55C83.9985 150.278 83.3958 149.896 82.8732 149.406C82.3558 148.91 81.9478 148.331 81.6492 147.67C81.3558 147.003 81.2092 146.28 81.2092 145.502C81.2092 144.723 81.3558 144 81.6492 143.334C81.9425 142.662 82.3478 142.078 82.8652 141.582C83.3878 141.086 83.9905 140.702 84.6732 140.43C85.3612 140.152 86.0945 140.014 86.8732 140.014C87.7052 140.014 88.4225 140.123 89.0252 140.342C89.6332 140.56 90.0625 140.776 90.3132 140.99L89.2892 143.022C89.0918 142.878 88.7905 142.736 88.3852 142.598C87.9852 142.454 87.5398 142.382 87.0492 142.382C86.5052 142.382 86.0305 142.467 85.6252 142.638C85.2198 142.803 84.8812 143.032 84.6092 143.326C84.3372 143.619 84.1345 143.95 84.0012 144.318C83.8678 144.686 83.8012 145.072 83.8012 145.478C83.8012 145.888 83.8678 146.28 84.0012 146.654C84.1345 147.022 84.3372 147.352 84.6092 147.646C84.8812 147.939 85.2198 148.171 85.6252 148.342C86.0305 148.507 86.5052 148.59 87.0492 148.59ZM95.1937 140.206H97.5697L101.738 150.766H99.1857L98.4177 148.646H94.3537L93.5777 150.766H91.0177L95.1937 140.206ZM95.1537 146.55H97.6257L96.4017 143.086H96.3777L95.1537 146.55ZM104.798 142.398L104.974 142.43V150.766H102.582V140.206H105.846L110.126 148.526L109.95 148.558V140.206H112.342V150.766H109.062L104.798 142.398ZM117.569 140.206H119.945L124.113 150.766H121.561L120.793 148.646H116.729L115.953 150.766H113.393L117.569 140.206ZM117.529 146.55H120.001L118.777 143.086H118.753L117.529 146.55Z" fill="#265121"/>
</svg>
